<?xml version="1.0" encoding="utf-8"?>
<!-- Generator: Adobe Illustrator 27.5.0, SVG Export Plug-In . SVG Version: 6.00 Build 0)  -->
<svg version="1.1" xmlns="http://www.w3.org/2000/svg" xmlns:xlink="http://www.w3.org/1999/xlink" x="0px" y="0px"
	 viewBox="0 0 500 500" style="enable-background:new 0 0 500 500;" xml:space="preserve">
<g id="Background_complete">
	<g>
		<path style="fill:#F5F5F5;" d="M257.151,432.867l-8.396-128.99l0.284-0.02l9.535,128.911
			C258.1,432.803,257.626,432.836,257.151,432.867z M231.098,432.778l-1.24-0.096l10.308-128.851l0.466,0.035L231.098,432.778z
			 M284.816,428.913l-28.202-126.149l0.612-0.137l28.648,126.048L284.816,428.913z M203.817,428.709l-1.217-0.28l29.373-125.882
			l0.45,0.104L203.817,428.709z M311.109,420.988l-46.429-120.637l0.338-0.131l47.348,120.279
			C311.949,420.663,311.53,420.826,311.109,420.988z M177.381,420.582l-1.16-0.459l47.876-120.07l0.437,0.173L177.381,420.582z
			 M336.163,409.105l-64.132-112.232l0.431-0.247l64.751,111.876L336.163,409.105z M152.43,408.564
			c-0.384-0.221-0.767-0.445-1.149-0.67l65.523-111.425l0.332,0.194L152.43,408.564z M358.909,393.796l-79.862-101.641l0.248-0.197
			l80.703,100.975C359.637,393.222,359.273,393.51,358.909,393.796z M129.697,393.06c-0.402-0.32-0.802-0.641-1.201-0.965
			L210.08,291.83l0.133,0.107L129.697,393.06z M379.315,375.119l-94.207-88.51l0.299-0.32l94.778,87.899L379.315,375.119z
			 M109.456,374.299l-0.811-0.878l95.144-87.502l0.349,0.378L109.456,374.299z M396.571,353.815L290.443,280.02l0.157-0.228
			l106.785,72.842C397.116,353.029,396.845,353.422,396.571,353.815z M92.262,352.796c-0.255-0.373-0.51-0.748-0.762-1.123
			l107.228-72.187l0.197,0.29L92.262,352.796z M410.677,329.815l-116.145-56.739l0.264-0.542l116.367,56.282L410.677,329.815z
			 M78.416,328.908c-0.198-0.41-0.395-0.821-0.59-1.232l116.816-55.344l0.146,0.305L78.416,328.908z M420.899,304.305
			l-123.222-39.052l0.093-0.302l123.547,38.015C421.179,303.412,421.04,303.859,420.899,304.305z M68.273,303.14
			c-0.129-0.418-0.257-0.836-0.383-1.254l123.78-37.249l0.117,0.381L68.273,303.14z M427.257,277.223l-127.733-19.827l0.072-0.473
			l127.847,19.081L427.257,277.223z M62.126,276.223c-0.066-0.438-0.13-0.875-0.193-1.313l127.956-18.334l0.055,0.379
			L62.126,276.223z M429.468,250.001l-129.258-1.147l0.001-0.533h129.263v0.252C429.474,249.049,429.473,249.526,429.468,250.001z
			 M189.324,248.698H60.061l0.003-1.191l129.261,0.671L189.324,248.698z M299.626,240.431l-0.04-0.273l127.79-19.454
			c0.072,0.473,0.142,0.946,0.21,1.42L299.626,240.431z M189.937,240.238L62.059,221.371c0.066-0.447,0.134-0.894,0.203-1.34
			l127.729,19.857L189.937,240.238z M297.901,232.622l-0.181-0.59l123.497-38.176l0.321,1.046L297.901,232.622z M191.737,232.286
			L68.174,194.325l0.38-1.221l123.314,38.761L191.737,232.286z M294.934,224.896l-0.222-0.464l116.335-56.347l0.517,1.073
			L294.934,224.896z M194.721,224.648L78.28,168.52l0.523-1.077l116.145,56.739L194.721,224.648z M290.871,217.75l-0.331-0.486
			l106.662-73.02l0.63,0.925L290.871,217.75z M198.895,217.412L92.05,144.659c0.25-0.367,0.501-0.733,0.754-1.099l106.306,73.539
			L198.895,217.412z M285.524,210.981l-0.163-0.176l94.587-88.103c0.334,0.359,0.667,0.719,0.997,1.08L285.524,210.981z
			 M204.088,210.9l-94.866-87.803c0.301-0.325,0.603-0.649,0.907-0.972l94.219,88.497L204.088,210.9z M279.509,205.357l-0.285-0.229
			l80.517-101.123c0.351,0.279,0.702,0.56,1.051,0.843L279.509,205.357z M210.2,205.218l-80.82-100.882
			c0.362-0.29,0.725-0.578,1.089-0.865l79.98,101.549L210.2,205.218z M272.736,200.677l-0.373-0.217l64.563-111.985l1.108,0.644
			L272.736,200.677z M217.036,200.539L152.142,88.746c0.383-0.222,0.767-0.443,1.151-0.662l64.07,112.267L217.036,200.539z
			 M265.255,197.018l-0.338-0.134l47.088-120.381c0.421,0.165,0.84,0.33,1.257,0.497L265.255,197.018z M224.482,196.938
			L176.969,76.724c0.424-0.168,0.85-0.334,1.275-0.498l46.556,120.587L224.482,196.938z M257.441,194.568l-0.34-0.078
			l28.384-126.108c0.444,0.1,0.886,0.201,1.328,0.304L257.441,194.568z M232.278,194.526L203.449,68.519
			c0.449-0.103,0.899-0.204,1.35-0.303l27.799,126.238L232.278,194.526z M249.235,193.302l-0.364-0.027l9.345-128.925
			c0.448,0.032,0.895,0.067,1.341,0.102L249.235,193.302z M240.472,193.289l-9.738-128.896c0.446-0.034,0.893-0.066,1.341-0.096
			l8.763,128.965L240.472,193.289z"/>
	</g>
	<g>
		<path style="fill:#E0E0E0;" d="M151.59,373.2c0.635,2.206-0.837,4.566-3.288,5.272c-2.451,0.706-4.953-0.51-5.588-2.716
			c-0.635-2.206,0.837-4.566,3.288-5.272C148.452,369.778,150.954,370.994,151.59,373.2z"/>
		<line style="fill:none;stroke:#E0E0E0;stroke-miterlimit:10;" x1="151.162" y1="373.193" x2="140.518" y2="353.056"/>
		<path style="fill:#E0E0E0;" d="M140.449,352.927c0,0,3.033,5.737,3.036,5.742c-0.038-0.072,0.575-0.598,0.624-0.641
			c1.273-1.135,2.911-1.554,4.583-1.616c1.166-0.044,2.338,0.034,3.499-0.085c2.6-0.267,4.582-1.982,6.166-3.951
			c0.127-0.158,0.251-0.318,0.374-0.479c0.18-0.237,0.359-0.478,0.521-0.728c-1.941,0.384-3.929,0.543-5.905,0.404
			c-1.944-0.137-3.846-0.637-5.805-0.607c-2.399,0.037-4.849,0.55-6.901,1.838C140.577,352.844,140.513,352.885,140.449,352.927z"/>
	</g>
	<g>
		<path style="fill:#E0E0E0;" d="M316.977,193.074c0.635,2.206-0.837,4.566-3.288,5.272c-2.451,0.706-4.953-0.51-5.588-2.716
			c-0.635-2.206,0.837-4.566,3.288-5.272C313.84,189.652,316.342,190.868,316.977,193.074z"/>
		<line style="fill:none;stroke:#E0E0E0;stroke-miterlimit:10;" x1="316.55" y1="193.067" x2="305.905" y2="172.93"/>
		<path style="fill:#E0E0E0;" d="M305.837,172.802c0,0,3.033,5.737,3.036,5.742c-0.038-0.072,0.575-0.598,0.624-0.641
			c1.273-1.135,2.911-1.554,4.582-1.617c1.166-0.044,2.338,0.034,3.499-0.085c2.6-0.267,4.583-1.982,6.166-3.951
			c0.127-0.158,0.251-0.318,0.374-0.479c0.18-0.237,0.359-0.478,0.521-0.728c-1.941,0.384-3.929,0.543-5.905,0.404
			c-1.944-0.137-3.846-0.637-5.805-0.607c-2.399,0.037-4.849,0.55-6.901,1.838C305.964,172.718,305.9,172.76,305.837,172.802z"/>
	</g>
	<g>
		<g>
			<path style="fill:#E0E0E0;" d="M316.576,362.487c-0.518,1.087-1.865,1.522-3.008,0.973c-1.143-0.55-1.65-1.877-1.132-2.963
				c0.518-1.087,1.865-1.522,3.008-0.973C316.588,360.073,317.094,361.4,316.576,362.487z"/>
			<line style="fill:none;stroke:#E0E0E0;stroke-miterlimit:10;" x1="316.424" y1="362.341" x2="319.41" y2="350.8"/>
		</g>
		<g>
			<path style="fill:#E0E0E0;" d="M324.485,366.037c-0.518,1.087-1.88,1.515-3.042,0.957c-1.162-0.559-1.683-1.893-1.165-2.98
				c0.518-1.087,1.88-1.515,3.042-0.956C324.481,363.616,325.003,364.95,324.485,366.037z"/>
			<line style="fill:none;stroke:#E0E0E0;stroke-miterlimit:10;" x1="324.333" y1="365.892" x2="327.318" y2="354.351"/>
		</g>
		<polygon style="fill:#E0E0E0;" points="326.299,358.036 318.319,354.763 318.682,353.359 326.685,356.545 		"/>
		<polygon style="fill:#E0E0E0;" points="327.15,355.974 327.783,353.584 319.284,350.1 318.654,352.796 		"/>
	</g>
	<g>
		<g>
			<path style="fill:#E0E0E0;" d="M149.879,87.863c-0.833,1.746-2.996,2.445-4.833,1.562c-1.837-0.883-2.65-3.015-1.818-4.761
				c0.833-1.746,2.996-2.445,4.833-1.562C149.898,83.985,150.712,86.117,149.879,87.863z"/>
			<line style="fill:none;stroke:#E0E0E0;stroke-miterlimit:10;" x1="149.636" y1="87.629" x2="154.432" y2="69.089"/>
		</g>
		<g>
			<path style="fill:#E0E0E0;" d="M162.584,93.567c-0.833,1.746-3.021,2.434-4.887,1.537c-1.866-0.898-2.704-3.04-1.872-4.787
				c0.833-1.746,3.02-2.434,4.887-1.536C162.579,89.678,163.417,91.821,162.584,93.567z"/>
			<line style="fill:none;stroke:#E0E0E0;stroke-miterlimit:10;" x1="162.341" y1="93.333" x2="167.137" y2="74.793"/>
		</g>
		<polygon style="fill:#E0E0E0;" points="165.499,80.713 152.679,75.455 153.262,73.199 166.119,78.318 		"/>
		<polygon style="fill:#E0E0E0;" points="166.866,77.4 167.882,73.562 154.23,67.965 153.218,72.295 		"/>
	</g>
	<g>
		<g>
			<g>
				<g>
					<g>
						<path style="fill:#E0E0E0;" d="M443.92,325.541H263.174c-3.232,0-5.862-2.63-5.862-5.862V56.405
							c0-3.232,2.63-5.862,5.862-5.862H443.92c3.232,0,5.862,2.629,5.862,5.862v263.273
							C449.783,322.911,447.153,325.541,443.92,325.541z M263.174,50.793c-3.095,0-5.612,2.518-5.612,5.612v263.273
							c0,3.095,2.518,5.612,5.612,5.612H443.92c3.095,0,5.612-2.518,5.612-5.612V56.405c0-3.094-2.518-5.612-5.612-5.612H263.174z"
							/>
					</g>
				</g>
				<g>
					<g>
						<path style="fill:#E0E0E0;" d="M235.493,325.541H54.746c-3.232,0-5.862-2.63-5.862-5.862V56.405
							c0-3.232,2.629-5.862,5.862-5.862h180.747c3.232,0,5.862,2.629,5.862,5.862v263.273
							C241.355,322.911,238.725,325.541,235.493,325.541z M54.746,50.793c-3.094,0-5.612,2.518-5.612,5.612v263.273
							c0,3.095,2.518,5.612,5.612,5.612h180.747c3.095,0,5.612-2.518,5.612-5.612V56.405c0-3.094-2.518-5.612-5.612-5.612H54.746z"
							/>
					</g>
				</g>
			</g>
			<g>
				<g>
					<rect x="0" y="386.61" style="fill:#E0E0E0;" width="500" height="0.25"/>
				</g>
			</g>
		</g>
		<rect x="51.672" y="400.875" style="fill:#E0E0E0;" width="16.06" height="0.25"/>
		<rect x="170.352" y="398.165" style="fill:#E0E0E0;" width="53.53" height="0.25"/>
		<rect x="68.732" y="410.165" style="fill:#E0E0E0;" width="36.25" height="0.25"/>
		<rect x="378.352" y="398.035" style="fill:#E0E0E0;" width="43.19" height="0.25"/>
		<rect x="430.452" y="398.035" style="fill:#E0E0E0;" width="6.33" height="0.25"/>
		<rect x="316.212" y="404.265" style="fill:#E0E0E0;" width="53.89" height="0.25"/>
	</g>
	<polygon style="fill:#F0F0F0;" points="69.157,288.37 72.654,303.535 87.82,307.033 72.654,310.531 69.157,325.696 65.659,310.531 
		50.493,307.033 65.659,303.535 	"/>
	<polygon style="fill:#F0F0F0;" points="80.722,104.039 84.22,119.205 99.385,122.702 84.22,126.2 80.722,141.366 77.224,126.2 
		62.059,122.702 77.224,119.205 	"/>
	<polygon style="fill:#F0F0F0;" points="423.873,219.01 427.371,234.175 442.537,237.673 427.371,241.171 423.873,256.336 
		420.376,241.171 405.21,237.673 420.376,234.175 	"/>
	<polygon style="fill:#F0F0F0;" points="392.877,72.338 396.374,87.503 411.54,91.001 396.374,94.499 392.877,109.664 
		389.379,94.499 374.213,91.001 389.379,87.503 	"/>
	<polygon style="fill:#E6E6E6;" points="115.464,259.855 116.885,266.017 123.047,267.438 116.885,268.859 115.464,275.021 
		114.043,268.859 107.882,267.438 114.043,266.017 	"/>
	<polygon style="fill:#E6E6E6;" points="387.767,291.622 389.188,297.783 395.349,299.204 389.188,300.625 387.767,306.787 
		386.346,300.625 380.184,299.204 386.346,297.783 	"/>
	<polygon style="fill:#E6E6E6;" points="133.658,167.558 135.08,173.719 141.241,175.141 135.08,176.562 133.658,182.723 
		132.237,176.562 126.076,175.141 132.237,173.719 	"/>
	<polygon style="fill:#E6E6E6;" points="251.736,35.378 253.157,41.539 259.319,42.961 253.157,44.382 251.736,50.543 
		250.315,44.382 244.153,42.961 250.315,41.539 	"/>
	<polygon style="fill:#E6E6E6;" points="431.456,155.825 432.877,161.986 439.039,163.408 432.877,164.829 431.456,170.99 
		430.035,164.829 423.873,163.408 430.035,161.986 	"/>
	<polygon style="fill:#E6E6E6;" points="364.842,150.685 366.263,156.846 372.425,158.267 366.263,159.689 364.842,165.85 
		363.421,159.689 357.26,158.267 363.421,156.846 	"/>
</g>
<g id="Background_simple" style="display:none;">
	<g style="display:inline;">
		<path style="fill:#407BFF;" d="M185.766,91.826c-21.564,2.847-42.358,8.907-60.801,18.413
			c-21.737,11.204-43.946,28.659-37.386,51.49c12.11,42.149,70.206,42.917,58.607,71.257c-13.139,32.101-4.328,69.757,54.63,80.228
			c111.982,19.889,247.351-96.484,209.331-160.43C386.477,112.975,300.266,76.712,185.766,91.826z"/>
		<path style="opacity:0.9;fill:#FFFFFF;" d="M185.766,91.826c-21.564,2.847-42.358,8.907-60.801,18.413
			c-21.737,11.204-43.946,28.659-37.386,51.49c12.11,42.149,70.206,42.917,58.607,71.257c-13.139,32.101-4.328,69.757,54.63,80.228
			c111.982,19.889,247.351-96.484,209.331-160.43C386.477,112.975,300.266,76.712,185.766,91.826z"/>
	</g>
</g>
<g id="Shadow">
	<g>
		<g>
			<path style="fill:#F5F5F5;" d="M458.238,442.642c0,7.896-93.516,14.296-208.875,14.296s-208.875-6.401-208.875-14.296
				c0-7.896,93.516-14.297,208.875-14.297S458.238,434.746,458.238,442.642z"/>
		</g>
	</g>
</g>
<g id="Musical_notes">
	<g>
		<path style="fill:#407BFF;" d="M367.437,244.345c0.635,2.206-0.837,4.566-3.288,5.272c-2.451,0.706-4.953-0.51-5.588-2.716
			c-0.635-2.206,0.837-4.566,3.288-5.272C364.3,240.923,366.802,242.139,367.437,244.345z"/>
		<line style="fill:none;stroke:#407BFF;stroke-miterlimit:10;" x1="367.009" y1="244.338" x2="356.365" y2="224.201"/>
		<path style="fill:#407BFF;" d="M356.297,224.073c0,0,3.033,5.737,3.036,5.743c-0.038-0.072,0.575-0.598,0.624-0.641
			c1.273-1.135,2.911-1.553,4.582-1.616c1.167-0.044,2.338,0.034,3.499-0.085c2.6-0.267,4.583-1.982,6.166-3.951
			c0.127-0.158,0.252-0.318,0.374-0.479c0.18-0.237,0.359-0.478,0.521-0.728c-1.941,0.384-3.929,0.543-5.905,0.404
			c-1.944-0.137-3.846-0.637-5.805-0.607c-2.399,0.037-4.849,0.55-6.901,1.838C356.424,223.99,356.36,224.031,356.297,224.073z"/>
	</g>
	<g>
		<path style="fill:#407BFF;" d="M104.851,234.886c-0.552,2.228-3.006,3.538-5.482,2.924c-2.476-0.613-4.036-2.916-3.484-5.145
			c0.552-2.228,3.006-3.537,5.482-2.924C103.842,230.354,105.402,232.657,104.851,234.886z"/>
		<line style="fill:none;stroke:#407BFF;stroke-miterlimit:10;" x1="104.484" y1="234.666" x2="105.322" y2="211.904"/>
		<path style="fill:#407BFF;" d="M105.327,211.758c0,0-0.239,6.485-0.239,6.491c0.003-0.081,0.797-0.23,0.861-0.244
			c1.67-0.347,3.297,0.108,4.777,0.889c1.032,0.545,2.008,1.198,3.074,1.674c2.386,1.067,4.96,0.572,7.315-0.342
			c0.189-0.073,0.377-0.15,0.564-0.228c0.275-0.116,0.549-0.235,0.815-0.37c-1.873-0.637-3.675-1.492-5.317-2.6
			c-1.616-1.09-3.014-2.473-4.726-3.426c-2.096-1.167-4.475-1.945-6.896-1.855C105.479,211.75,105.403,211.754,105.327,211.758z"/>
	</g>
	<g>
		<g>
			<path style="fill:#407BFF;" d="M289.492,118.97c-0.047,2.295-2.045,4.109-4.462,4.052c-2.418-0.057-4.339-1.964-4.292-4.259
				c0.047-2.295,2.045-4.109,4.462-4.052C287.617,114.768,289.539,116.675,289.492,118.97z"/>
			<line style="fill:none;stroke:#407BFF;stroke-miterlimit:10;" x1="289.115" y1="118.836" x2="285.238" y2="96.444"/>
		</g>
		<g>
			<path style="fill:#407BFF;" d="M306.018,118.927c-0.047,2.295-2.076,4.108-4.533,4.05c-2.457-0.058-4.41-1.966-4.363-4.261
				c0.047-2.295,2.076-4.108,4.533-4.05C304.111,114.725,306.065,116.632,306.018,118.927z"/>
			<line style="fill:none;stroke:#407BFF;stroke-miterlimit:10;" x1="305.641" y1="118.793" x2="301.764" y2="96.402"/>
		</g>
		<polygon style="fill:#407BFF;" points="302.887,103.603 286.454,104.186 285.982,101.46 302.386,100.711 		"/>
		<polygon style="fill:#407BFF;" points="302.745,99.354 301.968,94.706 284.47,95.327 285.493,100.504 		"/>
	</g>
</g>
<g id="Character">
	<g>
		<g>
			<path style="fill:#FFFFFF;" d="M337.867,324.729"/>
			<path style="fill:#B97964;" d="M328.031,277.686c0,1.711,24.805,37.634,31.22,41.483c6.415,3.849,37.207,46.188,37.207,46.188
				l-20.525,5.132c0,0-22.815-14.62-38.065-34.101c-15.334-19.589-40.628-39.885-40.628-39.885L328.031,277.686z"/>
			<path style="fill:#B97964;" d="M375.261,369.141c-0.844,0.191-5.583,11.383-6.048,12.933c-0.465,1.549-1.704,8.675-3.098,12.083
				c-1.394,3.408,4.957,4.338,6.971,1.239c2.014-3.098,3.408-8.985,5.267-9.76c1.859-0.775,4.493-0.62,8.675,1.859
				c4.183,2.479,10.534,11.464,15.336,11.154c4.802-0.31,3.253-3.563,3.253-3.563s3.718,3.408,6.506,1.394
				c2.788-2.014,1.394-3.563,1.394-3.563s2.943,3.563,5.887,2.788c2.943-0.775,0.413-5.092-1.034-6.692
				c-0.986-1.09-22.331-24.227-22.331-24.227L375.261,369.141z"/>
			<path style="opacity:0.3;" d="M337.657,328.199c0,0,4.923-8.056,14.469-10.662C352.126,317.538,340.651,315.642,337.657,328.199z
				"/>
			<polygon style="fill:#263238;" points="316.193,313.972 325.944,322.818 348.474,307.299 340.211,296.205 			"/>
			<path style="opacity:0.3;" d="M405.618,395.086l-12.38-10.905C393.238,384.181,403.463,390.093,405.618,395.086z"/>
			<path style="opacity:0.3;" d="M413.783,393.347l-11.067-11.625C402.717,381.722,411.628,388.354,413.783,393.347z"/>
		</g>
		<g>
			<path style="fill:#407BFF;" d="M190.514,237.911c0,0-7.163-16.19-1.839-22.016c5.325-5.826,43.261-14.025,64.75,0.758
				c16.894,11.622-1.009,24.813-1.009,24.813S224.23,261.579,190.514,237.911z"/>
			<path style="opacity:0.2;enable-background:new    ;" d="M197.206,220.958c2.641,2.31,7.872,4.967,17.74,7.394l32.54-7.14
				c0,0,0.802-2.251-1.87-4.827c-2.532-2.442-28.679-10.701-47.73-0.905C195.794,216.555,195.436,219.41,197.206,220.958z"/>
			<polygon style="opacity:0.2;enable-background:new    ;" points="188.617,232.758 195.492,230.719 188.09,230.76 			"/>
		</g>
		<g>
			
				<ellipse transform="matrix(0.866 -0.5 0.5 0.866 -48.9236 148.9195)" style="fill:#407BFF;" cx="253.426" cy="165.753" rx="14.574" ry="17.324"/>
			<g>
				<path style="fill:#B97964;" d="M211.308,236.959c8.979-11.844,2.458-39.053-2.64-52.829l37.473,20.384
					c-0.408,1.773-0.692,3.573-0.852,5.385c-0.402,3.263,0.042,6.574,1.291,9.615c1.139,2.485,5.647,9.119,5.647,9.119
					s3.364,7.786-18.139,12.099C224.857,243.642,211.308,236.959,211.308,236.959z"/>
				<path style="opacity:0.2;enable-background:new    ;" d="M217.481,197.351c1.753,16.997,20.136,21.385,29.119,22.19
					c-1.249-3.041-1.693-6.353-1.291-9.615L217.481,197.351z"/>
				<g>
					<g>
						<path style="fill:#B97964;" d="M200.553,172.926c8.186,18.741,12.413,29.477,25.958,35.652
							c20.375,9.287,41.118-7.818,38.865-28.708c-2.029-18.802-15.075-46.291-37.164-46.806
							C206.45,132.557,192.367,154.184,200.553,172.926z"/>
						<path style="fill:#263238;" d="M187.764,147.682c-1.207-12.327,27.905-22.886,38.146-20.032
							c1.531,0.426-12.677,15.027-11.765,14.281l-7.139,5.639c-1.351,0.178-3.294,2.479-3.195,6.712c0,0,12.347,31.08,6.481,43.455
							c-8.639-0.85-13.596-13.145-18.616-19.727C184.197,168.204,174.145,153.52,187.764,147.682z"/>
						<path style="opacity:0.3;fill:#FFFFFF;" d="M187.764,147.682c-1.207-12.327,27.905-22.886,38.146-20.032
							c1.531,0.426-12.677,15.027-11.765,14.281l-7.139,5.639c-1.351,0.178-3.294,2.479-3.195,6.712c0,0,12.347,31.08,6.481,43.455
							c-8.639-0.85-13.596-13.145-18.616-19.727C184.197,168.204,174.145,153.52,187.764,147.682z"/>
						<path style="fill:#B97964;" d="M198.562,191.704c3.374,4.372,8.529,6.761,13.136,7.248c6.93,0.732,6.854-6.312,4.098-12.153
							c-2.48-5.258-6.524-11.296-13.08-9.319C196.256,179.428,194.704,186.705,198.562,191.704z"/>
						<path style="fill:#263238;" d="M228.121,167.911c0.714,1.963,2.361,3.159,3.681,2.672c1.319-0.486,1.81-2.471,1.096-4.434
							c-0.713-1.962-2.361-3.159-3.68-2.672C227.9,163.963,227.408,165.948,228.121,167.911z"/>
						<path style="fill:#263238;" d="M248.322,162.247c0.713,1.963,2.361,3.159,3.68,2.673c1.319-0.486,1.81-2.471,1.097-4.434
							c-0.713-1.963-2.361-3.159-3.679-2.673C248.1,158.299,247.608,160.285,248.322,162.247z"/>
						<path style="fill:#A24E3F;" d="M243.97,162.845c0,0,9.946,7.459,13.441,10.695c-1.917,3.475-7.179,4.072-7.179,4.072
							L243.97,162.845z"/>
						<path style="fill:#263238;" d="M222.542,160.859c0.349,0.012,0.699-0.155,0.903-0.469c2.422-3.726,6.117-3.876,6.154-3.877
							c0.554-0.017,1.001-0.467,0.998-1.007c-0.004-0.54-0.458-0.964-1.009-0.949c-0.196,0.005-4.827,0.191-7.831,4.815
							c-0.3,0.461-0.165,1.064,0.3,1.345C222.209,160.808,222.375,160.854,222.542,160.859z"/>
					</g>
					
						<path style="opacity:0.2;fill:none;stroke:#000000;stroke-width:0.5;stroke-linecap:round;stroke-linejoin:round;stroke-miterlimit:10;" d="
						M201.147,184.786c0.38-1.43,1.85-2.432,3.352-2.597c1.502-0.165,2.998,0.384,4.245,1.194c1.497,0.974,2.722,2.339,3.513,3.917"
						/>
				</g>
				<path style="fill:#263238;" d="M256.556,150.21c0.163-0.1,0.298-0.246,0.384-0.429c0.234-0.495,0.019-1.078-0.481-1.3
					c-5.011-2.224-8.924,0.214-9.114,0.301c-0.468,0.295-0.613,0.903-0.322,1.359c0.29,0.455,0.9,0.586,1.368,0.298
					c0.159-0.108,3.198-1.948,7.22-0.163C255.927,150.416,256.28,150.38,256.556,150.21z"/>
				<g>
					<path style="fill:#263238;" d="M250.954,184.484c-1.21,2.547-2.234,5.178-3.064,7.873c-0.489-0.066-0.991-0.122-1.477-0.212
						c-6.675-0.995-9.453-3.651-10.475-6.317c-0.478-1.312-0.641-2.718-0.475-4.105c0.075-0.784,0.258-1.553,0.544-2.286
						c3.226,2.645,9.36,4.052,12.679,4.662C250.128,184.296,250.954,184.484,250.954,184.484z"/>
					<path style="fill:#FFFFFF;" d="M248.752,184.046l-0.969,2.3c-6.269-0.95-10.555-2.442-12.255-4.676
						c0.075-0.784,0.258-1.553,0.544-2.286C239.321,182.055,245.433,183.436,248.752,184.046z"/>
					<path style="fill:#C15854;" d="M246.398,192.147c-6.675-0.995-9.453-3.651-10.475-6.317c2.529,0.424,4.963,1.293,7.19,2.565
						C244.573,189.273,245.721,190.585,246.398,192.147z"/>
				</g>
				<path style="fill:#263238;" d="M196.904,142.757c0,0,4.393-31.631,32.125-35.331c-2.325,1.433-4.355,3.297-5.98,5.492
					c0,0,21.822-9.948,34.447,3.383l-5.212-0.979c0,0,10.361,11.052,6.705,22.076l-2.782-3.897c0,0-5.171,14.688-20.095,16.33
					l3.897-4.121c0,0-23.954,7.673-31.843,3.721C204.173,147.637,200.396,145.398,196.904,142.757z"/>
			</g>
			<polyline style="fill:none;stroke:#E0E0E0;stroke-miterlimit:10;" points="193.655,174.107 188.676,167.03 195.855,162.458 
				201.147,170.229 			"/>
			
				<ellipse transform="matrix(0.866 -0.5 0.5 0.866 -64.4279 127.8144)" style="fill:#407BFF;" cx="206.289" cy="184.13" rx="14.574" ry="17.324"/>
			<path style="fill:#263238;" d="M211.95,181.484c3.192,5.528,2.009,12.186-2.642,14.871c-4.651,2.685-11.008,0.38-14.2-5.148
				c-3.192-5.528-2.009-12.186,2.642-14.871C202.401,173.651,208.758,175.956,211.95,181.484z"/>
		</g>
		<path style="fill:#407BFF;" d="M187.045,168.282l11.152-6.916c0,0-9.316-15.993,1.192-27.829
			C199.388,133.538,175.541,138.224,187.045,168.282z"/>
		<g>
			<polygon style="fill:#407BFF;" points="189.981,313.972 156.616,295.39 179.787,235.375 			"/>
			<path style="fill:#407BFF;" d="M343.854,293.51l-32.817-53.044c-4.846-7.832-12.983-13.042-22.125-14.165l-41.427-5.089
				c0,0-4.883,11.488-8.594,12.521c-2.072,0.577-20.842-4.618-23.946-5.381l-20.022,2.48l-15.136,4.542l5.601,76.038l3.022,40.691
				l-2.346,56.607l117.309-0.608l-6.134-109.462l12.46,20.134L343.854,293.51z"/>
			<path style="opacity:0.4;fill:#FFFFFF;" d="M308.269,236.69l-59.352,54.881l49.77,12.498v18.749l-73.219,85.894h-39.404
				l0.871-25.477l60.021-69.263l-46.455-17.767l73.383-71.75l16.704,2.1C290.588,226.555,300.961,227.92,308.269,236.69z"/>
			<path style="opacity:0.3;" d="M297.239,298.642l1.335-36.702C298.573,261.94,307.338,280.291,297.239,298.642z"/>
			<path style="opacity:0.3;" d="M185.388,311.413l-5.601-45.938C179.787,265.475,175.507,294.874,185.388,311.413z"/>
			<g>
				<g>
					<g>
						<path style="fill:#263238;" d="M237.94,236.387c-2.654,0.692-5.294,1.452-7.802,2.573c-2.428,1.085-4.967,2.595-6.612,4.734
							c-0.757,0.983-1.364,2.285-0.944,3.537c0.403,1.201,1.668,1.861,2.887,1.832c1.426-0.034,2.731-0.855,3.9-1.595
							c1.186-0.75,2.316-1.594,3.376-2.513c2.432-2.11,4.478-4.654,6.042-7.466c0.47-0.844-0.825-1.602-1.295-0.757
							c-2.337,4.202-5.799,7.759-10.003,10.111c-0.894,0.5-2.413,1.225-3.276,0.262c-0.788-0.88,0.239-2.261,0.855-2.923
							c1.608-1.728,3.687-2.971,5.827-3.927c2.385-1.065,4.922-1.764,7.444-2.422C239.272,237.59,238.877,236.143,237.94,236.387
							L237.94,236.387z"/>
					</g>
				</g>
				<g>
					<g>
						<path style="fill:#263238;" d="M238.522,237.57c2.597,1.291,5.243,2.543,8.04,3.341c2.553,0.729,5.65,1.287,8.258,0.514
							c2.167-0.643,3.571-2.841,1.866-4.807c-0.87-1.004-2.211-1.346-3.465-1.583c-1.452-0.274-2.93-0.436-4.408-0.474
							c-3.438-0.09-6.878,0.477-10.113,1.638c-0.902,0.324-0.513,1.774,0.399,1.447c3.017-1.083,6.181-1.638,9.388-1.592
							c1.562,0.023,3.124,0.176,4.655,0.49c1.059,0.217,3.606,0.987,2.654,2.577c-0.613,1.024-2.375,1.098-3.407,1.119
							c-1.522,0.031-3.03-0.171-4.507-0.53c-3.016-0.734-5.838-2.058-8.605-3.435C238.417,235.846,237.656,237.14,238.522,237.57
							L238.522,237.57z"/>
					</g>
				</g>
				<g>
					<g>
						<path style="fill:#263238;" d="M238.141,237.419c0.535,8.901,1.935,17.728,4.19,26.355c0.244,0.933,1.691,0.538,1.446-0.399
							c-2.222-8.501-3.61-17.186-4.137-25.956C239.583,236.46,238.083,236.453,238.141,237.419L238.141,237.419z"/>
					</g>
				</g>
				<g>
					<g>
						<path style="fill:#263238;" d="M238.636,237.737c3.481,8.014,8.47,15.308,14.658,21.474c0.685,0.682,1.746-0.378,1.061-1.061
							c-6.105-6.082-10.991-13.267-14.424-21.171C239.548,236.096,238.255,236.859,238.636,237.737L238.636,237.737z"/>
					</g>
				</g>
			</g>
			<path style="opacity:0.2;" d="M278.028,293.179l-68.836,41.585C209.192,334.764,247.166,326.826,278.028,293.179z"/>
			<path style="opacity:0.3;" d="M259.294,222.663c0.673,3.365-0.51,6.73-3.549,10.095
				C255.745,232.758,263.237,229.527,259.294,222.663z"/>
			<path style="opacity:0.3;" d="M195.492,230.719c0,0,14.949,7.994,27.7,7.428C223.191,238.147,208.667,241.817,195.492,230.719z"
				/>
		</g>
		<path style="fill:none;stroke:#407BFF;stroke-miterlimit:10;" d="M182.396,144.202c1.814-5.711,6.591-10.39,12.338-12.085"/>
		<g>
			<path style="fill:none;stroke:#407BFF;stroke-linecap:round;stroke-linejoin:round;stroke-miterlimit:10;" d="M319.277,245.664
				c7.024,11.58,11.233,18.519,18.258,30.1"/>
			
				<line style="fill:none;stroke:#407BFF;stroke-linecap:round;stroke-linejoin:round;stroke-miterlimit:10;" x1="338.548" y1="277.687" x2="341.202" y2="282.079"/>
		</g>
		<g>
			<path style="fill:#A24E3F;" d="M188.123,195.862c-0.343,0.343-1.601,7.547-0.686,10.634c0.915,3.087,2.859,10.405,1.715,14.864
				c-1.143,4.459-8.312,9.885-8.312,9.885l-8.61-13.659l7.089-16.579c0,0,1.707-6.256,3.54-10.503c1.834-4.247,5.773-3.274,5.721,0
				C188.529,193.778,188.123,195.862,188.123,195.862z"/>
			<path style="fill:#B97964;" d="M167.984,220.149c0,0-33.98,71.245-34.106,84.748c-0.128,13.747,7.698,23.094,22.239,21.811
				c14.54-1.283,20.733-20.05,20.733-20.05l-10.93-6.087l19.039-73.062L167.984,220.149z"/>
			<path style="fill:#B97964;" d="M168.682,224.97c0,0-2.543-17.221-2.758-21.097c-0.215-3.876,8.075-29.716,8.075-29.716
				s2.153-0.861,2.907,0.538l2.476-2.584c0,0,3.23,1.184,2.476,4.63c-0.754,3.445-5.599,11.197-5.599,11.197l11.52-8.829
				c0,0,3.445,2.584,1.507,5.276c-1.938,2.692-10.013,9.044-10.013,9.044l-1.375,5.111c0,0,13.111-7.157,14.833-4.896
				c1.723,2.261,0.861,3.876-1.184,4.414c-2.046,0.538-9.152,4.953-9.905,5.491c-0.754,0.538-3.122,4.845-3.122,4.845
				s4.051,5.008,5.989,11.145c1.938,6.137-0.525,11.704-0.525,11.704L168.682,224.97z"/>
			<path style="fill:#263238;" d="M165.92,300.571l8.825,11.799c0,0,2.558-3.446,2.965-5.233L165.92,300.571z"/>
		</g>
	</g>
</g>
<g id="Devices">
	<path style="fill:none;stroke:#000000;stroke-width:0.5;stroke-linecap:round;stroke-linejoin:round;stroke-miterlimit:10;" d="
		M21.595,408.378c151.845,0,303.69,0,455.535,0"/>
	<g>
		<path style="fill:#263238;" d="M296.189,418.325l10.05-17.379c0,0,147.59-0.529,148.367,0
			c0.777,0.529,23.822,19.431,23.822,19.431L296.189,418.325z"/>
		<polygon style="fill:#263238;" points="478.428,438.853 296.189,436.801 296.189,418.325 478.428,420.377 		"/>
		<path style="opacity:0.5;fill:#FFFFFF;" d="M296.189,418.325l10.05-17.379c0,0,147.59-0.529,148.367,0
			c0.777,0.529,23.822,19.431,23.822,19.431L296.189,418.325z"/>
		<polygon style="opacity:0.2;fill:#FFFFFF;" points="478.428,438.853 296.189,436.801 296.189,418.325 478.428,420.377 		"/>
		<rect x="302.211" y="422.727" style="opacity:0.2;" width="19" height="11.724"/>
		<rect x="322.571" y="422.727" style="opacity:0.2;" width="6.158" height="11.724"/>
		<rect x="330.176" y="422.727" style="opacity:0.2;" width="42.675" height="8.132"/>
		<path style="fill:#263238;" d="M345.148,411.512c0.251-0.376,4.947-5.627,4.947-5.627h102.521l4.374,6.845L345.148,411.512z"/>
		<path style="fill:#263238;" d="M457.276,412.73c0,3.09-25.036,5.595-55.921,5.595c-30.884,0-56.207-3.723-56.207-6.813
			c0-3.09,25.323-4.376,56.207-4.376C432.239,407.136,457.276,409.641,457.276,412.73z"/>
		<path style="fill:#407BFF;" d="M452.615,405.885c0,3.78-22.95,6.845-51.26,6.845c-28.31,0-51.26-3.065-51.26-6.845
			c0-3.78,22.95-6.845,51.26-6.845C429.665,399.04,452.615,402.105,452.615,405.885z"/>
		<path style="opacity:0.4;fill:#FFFFFF;" d="M368.797,411.172c-0.419-0.051,30.847-5.598,30.847-5.598l6.767,7.156
			C406.411,412.73,386.342,413.317,368.797,411.172z"/>
		<path style="opacity:0.4;fill:#FFFFFF;" d="M399.644,405.574l-6.767-6.534c0,0,26.151-0.777,46.609,2.27L399.644,405.574z"/>
		<path style="fill:#263238;" d="M406.411,405.574c0,0.773-3.03,1.4-6.767,1.4c-3.737,0-6.767-0.627-6.767-1.4
			c0-0.773,3.03-1.4,6.767-1.4C403.381,404.174,406.411,404.801,406.411,405.574z"/>
		<ellipse style="fill:#263238;" cx="328.729" cy="411.971" rx="14.971" ry="3.628"/>
		<rect x="322.813" y="399.296" style="fill:#263238;" width="14.726" height="13.178"/>
		<path style="fill:#263238;" d="M337.611,399.296c0,0.911-3.329,1.65-7.435,1.65c-4.106,0-7.435-0.739-7.435-1.65
			c0-0.911,3.329-1.65,7.435-1.65C334.283,397.647,337.611,398.385,337.611,399.296z"/>
		
			<line style="fill:none;stroke:#263238;stroke-width:4;stroke-miterlimit:10;" x1="329.133" y1="399.155" x2="377.687" y2="393.061"/>
		
			<rect x="374.927" y="391.962" transform="matrix(0.9875 -0.1577 0.1577 0.9875 -57.4507 64.3194)" style="fill:#263238;" width="3.195" height="4.343"/>
		<path style="fill:#263238;" d="M308.712,426.32c0,0.856-0.694,1.551-1.551,1.551c-0.857,0-1.551-0.694-1.551-1.551
			c0-0.857,0.694-1.551,1.551-1.551C308.017,424.769,308.712,425.463,308.712,426.32z"/>
		<path style="fill:#263238;" d="M313.526,426.32c0,0.856-0.694,1.551-1.551,1.551c-0.857,0-1.551-0.694-1.551-1.551
			c0-0.857,0.694-1.551,1.551-1.551C312.832,424.769,313.526,425.463,313.526,426.32z"/>
		<path style="fill:#263238;" d="M318.34,426.32c0,0.856-0.694,1.551-1.551,1.551c-0.857,0-1.551-0.694-1.551-1.551
			c0-0.857,0.694-1.551,1.551-1.551C317.646,424.769,318.34,425.463,318.34,426.32z"/>
		<path style="fill:#263238;" d="M308.712,430.859c0,0.856-0.694,1.551-1.551,1.551c-0.857,0-1.551-0.694-1.551-1.551
			c0-0.857,0.694-1.551,1.551-1.551C308.017,429.308,308.712,430.002,308.712,430.859z"/>
		<path style="fill:#263238;" d="M313.526,430.859c0,0.856-0.694,1.551-1.551,1.551c-0.857,0-1.551-0.694-1.551-1.551
			c0-0.857,0.694-1.551,1.551-1.551C312.832,429.308,313.526,430.002,313.526,430.859z"/>
		<path style="fill:#263238;" d="M318.34,430.859c0,0.856-0.694,1.551-1.551,1.551c-0.857,0-1.551-0.694-1.551-1.551
			c0-0.857,0.694-1.551,1.551-1.551C317.646,429.308,318.34,430.002,318.34,430.859z"/>
		<rect x="466.334" y="423.898" width="8.012" height="4.691"/>
		<rect x="466.334" y="430.489" width="8.012" height="4.691"/>
	</g>
	<g>
		<rect x="213.38" y="420.292" style="fill:#263238;" width="70.756" height="18.031"/>
		<rect x="213.38" y="420.292" style="opacity:0.1;fill:#FFFFFF;" width="70.756" height="18.031"/>
		<polygon style="fill:#263238;" points="225.364,401.48 213.38,420.292 284.136,420.292 294.023,401.48 		"/>
		<polygon style="fill:#263238;" points="294.023,401.48 294.023,420.292 284.136,438.323 284.136,420.292 		"/>
		<polygon style="opacity:0.1;fill:#FFFFFF;" points="294.023,401.48 294.023,420.292 284.136,438.323 284.136,420.292 		"/>
		<g>
			<polygon style="opacity:0.2;fill:#FFFFFF;" points="225.364,401.48 213.38,420.292 284.136,420.292 294.023,401.48 			"/>
		</g>
		<g>
			<path style="fill:#407BFF;" d="M243.659,410.527c0,0.756-2.515,1.37-5.618,1.37s-5.618-0.613-5.618-1.37
				c0-0.756,2.515-1.37,5.618-1.37S243.659,409.771,243.659,410.527z"/>
			<path style="opacity:0.2;fill:#FFFFFF;" d="M243.659,410.527c0,0.756-2.515,1.37-5.618,1.37s-5.618-0.613-5.618-1.37
				c0-0.756,2.515-1.37,5.618-1.37S243.659,409.771,243.659,410.527z"/>
			<rect x="232.423" y="404.94" style="fill:#407BFF;" width="11.236" height="5.587"/>
			<rect x="232.423" y="404.94" style="opacity:0.2;fill:#FFFFFF;" width="11.236" height="5.587"/>
			<path style="fill:#407BFF;" d="M243.659,404.94c0,0.756-2.515,1.37-5.618,1.37s-5.618-0.613-5.618-1.37
				c0-0.756,2.515-1.37,5.618-1.37S243.659,404.183,243.659,404.94z"/>
		</g>
		<g>
			<ellipse style="fill:#407BFF;" cx="232.217" cy="415.407" rx="5.618" ry="1.37"/>
			<ellipse style="opacity:0.2;fill:#FFFFFF;" cx="232.217" cy="415.407" rx="5.618" ry="1.37"/>
			<rect x="226.599" y="409.82" style="fill:#407BFF;" width="11.236" height="5.587"/>
			<rect x="226.599" y="409.82" style="opacity:0.2;fill:#FFFFFF;" width="11.236" height="5.587"/>
			<path style="fill:#407BFF;" d="M237.835,409.82c0,0.756-2.515,1.37-5.618,1.37c-3.103,0-5.618-0.613-5.618-1.37
				c0-0.756,2.515-1.37,5.618-1.37C235.32,408.45,237.835,409.063,237.835,409.82z"/>
		</g>
		<circle style="fill:#263238;" cx="225.021" cy="432.279" r="1.578"/>
		<polygon style="fill:#263238;" points="245.13,416.976 253.665,404.512 285.229,404.328 278.535,416.976 		"/>
		<g>
			<polygon style="fill:#407BFF;" points="253.882,406.309 254.545,405.388 258.574,405.388 257.935,406.309 			"/>
			<polygon style="fill:#407BFF;" points="252.951,407.818 253.614,406.896 257.643,406.896 257.003,407.818 			"/>
			<polygon style="fill:#407BFF;" points="252.019,409.326 252.682,408.404 256.711,408.404 256.071,409.326 			"/>
			<polygon style="fill:#407BFF;" points="251.087,410.834 251.75,409.913 255.779,409.913 255.14,410.834 			"/>
			<polygon style="fill:#407BFF;" points="250.155,412.343 250.819,411.421 254.848,411.421 254.208,412.343 			"/>
			<polygon style="fill:#407BFF;" points="249.02,413.799 249.684,412.878 253.713,412.878 253.073,413.799 			"/>
		</g>
		<g>
			<polygon style="fill:#407BFF;" points="259.052,406.2 259.716,405.279 263.745,405.279 263.105,406.2 			"/>
			<polygon style="fill:#407BFF;" points="258.121,407.709 258.784,406.787 262.813,406.787 262.173,407.709 			"/>
			<polygon style="fill:#407BFF;" points="257.189,409.217 257.853,408.295 261.882,408.295 261.242,409.217 			"/>
			<polygon style="fill:#407BFF;" points="256.258,410.725 256.921,409.804 260.95,409.804 260.31,410.725 			"/>
			<polygon style="fill:#407BFF;" points="255.326,412.234 255.989,411.312 260.018,411.312 259.378,412.234 			"/>
		</g>
		<g>
			<polygon style="fill:#407BFF;" points="264.053,406.2 264.716,405.279 268.745,405.279 268.105,406.2 			"/>
			<polygon style="fill:#407BFF;" points="263.121,407.709 263.784,406.787 267.813,406.787 267.173,407.709 			"/>
			<polygon style="fill:#407BFF;" points="262.189,409.217 262.853,408.295 266.882,408.295 266.242,409.217 			"/>
		</g>
		<g>
			<polygon style="fill:#407BFF;" points="269.053,406.2 269.716,405.279 273.745,405.279 273.105,406.2 			"/>
			<polygon style="fill:#407BFF;" points="268.121,407.709 268.784,406.787 272.813,406.787 272.173,407.709 			"/>
		</g>
		<g>
			<polygon style="fill:#407BFF;" points="274.053,406.2 274.716,405.279 278.745,405.279 278.105,406.2 			"/>
			<polygon style="fill:#407BFF;" points="273.121,407.709 273.785,406.787 277.814,406.787 277.174,407.709 			"/>
			<polygon style="fill:#407BFF;" points="272.189,409.217 272.853,408.295 276.882,408.295 276.242,409.217 			"/>
		</g>
		<g>
			<polygon style="fill:#407BFF;" points="279.053,406.2 279.716,405.279 283.745,405.279 283.105,406.2 			"/>
			<polygon style="fill:#407BFF;" points="278.121,407.709 278.785,406.787 282.814,406.787 282.174,407.709 			"/>
			<polygon style="fill:#407BFF;" points="277.19,409.217 277.853,408.295 281.882,408.295 281.242,409.217 			"/>
			<polygon style="fill:#407BFF;" points="276.258,410.725 276.921,409.804 280.95,409.804 280.31,410.725 			"/>
			<polygon style="fill:#407BFF;" points="275.326,412.234 275.99,411.312 280.019,411.312 279.379,412.234 			"/>
			<polygon style="fill:#407BFF;" points="274.409,413.593 275.072,412.672 279.101,412.672 278.461,413.593 			"/>
		</g>
	</g>
	<g>
		<g>
			<g>
				<path style="fill:#263238;" d="M20.198,418.239l20.6-17.379c0,0,171.171,0.091,171.948,0.62
					c0.777,0.529-10.309,18.812-10.309,18.812L20.198,418.239z"/>
				<polygon style="fill:#263238;" points="202.437,438.767 20.198,436.715 20.198,418.239 202.437,420.291 				"/>
				<path style="opacity:0.5;fill:#FFFFFF;" d="M20.198,418.291l20.6-17.379c0,0,171.171,0.09,171.948,0.62
					c0.777,0.529-10.309,18.811-10.309,18.811L20.198,418.291z"/>
				<polygon style="opacity:0.2;fill:#FFFFFF;" points="202.437,438.767 20.198,436.715 20.198,418.239 202.437,420.291 				"/>
				<rect x="26.22" y="422.641" style="opacity:0.2;" width="19" height="11.724"/>
			</g>
			<rect x="46.58" y="422.641" style="opacity:0.2;" width="6.158" height="11.724"/>
			<rect x="54.185" y="422.641" style="opacity:0.2;" width="42.675" height="8.132"/>
			<path style="fill:#263238;" d="M32.721,426.234c0,0.857-0.694,1.551-1.551,1.551c-0.856,0-1.551-0.694-1.551-1.551
				c0-0.856,0.694-1.551,1.551-1.551C32.026,424.683,32.721,425.377,32.721,426.234z"/>
			<path style="fill:#263238;" d="M37.535,426.234c0,0.857-0.694,1.551-1.551,1.551c-0.856,0-1.551-0.694-1.551-1.551
				c0-0.856,0.694-1.551,1.551-1.551C36.84,424.683,37.535,425.377,37.535,426.234z"/>
			<path style="fill:#263238;" d="M42.349,426.234c0,0.857-0.694,1.551-1.551,1.551c-0.856,0-1.551-0.694-1.551-1.551
				c0-0.856,0.694-1.551,1.551-1.551C41.654,424.683,42.349,425.377,42.349,426.234z"/>
			<path style="fill:#263238;" d="M32.721,430.773c0,0.857-0.694,1.551-1.551,1.551c-0.856,0-1.551-0.694-1.551-1.551
				c0-0.856,0.694-1.551,1.551-1.551C32.026,429.222,32.721,429.916,32.721,430.773z"/>
			<path style="fill:#263238;" d="M37.535,430.773c0,0.857-0.694,1.551-1.551,1.551c-0.856,0-1.551-0.694-1.551-1.551
				c0-0.856,0.694-1.551,1.551-1.551C36.84,429.222,37.535,429.916,37.535,430.773z"/>
			<path style="fill:#263238;" d="M42.349,430.773c0,0.857-0.694,1.551-1.551,1.551c-0.856,0-1.551-0.694-1.551-1.551
				c0-0.856,0.694-1.551,1.551-1.551C41.654,429.222,42.349,429.916,42.349,430.773z"/>
			<polygon style="fill:#263238;" points="39.247,414.189 42.74,414.189 54.476,403.581 51.108,403.581 			"/>
			<polygon style="fill:#263238;" points="47.898,414.189 51.391,414.189 63.126,403.581 59.759,403.581 			"/>
			<g>
				<rect x="39.099" y="412.556" style="fill:#407BFF;" width="3.64" height="1.633"/>
				<rect x="39.099" y="412.556" style="opacity:0.3;" width="3.64" height="1.633"/>
				<polygon style="fill:#407BFF;" points="44.095,412.964 42.74,414.189 42.74,412.556 44.095,411.386 				"/>
				<polygon style="fill:#407BFF;" points="39.099,412.556 40.252,411.386 44.095,411.386 42.74,412.556 				"/>
				<polygon style="opacity:0.3;fill:#FFFFFF;" points="39.099,412.556 40.252,411.386 44.095,411.386 42.74,412.556 				"/>
			</g>
			<g>
				<rect x="58.2" y="403.376" style="fill:#407BFF;" width="3.64" height="1.633"/>
				<rect x="58.2" y="403.376" style="opacity:0.3;" width="3.64" height="1.633"/>
				<polygon style="fill:#407BFF;" points="63.196,403.784 61.84,405.01 61.84,403.376 63.196,402.206 				"/>
				<polygon style="fill:#407BFF;" points="58.2,403.376 59.353,402.206 63.196,402.206 61.84,403.376 				"/>
				<polygon style="opacity:0.3;fill:#FFFFFF;" points="58.2,403.376 59.353,402.206 63.196,402.206 61.84,403.376 				"/>
			</g>
			<polygon style="fill:#263238;" points="57.359,414.189 60.851,414.189 72.587,403.581 69.22,403.581 			"/>
			<polygon style="fill:#263238;" points="66.009,414.189 69.502,414.189 81.238,403.581 77.871,403.581 			"/>
			<g>
				<rect x="57.211" y="412.556" style="fill:#407BFF;" width="3.64" height="1.633"/>
				<rect x="57.211" y="412.556" style="opacity:0.3;" width="3.64" height="1.633"/>
				<polygon style="fill:#407BFF;" points="62.207,412.964 60.851,414.189 60.851,412.556 62.207,411.386 				"/>
				<polygon style="fill:#407BFF;" points="57.211,412.556 58.364,411.386 62.207,411.386 60.851,412.556 				"/>
				<polygon style="opacity:0.3;fill:#FFFFFF;" points="57.211,412.556 58.364,411.386 62.207,411.386 60.851,412.556 				"/>
			</g>
			<g>
				<rect x="74.277" y="405.033" style="fill:#407BFF;" width="3.64" height="1.633"/>
				<rect x="74.277" y="405.033" style="opacity:0.3;" width="3.64" height="1.633"/>
				<polygon style="fill:#407BFF;" points="79.273,405.441 77.917,406.667 77.917,405.033 79.273,403.863 				"/>
				<polygon style="fill:#407BFF;" points="74.277,405.033 75.43,403.863 79.273,403.863 77.917,405.033 				"/>
				<polygon style="opacity:0.3;fill:#FFFFFF;" points="74.277,405.033 75.43,403.863 79.273,403.863 77.917,405.033 				"/>
			</g>
			<polygon style="fill:#263238;" points="75.47,414.189 78.963,414.189 90.699,403.581 87.331,403.581 			"/>
			<polygon style="fill:#263238;" points="84.121,414.189 87.614,414.189 99.349,403.581 95.982,403.581 			"/>
			<g>
				<rect x="75.322" y="412.556" style="fill:#407BFF;" width="3.64" height="1.633"/>
				<rect x="75.322" y="412.556" style="opacity:0.3;" width="3.64" height="1.633"/>
				<polygon style="fill:#407BFF;" points="80.318,412.964 78.963,414.189 78.963,412.556 80.318,411.386 				"/>
				<polygon style="fill:#407BFF;" points="75.322,412.556 76.475,411.386 80.318,411.386 78.963,412.556 				"/>
				<polygon style="opacity:0.3;fill:#FFFFFF;" points="75.322,412.556 76.475,411.386 80.318,411.386 78.963,412.556 				"/>
			</g>
			<g>
				<rect x="88.883" y="408.146" style="fill:#407BFF;" width="3.64" height="1.633"/>
				<rect x="88.883" y="408.146" style="opacity:0.3;" width="3.64" height="1.633"/>
				<polygon style="fill:#407BFF;" points="93.879,408.554 92.523,409.78 92.523,408.146 93.879,406.976 				"/>
				<polygon style="fill:#407BFF;" points="88.883,408.146 90.036,406.976 93.879,406.976 92.523,408.146 				"/>
				<polygon style="opacity:0.3;fill:#FFFFFF;" points="88.883,408.146 90.036,406.976 93.879,406.976 92.523,408.146 				"/>
			</g>
			<polygon style="fill:#263238;" points="93.581,414.189 97.074,414.189 108.81,403.581 105.443,403.581 			"/>
			<polygon style="fill:#263238;" points="102.232,414.189 105.725,414.189 117.461,403.581 114.093,403.581 			"/>
			<g>
				<rect x="93.434" y="412.556" style="fill:#407BFF;" width="3.64" height="1.633"/>
				<rect x="93.434" y="412.556" style="opacity:0.3;" width="3.64" height="1.633"/>
				<polygon style="fill:#407BFF;" points="98.43,412.964 97.074,414.189 97.074,412.556 98.43,411.386 				"/>
				<polygon style="fill:#407BFF;" points="93.434,412.556 94.587,411.386 98.43,411.386 97.074,412.556 				"/>
				<polygon style="opacity:0.3;fill:#FFFFFF;" points="93.434,412.556 94.587,411.386 98.43,411.386 97.074,412.556 				"/>
			</g>
			<g>
				<rect x="108.113" y="407.252" style="fill:#407BFF;" width="3.64" height="1.633"/>
				<rect x="108.113" y="407.252" style="opacity:0.3;" width="3.64" height="1.633"/>
				<polygon style="fill:#407BFF;" points="113.109,407.66 111.754,408.885 111.754,407.252 113.109,406.082 				"/>
				<polygon style="fill:#407BFF;" points="108.113,407.252 109.266,406.082 113.109,406.082 111.754,407.252 				"/>
				<polygon style="opacity:0.3;fill:#FFFFFF;" points="108.113,407.252 109.266,406.082 113.109,406.082 111.754,407.252 				"/>
			</g>
			<polygon style="fill:#263238;" points="111.693,414.189 115.185,414.189 126.921,403.581 123.554,403.581 			"/>
			<polygon style="fill:#263238;" points="120.344,414.189 123.836,414.189 135.572,403.581 132.205,403.581 			"/>
			<g>
				<rect x="111.545" y="412.556" style="fill:#407BFF;" width="3.64" height="1.633"/>
				<rect x="111.545" y="412.556" style="opacity:0.3;" width="3.64" height="1.633"/>
				<polygon style="fill:#407BFF;" points="116.541,412.964 115.185,414.189 115.185,412.556 116.541,411.386 				"/>
				<polygon style="fill:#407BFF;" points="111.545,412.556 112.698,411.386 116.541,411.386 115.185,412.556 				"/>
				<polygon style="opacity:0.3;fill:#FFFFFF;" points="111.545,412.556 112.698,411.386 116.541,411.386 115.185,412.556 				"/>
			</g>
			<g>
				<rect x="127.212" y="406.435" style="fill:#407BFF;" width="3.64" height="1.633"/>
				<rect x="127.212" y="406.435" style="opacity:0.3;" width="3.64" height="1.633"/>
				<polygon style="fill:#407BFF;" points="132.208,406.843 130.853,408.068 130.853,406.435 132.208,405.265 				"/>
				<polygon style="fill:#407BFF;" points="127.212,406.435 128.365,405.265 132.208,405.265 130.853,406.435 				"/>
				<polygon style="opacity:0.3;fill:#FFFFFF;" points="127.212,406.435 128.365,405.265 132.208,405.265 130.853,406.435 				"/>
			</g>
		</g>
		<polygon style="fill:#263238;" points="212.746,401.48 212.471,418.789 202.437,438.767 202.437,420.291 		"/>
		<polygon style="opacity:0.2;fill:#FFFFFF;" points="212.746,401.48 212.471,418.789 202.437,438.767 202.437,420.291 		"/>
		<polygon style="fill:#263238;" points="129.71,415.961 143.374,403.096 179.008,403.316 165.979,415.961 		"/>
		<g>
			<path style="fill:#263238;" d="M186.77,409.06c0,0.489-1.348,0.886-3.012,0.886c-1.663,0-3.012-0.397-3.012-0.886
				s1.348-0.886,3.012-0.886C185.422,408.174,186.77,408.571,186.77,409.06z"/>
			<path style="opacity:0.2;fill:#FFFFFF;" d="M186.77,409.06c0,0.489-1.348,0.886-3.012,0.886c-1.663,0-3.012-0.397-3.012-0.886
				s1.348-0.886,3.012-0.886C185.422,408.174,186.77,408.571,186.77,409.06z"/>
			<rect x="180.747" y="405.447" style="fill:#263238;" width="6.023" height="3.614"/>
			<rect x="180.747" y="405.447" style="opacity:0.2;fill:#FFFFFF;" width="6.023" height="3.614"/>
			<path style="fill:#263238;" d="M186.77,405.447c0,0.489-1.348,0.886-3.012,0.886c-1.663,0-3.012-0.397-3.012-0.886
				c0-0.489,1.348-0.886,3.012-0.886C185.422,404.561,186.77,404.957,186.77,405.447z"/>
		</g>
		<g>
			<path style="fill:#263238;" d="M194.807,409.06c0,0.489-1.348,0.886-3.012,0.886c-1.663,0-3.012-0.397-3.012-0.886
				s1.348-0.886,3.012-0.886C193.459,408.174,194.807,408.571,194.807,409.06z"/>
			<path style="opacity:0.2;fill:#FFFFFF;" d="M194.807,409.06c0,0.489-1.348,0.886-3.012,0.886c-1.663,0-3.012-0.397-3.012-0.886
				s1.348-0.886,3.012-0.886C193.459,408.174,194.807,408.571,194.807,409.06z"/>
			<rect x="188.784" y="405.447" style="fill:#263238;" width="6.023" height="3.614"/>
			<rect x="188.784" y="405.447" style="opacity:0.2;fill:#FFFFFF;" width="6.023" height="3.614"/>
			<path style="fill:#263238;" d="M194.807,405.447c0,0.489-1.348,0.886-3.012,0.886c-1.663,0-3.012-0.397-3.012-0.886
				c0-0.489,1.348-0.886,3.012-0.886C193.459,404.561,194.807,404.957,194.807,405.447z"/>
		</g>
		<g>
			<ellipse style="fill:#263238;" cx="180.747" cy="414.865" rx="3.012" ry="0.886"/>
			<ellipse style="opacity:0.2;fill:#FFFFFF;" cx="180.747" cy="414.865" rx="3.012" ry="0.886"/>
			<rect x="177.735" y="411.252" style="fill:#263238;" width="6.023" height="3.614"/>
			<rect x="177.735" y="411.252" style="opacity:0.2;fill:#FFFFFF;" width="6.023" height="3.614"/>
			<ellipse style="fill:#263238;" cx="180.747" cy="411.252" rx="3.012" ry="0.886"/>
		</g>
		<g>
			<path style="fill:#263238;" d="M192.173,414.865c0,0.489-1.348,0.886-3.012,0.886s-3.012-0.397-3.012-0.886
				c0-0.489,1.348-0.886,3.012-0.886S192.173,414.376,192.173,414.865z"/>
			<path style="opacity:0.2;fill:#FFFFFF;" d="M192.173,414.865c0,0.489-1.348,0.886-3.012,0.886s-3.012-0.397-3.012-0.886
				c0-0.489,1.348-0.886,3.012-0.886S192.173,414.376,192.173,414.865z"/>
			<rect x="186.149" y="411.252" style="fill:#263238;" width="6.023" height="3.614"/>
			<rect x="186.149" y="411.252" style="opacity:0.2;fill:#FFFFFF;" width="6.023" height="3.614"/>
			<path style="fill:#263238;" d="M192.173,411.252c0,0.489-1.348,0.886-3.012,0.886s-3.012-0.397-3.012-0.886
				c0-0.489,1.348-0.886,3.012-0.886S192.173,410.763,192.173,411.252z"/>
		</g>
		<g>
			<path style="fill:#263238;" d="M202.824,409.06c0,0.489-1.348,0.886-3.012,0.886c-1.663,0-3.012-0.397-3.012-0.886
				s1.348-0.886,3.012-0.886C201.475,408.174,202.824,408.571,202.824,409.06z"/>
			<path style="opacity:0.2;fill:#FFFFFF;" d="M202.824,409.06c0,0.489-1.348,0.886-3.012,0.886c-1.663,0-3.012-0.397-3.012-0.886
				s1.348-0.886,3.012-0.886C201.475,408.174,202.824,408.571,202.824,409.06z"/>
			<rect x="196.8" y="405.447" style="fill:#263238;" width="6.023" height="3.614"/>
			<rect x="196.8" y="405.447" style="opacity:0.2;fill:#FFFFFF;" width="6.023" height="3.614"/>
			<path style="fill:#263238;" d="M202.824,405.447c0,0.489-1.348,0.886-3.012,0.886c-1.663,0-3.012-0.397-3.012-0.886
				c0-0.489,1.348-0.886,3.012-0.886C201.475,404.561,202.824,404.957,202.824,405.447z"/>
		</g>
		<g>
			<path style="fill:#263238;" d="M200.378,414.865c0,0.489-1.348,0.886-3.012,0.886s-3.012-0.397-3.012-0.886
				c0-0.489,1.348-0.886,3.012-0.886S200.378,414.376,200.378,414.865z"/>
			<path style="opacity:0.2;fill:#FFFFFF;" d="M200.378,414.865c0,0.489-1.348,0.886-3.012,0.886s-3.012-0.397-3.012-0.886
				c0-0.489,1.348-0.886,3.012-0.886S200.378,414.376,200.378,414.865z"/>
			<rect x="194.355" y="411.252" style="fill:#263238;" width="6.023" height="3.614"/>
			<rect x="194.355" y="411.252" style="opacity:0.2;fill:#FFFFFF;" width="6.023" height="3.614"/>
			<path style="fill:#263238;" d="M200.378,411.252c0,0.489-1.348,0.886-3.012,0.886s-3.012-0.397-3.012-0.886
				c0-0.489,1.348-0.886,3.012-0.886S200.378,410.763,200.378,411.252z"/>
		</g>
		<path style="fill:#263238;" d="M193.574,405.854h-3.557v-4.546c1.066-0.668,2.238-0.743,3.557,0V405.854z"/>
		<path style="fill:#263238;" d="M186.231,405.854h-3.556v-4.546c1.066-0.668,2.238-0.743,3.556,0V405.854z"/>
		<g>
			<g>
				<path style="fill:#263238;" d="M192.034,401.066c2.559-6.282,11.206-6.182,16.757-5.018c2.855,0.599,5.259,1.973,6.54,4.673
					c1.113,2.346,1.488,4.992,1.898,7.531c0.077,0.475,0.8,0.273,0.723-0.199c-0.462-2.864-0.888-5.913-2.366-8.464
					c-1.558-2.688-4.407-3.913-7.362-4.409c-5.905-0.99-14.25-0.851-16.912,5.686C191.129,401.314,191.854,401.508,192.034,401.066
					L192.034,401.066z"/>
			</g>
		</g>
		<g>
			<g>
				<path style="fill:#263238;" d="M185.536,400.96c2.8-6.957,11.851-7.018,18.082-6.112c3.244,0.472,6.512,1.61,8.41,4.454
					c1.75,2.622,2.179,5.908,2.67,8.951c0.077,0.475,0.8,0.273,0.723-0.199c-0.544-3.374-1.052-7.039-3.236-9.806
					c-2.149-2.723-5.553-3.76-8.865-4.191c-6.597-0.859-15.588-0.547-18.507,6.704C184.632,401.208,185.357,401.402,185.536,400.96
					L185.536,400.96z"/>
			</g>
		</g>
		<g>
			<g>
				<path style="fill:#263238;" d="M40.697,430.744c0.741,5.79,5.143,10.29,10.358,12.531c6.795,2.92,14.498,2.017,21.599,0.988
					c4.074-0.591,8.156-1.253,12.28-1.337c4.08-0.083,8.032,0.571,11.916,1.801c7.298,2.31,14.122,5.703,21.643,7.348
					c7.276,1.592,14.795,2.079,22.215,1.435c3.726-0.323,7.43-0.926,11.063-1.815c3.725-0.911,7.331-2.198,10.965-3.409
					c3.809-1.269,7.7-2.444,11.719-2.78c4.052-0.339,8.113,0.169,12.081,0.979c3.92,0.801,7.753,1.986,11.671,2.786
					c1.723,0.352,3.498,0.197,5.214-0.124c4.716-0.884,9.289-3.024,13.295-5.619c3.335-2.16,7.116-5.039,8.562-8.897
					c0.268-0.715,0.419-1.457,0.433-2.221c0.009-0.483-0.741-0.483-0.75,0c-0.073,3.976-4.102,7.268-7.029,9.38
					c-3.9,2.814-8.39,5.057-13.055,6.263c-1.845,0.477-3.811,0.832-5.722,0.617c-1.375-0.155-2.735-0.591-4.074-0.925
					c-2.006-0.5-4.008-1.014-6.022-1.477c-3.56-0.817-7.177-1.485-10.836-1.602c-3.603-0.115-7.147,0.416-10.622,1.345
					c-7.113,1.902-13.84,4.782-21.141,6.016c-7.39,1.248-14.989,1.342-22.409,0.29c-7.28-1.032-14.037-3.391-20.845-6.073
					c-3.353-1.321-6.746-2.595-10.279-3.345c-3.576-0.759-7.216-0.86-10.854-0.58c-8.538,0.657-17.124,3.23-25.713,1.72
					c-6.872-1.208-13.963-5.864-14.914-13.295C41.386,430.272,40.635,430.266,40.697,430.744L40.697,430.744z"/>
			</g>
		</g>
		<path style="fill:none;stroke:#407BFF;stroke-width:0.25;stroke-miterlimit:10;" d="M138.673,408.564
			c1.88,0.287,4.374-1.564,6.1-2.259c0.368-0.148,0.808-0.288,1.155-0.102c0.303,0.163,0.414,0.529,0.356,0.846
			c-0.059,0.317-0.253,0.597-0.443,0.868c-0.543,0.773-1.086,1.547-1.628,2.32c-0.493,0.703-1.009,1.509-0.805,2.324
			c0.263,1.048,1.625,1.567,2.794,1.474c1.573-0.125,2.955-1.027,4.036-2.083c1.081-1.055,1.942-2.285,3.017-3.346
			c0.361-0.357,0.762-0.703,1.26-0.871c0.498-0.168,1.118-0.118,1.481,0.238c0.487,0.477,0.345,1.274,0.748,1.813
			c0.442,0.591,1.401,0.66,2.127,0.392c0.725-0.268,1.299-0.786,1.931-1.208c1.124-0.751,2.474-1.214,3.86-1.323
			c0.527-0.041,1.187,0.045,1.364,0.501c0.201,0.519-0.41,1.069-0.259,1.602c0.144,0.506,0.849,0.65,1.419,0.64
			c1.27-0.022,2.533-0.337,3.64-0.908"/>
	</g>
</g>
</svg>
