<?xml version="1.0" encoding="utf-8"?>
<!-- Generator: Adobe Illustrator 27.5.0, SVG Export Plug-In . SVG Version: 6.00 Build 0)  -->
<svg version="1.1" xmlns="http://www.w3.org/2000/svg" xmlns:xlink="http://www.w3.org/1999/xlink" x="0px" y="0px"
	 viewBox="0 0 500 500" style="enable-background:new 0 0 500 500;" xml:space="preserve">
<g id="Background">
	<rect style="fill:#FFFFFF;" width="500" height="500"/>
</g>
<g id="Objects">
	<g>
		<g>
			<g>
				<g>
					<path style="fill:#1D2C52;" d="M165.22,39.855c0.934,0,1.874,0.242,2.722,0.739l45.107,26.344
						c5.083,2.976,6.12,9.886,2.133,14.222l0,0c-1.816,1.975-4.303,2.985-6.803,2.985c-2.074,0-4.157-0.695-5.874-2.111
						l-40.717-32.629c-2.482-2.047-2.63-5.798-0.317-8.035C162.503,40.373,163.855,39.855,165.22,39.855 M165.221,38.451
						L165.221,38.451c-1.773,0-3.452,0.679-4.725,1.91c-1.389,1.343-2.142,3.222-2.066,5.153c0.076,1.931,0.975,3.744,2.466,4.974
						l40.733,32.641c1.886,1.556,4.289,2.419,6.751,2.419c2.971,0,5.827-1.254,7.836-3.439c2.189-2.381,3.169-5.581,2.689-8.779
						c-0.48-3.199-2.356-5.97-5.147-7.604L168.65,39.382C167.611,38.773,166.425,38.451,165.221,38.451L165.221,38.451z"/>
				</g>
				<path style="fill:#34909D;" d="M221.228,74.449L221.228,74.449c-1.236-0.39-1.412-2.066-0.284-2.704v0
					c1.406-0.795,0.707-2.946-0.898-2.763c-1.287,0.147-2.13-1.313-1.359-2.355c0.961-1.298-0.553-2.979-1.944-2.159l0,0
					c-1.117,0.658-2.48-0.333-2.2-1.598l0,0c0.35-1.577-1.716-2.496-2.654-1.182l0,0c-0.752,1.055-2.401,0.704-2.659-0.565l0,0
					c-0.322-1.583-2.583-1.583-2.905,0l0,0c-0.258,1.27-1.907,1.62-2.66,0.565l0,0c-0.938-1.315-3.004-0.395-2.654,1.182l0,0
					c0.28,1.265-1.083,2.256-2.2,1.598c-1.391-0.82-2.904,0.861-1.944,2.159l0,0c0.771,1.042-0.072,2.501-1.359,2.355l0,0
					c-1.604-0.183-2.303,1.968-0.898,2.763v0c1.128,0.638,0.952,2.314-0.284,2.704l0,0c-1.54,0.486-1.304,2.734,0.304,2.889l0,0
					c1.29,0.124,1.811,1.727,0.84,2.586c-1.21,1.07-0.079,3.028,1.453,2.516l0,0c1.229-0.411,2.357,0.841,1.819,2.021l0,0
					c-0.67,1.469,1.16,2.799,2.35,1.708l0,0c0.955-0.875,2.495-0.19,2.484,1.106l0,0c-0.014,1.615,2.198,2.085,2.842,0.604
					c0.517-1.188,2.202-1.188,2.719,0c0.644,1.481,2.856,1.011,2.842-0.604l0,0c-0.011-1.296,1.528-1.981,2.484-1.106l0,0
					c1.191,1.091,3.02-0.238,2.35-1.708l0,0c-0.537-1.179,0.59-2.432,1.819-2.021l0,0c1.532,0.512,2.662-1.446,1.453-2.516l0,0
					c-0.971-0.859-0.45-2.462,0.84-2.586l0,0C222.531,77.184,222.768,74.935,221.228,74.449z M207.776,82.808
					c-4.669,0-8.454-3.785-8.454-8.454s3.785-8.454,8.454-8.454c4.669,0,8.454,3.785,8.454,8.454S212.445,82.808,207.776,82.808z"/>
				<path style="fill:#34909D;" d="M176.021,46.083l-2.413-0.761c-0.535-0.169-0.611-0.895-0.123-1.171l2.202-1.246
					c0.609-0.344,0.306-1.276-0.389-1.196l-2.514,0.286c-0.558,0.063-0.923-0.569-0.589-1.02l1.505-2.034
					c0.416-0.562-0.239-1.29-0.842-0.935l-2.18,1.284c-0.483,0.285-1.074-0.144-0.952-0.692l0.548-2.471
					c0.151-0.683-0.743-1.081-1.149-0.512l-1.469,2.06c-0.326,0.457-1.04,0.305-1.152-0.245l-0.505-2.48
					c-0.139-0.685-1.118-0.685-1.258,0l-0.505,2.48c-0.112,0.55-0.826,0.701-1.151,0.245l-1.47-2.06
					c-0.406-0.569-1.301-0.171-1.149,0.512l0.548,2.471c0.122,0.548-0.469,0.977-0.952,0.692l-2.18-1.284
					c-0.603-0.355-1.258,0.373-0.842,0.935l1.505,2.034c0.334,0.451-0.031,1.083-0.589,1.02l-2.514-0.286
					c-0.695-0.079-0.997,0.852-0.389,1.196l2.203,1.246c0.488,0.276,0.412,1.002-0.123,1.171l-2.413,0.761
					c-0.667,0.21-0.564,1.184,0.132,1.251l2.519,0.243c0.559,0.054,0.784,0.748,0.364,1.12l-1.895,1.677
					c-0.524,0.463-0.034,1.311,0.629,1.089l2.4-0.803c0.532-0.178,1.02,0.364,0.788,0.875l-1.049,2.303
					c-0.29,0.636,0.502,1.212,1.018,0.739l1.866-1.71c0.414-0.379,1.08-0.082,1.075,0.479l-0.022,2.531
					c-0.006,0.699,0.952,0.903,1.23,0.261l1.009-2.321c0.224-0.515,0.953-0.515,1.177,0l1.009,2.321
					c0.279,0.641,1.236,0.438,1.23-0.261l-0.022-2.531c-0.005-0.561,0.662-0.858,1.076-0.479l1.866,1.71
					c0.516,0.472,1.308-0.103,1.018-0.739l-1.049-2.303c-0.233-0.511,0.256-1.053,0.788-0.875l2.4,0.803
					c0.663,0.222,1.153-0.626,0.629-1.089l-1.895-1.677c-0.42-0.372-0.195-1.066,0.364-1.12l2.519-0.243
					C176.585,47.267,176.688,46.293,176.021,46.083z M165.37,49.555c-2.278,0-4.124-1.847-4.124-4.124
					c0-2.278,1.846-4.124,4.124-4.124c2.278,0,4.124,1.847,4.124,4.124C169.494,47.708,167.647,49.555,165.37,49.555z"/>
			</g>
			<path style="fill:none;stroke:#D9DFE6;stroke-width:2.5672;stroke-miterlimit:10;" d="M90.442,89.729v47.178
				c0,10.15-8.228,18.378-18.378,18.378h0c-10.15,0-18.378-8.228-18.378-18.378V90.891"/>
			<path style="fill:#D9DFE6;" d="M151.526,270.916H69.163c2.263-10.066,10.582-13.509,18.701-12.031
				c-1.463-22.28,27.319-26.428,37.319-11.386c2.519-4.716,7.888,0.084,4.635,3.172c1.386-0.253,2.923-0.295,4.516-0.112
				C142.305,251.467,151.751,257.923,151.526,270.916z"/>
			<path style="fill:#BAC4CF;" d="M151.526,270.916h-18.501l1.309-20.358C142.305,251.467,151.751,257.923,151.526,270.916z"/>
			<path style="fill:#1D2C52;" d="M93.55,139.984l-4.792-1.314c-0.741-0.203-0.702-1.267,0.052-1.416l4.874-0.961
				c0.848-0.167,0.749-1.411-0.115-1.441l-4.965-0.173c-0.768-0.027-0.976-1.071-0.276-1.389l4.521-2.06
				c0.787-0.359,0.403-1.546-0.445-1.376l-4.872,0.977c-0.753,0.151-1.196-0.817-0.589-1.288l3.925-3.047
				c0.683-0.53,0.036-1.597-0.75-1.236l-4.515,2.074c-0.698,0.321-1.352-0.519-0.87-1.118l3.116-3.87
				c0.542-0.674-0.333-1.562-1.015-1.03l-3.915,3.059c-0.605,0.473-1.436-0.193-1.105-0.887l2.14-4.484
				c0.372-0.78-0.685-1.443-1.225-0.768l-3.104,3.88c-0.48,0.6-1.442,0.143-1.279-0.608l1.048-4.857
				c0.182-0.845-0.999-1.246-1.369-0.465l-2.126,4.491c-0.329,0.694-1.37,0.471-1.385-0.297l-0.1-4.967
				c-0.018-0.865-1.259-0.982-1.439-0.137l-1.033,4.86c-0.16,0.752-1.224,0.775-1.416,0.031l-1.243-4.811
				c-0.216-0.837-1.452-0.665-1.432,0.199l0.116,4.967c0.018,0.768-1.012,1.036-1.371,0.357l-2.319-4.394
				c-0.404-0.765-1.566-0.313-1.347,0.524l1.258,4.807c0.195,0.743-0.746,1.242-1.252,0.663l-3.27-3.741
				c-0.569-0.651-1.596,0.057-1.19,0.821l2.333,4.387c0.361,0.678-0.44,1.38-1.065,0.934l-4.044-2.886
				c-0.704-0.502-1.54,0.424-0.969,1.073l3.282,3.731c0.507,0.577-0.11,1.444-0.821,1.155l-4.601-1.875
				c-0.801-0.326-1.401,0.767-0.695,1.267l4.053,2.873c0.627,0.444,0.227,1.431-0.533,1.313l-4.909-0.764
				c-0.854-0.133-1.186,1.07-0.384,1.394l4.607,1.861c0.712,0.288,0.55,1.34-0.216,1.4l-4.953,0.389
				c-0.862,0.068-0.908,1.315-0.053,1.445l4.912,0.749c0.76,0.116,0.845,1.177,0.113,1.412l-4.73,1.521
				c-0.823,0.265-0.58,1.488,0.282,1.418l4.952-0.404c0.766-0.063,1.093,0.95,0.436,1.348l-4.252,2.571
				c-0.74,0.448-0.221,1.582,0.601,1.315l4.725-1.535c0.731-0.237,1.283,0.673,0.735,1.211l-3.544,3.482
				c-0.617,0.606,0.15,1.59,0.888,1.141l4.244-2.584c0.656-0.4,1.403,0.359,0.994,1.009l-2.646,4.206
				c-0.461,0.732,0.512,1.513,1.127,0.905l3.534-3.493c0.546-0.54,1.448,0.025,1.2,0.752l-1.605,4.702
				c-0.279,0.818,0.848,1.354,1.306,0.62l2.633-4.214c0.407-0.652,1.415-0.309,1.341,0.455l-0.477,4.946
				c-0.083,0.861,1.137,1.122,1.414,0.303l1.59-4.707c0.246-0.728,1.306-0.627,1.41,0.134l0.676,4.922
				c0.118,0.857,1.365,0.83,1.445-0.031l0.462-4.947c0.071-0.765,1.126-0.912,1.403-0.195l1.793,4.634
				c0.312,0.806,1.519,0.492,1.399-0.364l-0.692-4.92c-0.107-0.761,0.885-1.147,1.32-0.513l2.813,4.095
				c0.49,0.713,1.592,0.129,1.278-0.677l-1.808-4.628c-0.28-0.716,0.597-1.32,1.166-0.804l3.682,3.336
				c0.641,0.581,1.579-0.242,1.087-0.953l-2.826-4.086c-0.437-0.632,0.276-1.422,0.949-1.051l4.352,2.397
				c0.757,0.417,1.481-0.6,0.838-1.178l-3.692-3.325c-0.571-0.514-0.059-1.447,0.681-1.242l4.787,1.329
				c0.833,0.231,1.302-0.925,0.544-1.34l-4.36-2.383c-0.674-0.369-0.391-1.395,0.377-1.366l4.965,0.189
				C94.194,141.446,94.384,140.212,93.55,139.984z M71.778,151.005c-7.518,0-13.612-6.094-13.612-13.612
				c0-7.518,6.094-13.612,13.612-13.612s13.612,6.094,13.612,13.612C85.39,144.91,79.296,151.005,71.778,151.005z"/>
			<path style="fill:#BA0034;" d="M121.842,181.341c0.105-0.546,0.158-1.11,0.158-1.686c0-0.577-0.053-1.14-0.158-1.688h-2.931
				c-0.134-0.47-0.319-0.918-0.553-1.335l2.071-2.071c-0.638-0.938-1.448-1.748-2.385-2.387l-2.073,2.073
				c-0.417-0.234-0.865-0.42-1.335-0.552v-2.933c-0.546-0.105-1.11-0.158-1.686-0.158c-0.577,0-1.14,0.053-1.688,0.158v2.933
				c-0.47,0.132-0.916,0.319-1.335,0.552l-2.073-2.073c-0.937,0.639-1.748,1.45-2.384,2.387l2.071,2.071
				c-0.233,0.417-0.42,0.865-0.552,1.335h-2.932c-0.105,0.548-0.158,1.111-0.158,1.688c0,0.577,0.053,1.14,0.158,1.686h2.932
				c0.132,0.47,0.319,0.918,0.552,1.335l-2.071,2.071c0.636,0.937,1.446,1.748,2.384,2.387l2.073-2.073
				c0.419,0.234,0.865,0.42,1.335,0.554v2.932c0.548,0.105,1.111,0.158,1.688,0.158c0.577,0,1.14-0.053,1.686-0.158v-2.932
				c0.47-0.134,0.918-0.32,1.335-0.554l2.073,2.073c0.937-0.638,1.748-1.448,2.385-2.385l-2.071-2.073
				c0.234-0.417,0.419-0.865,0.553-1.335H121.842z M112.949,181.48c-1.009,0-1.826-0.818-1.826-1.826
				c0-1.009,0.818-1.826,1.826-1.826c1.008,0,1.826,0.818,1.826,1.826C114.776,180.663,113.958,181.48,112.949,181.48z"/>
			<path style="fill:#B3BFCC;" d="M388.302,362.77H121.344c-1.821,0-3.456-1.165-4.007-2.905
				c-4.537-14.333,2.688-30.547,15.782-37.898c8.509-4.782,19.498-5.818,31.347-0.165c-4.989-10.267,0.309-21.544,9.663-27.049
				c6.456-3.796,14.845-4.846,23.112-0.909c27.824-26.224,62.803-21.687,84.904,0.909c4.502,4.607,8.474,9.961,11.737,15.961
				c10.667-15.231,25.852-15.344,35.294-8.2c8.26,6.245,12.123,18.045,4.712,30.133c24.898-18.789,54.476,0.477,58.578,25.252
				C392.888,360.455,390.891,362.77,388.302,362.77z"/>
			<path style="fill:#304B6E;" d="M361.056,190.362c0,16.723-12.123,30.61-28.056,33.354c-1.884,0.33-3.821,0.498-5.796,0.498
				c-18.698,0-33.856-15.154-33.856-33.852c0-18.694,15.158-33.852,33.856-33.852c0.203,0,0.407,0.004,0.607,0.007
				C346.225,156.84,361.056,171.872,361.056,190.362z"/>
			<path style="fill:#1D2C52;" d="M333.001,223.716c-1.884,0.33-3.821,0.498-5.796,0.498c-18.698,0-33.856-15.154-33.856-33.852
				c0-18.694,15.158-33.852,33.856-33.852c0.203,0,0.407,0.004,0.607,0.007L333.001,223.716z"/>
			<g>
				<g>
					<g>
						<path style="fill:#34909D;" d="M327.129,115.93v218.189c0,5.267-4.276,9.543-9.547,9.543h-171.34
							c-5.272,0-9.548-4.276-9.548-9.543V115.93c0-5.272,4.276-9.548,9.548-9.548h171.34
							C322.854,106.382,327.129,110.658,327.129,115.93z"/>
						<g>
							<path style="fill:#34909D;" d="M311.321,116.094c0,1.942,1.574,3.516,3.516,3.516s3.516-1.574,3.516-3.516
								c0-1.942-1.574-3.516-3.516-3.516S311.321,114.152,311.321,116.094z"/>
							<path style="fill:#F8B85E;" d="M301.522,116.094c0,1.942,1.574,3.516,3.516,3.516c1.941,0,3.516-1.574,3.516-3.516
								c0-1.942-1.574-3.516-3.516-3.516C303.096,112.578,301.522,114.152,301.522,116.094z"/>
							<path style="fill:#BA0034;" d="M291.723,116.094c0,1.942,1.574,3.516,3.516,3.516c1.942,0,3.516-1.574,3.516-3.516
								c0-1.942-1.574-3.516-3.516-3.516C293.297,112.578,291.723,114.152,291.723,116.094z"/>
						</g>
					</g>
					<rect x="136.694" y="231.972" style="fill:#1D2C52;" width="190.435" height="58.714"/>
					<g>
						<rect x="297.474" y="126.019" style="fill:#304B6E;" width="19.551" height="4.2"/>
						<rect x="273.945" y="126.019" style="fill:#304B6E;" width="19.551" height="4.2"/>
						<rect x="250.416" y="126.019" style="fill:#FFFFFF;" width="19.551" height="4.2"/>
						<rect x="226.887" y="126.019" style="fill:#304B6E;" width="19.551" height="4.2"/>
					</g>
					<path style="fill:#FFFFFF;" d="M313.219,200.752H150.604c-2,0-3.621-1.621-3.621-3.622v-50.2c0-2,1.621-3.622,3.621-3.622
						h162.615c2,0,3.622,1.621,3.622,3.622v50.2C316.841,199.13,315.22,200.752,313.219,200.752z"/>
					<g>
						<polygon style="fill:#1D2C52;" points="312.216,165.414 312.216,181.677 320.347,173.545 						"/>
						<polygon style="fill:#1D2C52;" points="142.433,173.545 150.564,181.677 150.564,165.414 						"/>
					</g>
					<g>
						<rect x="191.44" y="205.444" style="fill:#75BFC9;" width="125.401" height="2.996"/>
						<rect x="191.44" y="211.479" style="fill:#75BFC9;" width="125.401" height="2.996"/>
						<rect x="191.44" y="217.515" style="fill:#75BFC9;" width="85.006" height="2.996"/>
					</g>
					<g>
						<rect x="146.692" y="205.444" style="fill:#FFFFFF;" width="37.524" height="2.996"/>
						<rect x="146.692" y="211.592" style="fill:#FFFFFF;" width="37.524" height="2.996"/>
						<rect x="146.692" y="217.742" style="fill:#FFFFFF;" width="37.524" height="2.996"/>
						<rect x="146.692" y="223.89" style="fill:#FFFFFF;" width="23.585" height="2.996"/>
					</g>
					<g>
						<rect x="146.692" y="297.454" style="fill:#FFFFFF;" width="82.626" height="2.996"/>
						<rect x="146.692" y="303.603" style="fill:#FFFFFF;" width="82.626" height="2.996"/>
						<rect x="146.692" y="309.752" style="fill:#FFFFFF;" width="82.626" height="2.996"/>
						<rect x="146.692" y="315.901" style="fill:#FFFFFF;" width="51.933" height="2.996"/>
					</g>
					<g>
						<rect x="234.725" y="297.454" style="fill:#FFFFFF;" width="82.626" height="2.996"/>
						<rect x="234.725" y="303.603" style="fill:#FFFFFF;" width="81.521" height="2.996"/>
						<rect x="234.725" y="309.752" style="fill:#FFFFFF;" width="41.33" height="2.996"/>
					</g>
					<path style="fill:#FFFFFF;" d="M181.959,284.535h-32.973c-1.334,0-2.415-1.081-2.415-2.415v-42.735
						c0-1.334,1.081-2.415,2.415-2.415h32.973c1.334,0,2.415,1.081,2.415,2.415v42.735
						C184.374,283.454,183.292,284.535,181.959,284.535z"/>
					<path style="fill:#FFFFFF;" d="M226.172,284.535h-32.973c-1.334,0-2.415-1.081-2.415-2.415v-42.735
						c0-1.334,1.081-2.415,2.415-2.415h32.973c1.334,0,2.415,1.081,2.415,2.415v42.735
						C228.587,283.454,227.505,284.535,226.172,284.535z"/>
					<path style="fill:#FFFFFF;" d="M270.385,284.535h-32.973c-1.334,0-2.415-1.081-2.415-2.415v-42.735
						c0-1.334,1.081-2.415,2.415-2.415h32.973c1.334,0,2.415,1.081,2.415,2.415v42.735
						C272.8,283.454,271.718,284.535,270.385,284.535z"/>
					<path style="fill:#FFFFFF;" d="M314.598,284.535h-32.973c-1.334,0-2.415-1.081-2.415-2.415v-42.735
						c0-1.334,1.081-2.415,2.415-2.415h32.973c1.334,0,2.415,1.081,2.415,2.415v42.735
						C317.013,283.454,315.931,284.535,314.598,284.535z"/>
					<g>
						<rect x="157.532" y="272.69" style="fill:#D9DFE6;" width="22.782" height="2.953"/>
						<rect x="157.532" y="277.752" style="fill:#D9DFE6;" width="15.395" height="2.953"/>
					</g>
					<g>
						<rect x="201.303" y="272.69" style="fill:#D9DFE6;" width="22.782" height="2.953"/>
						<rect x="201.303" y="277.752" style="fill:#D9DFE6;" width="15.395" height="2.953"/>
					</g>
					<g>
						<rect x="245.074" y="272.69" style="fill:#D9DFE6;" width="22.782" height="2.953"/>
						<rect x="245.074" y="277.752" style="fill:#D9DFE6;" width="15.395" height="2.953"/>
					</g>
					<g>
						<rect x="288.845" y="272.69" style="fill:#D9DFE6;" width="22.782" height="2.953"/>
						<rect x="288.845" y="277.752" style="fill:#D9DFE6;" width="15.395" height="2.953"/>
					</g>
					<path style="fill:#1D2C52;" d="M327.129,325.395v8.724c0,5.267-4.276,9.543-9.547,9.543h-171.34
						c-5.272,0-9.548-4.276-9.548-9.543v-8.724H327.129z"/>
					<g>
						<rect x="202.73" y="329.427" style="fill:#304B6E;" width="58.915" height="3.209"/>
						<rect x="218.35" y="335.5" style="fill:#304B6E;" width="27.675" height="3.209"/>
					</g>
				</g>
			</g>
			
				<text transform="matrix(1 0 0 1 49.2752 91.3927)" style="fill:#304B6E; font-family:'Montserrat-ExtraBoldItalic'; font-size:34.9442px;">cms</text>
			
				<text transform="matrix(1 0 0 1 148.1697 131.6007)" style="fill:#D9DFE6; font-family:'Montserrat-ExtraBoldItalic'; font-size:17.04px;">www</text>
			<path style="fill:#FFFFFF;" d="M331.067,338.809c4.324-4.107-2.81-10.485-6.161-4.216c-13.295-19.997-51.56-14.484-49.614,15.133
				c-10.792-1.963-21.851,2.612-24.861,15.997h109.497C360.288,345,342.135,336.783,331.067,338.809z"/>
			<path style="fill:#FFFFFF;" d="M205.932,348.659c-2.742-2.604,1.782-6.648,3.906-2.673c8.43-12.679,32.692-9.184,31.458,9.595
				c6.843-1.244,13.855,1.656,15.763,10.143h-69.427C187.404,352.584,198.914,347.374,205.932,348.659z"/>
			<g>
				<g>
					<path style="fill:#304B6E;" d="M227.214,445.562h-74.039c-1.078,0-1.952-0.874-1.952-1.952v-45.171
						c0-1.078,0.874-1.952,1.952-1.952h74.039c1.078,0,1.952,0.874,1.952,1.952v45.171
						C229.166,444.688,228.292,445.562,227.214,445.562z"/>
				</g>
				<g>
					<rect x="154.01" y="398.243" style="fill:#FFFFFF;" width="72.367" height="39.869"/>
				</g>
				<path style="fill:#E5EBF2;" d="M226.378,429.162v8.951h-32.105l-2.839-4.691l17.28-20.115c0.677-0.79,1.891-0.818,2.607-0.06
					L226.378,429.162z"/>
				<path style="fill:#CAD2DB;" d="M206.315,438.112H154.01v-13.046l19.281-18.403c0.695-0.667,1.796-0.646,2.47,0.046
					L206.315,438.112z"/>
			</g>
			<path style="fill:#1D2C52;" d="M295.089,398.858h-8.756v3.786h8.756V398.858z M326.694,410.594h23.927v-3.79h-23.927V410.594z
				 M350.613,382.957h-55.946v3.786h55.946V382.957z M286.333,418.545h21.716v-3.79h-21.716V418.545z M303.036,390.907h-16.703
				v3.786h16.703V390.907z M297.778,402.643h33.867v-3.786h-33.867V402.643z M322.17,406.804h-35.837v3.79h35.837V406.804z
				 M334.333,402.643h29.907v-3.786h-29.907V402.643z M307.56,394.693h56.68v-3.786h-56.68V394.693z M352.898,382.957v3.786h11.342
				v-3.786H352.898z M355.145,410.594h9.095v-3.79h-9.095V410.594z M312.573,418.545h22.371v-3.79h-22.371V418.545z
				 M337.637,418.545h17.038v-3.79h-17.038V418.545z"/>
			<path style="fill:#34909D;" d="M55.726,362.702h24.492v-2.738H55.726V362.702z M76.638,368.452h17.304v-2.741H76.638V368.452z
				 M73.367,365.711H47.45v2.741h25.917V365.711z M53.782,359.964H47.45v2.738h6.332V359.964z M93.936,348.465h-40.46v2.738h40.46
				V348.465z M59.529,354.214H47.45v2.738h12.079V354.214z M95.589,348.465v2.738h8.202v-2.738H95.589z M97.214,368.452h6.578
				v-2.741h-6.578V368.452z M82.163,362.702h21.629v-2.738H82.163V362.702z M62.801,356.952h40.991v-2.738H62.801V356.952z
				 M66.426,374.202h16.179v-2.741H66.426V374.202z M84.552,374.202h12.322v-2.741H84.552V374.202z M47.45,374.202h15.705v-2.741
				H47.45V374.202z"/>
			<g>
				<path style="fill:#D9DFE6;" d="M454.399,336.515h-97.706v-51.549c0-2.4,1.946-4.346,4.346-4.346h89.014
					c2.4,0,4.346,1.946,4.346,4.346V336.515z"/>
				<path style="fill:#C5CED9;" d="M454.543,341.354h-97.995c-1.332,0-2.411-1.08-2.411-2.411v-2.99h102.818v2.99
					C456.955,340.275,455.875,341.354,454.543,341.354z"/>
				<rect x="358.176" y="285.055" style="fill:#304B6E;" width="94.739" height="48.357"/>
				<polygon style="fill:#1B294D;" points="452.915,319.633 452.915,333.412 430.561,333.412 382.204,285.055 418.34,285.055 				
					"/>
			</g>
			
				<text transform="matrix(0.6961 0 0 1 407.1268 169.6143)" style="fill:#1D2C52; font-family:'Montserrat-SemiBoldItalic'; font-size:29.2453px;">&lt;/&gt;</text>
			<g>
				<g>
					<path style="fill:#D9DFE6;" d="M402.22,122.2h-60.442c-0.889,0-1.61-0.721-1.61-1.61V83.726c0-0.889,0.721-1.61,1.61-1.61
						h60.442c0.889,0,1.61,0.721,1.61,1.61v36.863C403.831,121.479,403.11,122.2,402.22,122.2z"/>
					<path style="fill:#FFFFFF;" d="M373.217,114.825h-28.945v-3.078c1.218-2.674,2.929-4.161,4.826-5.073
						c0.748-0.361,1.522-0.628,2.307-0.843c0.877-0.241,1.765-0.413,2.639-0.57c0.59-0.109,1.012-0.625,0.995-1.224l-0.014-0.421
						c-0.014-0.367-0.189-0.711-0.484-0.926c-6.124-4.413-3.568-14.759,4.198-14.553c8.678,0.224,8.721,12.148,2.141,14.541
						c-0.519,0.186-0.874,0.679-0.831,1.226l0.003,0.06c0.037,0.593,0.504,1.066,1.095,1.121c0.307,0.029,0.605,0.06,0.897,0.097
						c0.003,0,0.003,0,0.003,0c0.739,0.095,1.439,0.221,2.098,0.381C368.81,106.672,371.641,109.429,373.217,114.825z"/>
					<path style="fill:#FFFFFF;" d="M398.912,114.825H376.63c0.372-1.866,0.951-3.253,1.668-4.293
						c1.628-2.364,3.963-2.957,6.202-3.37c0.057-0.009,0.115-0.02,0.172-0.032c0.444-0.08,0.762-0.473,0.748-0.926l-0.009-0.269
						c-0.003-0.046-0.009-0.095-0.014-0.143c-0.043-0.224-0.172-0.424-0.358-0.556c-1.989-1.447-2.717-3.748-2.407-5.843
						c0.381-2.599,2.356-4.878,5.497-4.795c4.717,0.12,5.947,4.964,4.296,8.165c-0.501,0.974-1.27,1.8-2.293,2.29
						c-0.146,0.069-0.298,0.135-0.453,0.189c-0.378,0.138-0.619,0.51-0.59,0.914c0.031,0.444,0.381,0.803,0.825,0.846
						c0.619,0.057,1.201,0.14,1.751,0.255c0.003-0.003,0.003-0.003,0.006,0c0.553,0.109,1.075,0.252,1.562,0.427
						c0.003,0,0.006,0,0.009,0.006c0.227,0.077,0.444,0.163,0.656,0.258v0.003c1.459,0.645,2.602,1.634,3.479,3.044
						C398.024,112.028,398.528,113.295,398.912,114.825z"/>
				</g>
				
					<rect x="335.863" y="77.292" style="fill:none;stroke:#1D2C52;stroke-width:0.2961;stroke-miterlimit:10;stroke-dasharray:2.9611,0.8883;" width="72.273" height="49.731"/>
				<g>
					<g>
						<rect x="334.599" y="76.019" style="fill:#1D2C52;" width="2.455" height="2.455"/>
						<rect x="370.736" y="76.019" style="fill:#1D2C52;" width="2.455" height="2.455"/>
						<rect x="406.872" y="76.019" style="fill:#1D2C52;" width="2.455" height="2.455"/>
					</g>
					<g>
						<rect x="334.599" y="100.812" style="fill:#1D2C52;" width="2.455" height="2.455"/>
						<rect x="406.872" y="100.812" style="fill:#1D2C52;" width="2.455" height="2.455"/>
					</g>
					<g>
						<rect x="334.599" y="125.604" style="fill:#1D2C52;" width="2.455" height="2.455"/>
						<rect x="370.736" y="125.604" style="fill:#1D2C52;" width="2.455" height="2.455"/>
						<rect x="406.872" y="125.604" style="fill:#1D2C52;" width="2.455" height="2.455"/>
					</g>
				</g>
			</g>
			<g>
				<rect x="87.369" y="297.463" style="fill:#1D2C52;" width="1.217" height="20.911"/>
				<g>
					<rect x="88.644" y="318.426" style="fill:#1D2C52;" width="5.323" height="1.335"/>
					<rect x="81.988" y="318.426" style="fill:#1D2C52;" width="5.323" height="1.335"/>
				</g>
				<g>
					<rect x="88.644" y="296.078" style="fill:#1D2C52;" width="5.323" height="1.335"/>
					<rect x="81.988" y="296.078" style="fill:#1D2C52;" width="5.323" height="1.335"/>
				</g>
			</g>
			<path style="fill:#D9DFE6;" d="M58.805,284.643c0,2.069-1.677,3.746-3.746,3.746c-2.069,0-3.746-1.677-3.746-3.746
				c0-2.069,1.677-3.746,3.746-3.746C57.127,280.897,58.805,282.574,58.805,284.643z"/>
			<path style="fill:#D9DFE6;" d="M126.239,396.846c0,1.552-1.258,2.81-2.81,2.81c-1.552,0-2.81-1.258-2.81-2.81
				c0-1.552,1.258-2.81,2.81-2.81C124.981,394.036,126.239,395.294,126.239,396.846z"/>
			<circle style="fill:#D9DFE6;" cx="266.915" cy="429.065" r="2.81"/>
			<path style="fill:#D9DFE6;" d="M426.163,225.461c0,1.862-1.51,3.372-3.372,3.372c-1.862,0-3.372-1.51-3.372-3.372
				c0-1.862,1.51-3.372,3.372-3.372C424.653,222.089,426.163,223.599,426.163,225.461z"/>
			<path style="fill:#D9DFE6;" d="M369.003,147.152c0,2.069-1.677,3.746-3.746,3.746c-2.069,0-3.746-1.677-3.746-3.746
				c0-2.069,1.677-3.746,3.746-3.746C367.326,143.405,369.003,145.083,369.003,147.152z"/>
			<path style="fill:none;stroke:#D9DFE6;stroke-width:1.7544;stroke-miterlimit:10;" d="M278.716,52.931
				c0,1.966-1.593,3.559-3.559,3.559s-3.559-1.594-3.559-3.559s1.593-3.559,3.559-3.559S278.716,50.965,278.716,52.931z"/>
			<circle style="fill:#D9DFE6;" cx="124.928" cy="127.858" r="2.06"/>
			<path style="fill:none;stroke:#D9DFE6;stroke-width:1.7544;stroke-miterlimit:10;" d="M52.411,199.706
				c0,2.586-2.097,4.683-4.683,4.683c-2.586,0-4.683-2.097-4.683-4.683s2.097-4.683,4.683-4.683
				C50.314,195.023,52.411,197.12,52.411,199.706z"/>
			<g>
				<path style="fill:#D9DFE6;" d="M338.812,235.291L338.812,235.291c0,3.835,3.108,6.943,6.943,6.943H370.8
					c1.448,0,2.622,1.174,2.622,2.622l0,0c0,1.448-1.174,2.622-2.622,2.622h-3.689c-2.501,0-4.528,2.027-4.528,4.528v0.24
					c0,2.501,2.027,4.528,4.528,4.528h48.766c2.501,0,4.528-2.027,4.528-4.528l0,0c0-2.501-2.027-4.528-4.528-4.528h-33.256
					c-1.448,0-2.622-1.174-2.622-2.622v-0.24c0-1.448,1.174-2.622,2.622-2.622h14.122c3.835,0,6.943-3.108,6.943-6.943l0,0
					c0-3.835-3.108-6.943-6.943-6.943h-50.987C341.921,228.348,338.812,231.456,338.812,235.291z"/>
				<circle style="fill:#FFFFFF;" cx="345.635" cy="235.289" r="4.323"/>
			</g>
			<path style="fill:#D9DFE6;" d="M82.096,239.802H54.744c-3.408,0-6.197-2.789-6.197-6.197l0,0c0-3.408,2.789-6.197,6.197-6.197
				h27.352c3.408,0,6.197,2.789,6.197,6.197l0,0C88.293,237.013,85.504,239.802,82.096,239.802z"/>
			<path style="fill:#D9DFE6;" d="M295.354,87.122h-31.385c-2.299,0-4.18-1.881-4.18-4.18l0,0c0-2.299,1.881-4.18,4.18-4.18h31.385
				c2.299,0,4.18,1.881,4.18,4.18l0,0C299.534,85.241,297.653,87.122,295.354,87.122z"/>
			
				<path style="fill:none;stroke:#1D2C52;stroke-width:2.807;stroke-linecap:round;stroke-miterlimit:10;stroke-dasharray:0,4.2105;" d="
				M408.482,343.766v33.412c0,11.724-9.505,21.229-21.229,21.229h-19.45"/>
			
				<line style="fill:none;stroke:#1D2C52;stroke-width:2.807;stroke-linecap:round;stroke-miterlimit:10;stroke-dasharray:0,4.2105;" x1="147.135" y1="420.698" x2="68.237" y2="420.698"/>
			
				<line style="fill:none;stroke:#1D2C52;stroke-width:1.4035;stroke-linecap:round;stroke-miterlimit:10;stroke-dasharray:0,4.2105;" x1="207.784" y1="394.09" x2="207.784" y2="347.291"/>
			
				<path style="fill:none;stroke:#1D2C52;stroke-width:2.807;stroke-linecap:round;stroke-miterlimit:10;stroke-dasharray:0,4.2105;" d="
				M136.132,77.291h27.09c5.317,0,9.627,4.31,9.627,9.627v17.031"/>
			<g>
				<path style="fill:#34909D;" d="M364.812,180.063H347.34c-5.107,0-9.286,4.178-9.286,9.286c0,4.929,3.892,8.991,8.754,9.269
					l-5.74,6.826l10.821-6.81h12.923c5.107,0,9.286-4.179,9.286-9.286C374.098,184.241,369.919,180.063,364.812,180.063z"/>
				<path style="fill:#D9DFE6;" d="M347.882,186.349c-1.667,0-3.019,1.352-3.019,3.019c0,1.667,1.352,3.019,3.019,3.019
					c1.667,0,3.019-1.352,3.019-3.019C350.901,187.701,349.549,186.349,347.882,186.349z M356.076,186.349
					c-1.667,0-3.019,1.352-3.019,3.019c0,1.667,1.352,3.019,3.019,3.019s3.019-1.352,3.019-3.019
					C359.095,187.701,357.744,186.349,356.076,186.349z M364.27,186.349c-1.667,0-3.019,1.352-3.019,3.019
					c0,1.667,1.352,3.019,3.019,3.019s3.019-1.352,3.019-3.019C367.289,187.701,365.938,186.349,364.27,186.349z"/>
			</g>
			
				<line style="fill:none;stroke:#1D2C52;stroke-width:1.7544;stroke-miterlimit:10;stroke-dasharray:1.4035;" x1="88.05" y1="154.909" x2="105.389" y2="172.248"/>
		</g>
	</g>
</g>
</svg>
