<?xml version="1.0" encoding="utf-8"?>
<!-- Generator: Adobe Illustrator 27.5.0, SVG Export Plug-In . SVG Version: 6.00 Build 0)  -->
<svg version="1.1" xmlns="http://www.w3.org/2000/svg" xmlns:xlink="http://www.w3.org/1999/xlink" x="0px" y="0px"
	 viewBox="0 0 750 500" style="enable-background:new 0 0 750 500;" xml:space="preserve">
<g id="BACKGROUND">
	<rect style="fill:#FFFFFF;" width="750" height="500"/>
	<path style="fill:#E8F2FF;" d="M673.52,198.326c6.209-8.496,12.43-16.983,18.639-25.478c4.737-6.48,10.044-13.52,10.761-21.806
		c1.39-16.049-15.182-23.686-27.247-29.463c-9.231-4.42-18.461-8.839-27.691-13.259c-6.933-3.319-18.818-6.919-21.158-15.267
		c-3.029-10.806,12.961-18.77,19.341-24.766c8.768-8.241,12.112-19.576,3.889-29.704c-10.948-13.482-32.464-11.881-48.016-12.401
		c-82.567-2.762-164.699,9.388-245.702,24.129c-3.163,0.576-6.32,1.179-9.479,1.775c-25.074-8.657-51.36-13.332-78.066-14.05
		c-33.96-0.913-69.559,3.785-100.864,17.493c-27.092,11.863-52.235,32.797-57.964,63.199c-3.352,17.787-0.227,36.13,5.382,53.128
		c2.935,8.893,9.514,20.068,5.055,29.427c-3.719,7.805-12.855,12.21-19.436,17.261c-12.895,9.898-24.192,21.765-33.536,35.063
		c-4.784,6.81-9.033,13.995-12.678,21.478c-3.597,7.385-7.515,15.486-7.744,23.846c-0.385,14.026,10.889,22.597,22.969,26.856
		c16.288,5.744,34.829,6.787,51.894,8.467c16.682,1.642,35.036,0.639,50.923,6.699c7.539,2.875,14.047,8.011,17.401,15.489
		c3.151,7.025,3.327,14.982,3.075,22.544c-0.452,13.538-3.205,28.255,2.486,41.107c5.87,13.258,19.896,19.51,33.819,19.708
		c18.591,0.264,36.577-8.694,54.061-13.946c18.358-5.515,37.09-9.913,56.084-12.561c37.474-5.225,76.324-3.229,111.603,11.309
		c16.466,6.785,33.337,16.282,51.738,15.168c14.806-0.896,27.024-9.227,37.77-18.806c11.628-10.364,22.145-21.704,35.963-29.261
		c13.722-7.505,28.821-11.969,43.73-16.442c26.786-8.037,59.638-17.448,73.974-44.011c6.326-11.72,6.132-24.972-1.661-35.872
		c-6.697-9.367-16.411-15.951-25.297-23.045c-8.32-6.642-17.843-14.569-19.492-25.751c-1.284-8.708,2.923-16.713,7.644-23.705
		C661.341,214.506,667.56,206.481,673.52,198.326z"/>
	<g>
		<path id="XMLID_2_" style="fill:#FFAC6E;" d="M584.542,66.796l0.668,1.353c0.219,0.444,0.642,0.751,1.132,0.822l1.493,0.217
			c1.233,0.179,1.725,1.694,0.833,2.564l-1.081,1.053c-0.354,0.345-0.516,0.843-0.432,1.331l0.255,1.487
			c0.211,1.228-1.078,2.164-2.181,1.585l-1.336-0.702c-0.438-0.23-0.961-0.23-1.399,0l-1.336,0.702
			c-1.103,0.58-2.392-0.357-2.181-1.585l0.255-1.487c0.084-0.488-0.078-0.985-0.432-1.331l-1.08-1.053
			c-0.892-0.87-0.4-2.385,0.833-2.564l1.493-0.217c0.49-0.071,0.913-0.379,1.132-0.822l0.668-1.353
			C582.397,65.678,583.991,65.678,584.542,66.796z"/>
		<path id="XMLID_5_" style="fill:#FFAC6E;" d="M167.205,95.938l0.668,1.353c0.219,0.444,0.642,0.751,1.132,0.822l1.493,0.217
			c1.233,0.179,1.725,1.694,0.833,2.564l-1.08,1.053c-0.354,0.345-0.516,0.843-0.432,1.331l0.255,1.487
			c0.211,1.228-1.078,2.164-2.181,1.585l-1.335-0.702c-0.438-0.23-0.961-0.23-1.399,0l-1.336,0.702
			c-1.103,0.58-2.392-0.357-2.181-1.585l0.255-1.487c0.084-0.488-0.078-0.985-0.432-1.331l-1.08-1.053
			c-0.892-0.87-0.4-2.385,0.833-2.564l1.493-0.217c0.49-0.071,0.913-0.379,1.132-0.822l0.668-1.353
			C165.06,94.821,166.653,94.821,167.205,95.938z"/>
		<path id="XMLID_4_" style="fill:#FFAC6E;" d="M346.479,378.065l0.668,1.353c0.219,0.444,0.642,0.751,1.132,0.822l1.493,0.217
			c1.233,0.179,1.725,1.694,0.833,2.564l-1.081,1.053c-0.354,0.345-0.516,0.843-0.432,1.331l0.255,1.487
			c0.211,1.228-1.078,2.165-2.181,1.585l-1.336-0.702c-0.438-0.23-0.961-0.23-1.399,0l-1.336,0.702
			c-1.103,0.58-2.392-0.357-2.181-1.585l0.255-1.487c0.084-0.488-0.078-0.985-0.432-1.331l-1.08-1.053
			c-0.892-0.87-0.4-2.385,0.833-2.564l1.493-0.217c0.49-0.071,0.913-0.379,1.132-0.822l0.668-1.353
			C344.334,376.948,345.927,376.948,346.479,378.065z"/>
		<path style="fill:#FFAC6E;" d="M575.037,194.521c-1.7,0-2.573-1.011-3.276-1.822c-0.709-0.82-1.155-1.283-2.096-1.283
			c-0.94,0-1.387,0.464-2.096,1.283c-0.703,0.812-1.576,1.822-3.276,1.822c-1.7,0-2.574-1.011-3.276-1.822
			c-0.709-0.82-1.156-1.283-2.097-1.283c-0.94,0-1.387,0.464-2.095,1.283c-0.703,0.812-1.576,1.822-3.275,1.822
			c-1.701,0-2.575-1.01-3.277-1.822c-0.71-0.82-1.157-1.283-2.098-1.283c-0.942,0-1.39,0.464-2.1,1.284
			c-0.703,0.812-1.578,1.822-3.279,1.822c-1.701,0-2.576-1.01-3.279-1.822c-0.71-0.82-1.158-1.284-2.1-1.284
			c-0.431,0-0.78-0.349-0.78-0.78c0-0.431,0.349-0.78,0.78-0.78c1.701,0,2.576,1.01,3.279,1.822c0.709,0.82,1.158,1.284,2.1,1.284
			c0.942,0,1.39-0.464,2.1-1.284c0.703-0.812,1.578-1.822,3.279-1.822c1.701,0,2.575,1.01,3.277,1.823
			c0.71,0.819,1.157,1.283,2.098,1.283c0.94,0,1.387-0.464,2.095-1.283c0.703-0.812,1.576-1.823,3.275-1.823
			c1.7,0,2.574,1.011,3.276,1.823c0.71,0.819,1.156,1.283,2.097,1.283c0.94,0,1.387-0.464,2.096-1.283
			c0.703-0.812,1.576-1.823,3.276-1.823c1.7,0,2.573,1.011,3.276,1.823c0.709,0.819,1.155,1.283,2.096,1.283
			c0.431,0,0.78,0.349,0.78,0.78C575.817,194.173,575.468,194.521,575.037,194.521z"/>
		<path style="fill:#FFAC6E;" d="M364.835,363.903c-1.7,0-2.573-1.011-3.276-1.822c-0.709-0.82-1.155-1.283-2.096-1.283
			s-1.387,0.464-2.096,1.283c-0.703,0.812-1.576,1.822-3.276,1.822c-1.7,0-2.574-1.011-3.276-1.822
			c-0.71-0.82-1.156-1.283-2.097-1.283c-0.941,0-1.387,0.464-2.095,1.283c-0.703,0.812-1.576,1.822-3.275,1.822
			c-1.701,0-2.575-1.01-3.277-1.822c-0.71-0.82-1.157-1.283-2.098-1.283c-0.942,0-1.39,0.464-2.1,1.284
			c-0.703,0.812-1.578,1.822-3.279,1.822c-1.701,0-2.576-1.01-3.279-1.822c-0.71-0.82-1.158-1.284-2.1-1.284
			c-0.431,0-0.78-0.349-0.78-0.78c0-0.431,0.349-0.78,0.78-0.78c1.701,0,2.576,1.01,3.279,1.822c0.71,0.82,1.158,1.284,2.1,1.284
			c0.942,0,1.39-0.464,2.1-1.284c0.703-0.812,1.578-1.822,3.279-1.822c1.701,0,2.575,1.01,3.277,1.823
			c0.71,0.819,1.157,1.283,2.098,1.283c0.94,0,1.387-0.464,2.095-1.283c0.703-0.812,1.576-1.823,3.275-1.823
			c1.7,0,2.574,1.011,3.276,1.823c0.71,0.819,1.156,1.283,2.097,1.283c0.94,0,1.387-0.464,2.095-1.283
			c0.703-0.812,1.577-1.823,3.276-1.823s2.573,1.011,3.276,1.823c0.709,0.819,1.155,1.283,2.096,1.283c0.431,0,0.78,0.349,0.78,0.78
			C365.615,363.554,365.266,363.903,364.835,363.903z"/>
		<path style="fill:#FFAC6E;" d="M486.963,60.105c-1.7,0-2.573-1.011-3.276-1.823c-0.709-0.819-1.155-1.283-2.096-1.283
			s-1.387,0.464-2.096,1.283c-0.703,0.812-1.576,1.823-3.276,1.823c-1.7,0-2.574-1.011-3.276-1.823
			c-0.71-0.819-1.156-1.283-2.097-1.283c-0.941,0-1.387,0.464-2.095,1.283c-0.703,0.812-1.576,1.823-3.275,1.823
			c-1.701,0-2.575-1.01-3.277-1.823C461.489,57.463,461.042,57,460.1,57c-0.942,0-1.39,0.464-2.1,1.284
			c-0.703,0.812-1.578,1.822-3.279,1.822c-1.701,0-2.576-1.01-3.279-1.822c-0.71-0.82-1.158-1.284-2.1-1.284
			c-0.431,0-0.78-0.349-0.78-0.78c0-0.431,0.349-0.78,0.78-0.78c1.701,0,2.576,1.01,3.279,1.822c0.71,0.82,1.158,1.284,2.1,1.284
			c0.942,0,1.39-0.464,2.1-1.284c0.703-0.812,1.578-1.822,3.279-1.822c1.701,0,2.575,1.01,3.277,1.823
			c0.71,0.819,1.157,1.283,2.098,1.283c0.94,0,1.387-0.464,2.095-1.283c0.703-0.812,1.576-1.823,3.275-1.823
			c1.7,0,2.574,1.011,3.276,1.823c0.71,0.819,1.156,1.283,2.097,1.283c0.94,0,1.387-0.464,2.095-1.283
			c0.703-0.812,1.577-1.823,3.276-1.823s2.573,1.011,3.276,1.823c0.709,0.819,1.155,1.283,2.096,1.283c0.43,0,0.78,0.349,0.78,0.78
			C487.743,59.757,487.394,60.105,486.963,60.105z"/>
		<path style="fill:#FFAC6E;" d="M586.342,227.784c-3.563,0-6.461-2.985-6.461-6.655c0-3.669,2.898-6.655,6.461-6.655
			c3.563,0,6.461,2.985,6.461,6.655C592.803,224.799,589.905,227.784,586.342,227.784z M586.342,217.659
			c-1.807,0-3.277,1.557-3.277,3.471c0,1.914,1.47,3.471,3.277,3.471s3.277-1.557,3.277-3.471
			C589.619,219.216,588.149,217.659,586.342,217.659z"/>
		<path style="fill:#FFAC6E;" d="M379.312,390.875c-3.563,0-6.461-2.985-6.461-6.655c0-3.669,2.898-6.654,6.461-6.654
			c3.563,0,6.461,2.985,6.461,6.654C385.773,387.889,382.875,390.875,379.312,390.875z M379.312,380.749
			c-1.807,0-3.277,1.557-3.277,3.47c0,1.914,1.47,3.471,3.277,3.471s3.277-1.557,3.277-3.471
			C382.589,382.306,381.119,380.749,379.312,380.749z"/>
		<path style="fill:#FFAC6E;" d="M508.527,403.366c-3.563,0-6.461-2.985-6.461-6.655c0-3.669,2.898-6.655,6.461-6.655
			c3.563,0,6.461,2.985,6.461,6.655C514.989,400.381,512.09,403.366,508.527,403.366z M508.527,393.241
			c-1.807,0-3.277,1.557-3.277,3.47c0,1.914,1.47,3.471,3.277,3.471s3.277-1.557,3.277-3.471
			C511.804,394.797,510.334,393.241,508.527,393.241z"/>
		<path style="fill:#FFAC6E;" d="M181.022,71.635c-3.563,0-6.461-2.985-6.461-6.655c0-3.669,2.898-6.654,6.461-6.654
			c3.563,0,6.461,2.985,6.461,6.654C187.484,68.65,184.585,71.635,181.022,71.635z M181.022,61.51c-1.807,0-3.277,1.557-3.277,3.471
			c0,1.914,1.47,3.471,3.277,3.471c1.807,0,3.277-1.557,3.277-3.471C184.3,63.067,182.83,61.51,181.022,61.51z"/>
		<path style="fill:#FFAC6E;" d="M443.682,74.957c0,1.653-1.34,2.993-2.993,2.993c-1.653,0-2.993-1.34-2.993-2.993
			c0-1.653,1.34-2.993,2.993-2.993C442.342,71.964,443.682,73.304,443.682,74.957z"/>
		<path style="fill:#FFAC6E;" d="M613.278,237.569c0,1.653-1.34,2.993-2.993,2.993c-1.653,0-2.993-1.34-2.993-2.993
			c0-1.653,1.34-2.993,2.993-2.993C611.938,234.576,613.278,235.916,613.278,237.569z"/>
		<path style="fill:#FFAC6E;" d="M625.249,211.631c0,1.653-1.34,2.993-2.993,2.993c-1.653,0-2.993-1.34-2.993-2.993
			c0-1.653,1.34-2.993,2.993-2.993C623.909,208.638,625.249,209.978,625.249,211.631z"/>
		<path style="fill:#FFAC6E;" d="M212.233,74.957c0,1.653-1.34,2.993-2.993,2.993c-1.653,0-2.993-1.34-2.993-2.993
			c0-1.653,1.34-2.993,2.993-2.993C210.893,71.964,212.233,73.304,212.233,74.957z"/>
		<path style="fill:#FFAC6E;" d="M140.404,102.89c0,1.653-1.34,2.993-2.993,2.993c-1.653,0-2.993-1.34-2.993-2.993
			c0-1.653,1.34-2.993,2.993-2.993C139.064,99.897,140.404,101.237,140.404,102.89z"/>
		<path style="fill:#FFAC6E;" d="M184.3,130.824c0,1.653-1.34,2.993-2.993,2.993c-1.653,0-2.993-1.34-2.993-2.993
			c0-1.653,1.34-2.993,2.993-2.993C182.96,127.831,184.3,129.171,184.3,130.824z"/>
		<path style="fill:#FFAC6E;" d="M619.263,59.992c0,1.653-1.34,2.993-2.993,2.993c-1.653,0-2.993-1.34-2.993-2.993
			c0-1.653,1.34-2.993,2.993-2.993C617.923,56.999,619.263,58.339,619.263,59.992z"/>
		<path style="fill:#FFAC6E;" d="M507.53,46.026c0,1.653-1.34,2.993-2.993,2.993c-1.653,0-2.993-1.34-2.993-2.993
			c0-1.653,1.34-2.993,2.993-2.993C506.19,43.033,507.53,44.373,507.53,46.026z"/>
		<path style="fill:#FFAC6E;" d="M518.503,59.992c0,1.653-1.34,2.993-2.993,2.993s-2.993-1.34-2.993-2.993
			c0-1.653,1.34-2.993,2.993-2.993S518.503,58.339,518.503,59.992z"/>
		<path style="fill:#FFAC6E;" d="M603.301,92.914c0,1.653-1.34,2.993-2.993,2.993c-1.653,0-2.993-1.34-2.993-2.993
			c0-1.653,1.34-2.993,2.993-2.993C601.961,89.921,603.301,91.261,603.301,92.914z"/>
		<path style="fill:#FFAC6E;" d="M401.079,366.713c0,1.653-1.34,2.993-2.993,2.993c-1.653,0-2.993-1.34-2.993-2.993
			c0-1.653,1.34-2.993,2.993-2.993C399.74,363.72,401.079,365.06,401.079,366.713z"/>
		<path style="fill:#FFAC6E;" d="M317.981,395.194c0,1.653-1.34,2.993-2.993,2.993c-1.653,0-2.993-1.34-2.993-2.993
			c0-1.653,1.34-2.993,2.993-2.993C316.641,392.201,317.981,393.541,317.981,395.194z"/>
		<path style="fill:#FFAC6E;" d="M250.143,386.215c0,1.653-1.34,2.993-2.993,2.993c-1.653,0-2.993-1.34-2.993-2.993
			c0-1.653,1.34-2.993,2.993-2.993C248.803,383.222,250.143,384.562,250.143,386.215z"/>
		<path style="fill:#FFAC6E;" d="M279.074,362.272c0,1.653-1.34,2.993-2.993,2.993c-1.653,0-2.993-1.34-2.993-2.993
			c0-1.653,1.34-2.993,2.993-2.993C277.734,359.279,279.074,360.619,279.074,362.272z"/>
		<path style="fill:#FFAC6E;" d="M440.167,373.766c0,1.653-1.34,2.993-2.993,2.993c-1.653,0-2.993-1.34-2.993-2.993
			c0-1.653,1.34-2.993,2.993-2.993C438.827,370.773,440.167,372.113,440.167,373.766z"/>
		<path style="fill:#FFAC6E;" d="M519.501,362.272c0,1.653-1.34,2.993-2.993,2.993c-1.653,0-2.993-1.34-2.993-2.993
			c0-1.653,1.34-2.993,2.993-2.993C518.161,359.279,519.501,360.619,519.501,362.272z"/>
		<path style="fill:#FFAC6E;" d="M531.472,384.22c0,1.653-1.34,2.993-2.993,2.993c-1.653,0-2.993-1.34-2.993-2.993
			c0-1.653,1.34-2.993,2.993-2.993C530.133,381.227,531.472,382.567,531.472,384.22z"/>
		<path style="fill:#FFAC6E;" d="M223.207,378.234c0,1.653-1.34,2.993-2.993,2.993c-1.653,0-2.993-1.34-2.993-2.993
			c0-1.653,1.34-2.993,2.993-2.993C221.867,375.241,223.207,376.581,223.207,378.234z"/>
		<g>
			<path style="fill:#DFC6F7;" d="M661.461,245.643c4.033,2.819,16.796,1.955,20.026,2.028c6.428,0.145,19.547-0.043,19.706-0.034
				c4.463,0.253,8.41-3.642,7.793-8.163c-0.356-2.609-3.586-7.049-6.574-6.295c1.785-4.542-0.903-9.687-5.403-11.692
				c-4.259-1.898-9.677-0.279-10.847,4.326c-2.253-2.553-5.84-3.654-9.117-2.294c-4.379,1.817-5.211,6.028-5.087,10.244
				c-4.094-2.603-9.326-0.195-11.162,4.233C659.866,240.237,659.316,244.143,661.461,245.643z"/>
			<path style="fill:#DFC6F7;" d="M669.007,155.601c-1.25-1.767-3.366-2.087-5.427-1.96c2.112-3.565,0.962-8.436-2.746-10.814
				c-4.819-3.091-10.278-1.404-14.4,1.846c1.154-6.991,0.795-16.395-6.964-18.354c-7.042-1.778-12.176,3.235-15.041,9.036
				c-2.298-11.255-10.821-22.165-23.651-17.789c-6.157,2.1-10.803,7.236-12.368,13.536c-1.63,6.564-0.079,12.764,3.024,18.421
				c-5.113-1.449-10.972,1.979-10.349,8.269c0.817,8.24,6.085,8.129,16.512,8.375c10.427,0.246,59.246,0.737,70.274-3.884
				C670.14,161.333,670.507,157.721,669.007,155.601z"/>
			<path style="fill:#DFC6F7;" d="M52.395,220.255c11.039,4.592,59.857,3.974,70.284,3.701c10.426-0.273,15.695-0.176,16.491-8.418
				c0.607-6.292-5.261-9.705-10.37-8.242c3.089-5.665,4.623-11.869,2.976-18.428c-1.581-6.296-6.24-11.419-12.403-13.503
				c-12.841-4.343-21.336,6.589-23.604,17.85c-2.88-5.794-8.028-10.793-15.065-8.997c-7.754,1.979-8.088,11.384-6.916,18.372
				c-4.13-3.24-9.594-4.912-14.404-1.809c-3.702,2.388-4.839,7.262-2.718,10.821c-2.061-0.121-4.176,0.204-5.421,1.974
				C49.75,215.7,50.126,219.311,52.395,220.255z"/>
		</g>
	</g>
</g>
<g id="OBJECTS">
	<g>
		<g>
			<g>
				<g>
					<path style="fill:#905AC4;" d="M550.978,300.123c-3.944,9.174-3.727,20.071,0.657,29.046c0.729,1.815,1.867,3.563,2.81,4.976
						c0.945,1.417,1.995,2.855,3.125,4.229c-0.384-0.011,4.987,4.214,4.886,3.843c1.602,0.775,3.247,1.456,4.847,2.041
						c1.595,0.583,3.562,1.277,5.498,1.559c9.756,2.146,20.396-0.212,28.383-6.206c3.99-2.995,7.981-7.337,7.368-12.717
						c-0.481-4.22-3.755-6.334-7.351-7.649c8.558-0.803,16.607-5.651,21.086-13.081c2.341-3.884,3.66-8.756,1.2-12.904
						c-1.622-2.734-4.42-4.607-7.495-5.112c8.286-4.449,16.371-11.836,18.89-20.976c1.21-4.39,0.444-8.338-1.512-11.703
						c-0.755-1.011-1.496-2.038-2.397-2.937c-1.148-1.145-2.287-2.151-3.565-2.907c-4.417-2.701-9.889-1.587-13.971,0.68
						c-8.289,4.602-13.563,14.199-15.934,23.301c-1.215-2.869-3.695-5.147-6.734-6.079c-4.612-1.414-9.035,1.016-12.258,4.206
						c-6.165,6.103-8.98,15.068-7.744,23.575c-2.125-3.185-4.951-5.869-9.166-5.342C556.227,290.638,552.948,295.54,550.978,300.123
						z"/>
					<path style="fill:#5F437A;" d="M565.219,302.501c0.091-0.177,0.364-0.202,0.442,0.005c0.603,1.587,0.453,3.353,0.424,5.031
						c-0.038,2.148-0.075,4.297-0.099,6.445c-0.026,2.329-0.019,4.658,0.019,6.986c0.023,1.403,0.21,2.903,0.141,4.341
						c2.948-3.514,5.922-7.006,8.905-10.49c-0.713-1.473-0.466-3.475-0.474-5.069c-0.011-2.195,0.39-4.384,0.366-6.563
						c-0.004-0.317,0.47-0.39,0.5-0.06c0.198,2.137,0.822,4.24,1.036,6.395c0.095,0.959,0.316,2.123,0.342,3.232
						c0.862-1.004,1.72-2.012,2.584-3.014c2.203-2.557,4.411-5.109,6.619-7.661c-0.123-6.923-0.687-13.954,0.354-20.81
						c0.026-0.169,0.307-0.232,0.357-0.043c1.544,5.881,1.652,12.033,1.657,18.115c2.336-2.699,4.671-5.4,7.002-8.103
						c-0.015-0.045-0.026-0.092-0.034-0.141c-0.3-2.123,0.207-4.499,0.414-6.628c0.181-1.86,0.011-4.085,1.022-5.709
						c0.147-0.236,0.467-0.112,0.569,0.083c0.869,1.675,0.457,4.067,0.399,5.901c-0.04,1.251-0.029,2.602-0.149,3.916
						c3.258-3.787,6.506-7.582,9.732-11.397c0.178-2.582,0.441-5.16,0.69-7.734c0.168-1.732-0.108-4.93,1.638-5.908
						c0.165-0.092,0.402-0.074,0.475,0.137c0.282,0.82,0.101,1.393,0.013,2.252c-0.142,1.384-0.185,2.785-0.281,4.173
						c-0.102,1.479-0.201,2.96-0.314,4.439c0.984-1.17,1.973-2.337,2.952-3.511c2.961-3.552,5.93-7.097,8.879-10.658
						c1.519-1.835,3.041-3.669,4.563-5.501c1.1-1.323,2.316-2.569,3.478-3.846c0.217,0.186,0.432,0.376,0.646,0.573
						c-0.676,1.099-1.334,2.214-2.089,3.268c-1.224,1.709-2.484,3.392-3.747,5.074c-2.521,3.359-5.114,6.673-7.756,9.939
						c-1.599,1.977-3.215,3.942-4.838,5.901c3.377-0.901,6.9-1.596,10.349-1.706c0.974-0.031,1.115,1.272,0.178,1.488
						c-4.013,0.92-8.039,1.63-12.024,2.692c-0.202,0.054-0.39,0.044-0.56-0.004c-3.162,3.785-6.355,7.545-9.567,11.286
						c-0.341,0.397-0.683,0.793-1.025,1.19c1.132-0.092,2.293-0.057,3.222-0.07c2.178-0.029,4.21,0.152,6.269,0.872
						c0.217,0.076,0.133,0.367-0.057,0.406c-2.192,0.45-4.381,0.578-6.61,0.771c-1.578,0.137-3.387,0.707-4.999,0.545
						c-2.429,2.818-4.861,5.634-7.295,8.448c0.256,0.002,0.508,0.004,0.746,0.001c1.86-0.021,3.719,0.083,5.573,0.232
						c1.878,0.151,3.751,0.353,5.628,0.525c1.951,0.178,4.024,0.094,5.932,0.53c0.627,0.143,0.903,1.131,0.163,1.363
						c-3.263,1.021-7.294,0.289-10.635,0.014c-1.939-0.159-3.882-0.306-5.828-0.305c-1.262,0.001-2.58,0.251-3.851,0.267
						c-2.809,3.248-5.615,6.499-8.413,9.757c1.054-0.05,2.102-0.019,2.96-0.032c2.231-0.036,4.769-0.049,6.753,1.085
						c0.105,0.06,0.126,0.22-0.003,0.27c-2.117,0.827-4.595,0.679-6.837,0.822c-1.58,0.101-3.493,0.623-5.183,0.552
						c-2.564,2.997-5.121,6-7.659,9.019c0.98-0.033,1.971,0.011,2.856-0.02c2.037-0.071,4.072-0.087,6.11-0.063
						c4.377,0.052,8.783,0.22,13.103,0.953c0.764,0.13,0.833,1.412-0.013,1.42c-4.371,0.041-8.739-0.164-13.111-0.101
						c-2.065,0.029-4.13,0.09-6.193,0.181c-1.577,0.069-3.318,0.432-4.908,0.197c-2.898,3.475-5.706,7.036-8.531,10.582
						c-0.455-0.394-0.725-0.661-0.628-0.658c-0.388-0.471-0.762-0.951-1.129-1.434c2.115-2.566,4.264-5.101,6.372-7.642
						c0.555-0.668,1.114-1.333,1.671-2c-0.057-0.073-0.104-0.164-0.136-0.273c-0.542-1.843-0.341-3.904-0.355-5.816
						c-0.015-2.096-0.004-4.193,0.029-6.289c0.034-2.144,0.102-4.284,0.22-6.425C564.351,306.522,564.296,304.286,565.219,302.501z"
						/>
				</g>
				<g>
					<path style="fill:#905AC4;" d="M519.436,305.46c2.164,9.749,8.711,18.462,17.515,23.181c1.653,1.046,3.598,1.799,5.189,2.394
						c1.595,0.597,3.287,1.15,5.008,1.604c-0.318,0.215,6.51,0.503,6.211,0.261c1.753-0.308,3.486-0.717,5.125-1.178
						c1.635-0.459,3.636-1.046,5.372-1.95c9.169-3.963,16.424-12.096,19.399-21.629c1.486-4.762,2.185-10.618-1.458-14.624
						c-2.858-3.142-6.75-2.943-10.436-1.908c6.474-5.655,10.17-14.294,9.459-22.941c-0.371-4.52-2.15-9.243-6.571-11.171
						c-2.914-1.27-6.279-1.154-9.069,0.235c4.122-8.454,6.362-19.173,3.062-28.061c-1.585-4.269-4.515-7.024-8.068-8.611
						c-1.203-0.379-2.405-0.779-3.662-0.981c-1.601-0.257-3.113-0.408-4.592-0.274c-5.163,0.391-8.951,4.495-10.937,8.72
						c-4.035,8.58-2.702,19.449,0.696,28.219c-2.663-1.617-6.007-2.016-9.017-0.995c-4.568,1.549-6.736,6.106-7.486,10.579
						c-1.433,8.556,1.524,17.475,7.501,23.653c-3.586-1.341-7.448-1.866-10.559,1.025
						C518.149,294.696,518.354,300.59,519.436,305.46z"/>
					<path style="fill:#5F437A;" d="M532.38,299.063c-0.029-0.197,0.177-0.376,0.362-0.255c1.417,0.935,2.328,2.455,3.285,3.834
						c1.225,1.765,2.451,3.53,3.688,5.287c1.34,1.905,2.708,3.79,4.1,5.657c0.839,1.125,1.868,2.232,2.652,3.439
						c0.337-4.574,0.709-9.146,1.092-13.717c-1.44-0.778-2.41-2.547-3.348-3.836c-1.292-1.775-2.247-3.785-3.54-5.538
						c-0.188-0.255,0.153-0.591,0.371-0.341c1.41,1.618,3.146,2.959,4.579,4.583c0.638,0.723,1.498,1.538,2.167,2.423
						c0.112-1.319,0.22-2.638,0.334-3.956c0.292-3.362,0.591-6.724,0.891-10.085c-4.147-5.545-8.715-10.919-11.879-17.09
						c-0.078-0.152,0.113-0.367,0.264-0.243c4.691,3.868,8.375,8.796,11.936,13.728c0.318-3.556,0.632-7.111,0.943-10.668
						c-0.038-0.028-0.075-0.059-0.109-0.095c-1.485-1.547-2.462-3.771-3.539-5.619c-0.941-1.615-2.379-3.321-2.509-5.23
						c-0.019-0.277,0.313-0.365,0.51-0.265c1.684,0.85,2.749,3.032,3.774,4.554c0.699,1.038,1.497,2.128,2.168,3.264
						c0.429-4.977,0.845-9.955,1.232-14.936c-1.365-2.198-2.659-4.444-3.962-6.678c-0.877-1.503-2.97-3.936-2.125-5.751
						c0.08-0.171,0.283-0.295,0.465-0.167c0.708,0.5,0.897,1.071,1.327,1.82c0.694,1.205,1.478,2.368,2.212,3.55
						c0.781,1.26,1.567,2.518,2.341,3.785c0.114-1.525,0.234-3.049,0.342-4.574c0.325-4.613,0.661-9.225,0.972-13.838
						c0.16-2.377,0.322-4.754,0.486-7.13c0.119-1.717,0.377-3.438,0.573-5.153c0.284,0.024,0.57,0.052,0.859,0.087
						c0.094,1.287,0.212,2.576,0.216,3.873c0.006,2.102-0.032,4.204-0.073,6.307c-0.082,4.199-0.248,8.404-0.482,12.598
						c-0.142,2.539-0.304,5.078-0.475,7.616c2.213-2.706,4.665-5.329,7.399-7.434c0.772-0.595,1.649,0.38,1.014,1.103
						c-2.718,3.093-5.569,6.023-8.181,9.214c-0.133,0.162-0.29,0.264-0.456,0.324c-0.353,4.92-0.745,9.837-1.163,14.75
						c-0.044,0.522-0.091,1.043-0.136,1.564c0.864-0.737,1.827-1.387,2.573-1.94c1.749-1.297,3.504-2.338,5.596-2.957
						c0.22-0.065,0.323,0.22,0.191,0.363c-1.515,1.647-3.217,3.03-4.912,4.49c-1.201,1.034-2.335,2.554-3.737,3.365
						c-0.323,3.707-0.65,7.413-0.979,11.119c0.209-0.148,0.414-0.294,0.606-0.435c1.497-1.104,3.066-2.107,4.657-3.07
						c1.612-0.976,3.25-1.907,4.872-2.864c1.687-0.996,3.319-2.276,5.122-3.038c0.592-0.25,1.394,0.39,0.929,1.01
						c-2.05,2.736-5.748,4.499-8.62,6.229c-1.666,1.004-3.328,2.021-4.906,3.16c-1.023,0.739-1.946,1.712-2.969,2.468
						c-0.38,4.277-0.756,8.555-1.121,12.834c0.826-0.657,1.695-1.244,2.383-1.757c1.789-1.333,3.84-2.828,6.113-3.067
						c0.12-0.013,0.231,0.104,0.156,0.221c-1.234,1.909-3.331,3.237-5.066,4.664c-1.223,1.006-2.47,2.548-3.883,3.478
						c-0.328,3.93-0.647,7.862-0.941,11.795c0.776-0.6,1.606-1.143,2.305-1.685c1.611-1.248,3.253-2.452,4.92-3.623
						c3.581-2.517,7.254-4.957,11.187-6.887c0.695-0.341,1.501,0.659,0.82,1.16c-3.522,2.588-7.185,4.976-10.696,7.583
						c-1.658,1.231-3.298,2.488-4.918,3.767c-1.239,0.978-2.439,2.29-3.866,3.029c-0.319,4.513-0.515,9.044-0.734,13.573
						c-0.6-0.054-0.975-0.113-0.894-0.167c-0.59-0.156-1.174-0.327-1.754-0.503c0.216-3.318,0.477-6.632,0.702-9.925
						c0.059-0.867,0.125-1.733,0.186-2.599c-0.089-0.026-0.18-0.072-0.27-0.142c-1.518-1.178-2.559-2.968-3.688-4.512
						c-1.238-1.692-2.455-3.399-3.653-5.12c-1.226-1.759-2.422-3.536-3.578-5.341C534.026,302.833,532.675,301.051,532.38,299.063z"
						/>
				</g>
			</g>
			<g>
				<g>
					<path style="fill:#905AC4;" d="M188.399,289.966c-4.215-0.527-7.041,2.157-9.166,5.342c1.236-8.507-1.579-17.471-7.744-23.575
						c-3.223-3.191-7.646-5.62-12.258-4.206c-3.039,0.931-5.519,3.21-6.734,6.079c-2.371-9.101-7.645-18.699-15.934-23.301
						c-4.082-2.266-9.554-3.381-13.971-0.68c-1.278,0.757-2.417,1.762-3.565,2.907c-0.902,0.899-1.643,1.926-2.397,2.937
						c-1.955,3.365-2.722,7.313-1.512,11.703c2.519,9.14,10.604,16.526,18.89,20.976c-3.075,0.505-5.873,2.378-7.495,5.112
						c-2.46,4.149-1.142,9.02,1.2,12.904c4.479,7.43,12.528,12.277,21.086,13.081c-3.596,1.315-6.87,3.429-7.351,7.649
						c-0.613,5.38,3.378,9.722,7.368,12.717c7.987,5.994,18.627,8.351,28.383,6.206c1.936-0.281,3.903-0.975,5.498-1.559
						c1.599-0.585,3.244-1.266,4.847-2.041c-0.101,0.37,5.27-3.854,4.886-3.843c1.13-1.375,2.18-2.813,3.125-4.229
						c0.943-1.413,2.081-3.161,2.81-4.976c4.384-8.976,4.601-19.872,0.657-29.046C197.052,295.54,193.772,290.638,188.399,289.966z"
						/>
					<path style="fill:#5F437A;" d="M184.781,302.501c-0.092-0.177-0.364-0.202-0.442,0.005c-0.603,1.587-0.454,3.353-0.424,5.031
						c0.038,2.148,0.075,4.297,0.099,6.445c0.026,2.329,0.019,4.658-0.019,6.986c-0.023,1.403-0.21,2.903-0.141,4.341
						c-2.948-3.514-5.922-7.006-8.905-10.49c0.713-1.473,0.466-3.475,0.474-5.069c0.011-2.195-0.39-4.384-0.366-6.563
						c0.004-0.317-0.47-0.39-0.5-0.06c-0.198,2.137-0.822,4.24-1.036,6.395c-0.095,0.959-0.316,2.123-0.342,3.232
						c-0.862-1.004-1.721-2.012-2.584-3.014c-2.203-2.557-4.411-5.109-6.619-7.661c0.123-6.923,0.687-13.954-0.354-20.81
						c-0.026-0.169-0.307-0.232-0.357-0.043c-1.544,5.881-1.652,12.033-1.658,18.115c-2.336-2.699-4.671-5.4-7.002-8.103
						c0.015-0.045,0.027-0.092,0.034-0.141c0.3-2.123-0.207-4.499-0.414-6.628c-0.181-1.86-0.011-4.085-1.022-5.709
						c-0.147-0.236-0.467-0.112-0.569,0.083c-0.869,1.675-0.457,4.067-0.399,5.901c0.04,1.251,0.03,2.602,0.149,3.916
						c-3.258-3.787-6.506-7.582-9.732-11.397c-0.178-2.582-0.441-5.16-0.69-7.734c-0.168-1.732,0.108-4.93-1.638-5.908
						c-0.165-0.092-0.402-0.074-0.475,0.137c-0.282,0.82-0.101,1.393-0.013,2.252c0.142,1.384,0.185,2.785,0.281,4.173
						c0.102,1.479,0.201,2.96,0.314,4.439c-0.984-1.17-1.973-2.337-2.952-3.511c-2.961-3.552-5.929-7.097-8.879-10.658
						c-1.519-1.835-3.041-3.669-4.563-5.501c-1.1-1.323-2.316-2.569-3.478-3.846c-0.217,0.186-0.432,0.376-0.646,0.573
						c0.676,1.099,1.334,2.214,2.089,3.268c1.224,1.709,2.484,3.392,3.747,5.074c2.521,3.359,5.114,6.673,7.756,9.939
						c1.6,1.977,3.215,3.942,4.838,5.901c-3.377-0.901-6.9-1.596-10.349-1.706c-0.974-0.031-1.115,1.272-0.178,1.488
						c4.013,0.92,8.039,1.63,12.024,2.692c0.202,0.054,0.39,0.044,0.56-0.004c3.163,3.785,6.355,7.545,9.567,11.286
						c0.341,0.397,0.684,0.793,1.025,1.19c-1.132-0.092-2.293-0.057-3.222-0.07c-2.178-0.029-4.21,0.152-6.269,0.872
						c-0.217,0.076-0.133,0.367,0.057,0.406c2.192,0.45,4.382,0.578,6.61,0.771c1.578,0.137,3.387,0.707,4.999,0.545
						c2.429,2.818,4.861,5.634,7.295,8.448c-0.256,0.002-0.508,0.004-0.746,0.001c-1.86-0.021-3.719,0.083-5.573,0.232
						c-1.878,0.151-3.751,0.353-5.628,0.525c-1.951,0.178-4.024,0.094-5.932,0.53c-0.627,0.143-0.903,1.131-0.163,1.363
						c3.263,1.021,7.294,0.289,10.635,0.014c1.939-0.159,3.882-0.306,5.828-0.305c1.262,0.001,2.58,0.251,3.851,0.267
						c2.809,3.248,5.615,6.499,8.413,9.757c-1.054-0.05-2.102-0.019-2.96-0.032c-2.231-0.036-4.769-0.049-6.753,1.085
						c-0.105,0.06-0.126,0.22,0.003,0.27c2.117,0.827,4.595,0.679,6.837,0.822c1.58,0.101,3.493,0.623,5.183,0.552
						c2.564,2.997,5.121,6,7.659,9.019c-0.98-0.033-1.971,0.011-2.855-0.02c-2.037-0.071-4.072-0.087-6.11-0.063
						c-4.377,0.052-8.783,0.22-13.103,0.953c-0.764,0.13-0.833,1.412,0.013,1.42c4.371,0.041,8.739-0.164,13.111-0.101
						c2.064,0.029,4.13,0.09,6.193,0.181c1.577,0.069,3.318,0.432,4.908,0.197c2.898,3.475,5.706,7.036,8.531,10.582
						c0.455-0.394,0.725-0.661,0.628-0.658c0.387-0.471,0.762-0.951,1.129-1.434c-2.116-2.566-4.264-5.101-6.372-7.642
						c-0.555-0.668-1.114-1.333-1.671-2c0.057-0.073,0.104-0.164,0.136-0.273c0.542-1.843,0.341-3.904,0.355-5.816
						c0.015-2.096,0.004-4.193-0.029-6.289c-0.034-2.144-0.102-4.284-0.22-6.425C185.649,306.522,185.704,304.286,184.781,302.501z"
						/>
				</g>
				<g>
					<path style="fill:#905AC4;" d="M227.884,291.009c-3.111-2.892-6.973-2.366-10.559-1.025c5.976-6.179,8.934-15.097,7.501-23.653
						c-0.749-4.473-2.918-9.03-7.486-10.579c-3.01-1.021-6.354-0.623-9.017,0.995c3.397-8.77,4.73-19.639,0.696-28.219
						c-1.987-4.225-5.774-8.328-10.937-8.72c-1.48-0.134-2.992,0.017-4.592,0.274c-1.257,0.202-2.459,0.602-3.662,0.981
						c-3.553,1.587-6.483,4.342-8.068,8.611c-3.3,8.888-1.06,19.607,3.062,28.061c-2.79-1.388-6.155-1.505-9.069-0.235
						c-4.422,1.928-6.2,6.651-6.571,11.171c-0.71,8.646,2.986,17.285,9.459,22.941c-3.686-1.036-7.578-1.235-10.436,1.908
						c-3.643,4.006-2.944,9.862-1.458,14.624c2.975,9.532,10.229,17.666,19.399,21.629c1.735,0.904,3.737,1.491,5.372,1.95
						c1.639,0.461,3.372,0.87,5.125,1.178c-0.298,0.241,6.529-0.046,6.211-0.261c1.721-0.454,3.413-1.007,5.008-1.604
						c1.591-0.595,3.536-1.348,5.189-2.394c8.804-4.719,15.351-13.432,17.515-23.181
						C231.645,300.59,231.851,294.696,227.884,291.009z"/>
					<path style="fill:#5F437A;" d="M217.62,299.063c0.029-0.197-0.177-0.376-0.361-0.255c-1.417,0.935-2.328,2.455-3.285,3.834
						c-1.225,1.765-2.451,3.53-3.688,5.287c-1.34,1.905-2.708,3.79-4.1,5.657c-0.839,1.125-1.868,2.232-2.652,3.439
						c-0.337-4.574-0.709-9.146-1.092-13.717c1.44-0.778,2.41-2.547,3.348-3.836c1.292-1.775,2.247-3.785,3.54-5.538
						c0.188-0.255-0.153-0.591-0.371-0.341c-1.41,1.618-3.146,2.959-4.579,4.583c-0.638,0.723-1.498,1.538-2.167,2.423
						c-0.112-1.319-0.22-2.638-0.335-3.956c-0.292-3.362-0.591-6.724-0.891-10.085c4.147-5.545,8.715-10.919,11.879-17.09
						c0.078-0.152-0.113-0.367-0.264-0.243c-4.691,3.868-8.375,8.796-11.936,13.728c-0.318-3.556-0.632-7.111-0.943-10.668
						c0.038-0.028,0.075-0.059,0.109-0.095c1.485-1.547,2.462-3.771,3.539-5.619c0.941-1.615,2.379-3.321,2.509-5.23
						c0.019-0.277-0.313-0.365-0.51-0.265c-1.684,0.85-2.749,3.032-3.774,4.554c-0.699,1.038-1.497,2.128-2.169,3.264
						c-0.429-4.977-0.845-9.955-1.232-14.936c1.365-2.198,2.659-4.444,3.962-6.678c0.877-1.503,2.97-3.936,2.125-5.751
						c-0.08-0.171-0.283-0.295-0.465-0.167c-0.708,0.5-0.897,1.071-1.327,1.82c-0.694,1.205-1.478,2.368-2.212,3.55
						c-0.781,1.26-1.567,2.518-2.341,3.785c-0.114-1.525-0.234-3.049-0.342-4.574c-0.325-4.613-0.661-9.225-0.972-13.838
						c-0.16-2.377-0.322-4.754-0.486-7.13c-0.119-1.717-0.377-3.438-0.573-5.153c-0.284,0.024-0.57,0.052-0.859,0.087
						c-0.094,1.287-0.212,2.576-0.216,3.873c-0.006,2.102,0.032,4.204,0.073,6.307c0.082,4.199,0.248,8.404,0.482,12.598
						c0.142,2.539,0.304,5.078,0.475,7.616c-2.213-2.706-4.665-5.329-7.399-7.434c-0.772-0.595-1.649,0.38-1.014,1.103
						c2.718,3.093,5.569,6.023,8.181,9.214c0.133,0.162,0.29,0.264,0.456,0.324c0.353,4.92,0.745,9.837,1.163,14.75
						c0.044,0.522,0.091,1.043,0.136,1.564c-0.864-0.737-1.827-1.387-2.573-1.94c-1.75-1.297-3.504-2.338-5.596-2.957
						c-0.22-0.065-0.323,0.22-0.191,0.363c1.515,1.647,3.217,3.03,4.912,4.49c1.201,1.034,2.335,2.554,3.737,3.365
						c0.323,3.707,0.65,7.413,0.979,11.119c-0.209-0.148-0.414-0.294-0.606-0.435c-1.497-1.104-3.066-2.107-4.657-3.07
						c-1.612-0.976-3.25-1.907-4.872-2.864c-1.687-0.996-3.319-2.276-5.122-3.038c-0.592-0.25-1.394,0.39-0.929,1.01
						c2.05,2.736,5.748,4.499,8.619,6.229c1.666,1.004,3.328,2.021,4.906,3.16c1.023,0.739,1.946,1.712,2.968,2.468
						c0.38,4.277,0.756,8.555,1.121,12.834c-0.826-0.657-1.695-1.244-2.383-1.757c-1.789-1.333-3.84-2.828-6.113-3.067
						c-0.12-0.013-0.231,0.104-0.156,0.221c1.234,1.909,3.331,3.237,5.066,4.664c1.223,1.006,2.47,2.548,3.883,3.478
						c0.328,3.93,0.647,7.862,0.941,11.795c-0.775-0.6-1.606-1.143-2.305-1.685c-1.611-1.248-3.253-2.452-4.92-3.623
						c-3.581-2.517-7.254-4.957-11.187-6.887c-0.695-0.341-1.501,0.659-0.82,1.16c3.522,2.588,7.185,4.976,10.696,7.583
						c1.658,1.231,3.298,2.488,4.918,3.767c1.239,0.978,2.439,2.29,3.866,3.029c0.319,4.513,0.515,9.044,0.734,13.573
						c0.6-0.054,0.975-0.113,0.894-0.167c0.59-0.156,1.174-0.327,1.754-0.503c-0.216-3.318-0.477-6.632-0.702-9.925
						c-0.059-0.867-0.125-1.733-0.186-2.599c0.089-0.026,0.18-0.072,0.27-0.142c1.518-1.178,2.559-2.968,3.688-4.512
						c1.238-1.692,2.455-3.399,3.653-5.12c1.226-1.759,2.422-3.536,3.578-5.341C215.974,302.833,217.325,301.051,217.62,299.063z"/>
				</g>
			</g>
		</g>
		<g>
			<rect x="197.49" y="94.444" style="fill:#97C0F7;" width="355.02" height="253.801"/>
			<text transform="matrix(1 0 0 1 324.4269 279.9446)" style="fill:#5F437A; font-family:'Baloo'; font-size:14.8028px;">IMAGE_UPLOAD</text>
			<g>
				<g>
					<rect x="311.463" y="115.666" style="fill:#FFFFFF;" width="127.074" height="135.101"/>
					
						<rect x="319.979" y="124.72" style="fill:none;stroke:#97C0F7;stroke-width:2.8213;stroke-linecap:round;stroke-linejoin:round;stroke-miterlimit:10;stroke-dasharray:11.1134;" width="110.041" height="116.992"/>
				</g>
				<g>
					<path style="fill:#FFAC6E;" d="M355.838,170.092l13.891,32.901c0.548,1.298,2.237,1.628,3.233,0.632l15.442-15.442
						c0.864-0.864,2.296-0.75,3.013,0.24l32.525,44.937h-96.322l24.536-63.213C352.803,168.482,355.144,168.448,355.838,170.092z"/>
					<path style="fill:#FFD2B0;" d="M405.204,164.891c-4.032,4.032-10.569,4.032-14.601,0c-4.032-4.032-4.032-10.569,0-14.601
						c4.032-4.032,10.569-4.032,14.601,0C409.236,154.322,409.236,160.859,405.204,164.891z"/>
				</g>
			</g>
			<g>
				<path style="fill:#F46700;" d="M429.495,333.599H320.505c-5.715,0-10.347-4.633-10.347-10.347v-18.043
					c0-5.715,4.633-10.347,10.347-10.347h108.991c5.714,0,10.347,4.633,10.347,10.347v18.043
					C439.842,328.967,435.21,333.599,429.495,333.599z"/>
				<text transform="matrix(1 0 0 1 339.631 320.2591)" style="fill:#FFFFFF; font-family:'Baloo'; font-size:19.0309px;">UPLOAD</text>
			</g>
		</g>
		<g>
			<g>
				<path style="fill:#C897F7;" d="M594.057,294.045c-6.658,5.944-9.555,15.776-12.332,23.936
					c-3.148,9.253-6.781,18.286-11.019,27.078c2.113-13.098,4.944-26.07,7.003-39.179c0.916-5.831,1.682-11.69,2.147-17.575
					c0.437-5.527,0.931-11.736-1.081-17.039c-1.044-2.753-3.287-5.81-6.593-5.521c-3.957,0.346-6.125,5.051-7.257,8.292
					c-3.869,11.085-4.022,24.007-4.901,35.605c-0.868,11.455-1.748,22.927-4.148,34.162c-0.418-12.04-0.005-24.095-0.531-36.134
					c-0.239-5.477-0.686-10.947-1.502-16.369c-0.691-4.592-1.384-9.524-3.569-13.692c-2.423-4.622-9.948-9.348-10.842-1.342
					c-2.331,20.868,3.396,41.592,4.801,62.4c-3.49-14.281-8.018-28.404-13.989-41.809c-2.28-5.12-13.036-28.71-21.592-20.303
					c-3.946,3.877-3.52,10.551-2.635,15.495c1.391,7.769,3.657,15.452,5.527,23.118c1.855,7.607,3.441,15.349,5.711,22.846
					c0.945,3.123,2.099,6.231,3.742,9.061c0.118,0.203,0.225,0.391,0.329,0.572c0.115-0.02,0.234-0.035,0.363-0.034
					c10.123,0.063,20.175,1.389,30.289,1.622c7.765,0.178,15.524-0.346,23.275-0.038c7.964-6.876,14.084-15.474,19.206-24.63
					c2.42-4.327,4.617-8.772,6.686-13.277c1.895-4.128,4.207-8.577,4.705-13.148C606.652,290.789,598.491,290.087,594.057,294.045z"
					/>
				<g>
					<path style="fill:#435B7A;" d="M547.889,324.888c-0.39,6.714,2.066,13.426,6.089,18.734c-1.969,2.257-4.22,4.194-6.992,5.209
						c-1.523,0.558-0.707,2.941,0.818,2.383c3.395-1.243,5.956-3.571,8.208-6.24c0.371,0.259,0.862,0.442,1.518,0.531
						c3.211,0.433,6.717,0.221,9.957,0.2c6.056-0.039,12.513-1.138,16.284-6.364c0.552-0.766,0.085-1.707-0.86-1.733
						c-8.219-0.224-17.385,1.064-24.881,4.814c0.355-0.473,0.706-0.948,1.055-1.423c3.065-4.177,5.919-8.499,8.642-12.905
						c2.926,1.163,8.646-0.026,10.474-0.497c5.12-1.321,11.56-4.494,12.729-10.12c0.134-0.644-0.472-1.485-1.195-1.336
						c-6.637,1.365-13.628,3.938-19.46,7.777c3.124-5.18,6.328-10.423,10.211-15.004c0.006,0.003,0.012,0.004,0.018,0.007
						c0.28,0.28,0.705,0.301,1.085,0.142c3.965,0.164,7.908-0.099,11.808-0.868c1.858-0.366,5.266-0.832,4.767-3.511
						c-0.729-3.913-6.9-3.006-11.817-1.607c2.079-1.71,4.347-3.221,6.865-4.464c0.306-0.151,0.047-0.64-0.26-0.526
						c-3.452,1.281-6.491,3.123-9.232,5.333c1.907-5.929,3.638-14.535-1.298-14.773c-2.79-0.135-3.673,2.848-3.635,5.069
						c0.073,4.208,0.368,8.917,1.146,13.153c-3.712,3.808-6.843,8.272-9.728,12.797c-0.497,0.779-0.99,1.56-1.481,2.341
						c0.199-0.918,0.382-1.742,0.406-2.089c0.114-1.689,0.109-3.389-0.034-5.076c-0.277-3.258-1.036-6.537-2.278-9.563
						c-0.856-2.086-2.35-4.89-5.085-4.086c-2.426,0.712-2.811,3.434-2.72,5.591c0.292,6.909,2.77,13.874,6.677,19.551
						c0.057,0.083,0.12,0.151,0.186,0.211c-2.114,3.357-4.259,6.693-6.578,9.926c-0.684,0.954-1.377,1.958-2.093,2.967
						c0.018-0.942,0.036-1.883,0.054-2.825c0.044-2.306,0.089-4.611,0.132-6.917c0.06-3.266,0.251-6.743-1.603-9.607
						c-0.963-1.487-3.117-3.586-5.076-2.671C548.481,318.459,548.01,322.813,547.889,324.888z"/>
					<g>
						<path style="fill:#5A88C4;" d="M582.94,305.533c1.459-0.622,3.238-0.654,4.799-0.881c1.771-0.257,3.546-0.562,5.335-0.666
							c0.474-0.028,0.667,0.72,0.173,0.844c-1.679,0.422-3.4,0.663-5.108,0.94c-1.664,0.269-3.455,0.794-5.136,0.628
							C582.519,306.35,582.567,305.692,582.94,305.533z"/>
						<path style="fill:#5A88C4;" d="M582.497,291.597c1.613,3.313,1.167,8.536-0.179,11.871c-0.113,0.279-0.505,0.11-0.476-0.158
							c0.224-2.031,0.529-4.015,0.468-6.069c-0.056-1.854-0.576-3.64-0.647-5.473C581.642,291.253,582.291,291.174,582.497,291.597z
							"/>
						<path style="fill:#5A88C4;" d="M570.414,325.858c1.537-1.805,4.382-2.32,6.578-2.823c2.953-0.676,5.536-1.426,8.232-2.837
							c0.169-0.089,0.369,0.102,0.23,0.264c-1.63,1.901-4.281,2.589-6.62,3.167c-1.404,0.347-2.825,0.637-4.201,1.089
							c-1.347,0.443-2.534,1.188-3.845,1.699C570.455,326.548,570.197,326.113,570.414,325.858z"/>
						<path style="fill:#5A88C4;" d="M561.789,304.275c1.812,2.592,2.872,5.918,3.873,8.896c0.893,2.654,2.044,5.717,1.818,8.555
							c-0.006,0.07-0.114,0.089-0.147,0.03c-1.391-2.47-1.888-5.519-2.826-8.188c-1.055-3-2.641-5.84-3.601-8.856
							C560.736,304.174,561.463,303.809,561.789,304.275z"/>
						<path style="fill:#5A88C4;" d="M558.95,342.55c2.164-0.99,4.629-0.813,6.952-0.648c3.575,0.253,6.361,0.085,9.819-0.798
							c0.068-0.017,0.14,0.064,0.082,0.123c-1.771,1.778-4.599,1.895-6.972,1.855c-3.346-0.056-6.38-0.284-9.702,0.34
							C558.592,343.522,558.524,342.745,558.95,342.55z"/>
						<path style="fill:#5A88C4;" d="M553.714,325.581c1.009,2.442,1.407,5.172,1.73,7.783c0.306,2.473,0.774,5.462,0.019,7.875
							c-0.019,0.059-0.106,0.078-0.129,0.009c-0.758-2.282-0.639-4.954-0.985-7.341c-0.398-2.737-1.164-5.404-1.544-8.139
							C552.729,325.218,553.521,325.113,553.714,325.581z"/>
					</g>
				</g>
				<g>
					<path style="fill:#435B7A;" d="M522.049,304.574c-2.225,6.215,8.277,10.3,12.754,10.356c1.581,0.02,3.598-0.136,5.275-0.814
						c1.012,3.802,2.026,7.603,2.828,11.456c0.469,2.255,0.868,4.533,1.15,6.824c-3.895-1.132-7.865-1.932-11.915-2.32
						c-2.252-0.216-5.111-0.8-5.087,2.262c0.063,8.266,11.851,8.162,17.104,6.404c0.113-0.038,0.209-0.086,0.317-0.127
						c-0.003,3.732-0.758,7.382-0.774,11.101c-0.004,0.995,1.453,1.741,2.022,0.698c2.294-4.21,2.523-9.449,2.129-14.443
						c0.266-0.459,0.471-0.969,0.62-1.53c0.053-0.031,0.102-0.073,0.143-0.13c1.443-1.964,2.527-3.235,3.553-5.476
						c0.869-1.899,1.629-3.85,2.32-5.82c1.129-3.218,2.716-7.104,2.533-10.586c-0.274-5.233-5.701-6.003-7.786-1.39
						c-1.674,3.706-2.418,8.172-2.874,12.194c-0.061,0.541-0.107,1.082-0.148,1.622c-0.932-4.425-2.151-8.788-3.33-13.157
						c0.112-0.234,0.204-0.479,0.281-0.733c2.175-2.743,4.109-5.581,5.814-8.715c1.441-2.648,3.006-5.496,2.913-8.6
						c-0.055-1.819-0.854-4.509-2.887-5.049c-2.161-0.574-3.447,1.732-4.222,3.308c-1.708,3.469-2.48,7.349-3.051,11.148
						c-0.149,0.99-0.196,2.071-0.283,3.141c-1.311-5.322-2.337-10.72-2.571-16.179c3.04-2.122,5.838-4.579,8.471-7.194
						c2.355-2.339,5.596-5.487,5.762-9.05c0.104-2.237-1.482-4.428-3.899-4.039c-2.897,0.467-5.365,4.773-6.885,6.868
						c-1.108,1.527-2.141,3.109-3.093,4.739c0.831-6.544,2.841-12.927,5.333-19.017c0.187-0.456-0.478-0.753-0.746-0.376
						c-4.895,6.893-7.288,14.785-7.876,22.916c-1.175-3.596-2.485-7.152-4.271-10.489c-1.303-2.435-3.55-7.549-7.004-7.078
						c-8.337,1.136-1.06,15.088,1.74,18.187c1.879,2.08,5.705,5.655,8.833,5.833c0.112,0.268,0.339,0.469,0.621,0.49
						c0.169,3.643,0.653,7.29,1.397,10.876c0.198,0.954,0.409,1.906,0.63,2.855c-2.551-1.64-5.3-3.201-8.184-3.727
						C527.086,301.335,523.104,301.625,522.049,304.574z"/>
					<g>
						<path style="fill:#5A88C4;" d="M553.679,313.685c0.146-0.097,0.31,0.15,0.171,0.256c-2.369,1.802-3.573,6.334-4.461,9.032
							c-0.986,2.994-1.427,6.077-2.169,9.126c-0.154,0.632-1.087,0.375-1.076-0.221
							C546.259,326.179,548.643,317.034,553.679,313.685z"/>
						<path style="fill:#5A88C4;" d="M531.217,332.682c2.491-0.629,5.276-0.291,7.778,0.154c1.916,0.34,4.178,0.648,5.569,2.078
							c0.048,0.049,0.017,0.145-0.052,0.154c-2.021,0.287-4.075-0.62-6.086-0.892c-2.377-0.322-4.774-0.147-7.139-0.442
							C530.692,333.659,530.626,332.831,531.217,332.682z"/>
						<path style="fill:#5A88C4;" d="M549.098,294.58c0.109-0.125,0.325,0.008,0.22,0.149c-1.444,1.941-3.043,3.818-4.41,5.814
							c-1.707,2.492-1.78,4.619-1.991,7.495c-0.031,0.421-0.579,0.499-0.776,0.154C539.228,303.095,546.311,297.756,549.098,294.58z
							"/>
						<path style="fill:#5A88C4;" d="M528.167,305.444c2.289,2.011,5.008,1.727,7.786,2.397c1.412,0.341,3.693,1.101,3.62,2.858
							c-0.002,0.052-0.056,0.082-0.103,0.068c-1.182-0.359-2.048-1.24-3.293-1.549c-1.357-0.337-2.758-0.333-4.134-0.534
							c-1.929-0.282-3.614-0.829-4.644-2.57C527.142,305.678,527.77,305.096,528.167,305.444z"/>
						<path style="fill:#5A88C4;" d="M540.919,282.633c2.613-2.456,5.385-4.7,8.184-6.935c0.162-0.129,0.362,0.1,0.211,0.242
							c-2.129,2.015-4.175,4.125-6.211,6.233c-1.995,2.064-4.142,4.004-5.479,6.568c-0.266,0.51-1.143,0.185-1.061-0.367
							C536.92,285.938,539.22,284.229,540.919,282.633z"/>
						<path style="fill:#5A88C4;" d="M524.086,272.399c3.894,3.465,7.166,7.777,8.58,12.821c0.041,0.145-0.189,0.223-0.249,0.086
							c-2.121-4.791-5.965-8.175-9.232-12.12C522.679,272.574,523.527,271.901,524.086,272.399z"/>
					</g>
				</g>
			</g>
			<g>
				<path style="fill:#C897F7;" d="M155.943,294.045c6.658,5.944,9.555,15.776,12.332,23.936
					c3.148,9.253,6.781,18.286,11.019,27.078c-2.113-13.098-4.944-26.07-7.003-39.179c-0.916-5.831-1.682-11.69-2.147-17.575
					c-0.437-5.527-0.931-11.736,1.08-17.039c1.044-2.753,3.287-5.81,6.593-5.521c3.957,0.346,6.125,5.051,7.257,8.292
					c3.869,11.085,4.022,24.007,4.901,35.605c0.868,11.455,1.748,22.927,4.148,34.162c0.418-12.04,0.005-24.095,0.531-36.134
					c0.239-5.477,0.686-10.947,1.502-16.369c0.691-4.592,1.384-9.524,3.569-13.692c2.423-4.622,9.948-9.348,10.842-1.342
					c2.331,20.868-3.396,41.592-4.801,62.4c3.49-14.281,8.018-28.404,13.989-41.809c2.28-5.12,13.035-28.71,21.592-20.303
					c3.946,3.877,3.52,10.551,2.635,15.495c-1.391,7.769-3.657,15.452-5.527,23.118c-1.855,7.607-3.441,15.349-5.711,22.846
					c-0.945,3.123-2.099,6.231-3.742,9.061c-0.118,0.203-0.226,0.391-0.329,0.572c-0.115-0.02-0.234-0.035-0.363-0.034
					c-10.123,0.063-20.175,1.389-30.289,1.622c-7.765,0.178-15.524-0.346-23.275-0.038c-7.964-6.876-14.084-15.474-19.206-24.63
					c-2.42-4.327-4.617-8.772-6.686-13.277c-1.895-4.128-4.207-8.577-4.705-13.148C143.348,290.789,151.509,290.087,155.943,294.045
					z"/>
				<g>
					<path style="fill:#435B7A;" d="M199.29,317.418c-1.959-0.915-4.114,1.183-5.076,2.671c-1.854,2.864-1.663,6.341-1.603,9.607
						c0.043,2.306,0.088,4.611,0.132,6.917c0.018,0.942,0.035,1.883,0.054,2.825c-0.716-1.009-1.409-2.013-2.093-2.967
						c-2.319-3.234-4.464-6.569-6.578-9.926c0.066-0.06,0.129-0.128,0.186-0.211c3.907-5.676,6.385-12.641,6.677-19.551
						c0.091-2.157-0.294-4.879-2.72-5.591c-2.736-0.803-4.229,2.001-5.085,4.086c-1.242,3.026-2.001,6.305-2.278,9.563
						c-0.143,1.687-0.148,3.387-0.034,5.076c0.023,0.347,0.207,1.171,0.406,2.089c-0.492-0.781-0.984-1.562-1.481-2.341
						c-2.885-4.525-6.016-8.989-9.728-12.797c0.777-4.236,1.072-8.946,1.146-13.153c0.039-2.221-0.844-5.204-3.635-5.069
						c-4.936,0.239-3.206,8.844-1.298,14.773c-2.741-2.209-5.781-4.051-9.232-5.333c-0.306-0.114-0.566,0.375-0.26,0.526
						c2.518,1.242,4.786,2.754,6.865,4.464c-4.917-1.399-11.088-2.306-11.817,1.607c-0.499,2.679,2.909,3.145,4.767,3.511
						c3.9,0.769,7.844,1.032,11.808,0.868c0.38,0.158,0.806,0.138,1.085-0.142c0.006-0.003,0.012-0.004,0.018-0.007
						c3.883,4.581,7.087,9.824,10.211,15.004c-5.832-3.839-12.823-6.411-19.46-7.777c-0.723-0.149-1.329,0.692-1.195,1.336
						c1.169,5.626,7.61,8.799,12.73,10.12c1.829,0.472,7.548,1.661,10.474,0.497c2.723,4.406,5.577,8.728,8.642,12.905
						c0.349,0.475,0.7,0.951,1.055,1.423c-7.496-3.75-16.662-5.038-24.881-4.814c-0.946,0.026-1.413,0.967-0.86,1.733
						c3.771,5.226,10.228,6.325,16.284,6.364c3.24,0.021,6.746,0.233,9.957-0.2c0.656-0.089,1.147-0.272,1.518-0.531
						c2.251,2.668,4.813,4.997,8.208,6.24c1.525,0.558,2.341-1.825,0.818-2.383c-2.771-1.014-5.022-2.952-6.992-5.209
						c4.023-5.309,6.479-12.021,6.089-18.734C201.99,322.813,201.519,318.459,199.29,317.418z"/>
					<g>
						<path style="fill:#5A88C4;" d="M167.061,305.533c-1.459-0.622-3.238-0.654-4.799-0.881c-1.771-0.257-3.546-0.562-5.335-0.666
							c-0.474-0.028-0.667,0.72-0.173,0.844c1.679,0.422,3.4,0.663,5.108,0.94c1.664,0.269,3.455,0.794,5.136,0.628
							C167.481,306.35,167.433,305.692,167.061,305.533z"/>
						<path style="fill:#5A88C4;" d="M167.503,291.597c-1.613,3.313-1.167,8.536,0.179,11.871c0.113,0.279,0.505,0.11,0.476-0.158
							c-0.224-2.031-0.529-4.015-0.467-6.069c0.056-1.854,0.576-3.64,0.647-5.473C168.358,291.253,167.709,291.174,167.503,291.597z
							"/>
						<path style="fill:#5A88C4;" d="M179.586,325.858c-1.537-1.805-4.382-2.32-6.578-2.823c-2.953-0.676-5.536-1.426-8.232-2.837
							c-0.169-0.089-0.369,0.102-0.23,0.264c1.63,1.901,4.281,2.589,6.62,3.167c1.404,0.347,2.824,0.637,4.201,1.089
							c1.347,0.443,2.534,1.188,3.845,1.699C179.545,326.548,179.803,326.113,179.586,325.858z"/>
						<path style="fill:#5A88C4;" d="M188.211,304.275c-1.811,2.592-2.871,5.918-3.873,8.896c-0.893,2.654-2.044,5.717-1.818,8.555
							c0.005,0.07,0.114,0.089,0.147,0.03c1.391-2.47,1.888-5.519,2.826-8.188c1.055-3,2.641-5.84,3.601-8.856
							C189.264,304.174,188.537,303.809,188.211,304.275z"/>
						<path style="fill:#5A88C4;" d="M191.05,342.55c-2.164-0.99-4.629-0.813-6.952-0.648c-3.575,0.253-6.361,0.085-9.819-0.798
							c-0.068-0.017-0.14,0.064-0.082,0.123c1.771,1.778,4.599,1.895,6.972,1.855c3.346-0.056,6.38-0.284,9.702,0.34
							C191.408,343.522,191.476,342.745,191.05,342.55z"/>
						<path style="fill:#5A88C4;" d="M196.286,325.581c-1.009,2.442-1.407,5.172-1.73,7.783c-0.306,2.473-0.774,5.462-0.019,7.875
							c0.019,0.059,0.106,0.078,0.129,0.009c0.758-2.282,0.639-4.954,0.985-7.341c0.398-2.737,1.164-5.404,1.544-8.139
							C197.271,325.218,196.479,325.113,196.286,325.581z"/>
					</g>
				</g>
				<g>
					<path style="fill:#435B7A;" d="M220.292,301.813c-2.884,0.526-5.633,2.087-8.184,3.727c0.221-0.949,0.432-1.9,0.63-2.855
						c0.744-3.586,1.228-7.234,1.397-10.876c0.281-0.021,0.508-0.222,0.621-0.49c3.127-0.178,6.953-3.753,8.833-5.833
						c2.8-3.099,10.077-17.051,1.74-18.187c-3.454-0.471-5.701,4.643-7.004,7.078c-1.786,3.338-3.096,6.893-4.271,10.489
						c-0.588-8.131-2.981-16.023-7.876-22.916c-0.268-0.377-0.932-0.08-0.746,0.376c2.492,6.09,4.503,12.473,5.333,19.017
						c-0.952-1.629-1.985-3.211-3.093-4.739c-1.52-2.095-3.988-6.401-6.885-6.868c-2.417-0.389-4.003,1.802-3.899,4.039
						c0.166,3.562,3.407,6.711,5.762,9.05c2.633,2.615,5.431,5.072,8.471,7.194c-0.234,5.459-1.26,10.857-2.571,16.179
						c-0.087-1.07-0.134-2.151-0.283-3.141c-0.57-3.799-1.342-7.678-3.051-11.148c-0.776-1.576-2.061-3.882-4.222-3.308
						c-2.033,0.54-2.832,3.23-2.887,5.049c-0.093,3.105,1.472,5.952,2.913,8.6c1.705,3.135,3.639,5.972,5.814,8.715
						c0.077,0.254,0.169,0.499,0.281,0.733c-1.178,4.37-2.398,8.732-3.33,13.157c-0.041-0.54-0.087-1.081-0.148-1.622
						c-0.455-4.022-1.199-8.488-2.874-12.194c-2.084-4.613-7.511-3.842-7.786,1.39c-0.183,3.482,1.404,7.368,2.533,10.586
						c0.691,1.97,1.451,3.921,2.32,5.82c1.026,2.241,2.11,3.512,3.553,5.476c0.042,0.057,0.091,0.098,0.143,0.13
						c0.149,0.561,0.353,1.072,0.62,1.53c-0.394,4.994-0.165,10.233,2.129,14.443c0.568,1.042,2.026,0.297,2.022-0.698
						c-0.015-3.72-0.771-7.37-0.774-11.101c0.109,0.041,0.204,0.089,0.317,0.127c5.253,1.758,17.041,1.862,17.104-6.404
						c0.023-3.062-2.835-2.478-5.087-2.262c-4.051,0.389-8.021,1.189-11.915,2.32c0.282-2.291,0.68-4.569,1.15-6.824
						c0.802-3.853,1.816-7.654,2.828-11.456c1.678,0.678,3.694,0.834,5.275,0.814c4.477-0.056,14.979-4.141,12.754-10.356
						C226.895,301.625,222.914,301.335,220.292,301.813z"/>
					<g>
						<path style="fill:#5A88C4;" d="M196.321,313.685c-0.146-0.097-0.311,0.15-0.171,0.256c2.369,1.802,3.573,6.334,4.462,9.032
							c0.986,2.994,1.427,6.077,2.169,9.126c0.154,0.632,1.088,0.375,1.076-0.221C203.741,326.179,201.357,317.034,196.321,313.685z
							"/>
						<path style="fill:#5A88C4;" d="M218.783,332.682c-2.491-0.629-5.275-0.291-7.778,0.154c-1.916,0.34-4.178,0.648-5.569,2.078
							c-0.048,0.049-0.016,0.145,0.052,0.154c2.021,0.287,4.075-0.62,6.086-0.892c2.377-0.322,4.774-0.147,7.139-0.442
							C219.308,333.659,219.374,332.831,218.783,332.682z"/>
						<path style="fill:#5A88C4;" d="M200.902,294.58c-0.109-0.125-0.325,0.008-0.22,0.149c1.444,1.941,3.043,3.818,4.41,5.814
							c1.707,2.492,1.78,4.619,1.991,7.495c0.031,0.421,0.579,0.499,0.776,0.154C210.772,303.095,203.689,297.756,200.902,294.58z"
							/>
						<path style="fill:#5A88C4;" d="M221.833,305.444c-2.289,2.011-5.008,1.727-7.786,2.397c-1.412,0.341-3.693,1.101-3.62,2.858
							c0.002,0.052,0.056,0.082,0.103,0.068c1.182-0.359,2.048-1.24,3.293-1.549c1.357-0.337,2.758-0.333,4.134-0.534
							c1.929-0.282,3.614-0.829,4.644-2.57C222.858,305.678,222.23,305.096,221.833,305.444z"/>
						<path style="fill:#5A88C4;" d="M209.081,282.633c-2.613-2.456-5.385-4.7-8.184-6.935c-0.162-0.129-0.362,0.1-0.211,0.242
							c2.129,2.015,4.175,4.125,6.212,6.233c1.994,2.064,4.142,4.004,5.479,6.568c0.266,0.51,1.143,0.185,1.061-0.367
							C213.08,285.938,210.78,284.229,209.081,282.633z"/>
						<path style="fill:#5A88C4;" d="M225.914,272.399c-3.894,3.465-7.166,7.777-8.58,12.821c-0.041,0.145,0.189,0.223,0.249,0.086
							c2.121-4.791,5.965-8.175,9.232-12.12C227.321,272.574,226.473,271.901,225.914,272.399z"/>
					</g>
				</g>
			</g>
		</g>
	</g>
	<g>
		<path style="fill:#E8F2FF;" d="M219.882,463.754H86.778c-2.124,0-3.846-1.285-3.846-2.871l0,0c0-1.585,1.722-2.871,3.846-2.871
			h133.104c2.124,0,3.847,1.285,3.847,2.871l0,0C223.728,462.468,222.006,463.754,219.882,463.754z"/>
		<g>
			<g>
				<g>
					<g>
						<path style="fill:#E0B594;" d="M119.367,411.327c-1.107,12.626-0.66,25.732-1.465,38.847c2.31,0.636,12.2,2.977,14.684,4.794
							c2.945,2.155,3.132,4.22-0.267,5.172c-5.858-0.23-19.005,0.984-23.922,0.342c-1.625-2.168-4.508-4.574-4.684-10.53
							c-0.384-13.02-0.785-26.98-1.974-39.837C107.589,410.716,113.468,411.114,119.367,411.327z"/>
						<g>
							<path style="fill:#213C5E;" d="M130.652,451.375c-3.967-1.815-7.962-4.076-12.176-5.227
								c-0.085-0.023-0.163-0.008-0.231,0.027c-0.141,0.006-0.282,0.059-0.397,0.192c-2.06,2.373-4.201,4.041-7.486,3.816
								c-2.396-0.164-4.506-1.306-6.74-2.042c-0.036-0.012-0.065,0.004-0.098,0.005c-0.122-0.068-0.32,0.009-0.355,0.172
								c-0.489,2.267-1.295,13.521,3.287,12.745c5.097,1.034,10.498,0.792,15.674,0.844c3.641,0.037,16.084,0.798,17.257-2.3
								C141.609,453.726,132.602,452.268,130.652,451.375z"/>
							<g>
								<path style="fill:#905AC4;" d="M122.023,446.101c-0.927,0.959-1.627,1.999-2.157,3.22c-0.539,1.241,1.014,1.944,1.926,1.353
									c1.002-0.649,1.864-1.459,2.578-2.42C125.433,446.825,123.311,444.768,122.023,446.101z"/>
								<path style="fill:#905AC4;" d="M130.446,450.123c-0.927,0.959-1.627,1.999-2.157,3.22c-0.539,1.241,1.014,1.944,1.926,1.353
									c1.002-0.649,1.864-1.459,2.578-2.42C133.856,450.848,131.734,448.79,130.446,450.123z"/>
								<path style="fill:#905AC4;" d="M126.078,448.123c-1.068,0.793-2.57,2.502-2.174,3.936c0.034,0.124,0.113,0.261,0.25,0.297
									c1.532,0.395,3.21-1.144,4.037-2.294C129.183,448.683,127.363,447.169,126.078,448.123z"/>
							</g>
						</g>
					</g>
					<g>
						<path style="fill:#E0B594;" d="M178.848,409.06c2.419,12.442,6.264,24.518,9.109,37.345
							c0.354,0.219,12.749-0.107,15.637,0.955c3.425,1.258,4.175,3.192,1.17,5.045c-5.694,1.395-17.996,6.189-22.899,6.929
							c-2.16-1.636-5.62-3.484-7.432-9.159c-3.962-12.408-8.174-25.386-12.864-37.415
							C167.359,411.722,173.119,410.483,178.848,409.06z"/>
						<g>
							<path style="fill:#213C5E;" d="M200.744,444.44c-4.314-0.65-8.778-1.721-13.146-1.665c-0.088,0.001-0.159,0.038-0.215,0.09
								c-0.133,0.044-0.255,0.135-0.329,0.294c-1.326,2.85-2.923,5.043-6.143,5.733c-2.349,0.503-4.691-0.012-7.042-0.104
								c-0.038-0.002-0.061,0.022-0.094,0.032c-0.136-0.032-0.305,0.097-0.294,0.264c0.155,2.314,2.485,13.353,6.676,11.343
								c5.185-0.413,10.309-2.136,15.298-3.514c3.509-0.969,15.68-3.67,15.952-6.972C211.925,443.677,202.865,444.76,200.744,444.44
								z"/>
							<g>
								<path style="fill:#905AC4;" d="M190.995,441.751c-0.626,1.178-1.012,2.371-1.185,3.691
									c-0.175,1.342,1.511,1.588,2.225,0.769c0.784-0.9,1.389-1.917,1.81-3.037C194.473,441.506,191.866,440.114,190.995,441.751z
									"/>
								<path style="fill:#905AC4;" d="M200.201,443.294c-0.626,1.178-1.012,2.37-1.185,3.691c-0.176,1.342,1.511,1.588,2.225,0.769
									c0.784-0.9,1.389-1.917,1.811-3.038C203.678,443.049,201.071,441.657,200.201,443.294z"/>
								<path style="fill:#905AC4;" d="M195.451,442.576c-0.808,1.056-1.78,3.114-1.004,4.383c0.067,0.11,0.181,0.22,0.322,0.216
									c1.582-0.043,2.769-1.985,3.248-3.319C198.59,442.257,196.423,441.304,195.451,442.576z"/>
							</g>
						</g>
					</g>
				</g>
				<g>
					<g>
						<path style="fill:#3A2C48;" d="M106.479,351.673c-3.038-17.722-5.317-71.647,1.379-98.767c7.959,0,49.508-0.223,49.508-0.223
							c7.342,38.229,28.608,171.913,28.608,176.713c-9.007,0.693-22.026,5.317-22.026,5.317s-12.659-55.951-12.405-80.002
							c-4.785-13.484-12.247-40.235-16.21-62.253c-2.659,24.614-5.514,51.292-6.172,58.395c-1.299,14.029-7.239,84.62-7.239,84.62
							h-21.013C100.909,435.472,96.087,367.781,106.479,351.673z"/>
					</g>
					<g>
						<path style="fill:#2A1C38;" d="M100.113,438.209c2.895,1.944,10.312,1.155,13.712,1.086c2.416-0.049,6.069,0.249,8.282-0.888
							c2.091-1.075,4.846-5.659,0.707-5.749c-0.013,0-0.018,0.009-0.03,0.01c-2.955-1.178-7.218-0.59-10.351-0.693
							c-2.574-0.085-5.147-0.167-7.721-0.255c-1.302-0.044-4.32-0.689-5.474-0.131C96.961,432.689,98.381,437.046,100.113,438.209z"
							/>
						<path style="fill:#2A1C38;" d="M162.637,435.673c3.241,1.463,10.654-0.488,14.098-1.094c2.447-0.43,6.204-0.714,8.278-2.187
							c1.959-1.393,4.054-6.358-0.165-5.792c-0.014,0.002-0.017,0.012-0.029,0.015c-3.183-0.697-7.424,0.558-10.622,0.951
							c-2.628,0.323-5.255,0.649-7.884,0.969c-1.33,0.162-4.495,0.002-5.582,0.736C158.585,430.717,160.699,434.798,162.637,435.673
							z"/>
						<path style="fill:#2A1C38;" d="M107.33,272.58c2.389-0.924,4.788-1.049,7.053-2.441c1.05-0.645,1.989-1.408,2.861-2.276
							c0.708-0.705,1.041-1.33,1.991-1.607c0.092-0.027,0.227,0.033,0.242,0.137c0.29,2.148-2.554,4.285-4.161,5.342
							c-2.159,1.421-5.396,2.806-7.985,2.016C106.724,273.565,106.788,272.79,107.33,272.58z"/>
						<path style="fill:#2A1C38;" d="M131.379,287.659c1.102-0.501,2.24-0.629,3.351-1.062c2.533-0.987,2.854-3.089,3.064-5.65
							c0.261-3.179,0.534-6.206,1.098-9.333c0.044-0.245,0.38-0.157,0.403,0.055c0.457,4.278,1.286,9.523-0.212,13.691
							c-1.135,3.157-4.164,3.696-7.281,3.862C131.002,289.264,130.617,288.005,131.379,287.659z"/>
						<path style="fill:#2A1C38;" d="M145.637,264.411c1.995,1.683,3.787,3.578,5.883,5.144c2.157,1.61,4.077,2.245,6.691,2.777
							c0.128,0.026,0.193,0.228,0.083,0.313c-4.224,3.269-11.603-4.282-13.61-7.499C144.299,264.53,145.134,263.987,145.637,264.411
							z"/>
					</g>
				</g>
			</g>
			<g>
				<path style="fill:#E0B594;" d="M250.236,244.014c-0.181-1.87-12.288-2.189-12.257-2.619c0.031-0.43,11.063-0.747,10.949-2.559
					c-0.114-1.812-8.403-1.2-10.126-1.19c-1.938,0.011-5.98-0.656-5.978-0.734c0.01-0.414,1.868-1.227,2.391-1.571
					c1.566-1.032,2.363-3.29-0.669-3.03c-5.981,0.515-8.739,4.445-16.293,4.373c-7.198-1.183-16.57-2.298-23.151-2.815
					c-1.051-0.082-7.811-1.287-14.044-0.97c-0.11-0.323-0.207-0.63-0.269-0.906c-0.819-3.593-2.09-7.124-3.296-10.6
					c-2.31-6.658-4.936-13.196-7.409-19.794c-0.283-0.755-0.563-1.51-0.833-2.27c-1.897-5.345-6.662-17.056-17.276-12.046l0.8,2.646
					c-3.887,1.902-7.445,3.433-5.023,8.383c0,0,4.139,8.457,5.284,10.797c2.407,4.918,4.809,9.838,7.395,14.665
					c2.955,5.515,5.645,13.05,9.721,18.484c0.229,0.305,0.468,0.591,0.713,0.866c3.208,5.582,14.815,5.649,17.97,5.482
					c8.862-0.468,19.527-2.142,25.744-2.055c7.087,1.072,12.52,3.498,17.539,4.386c2.552,0.452,6.169,1.387,7.697,1.66
					c2.843,0.507,3.356,0.305,3.584-0.433c0.396-1.282-6.511-3.237-6.542-3.732c-0.031-0.494,9.998,1.998,10.6-0.291
					c0.441-1.673-9.563-2.392-9.569-2.936C237.884,244.661,250.417,245.884,250.236,244.014z"/>
				<path style="fill:#435B7A;" d="M146.792,192.333c0.579-2.708,0.053-10.595,2.342-11.212c3.38-0.912,6.172-0.33,9.304,1.555
					c6.206,3.734,9.827,12.287,10.787,14.989c0.643,1.812,1.593,4.279,2.693,7.136c0.969,2.517,2.052,5.331,3.141,8.257
					c0.115,0.309,0.096,0.65-0.05,0.945c-0.147,0.294-0.41,0.514-0.725,0.608c-2.858,0.849-5.501,2.249-8.204,3.48
					c-2.208,1.005-5.767,3.024-8.224,2.197c-3.827-1.287-4.905-7.562-6.446-10.721l-5.87-11.999
					C144.251,194.936,146.236,194.935,146.792,192.333z"/>
			</g>
			<g>
				<g>
					<path style="fill:#E0B594;" d="M146.484,179.051c-2.237,11.663-14.981,24.649-25.252,12.539
						c-3.056-3.603-4.97-8.102-6.517-12.764c0.993-0.743,1.903-1.333,2.559-1.58c2.594-0.975,6.401-2.804,6.401-2.804
						c0.14-3.643-0.324-18.971-0.28-20.54c0.574,0.007,13.793,13.539,15.219,15.433c-0.028,0.553-0.108,5.384-0.127,5.734
						C139.479,175.45,142.969,177.335,146.484,179.051z"/>
					<path style="fill:#BA7038;" d="M138.614,169.333c-0.014,0.287-0.043,1.722-0.07,3.087c-6.87,0.725-14.232-6.549-14.96-8.97
						c-0.097-4.863-0.212-8.703-0.189-9.55C123.969,153.908,137.188,167.44,138.614,169.333z"/>
				</g>
				<g>
					<path style="fill:#E0B594;" d="M143.297,124.36c-4.706-1.01-17.506-3.324-22.328,6.055c-1.274,2.479,0.622,11.813,0.654,15.082
						c-0.089,4.038-0.793,9.671,4.328,15.895c2.983,3.626,8.321,8.117,11.872,8.723c4.483,0.765,9.142,0.739,11.735-2.428
						c2.41-2.944,4.264-7.747,5.094-11.992c0.847-4.336-0.161-6.823,0.21-9.653c0.284-2.167,0.004-7.593-0.46-9.64
						C152.582,128.376,148.003,125.371,143.297,124.36z"/>
					<g>
						<g>
							<g>
								<path style="fill:#C897F7;" d="M134.933,144.998c-0.162,0.201-0.309,0.431-0.376,0.699
									c-0.067,0.268-0.041,0.581,0.111,0.784c0.169,0.225,0.455,0.268,0.703,0.199c0.248-0.068,0.473-0.229,0.703-0.364
									c0.989-0.578,2.098-0.667,3.166-0.606c0.849,0.049,2.137,0.487,2.885-0.251c0.01-0.007,0.021-0.012,0.031-0.019
									c0.549-0.411,0.638-1.189,0.241-1.769c-0.387-0.565-1.052-0.744-1.633-0.791c-1.049-0.083-2.105,0.146-3.129,0.474
									c-0.922,0.296-1.863,0.699-2.566,1.483C135.023,144.889,134.977,144.943,134.933,144.998z"/>
								<path style="fill:#3A2C48;" d="M137.409,149.326c0,0.955,0.774,1.729,1.729,1.729s1.73-0.774,1.73-1.729
									s-0.774-1.73-1.73-1.73S137.409,148.371,137.409,149.326z"/>
							</g>
							<g>
								<path style="fill:#C897F7;" d="M154.604,144.837c-0.703-0.784-1.644-1.187-2.566-1.483c-1.024-0.328-2.08-0.557-3.129-0.474
									c-0.581,0.046-1.247,0.226-1.633,0.791c-0.397,0.58-0.307,1.357,0.242,1.769c0.01,0.007,0.021,0.012,0.031,0.019
									c0.748,0.738,2.036,0.3,2.885,0.251c1.069-0.061,2.177,0.028,3.166,0.606c0.23,0.135,0.455,0.296,0.703,0.364
									c0.248,0.069,0.534,0.026,0.703-0.199c0.153-0.203,0.178-0.516,0.111-0.784c-0.067-0.268-0.214-0.497-0.376-0.699
									C154.697,144.943,154.651,144.889,154.604,144.837z"/>
								<path style="fill:#3A2C48;" d="M152.265,149.326c0,0.955-0.774,1.729-1.73,1.729s-1.729-0.774-1.729-1.729
									s0.774-1.73,1.729-1.73S152.265,148.371,152.265,149.326z"/>
							</g>
						</g>
						<g>
							<path style="fill:#BA7038;" d="M146.672,158.296c0.21-0.086,0.408-0.161,0.623-0.217c0.966-0.251,1.184,0.138,1.719-0.846
								c0.553-1.017-0.175-2.065-0.598-3.087c-0.66-1.597-1.473-3.268-1.3-5.033c0.025-0.26,0.351-0.303,0.446-0.06
								c0.616,1.565,1.109,3.152,1.778,4.703c0.437,1.012,1.179,2.267,1.18,3.386c0.002,1.888-2.446,2.093-3.848,1.881
								C146.258,158.96,146.376,158.417,146.672,158.296z"/>
							<path style="fill:#BA7038;" d="M144.5,156.933c0.123-0.097,0.333-0.115,0.416,0.054c0.131,0.266,0.001,0.32,0.016,0.579
								c0.021,0.358,0.497,0.399,0.772,0.551c0.143,0.079,0.129,0.28,0,0.363C144.649,159.155,143.437,157.767,144.5,156.933z"/>
						</g>
						<path style="fill:#BA7038;" d="M149.709,161.975c-1.282,2.208-7.279,2.039-7.943-0.665c-0.087-0.352,0.268-0.574,0.57-0.438
							c1.364,0.612,2.013,1.37,3.657,1.386c1.219,0.012,2.303-0.406,3.48-0.59C149.645,161.639,149.808,161.803,149.709,161.975
							L149.709,161.975z"/>
					</g>
				</g>
				<path style="fill:#C897F7;" d="M153.83,127.361c-2.094-4.172-6.559-7.681-11.304-6.894c-1.8,0.298-2.005,0.625-4.075,0.373
					c-1.598-0.195-3.03-0.516-4.672-0.423c-1.748,0.099-3.372,0.468-4.876,1.158c-3.033,0.674-5.84,1.924-7.721,3.521
					c-5.721,4.857-6.712,16.678-3.996,23.267c3.296,7.997,7.701-2.102,9.652-5.128c1.033-1.602,2.383-3.627,4.087-3.47
					c0.777,0.072,1.4,0.867,2.398,0.839c2.965-0.082,4.09-3.394,5.161-5.811c1.34,0.993,3.07,1.134,4.64,0.023
					c1.362-0.963,1.91-2.291,1.974-3.716c1.366,2.099,3.927,3.993,5.797,3.266c1.135,2.1,3.488,5.064,5.586,3.067
					C158.755,135.271,155.667,130.047,153.83,127.361z"/>
				<g>
					<path style="fill:#E0B594;" d="M116.472,156.413c0.358,0.407,0.759,0.785,1.235,1.045c0.56,0.306,1.201,0.435,1.838,0.48
						c1.086,0.075,2.199-0.093,3.174-0.573c0.976-0.48,1.805-1.287,2.228-2.288l-0.562-7.818c-0.523-0.816-1.27-1.454-2.123-1.909
						c-1.199-0.64-2.614-0.906-3.963-0.698c-0.035,0.005-0.069,0.015-0.105,0.021c-0.618,0.106-1.228,0.304-1.741,0.665
						c-0.752,0.529-1.241,1.36-1.57,2.218C113.756,150.499,114.392,154.044,116.472,156.413z"/>
					<path style="fill:#BA7038;" d="M122.408,148.745c-0.569-1.301-2.238-2.152-3.788-1.961c-1.574,0.203-2.573,1.525-2.544,3.369
						c0.024,1.609,0.657,3.909,2.356,5.096c0.564,0.393,1.199,0.611,1.785,0.624c0.189,0.004,0.373-0.013,0.548-0.053
						c0.553-0.126,1.002-0.472,1.299-0.999c0.059-0.104,0.002-0.208-0.114-0.416c-0.162-0.294-0.433-0.784-0.238-1.128
						c0.194-0.338,0.572-0.43,0.822-0.492c0.183-0.044,0.327-0.08,0.351-0.221C123.102,151.24,122.698,149.336,122.408,148.745z
						 M120.951,153.18c-0.154,0.659,0.14,1.261,0.25,1.487c0.006,0.011,0.011,0.023,0.015,0.032
						c-0.064,0.099-0.308,0.269-0.688,0.347c-0.318,0.064-1.116,0.133-1.691-0.623c-0.057-0.075-0.559-0.748-0.62-1.287
						c-0.107-0.938,0.355-1.371,0.941-1.919l0.182-0.171h0.001c0.144-0.139,0.294-0.275,0.446-0.411
						c0.356-0.323,0.725-0.657,1.03-1.031c0.175-0.216,0.516-0.696,0.535-1.191c0.217,0.22,0.421,0.503,0.477,0.722
						c0.107,0.424,0.441,1.861,0.365,2.974C121.776,152.224,121.095,152.557,120.951,153.18z M119.053,150.1
						c-0.546,0.48-1.11,0.976-1.465,1.72c-0.095,0.201-0.161,0.413-0.195,0.631c-0.249-0.602-0.411-1.249-0.467-1.872
						c-0.089-0.993,0.12-1.83,0.588-2.356c0.376-0.423,0.914-0.648,1.598-0.667c0.498-0.011,0.99,0.094,1.462,0.324
						C120.404,148.913,119.748,149.49,119.053,150.1z"/>
				</g>
				<g>
					<path style="fill:#AF74E8;" d="M143.191,125.108c-1.01-1.292-2.236-2.104-3.553-3.04c-0.111-0.079-0.254,0.104-0.147,0.19
						c1.184,0.948,2.156,2.271,3.011,3.514c0.807,1.174,1.221,2.644,2.069,3.753c0.223,0.291,0.812,0.251,0.779-0.211
						C145.242,127.785,144.107,126.28,143.191,125.108z"/>
					<path style="fill:#AF74E8;" d="M147.137,128.968c-0.137-0.197-0.41-0.03-0.317,0.185c0.384,0.888,1.186,1.416,2.034,1.813
						c0.987,0.462,1.784,0.917,2.569,1.686c0.181,0.177,0.534,0.055,0.52-0.215C151.829,130.14,148.216,130.516,147.137,128.968z"/>
					<path style="fill:#AF74E8;" d="M146.39,126.43c-0.393-0.005-0.391,0.594,0,0.609c1.258,0.051,2.447,0.532,3.446,1.296
						c0.876,0.669,1.406,1.616,2.208,2.35c0.18,0.165,0.564,0.067,0.534-0.221C152.286,127.72,148.742,126.463,146.39,126.43z"/>
					<path style="fill:#AF74E8;" d="M148.397,123.861c-1.093-0.654-2.51-0.631-3.721-0.363c-0.277,0.061-0.151,0.451,0.114,0.414
						c1.216-0.168,2.224,0.172,3.363,0.527C148.5,124.548,148.701,124.043,148.397,123.861z"/>
					<path style="fill:#AF74E8;" d="M141.154,130.789c-0.124-0.22-0.497-0.073-0.414,0.175c0.724,2.167-2.732,1.526-3.73,1.593
						c-0.688,0.046-1.323,0.243-1.874,0.664c-1.171,0.893-1.786,2.618-1.769,4.048c0.005,0.382,0.583,0.59,0.764,0.207
						c0.425-0.899,0.576-1.971,1.169-2.781c1.019-1.392,2.487-0.875,3.947-1.076C140.702,133.418,141.992,132.278,141.154,130.789z"
						/>
					<path style="fill:#AF74E8;" d="M139.799,127.563c-1.799-1.146-4.418-0.131-6.015,0.968c-1.948,1.341-3.369,3.335-4.253,5.504
						c-0.169,0.415,0.453,0.603,0.678,0.286c1.193-1.682,2.239-3.473,3.892-4.755c1.796-1.393,3.564-1.405,5.673-1.818
						C139.865,127.731,139.867,127.607,139.799,127.563z"/>
					<path style="fill:#AF74E8;" d="M132.766,123.614c-1.975-0.831-5.087,0.007-6.4,1.761c-0.527,0.705-0.707,1.632-1.166,2.378
						c-0.416,0.675-1.003,1.239-1.557,1.795c-0.99,0.994-1.904,1.838-2.394,3.171c-0.126,0.342,0.395,0.656,0.627,0.365
						c1.198-1.502,2.75-2.738,3.858-4.3c0.578-0.815,0.82-1.745,1.328-2.596c0.995-1.665,3.675-2.917,5.662-2.424
						C132.825,123.79,132.856,123.652,132.766,123.614z"/>
					<path style="fill:#AF74E8;" d="M125.945,134.615c-0.027-0.159-0.303-0.124-0.284,0.038c0.419,3.489-5.192,4.365-4.694,7.93
						c0.056,0.401,0.585,0.283,0.701,0c0.749-1.829,2.056-2.862,3.248-4.362C125.781,137.133,126.187,136.003,125.945,134.615z"/>
				</g>
			</g>
			<g>
				<path style="fill:#435B7A;" d="M105.522,237.79c0.008,4.561,0.08,9.124,0.084,13.678c0.002,2.576-0.967,6.793,0.461,9.071
					c1.723,2.747,6.786,3.945,9.551,4.249c7.494,0.825,28.414-0.211,32.546-0.948c6.207-1.108,10.496-3.754,10.105-7.046
					c-0.358-3.018-2.655-28.618-2.767-32.225c0.292-0.874-1.337-42.218-1.398-43.694c-3.377-1.559-6.495-2.533-11.418-4.454
					c-0.117,6.215-2.05,11.727-8.484,11.83c-6.434,0.102-10.625-6.618-13.093-12.94c0,0-15.621,4.729-18.447,6.225
					c-2.618,1.386-0.709,8.829-0.337,11.989c1.251,10.63,2.05,27.697,3.021,41.566C105.403,235.991,105.452,236.891,105.522,237.79z
					"/>
				<path style="fill:#375070;" d="M154.198,202.241c-0.023-0.136-0.243-0.131-0.247,0.012c-0.248,8.323,0.28,16.966,0.705,25.292
					c0.017,0.336,0.57,0.3,0.588-0.029C155.68,219.362,155.585,210.305,154.198,202.241z"/>
			</g>
			<g>
				<g>
					<path style="fill:#E0B594;" d="M88.634,311.808c1.345,0.132,1.879-7.082,2.36-7.212c0.481-0.131,0.05,10.273,2.43,10.405
						c1.741,0.097,0.427-9.923,0.963-10.038c0.537-0.115,1.863,12.504,3.672,11.947c1.809-0.557-0.324-12.572,0.107-12.628
						c0.431-0.056,2.974,10.77,4.74,10.29c1.766-0.479-0.514-8.537-0.873-10.235c-0.403-1.91-0.562-6.035-0.484-6.049
						c0.411-0.074,1.588,1.596,2.035,2.043c1.335,1.337,3.725,1.667,2.855-1.272c-1.75-5.909-7.463-9.053-8.317-15.312
						c-0.362-2.654-0.038-18.315-0.692-25.35c-0.116-1.247-1.268-9.2-3.596-15.911c6.338-9.446,13.352-28.312,16.324-35.862
						c1.051-2.671,4.851-12.323,4.851-12.323c2.224-5.65-1.819-7.018-6.255-8.764l0.645-2.977
						c-12.098-4.567-16.299,8.715-17.912,14.752c-2.317,8.673-9.545,30.446-10.542,42.395c-0.303,8.983,6.448,38.242,8.274,45.388
						c0.9,7.238-1.347,11.809-1.412,15.915c-0.042,2.611-0.365,5.786-0.325,7.349C87.557,311.268,87.86,311.733,88.634,311.808z"/>
					<path style="fill:#435B7A;" d="M110.344,181.525c-13.458-3.726-18.156,10.904-18.971,13.956
						c-0.547,2.047-1.372,4.84-2.328,8.074c-0.843,2.85-1.784,6.035-2.722,9.344c-0.099,0.349-0.049,0.723,0.138,1.033
						c0.187,0.31,0.495,0.529,0.85,0.604c5.566,1.176,10.326,3.651,15.76,5.031l2.059,0.46c0.048,0.012,1.194,0.295,1.113-0.378
						c-0.07-0.582,0.974-0.837,1.205-1.389c1.814-4.333,3.389-8.349,4.539-11.281l2.257-6.366
						C118.856,188.165,112.861,182.222,110.344,181.525z"/>
				</g>
				<path style="fill:#375070;" d="M104.481,219.49c2.444-0.309,4.406-8.054,5.191-10.17c1.285-3.467,2.127-7.057,3.314-10.55
					c0.087-0.255,0.49-0.179,0.468,0.094c-0.463,5.737-2.789,11.476-4.885,16.789c-0.663,1.679-1.518,5.902-4.142,4.678
					C104.076,220.168,104.008,219.549,104.481,219.49z"/>
			</g>
		</g>
		<g>
			<path style="fill:#5F437A;" d="M232.536,266.348l24.278-27.811l8.853-10.141l6.458-7.397l12.517,20.961
				c0.824,1.381,2.396,2.133,3.988,1.911c1.593-0.223,2.897-1.378,3.311-2.932l19.795-74.315c0.115-0.43,0.155-0.869,0.126-1.3
				c-0.071-1.042-0.548-2.034-1.36-2.743c-1.148-1.002-2.766-1.265-4.173-0.678l-70.962,29.648
				c-1.488,0.622-2.457,2.076-2.458,3.689c0,0.092,0.003,0.183,0.009,0.274c0.102,1.502,1.042,2.83,2.445,3.417l22.54,9.445
				l-15.413,17.656l-24.278,27.811c-0.726,0.832-1.047,1.88-0.977,2.901c0.069,1.021,0.528,2.016,1.36,2.743l8.297,7.243
				C228.556,268.184,231.083,268.012,232.536,266.348z"/>
			<polygon style="fill:#FFFFFF;" points="253.801,235.906 262.654,225.765 272.734,214.218 288.077,239.909 307.872,165.594 
				236.91,195.242 264.563,206.83 245.503,228.663 221.225,256.474 229.522,263.717 			"/>
		</g>
	</g>
</g>
<g id="DESIGNED_BY_FREEPIK">
	<g>
		<g id="XMLID_319_">
			<g id="XMLID_338_">
				<path id="XMLID_346_" style="fill:#1D262D;" d="M385.104,465.465c-0.432,0.443-0.803,0.931-1.108,1.453l-0.465-0.241
					c-0.067-0.298-0.349-0.503-0.659-0.466c-0.331,0.039-0.568,0.339-0.529,0.67c0.039,0.331,0.339,0.568,0.67,0.529
					c0.066-0.008,0.127-0.026,0.184-0.052l0.451,0.234c-0.251,0.554-0.433,1.139-0.539,1.744l0.747,0.132
					c0.23-1.306,0.85-2.507,1.792-3.473L385.104,465.465z"/>
				<path id="XMLID_345_" style="fill:#1D262D;" d="M390.592,463.163c-0.171,0-0.341,0.006-0.51,0.017l-0.074-0.626
					c0.188-0.149,0.296-0.389,0.266-0.645c-0.046-0.393-0.402-0.674-0.795-0.628c-0.393,0.046-0.674,0.402-0.628,0.795
					c0.03,0.254,0.189,0.461,0.404,0.564l0.074,0.624c-0.714,0.116-1.403,0.332-2.06,0.646l0.327,0.684
					c0.934-0.447,1.942-0.673,2.995-0.673c0.496,0,0.993,0.053,1.475,0.158l0.161-0.741
					C391.692,463.222,391.142,463.163,390.592,463.163z"/>
				<path id="XMLID_344_" style="fill:#1D262D;" d="M397.194,465.711c0.331-0.04,0.566-0.341,0.526-0.672
					c-0.04-0.331-0.341-0.566-0.672-0.526c-0.309,0.038-0.535,0.304-0.53,0.609l-0.416,0.363c-0.418-0.43-0.889-0.813-1.408-1.139
					l-0.404,0.641c1.134,0.715,2.021,1.726,2.563,2.925l0.69-0.313c-0.251-0.554-0.567-1.072-0.942-1.545l0.402-0.351
					C397.065,465.716,397.129,465.719,397.194,465.711z"/>
				<path id="XMLID_343_" style="fill:#1D262D;" d="M390.044,473.372c-0.386,0.023-0.775,0.035-1.157,0.035
					c-0.88,0-1.733-0.061-2.478-0.179c-0.39-0.062-0.846-0.155-1.27-0.292c1.046,1.861,3.069,3.125,5.388,3.125
					c2.855,0,5.262-1.916,5.95-4.504c-0.682,0.449-1.505,0.825-2.459,1.123C392.839,473.047,391.463,473.286,390.044,473.372z"/>
				<path id="XMLID_339_" style="fill:#1D262D;" d="M390.592,464.68c-3.352,0-6.08,2.666-6.08,5.943
					c0,0.426,0.046,0.849,0.137,1.261c0.673,0.483,2.706,0.89,5.348,0.731c2.879-0.173,5.297-0.957,6.672-2.159
					c-0.006-0.195-0.021-0.39-0.045-0.582C396.244,466.913,393.65,464.68,390.592,464.68z M388.432,471.194
					c-1.02,0-1.85-0.83-1.85-1.85c0-1.02,0.83-1.85,1.85-1.85c1.02,0,1.85,0.83,1.85,1.85
					C390.282,470.365,389.452,471.194,388.432,471.194z M393.17,470.286c-0.75,0-1.36-0.61-1.36-1.36s0.61-1.361,1.36-1.361
					c0.75,0,1.361,0.61,1.361,1.361S393.92,470.286,393.17,470.286z"/>
			</g>
			<path id="XMLID_336_" style="fill:#1D262D;" d="M406.595,466.547c-0.295-0.116-0.805-0.309-1.382-0.237
				c-0.551,0.069-0.844,0.341-0.844,1.007v0.866h2.228v1.717h-2.228v5.455h-1.932v-5.455h-1.34v-1.717h1.34v-0.888
				c0-1.68,0.896-2.783,2.568-2.783c0.643,0,1.157,0.122,1.59,0.308L406.595,466.547z"/>
			<path id="XMLID_334_" style="fill:#1D262D;" d="M411.298,469.879c-0.177-0.03-0.358-0.046-0.526-0.046
				c-0.896,0-1.51,0.548-1.51,1.614v3.908h-1.932v-7.172h1.873v0.785c0.451-0.673,1.14-0.977,2.021-0.977
				c0.414,0,0.848,0.128,1.094,0.337L411.298,469.879z"/>
			<path id="XMLID_331_" style="fill:#1D262D;" d="M418.965,471.757c0,0.222-0.015,0.489-0.037,0.651h-5.085
				c0.207,1.036,0.933,1.488,1.843,1.488c0.622,0,1.295-0.252,1.813-0.688l1.133,1.243c-0.814,0.748-1.85,1.088-3.057,1.088
				c-2.198,0-3.723-1.495-3.723-3.753c0-2.258,1.48-3.797,3.627-3.797C417.544,467.99,418.958,469.522,418.965,471.757z
				 M413.851,471.091h3.175c-0.177-0.918-0.733-1.436-1.562-1.436C414.554,469.655,414.021,470.203,413.851,471.091z"/>
			<path id="XMLID_328_" style="fill:#1D262D;" d="M426.618,471.757c0,0.222-0.015,0.489-0.037,0.651h-5.085
				c0.207,1.036,0.932,1.488,1.843,1.488c0.622,0,1.295-0.252,1.814-0.688l1.132,1.243c-0.814,0.748-1.85,1.088-3.057,1.088
				c-2.198,0-3.723-1.495-3.723-3.753c0-2.258,1.48-3.797,3.627-3.797C425.197,467.99,426.611,469.522,426.618,471.757z
				 M421.504,471.091h3.175c-0.178-0.918-0.733-1.436-1.562-1.436C422.207,469.655,421.674,470.203,421.504,471.091z"/>
			<path id="XMLID_325_" style="fill:#1D262D;" d="M434.964,471.764c0,2.154-1.495,3.775-3.471,3.775
				c-0.962,0-1.643-0.378-2.109-0.933v3.708h-1.924v-10.133h1.887v0.792c0.466-0.585,1.155-0.984,2.139-0.984
				C433.469,467.99,434.964,469.61,434.964,471.764z M429.287,471.764c0,1.132,0.747,1.976,1.843,1.976
				c1.14,0,1.85-0.881,1.85-1.976c0-1.095-0.71-1.976-1.85-1.976C430.035,469.788,429.287,470.632,429.287,471.764z"/>
			<path id="XMLID_322_" style="fill:#1D262D;" d="M438.068,465.836c0,0.696-0.54,1.229-1.236,1.229
				c-0.696,0-1.229-0.533-1.229-1.229c0-0.696,0.533-1.243,1.229-1.243C437.527,464.592,438.068,465.14,438.068,465.836z
				 M437.809,475.354h-1.932v-7.172h1.932V475.354z"/>
			<path id="XMLID_320_" style="fill:#1D262D;" d="M441.032,470.736l2.701-2.554h2.368l-3.479,3.375l3.501,3.797h-2.376
				l-2.716-2.901v2.901H439.1v-10.658h1.932V470.736z"/>
		</g>
		<g>
			<path style="fill:#1D262D;" d="M309.412,475.289v-1.055c-0.527,0.718-1.391,1.23-2.387,1.23c-1.846,0-3.149-1.406-3.149-3.706
				c0-2.256,1.289-3.721,3.149-3.721c0.952,0,1.816,0.469,2.387,1.245v-3.765h1.099v9.77H309.412z M309.412,473.37v-3.208
				c-0.395-0.615-1.245-1.143-2.124-1.143c-1.421,0-2.27,1.172-2.27,2.739c0,1.567,0.85,2.724,2.27,2.724
				C308.168,474.483,309.017,473.986,309.412,473.37z"/>
			<path style="fill:#1D262D;" d="M311.932,471.744c0-2.051,1.465-3.706,3.486-3.706c2.139,0,3.398,1.67,3.398,3.794v0.279h-5.727
				c0.088,1.333,1.026,2.446,2.549,2.446c0.805,0,1.626-0.322,2.182-0.894l0.527,0.718c-0.703,0.703-1.655,1.084-2.812,1.084
				C313.44,475.465,311.932,473.956,311.932,471.744z M315.404,468.947c-1.509,0-2.256,1.274-2.315,2.358h4.643
				C317.718,470.25,317.015,468.947,315.404,468.947z"/>
			<path style="fill:#1D262D;" d="M319.607,474.351l0.571-0.791c0.469,0.542,1.362,1.011,2.329,1.011c1.084,0,1.67-0.513,1.67-1.216
				c0-1.714-4.38-0.659-4.38-3.281c0-1.098,0.952-2.036,2.636-2.036c1.201,0,2.051,0.454,2.622,1.026l-0.513,0.762
				c-0.424-0.513-1.201-0.894-2.109-0.894c-0.967,0-1.567,0.483-1.567,1.113c0,1.552,4.38,0.527,4.38,3.281
				c0,1.187-0.952,2.138-2.783,2.138C321.306,475.465,320.325,475.113,319.607,474.351z"/>
			<path style="fill:#1D262D;" d="M326.477,466.471c0-0.41,0.337-0.747,0.732-0.747c0.41,0,0.747,0.337,0.747,0.747
				c0,0.41-0.337,0.732-0.747,0.732C326.814,467.203,326.477,466.881,326.477,466.471z M326.667,475.289v-7.075h1.099v7.075H326.667
				z"/>
			<path style="fill:#1D262D;" d="M329.582,477.105l0.556-0.82c0.586,0.703,1.289,0.967,2.3,0.967c1.172,0,2.27-0.571,2.27-2.124
				v-1.011c-0.513,0.718-1.377,1.26-2.373,1.26c-1.845,0-3.149-1.377-3.149-3.662c0-2.27,1.289-3.677,3.149-3.677
				c0.952,0,1.802,0.469,2.373,1.245v-1.069h1.099v6.87c0,2.344-1.641,3.076-3.369,3.076
				C331.237,478.16,330.417,477.926,329.582,477.105z M334.709,473.253v-3.091c-0.381-0.615-1.23-1.143-2.109-1.143
				c-1.421,0-2.27,1.128-2.27,2.695c0,1.553,0.849,2.695,2.27,2.695C333.478,474.41,334.328,473.868,334.709,473.253z"/>
			<path style="fill:#1D262D;" d="M342.413,475.289v-4.629c0-1.245-0.63-1.641-1.582-1.641c-0.865,0-1.685,0.527-2.095,1.099v5.17
				h-1.099v-7.075h1.099v1.025c0.498-0.586,1.465-1.201,2.519-1.201c1.48,0,2.256,0.747,2.256,2.285v4.966H342.413z"/>
			<path style="fill:#1D262D;" d="M344.932,471.744c0-2.051,1.465-3.706,3.486-3.706c2.138,0,3.398,1.67,3.398,3.794v0.279h-5.727
				c0.088,1.333,1.025,2.446,2.549,2.446c0.806,0,1.626-0.322,2.183-0.894l0.527,0.718c-0.703,0.703-1.655,1.084-2.812,1.084
				C346.441,475.465,344.932,473.956,344.932,471.744z M348.404,468.947c-1.509,0-2.256,1.274-2.314,2.358h4.643
				C350.718,470.25,350.015,468.947,348.404,468.947z"/>
			<path style="fill:#1D262D;" d="M358.35,475.289v-1.055c-0.527,0.718-1.392,1.23-2.388,1.23c-1.845,0-3.149-1.406-3.149-3.706
				c0-2.256,1.289-3.721,3.149-3.721c0.952,0,1.817,0.469,2.388,1.245v-3.765h1.098v9.77H358.35z M358.35,473.37v-3.208
				c-0.396-0.615-1.245-1.143-2.124-1.143c-1.421,0-2.27,1.172-2.27,2.739c0,1.567,0.849,2.724,2.27,2.724
				C357.105,474.483,357.954,473.986,358.35,473.37z"/>
			<path style="fill:#1D262D;" d="M364.692,475.289v-9.77h1.099v3.765c0.572-0.776,1.421-1.245,2.388-1.245
				c1.845,0,3.149,1.465,3.149,3.721c0,2.299-1.304,3.706-3.149,3.706c-0.996,0-1.86-0.513-2.388-1.23v1.055H364.692z
				 M367.9,474.483c1.436,0,2.286-1.157,2.286-2.724c0-1.568-0.85-2.739-2.286-2.739c-0.864,0-1.728,0.527-2.109,1.143v3.208
				C366.171,473.986,367.036,474.483,367.9,474.483z"/>
			<path style="fill:#1D262D;" d="M372.529,477.061c0.161,0.073,0.425,0.117,0.601,0.117c0.483,0,0.806-0.161,1.055-0.747
				l0.469-1.069l-2.959-7.148h1.187l2.358,5.8l2.344-5.8h1.201l-3.545,8.51c-0.425,1.025-1.143,1.421-2.08,1.435
				c-0.234,0-0.601-0.044-0.806-0.103L372.529,477.061z"/>
		</g>
	</g>
</g>
</svg>
