<?xml version="1.0" encoding="utf-8"?>
<!-- Generator: Adobe Illustrator 27.5.0, SVG Export Plug-In . SVG Version: 6.00 Build 0)  -->
<svg version="1.1" xmlns="http://www.w3.org/2000/svg" xmlns:xlink="http://www.w3.org/1999/xlink" x="0px" y="0px"
	 viewBox="0 0 500 500" style="enable-background:new 0 0 500 500;" xml:space="preserve">
<g id="BACKGROUND">
	<rect style="fill:#E9F2FF;" width="500" height="500"/>
</g>
<g id="OBJECTS">
	<g>
		<ellipse style="fill:#BACDFF;" cx="250" cy="445.595" rx="190.904" ry="8.05"/>
	</g>
	<g>
		<g>
			<path style="opacity:0.29;fill:#BACDFF;" d="M387.198,404.793c14.583-7.763,29.245-15.767,41.265-26.639
				c18.86-17.059,30.251-40.944,31.138-65.288c0.886-24.343-8.742-48.879-26.318-67.065c-8.328-8.617-18.435-15.965-24.724-25.945
				c-7.113-11.288-8.596-24.72-11.898-37.414c-5.083-19.541-14.838-38.036-28.369-53.791c-17.855-20.79-42.823-36.9-70.947-42.472
				c-28.123-5.572-59.274,0.183-81.081,17.476c-18.607,14.756-29.285,36.342-46.618,52.363
				c-10.629,9.824-23.687,17.402-37.893,21.99c-20.066,6.48-44.478,7.593-61.267,20.551c-17.051,13.161-25.72,34.113-28.768,53.921
				C35.335,293.962,51.72,336.339,79.6,368.679c20.47,23.744,43.719,42.81,75.297,51.342c36.21,9.784,75.22,6.343,112.283,6.798
				C308.435,427.325,350.339,424.414,387.198,404.793z"/>
			<g>
				<path style="fill:#3E8F7D;" d="M188.272,285.075c-0.082-0.022-0.166,0-0.226,0.052c-1.536,1.339-2.964,2.762-4.348,4.215
					c-0.695,0.725-1.36,1.47-2.043,2.207c-0.666,0.746-1.308,1.508-1.964,2.263c-2.581,3.046-5.027,6.193-7.322,9.439
					c-4.596,6.487-8.667,13.325-12.27,20.423c-0.887,1.782-1.744,3.58-2.597,5.38c-0.841,1.806-1.602,3.655-2.382,5.492
					c-0.393,0.918-0.764,1.844-1.144,2.768c-0.355,0.936-0.706,1.874-1.038,2.819c-0.654,1.895-1.291,3.79-1.772,5.747
					c-0.467,1.964-0.854,3.95-1.162,5.953l-0.214,1.505l-0.127,1.534c-0.066,1.027-0.122,2.054-0.141,3.087
					c-0.029,1.03-0.015,2.068,0.011,3.104c0.015,1.031,0.158,2.1,0.289,3.153c0.287,2.114,0.681,4.229,1.399,6.37
					c0.048,0.142,0.202,0.219,0.344,0.171c0.042-0.014,0.078-0.037,0.107-0.066l0.009-0.009c1.614-1.646,2.904-3.317,4.086-4.99
					c1.14-1.679,2.3-3.336,3.323-5.014c0.517-0.837,0.997-1.681,1.467-2.524l0.68-1.27l0.703-1.265
					c0.914-1.692,1.749-3.4,2.504-5.13c0.769-1.727,1.553-3.456,2.226-5.219c0.343-0.88,0.667-1.766,0.986-2.655
					c0.345-0.882,0.707-1.757,1.042-2.643l1.021-2.653c0.338-0.886,0.645-1.782,1.013-2.66c0.7-1.767,1.398-3.537,2.065-5.321
					c2.774-7.1,5.522-14.26,8.187-21.539c1.347-3.632,2.624-7.32,3.897-11.034c1.247-3.732,2.488-7.482,3.561-11.388l0.001-0.003
					C188.479,285.246,188.402,285.111,188.272,285.075z"/>
				<path style="fill:#276B5B;" d="M149.332,307.256c-1.202-6.481-2.828-12.913-4.957-19.263c-0.53-1.587-1.096-3.169-1.706-4.744
					c-0.299-0.788-0.613-1.573-0.933-2.358l-1.003-2.346c-1.388-3.118-2.889-6.216-4.818-9.226
					c-0.077-0.119-0.235-0.154-0.355-0.078c-0.055,0.035-0.092,0.088-0.108,0.146l-0.001,0.003c-0.968,3.429-1.6,6.784-2.143,10.122
					c-0.543,3.337-0.935,6.644-1.244,9.937c-0.607,6.583-0.83,13.097-0.766,19.576c0.028,3.24,0.139,6.469,0.31,9.691
					c0.093,1.611,0.239,3.217,0.444,4.818c0.19,1.602,0.434,3.201,0.74,4.795c0.616,3.188,1.416,6.364,2.549,9.525
					c1.153,3.16,2.471,6.314,4.578,9.437c1.251,1.853,3.767,2.342,5.62,1.091c0.574-0.387,1.017-0.896,1.318-1.469l0.02-0.04
					c0.88-1.689,1.467-3.365,2.02-5.041c0.528-1.675,0.956-3.346,1.285-5.012c0.657-3.333,1.018-6.653,1.094-9.953
					c0.098-3.302-0.063-6.587-0.444-9.852C150.441,313.749,149.924,310.498,149.332,307.256z"/>
				<path style="fill:#276B5B;" d="M128.489,357.524c-0.082-0.597-0.182-1.193-0.303-1.776c-0.139-0.577-0.267-1.159-0.429-1.729
					c-0.309-1.144-0.647-2.287-1.08-3.382c-0.861-2.195-1.914-4.311-3.076-6.356c-2.326-4.094-5.145-7.915-8.535-11.323
					c-0.856-0.848-1.745-1.671-2.655-2.474c-0.939-0.789-1.89-1.56-2.899-2.289c-2.038-1.443-4.176-2.807-6.729-3.812
					c-0.146-0.058-0.312,0.014-0.37,0.161c-0.012,0.03-0.018,0.061-0.02,0.092l0,0.009c-0.111,2.717,0.066,5.157,0.279,7.555
					c0.119,1.189,0.253,2.362,0.424,3.503c0.16,1.149,0.344,2.277,0.555,3.382c0.824,4.435,1.913,8.623,3.217,12.658
					c0.316,1.012,0.681,2.004,1.02,2.999c0.327,1,0.7,1.979,1.113,2.942c0.415,0.963,0.816,1.922,1.306,2.855
					c0.476,0.938,1.005,1.858,1.538,2.774c0.544,0.915,1.139,1.817,1.806,2.705c0.633,0.893,1.312,1.779,2.075,2.654
					c1.589,1.74,3.154,3.494,5.568,5.167l0.109,0.075c1.599,1.108,3.794,0.71,4.902-0.889c0.086-0.124,0.172-0.27,0.24-0.401
					c0.679-1.327,1.082-2.616,1.446-3.913c0.156-0.642,0.326-1.292,0.443-1.932c0.101-0.633,0.184-1.265,0.245-1.893
					c0.121-1.256,0.175-2.508,0.152-3.741C128.782,359.922,128.661,358.717,128.489,357.524z"/>
				<path style="fill:#276B5B;" d="M188.496,284.854c-0.219-0.138-0.509-0.072-0.647,0.147c-2.571,4.079-4.989,8.23-7.353,12.42
					c-2.359,4.191-4.635,8.427-6.829,12.707c-2.193,4.28-4.301,8.604-6.32,12.97c-2.024,4.364-3.951,8.774-5.753,13.237
					c-1.809,4.459-3.523,8.961-5.059,13.526c-1.546,4.561-2.978,9.165-4.166,13.84c-2.427,9.325-4.058,18.919-4.157,28.624l0,0.004
					c-0.002,0.428,0.343,0.776,0.771,0.778c0.428,0.002,0.776-0.343,0.778-0.771v-0.012c0.047-9.521,1.601-19.018,3.961-28.277
					c1.153-4.641,2.551-9.223,4.064-13.764c1.503-4.546,3.184-9.034,4.962-13.483c1.771-4.452,3.667-8.856,5.661-13.215
					c1.989-4.361,4.068-8.683,6.232-12.962c2.165-4.278,4.413-8.516,6.743-12.707c2.333-4.187,4.73-8.35,7.258-12.41l0.004-0.006
					C188.781,285.28,188.715,284.992,188.496,284.854z"/>
				<path style="fill:#3E8F7D;" d="M144.32,351.715l-0.522-8.27l-0.266-4.134l-0.311-4.131c-0.8-11.019-1.798-22.022-2.965-33.007
					c-1.169-10.986-2.485-21.951-4.109-32.889c-0.037-0.257-0.275-0.433-0.531-0.396c-0.257,0.037-0.435,0.275-0.398,0.532
					l0.001,0.007c1.57,10.913,2.836,21.883,3.953,32.859c1.116,10.978,2.063,21.974,2.811,32.983l0.292,4.128l0.247,4.13
					l0.483,8.261c0.253,5.511,0.561,11.02,0.721,16.534c0.44,11.025,0.553,22.058,0.594,33.088v0.009l0,0.004
					c0.004,0.426,0.352,0.769,0.778,0.765c0.426-0.004,0.769-0.352,0.765-0.778c-0.091-11.051-0.255-22.102-0.746-33.141
					C144.932,362.747,144.599,357.232,144.32,351.715z"/>
				<path style="fill:#3E8F7D;" d="M125.2,374.077c-1.391-5.961-3.268-11.784-5.474-17.463c-2.217-5.677-4.748-11.219-7.548-16.617
					c-2.807-5.397-5.819-10.671-9.2-15.746c-0.141-0.212-0.426-0.273-0.642-0.136c-0.219,0.139-0.284,0.429-0.145,0.648l0.008,0.012
					c3.228,5.083,6.12,10.413,8.785,15.825c2.662,5.419,5.05,10.968,7.118,16.627c2.058,5.661,3.779,11.44,5.014,17.311
					c0.614,2.936,1.079,5.896,1.428,8.863c0.316,2.971,0.47,5.951,0.463,8.925v0.028c0,0.007,0,0.014,0,0.021
					c0.014,0.7,0.592,1.257,1.292,1.243c0.7-0.014,1.257-0.592,1.243-1.292c-0.06-3.086-0.288-6.159-0.68-9.206
					C126.435,380.077,125.892,377.058,125.2,374.077z"/>
				<path style="fill:#3E8F7D;" d="M141.145,344.359c-0.18-1.097-0.416-2.177-0.659-3.257l-0.396-1.611
					c-0.144-0.534-0.306-1.06-0.462-1.589c-2.779-8.379-6.517-16.378-10.756-24.031c-4.293-7.63-9.181-14.893-14.735-21.617
					c-2.769-3.366-5.703-6.598-8.818-9.659c-1.549-1.536-3.16-3.019-4.815-4.452c-1.654-1.434-3.368-2.811-5.196-4.068
					c-0.111-0.077-0.264-0.048-0.341,0.063c-0.047,0.068-0.055,0.152-0.028,0.225l0.003,0.007c1.564,4.096,3.15,8.065,4.721,12.007
					l4.658,11.717c3.077,7.747,6.034,15.419,8.87,23.054c1.399,3.826,2.758,7.645,4.085,11.46c0.637,1.915,1.313,3.816,1.926,5.732
					l0.941,2.866l0.466,1.431l0.505,1.418l1.084,2.812l0.587,1.393c0.207,0.461,0.424,0.921,0.623,1.384
					c0.813,1.85,1.791,3.664,2.787,5.486c0.517,0.906,1.064,1.81,1.643,2.711c0.563,0.904,1.163,1.805,1.812,2.702
					c1.349,1.785,2.655,3.599,4.52,5.357l0.068,0.064c1.29,1.215,3.32,1.155,4.535-0.135c0.257-0.272,0.461-0.59,0.604-0.915
					c0.519-1.186,0.873-2.354,1.194-3.523c0.316-1.169,0.56-2.333,0.728-3.485c0.172-1.154,0.295-2.304,0.382-3.452
					c0.078-1.145,0.074-2.274,0.068-3.408C141.732,348.777,141.474,346.563,141.145,344.359z"/>
				<path style="fill:#276B5B;" d="M135.151,353.953c-0.336-1.322-0.728-2.629-1.089-3.944l-0.553-1.969l-0.607-1.953
					c-1.572-5.223-3.426-10.354-5.413-15.426c-1.983-5.076-4.183-10.063-6.536-14.974c-2.352-4.911-4.863-9.745-7.531-14.489
					c-2.668-4.745-5.492-9.4-8.466-13.958c-1.482-2.282-3.014-4.532-4.584-6.755c-1.575-2.222-3.176-4.415-4.882-6.558
					c-0.16-0.201-0.453-0.236-0.656-0.078c-0.204,0.159-0.241,0.454-0.081,0.659l0.006,0.008c1.655,2.122,3.235,4.332,4.777,6.554
					c1.54,2.227,3.042,4.482,4.495,6.767c2.915,4.566,5.679,9.227,8.286,13.974c2.607,4.747,5.057,9.579,7.346,14.485
					c2.29,4.904,4.427,9.881,6.345,14.94c1.922,5.056,3.711,10.164,5.217,15.356l0.582,1.942l0.528,1.957
					c0.345,1.306,0.72,2.605,1.04,3.917c0.623,2.629,1.277,5.25,1.782,7.903c2.208,10.573,3.286,21.363,3.306,32.135v0.015l0,0.011
					c0.007,0.619,0.515,1.114,1.133,1.107c0.619-0.007,1.114-0.515,1.107-1.133c-0.129-10.942-1.334-21.861-3.672-32.527
					C136.493,359.242,135.807,356.601,135.151,353.953z"/>
				<polygon style="fill:#9AB4EF;" points="123.969,419.929 155.016,419.929 159.711,385.548 119.274,385.548 				"/>
				<polygon style="fill:#9AB4EF;" points="121.323,421.482 157.662,421.482 158.131,418.086 120.854,418.086 				"/>
			</g>
			<g>
				<g>
					<g>
						<polygon style="fill:#F9CF70;" points="208.867,130.149 208.867,115.454 201.181,115.454 201.181,130.149 194.286,130.149 
							205.024,140.885 215.762,130.149 						"/>
					</g>
				</g>
				<g>
					<g>
						<polygon style="fill:#5E60F4;" points="222.148,147.121 187.9,147.121 187.9,139.451 190.696,139.451 190.696,144.324 
							219.352,144.324 219.352,139.451 222.148,139.451 						"/>
					</g>
				</g>
			</g>
			<g>
				<path style="fill:#9AB4EF;" d="M169.338,157.534h-28.717c-1.15,0-2.083-0.932-2.083-2.083v-27.236
					c0-1.15,0.933-2.083,2.083-2.083h28.717c1.15,0,2.083,0.932,2.083,2.083v27.236
					C171.421,156.602,170.488,157.534,169.338,157.534z"/>
				<path style="fill:#5E60F4;" d="M140.621,157.534h28.717c1.15,0,2.083-0.932,2.083-2.083v-5.232l-3.496-4.495
					c-1.263-1.624-3.716-1.626-4.981-0.005l-1.927,2.468c-1.007,1.29-2.924,1.386-4.054,0.203l-6.177-6.461
					c-1.319-1.38-3.551-1.283-4.745,0.206l-7.502,9.352v3.963C138.538,156.602,139.471,157.534,140.621,157.534z"/>
				<path style="fill:#F9CF70;" d="M162.094,135.84c0,1.689-1.369,3.058-3.058,3.058c-1.689,0-3.059-1.369-3.059-3.058
					c0-1.689,1.369-3.059,3.059-3.059C160.725,132.782,162.094,134.151,162.094,135.84z"/>
			</g>
			<g>
				<path style="fill:#9AB4EF;" d="M329.385,135.526h-41.451c-1.166,0-2.111-0.945-2.111-2.111v-29.261
					c0-1.166,0.945-2.111,2.111-2.111h41.451c1.166,0,2.111,0.945,2.111,2.111v29.261
					C331.496,134.581,330.551,135.526,329.385,135.526z"/>
				<path style="fill:#5E60F4;" d="M303.658,113.375v10.718c0,0.444,0.471,0.73,0.865,0.525l11.676-6.067
					c0.45-0.234,0.417-0.888-0.054-1.075l-11.676-4.652C304.08,112.67,303.658,112.956,303.658,113.375z"/>
			</g>
			<g>
				<rect x="229.366" y="95.853" style="fill:#5E60F4;" width="37.371" height="24.507"/>
				<path style="fill:#9AB4EF;" d="M266.099,126.555h-36.427c-1.088,0-1.969-0.882-1.969-1.969V99.485
					c0-1.088,0.881-1.969,1.969-1.969h7.842c0.886,0,1.664,0.592,1.899,1.447l1.089,2.458c0.235,0.855,1.012,1.447,1.899,1.447h23.7
					c1.088,0,1.969,0.882,1.969,1.969v19.75C268.068,125.674,267.186,126.555,266.099,126.555z"/>
			</g>
			<g>
				<path style="fill:#9AB4EF;" d="M198.794,87.735c0,12.344-10.007,22.35-22.35,22.35c-12.343,0-22.35-10.007-22.35-22.35
					c0-12.344,10.007-22.35,22.35-22.35C188.787,65.385,198.794,75.392,198.794,87.735z"/>
				<path style="fill:#5E60F4;" d="M183.306,82.668c0,3.79-3.072,6.863-6.862,6.863s-6.862-3.073-6.862-6.863
					c0-3.79,3.072-6.862,6.862-6.862S183.306,78.878,183.306,82.668z"/>
				<path style="fill:#5E60F4;" d="M176.443,110.086c4.39,0,8.483-1.266,11.936-3.452c-0.509-6.001-2.683-16.764-11.723-17.093
					V89.53c-0.072,0-0.141,0.004-0.213,0.005c-0.071-0.001-0.14-0.005-0.213-0.005v0.011c-9.041,0.329-11.215,11.092-11.723,17.093
					C167.961,108.819,172.054,110.086,176.443,110.086z"/>
			</g>
			<g>
				<path style="fill:#5E60F4;" d="M311.238,71.739h-18.713V60.167c0-5.159,4.197-9.356,9.356-9.356
					c5.159,0,9.357,4.197,9.357,9.356V71.739z M296.282,67.983h11.201v-7.816c0-3.088-2.512-5.6-5.6-5.6c-3.088,0-5.6,2.512-5.6,5.6
					V67.983z"/>
				<path style="fill:#9AB4EF;" d="M301.882,90.771L301.882,90.771c-7.329,0-13.27-5.941-13.27-13.27v-9.855
					c0-1.886,1.529-3.415,3.414-3.415h19.711c1.886,0,3.414,1.529,3.414,3.415v9.855C315.151,84.829,309.21,90.771,301.882,90.771z"
					/>
				<path style="fill:#5E60F4;" d="M305.443,74.056c0-1.967-1.595-3.561-3.561-3.561s-3.561,1.594-3.561,3.561
					c0,1.55,0.992,2.866,2.375,3.355l-2.059,5.825h3.245h3.245l-2.059-5.825C304.45,76.921,305.443,75.606,305.443,74.056z"/>
			</g>
			<g>
				<g>
					<rect x="365.066" y="164.701" style="fill:#9AB4EF;" width="31.742" height="39.902"/>
					<rect x="369.662" y="172.073" style="fill:#CCCCCC;" width="22.55" height="1.426"/>
					<rect x="369.662" y="176.35" style="fill:#CCCCCC;" width="22.55" height="1.426"/>
					<rect x="369.662" y="180.627" style="fill:#CCCCCC;" width="22.55" height="1.426"/>
					<rect x="369.662" y="184.904" style="fill:#CCCCCC;" width="22.55" height="1.426"/>
					<rect x="369.662" y="189.181" style="fill:#CCCCCC;" width="22.55" height="1.426"/>
					<rect x="369.662" y="193.457" style="fill:#CCCCCC;" width="22.55" height="1.426"/>
					<rect x="369.662" y="197.734" style="fill:#CCCCCC;" width="22.55" height="1.426"/>
				</g>
				<g>
					<path style="fill:#5E60F4;" d="M368.402,165.921L368.402,165.921c-0.346,0-0.626-0.28-0.626-0.626v-1.187
						c0-0.346,0.281-0.626,0.626-0.626l0,0c0.346,0,0.626,0.28,0.626,0.626v1.187C369.029,165.64,368.748,165.921,368.402,165.921z"
						/>
					<path style="fill:#5E60F4;" d="M371.536,165.921L371.536,165.921c-0.346,0-0.626-0.28-0.626-0.626v-1.187
						c0-0.346,0.28-0.626,0.626-0.626l0,0c0.346,0,0.626,0.28,0.626,0.626v1.187C372.162,165.64,371.882,165.921,371.536,165.921z"
						/>
					<path style="fill:#5E60F4;" d="M374.67,165.921L374.67,165.921c-0.346,0-0.626-0.28-0.626-0.626v-1.187
						c0-0.346,0.28-0.626,0.626-0.626l0,0c0.346,0,0.626,0.28,0.626,0.626v1.187C375.296,165.64,375.015,165.921,374.67,165.921z"/>
					<path style="fill:#5E60F4;" d="M377.803,165.921L377.803,165.921c-0.346,0-0.626-0.28-0.626-0.626v-1.187
						c0-0.346,0.28-0.626,0.626-0.626l0,0c0.346,0,0.626,0.28,0.626,0.626v1.187C378.429,165.64,378.149,165.921,377.803,165.921z"
						/>
					<path style="fill:#5E60F4;" d="M380.937,165.921L380.937,165.921c-0.346,0-0.626-0.28-0.626-0.626v-1.187
						c0-0.346,0.28-0.626,0.626-0.626l0,0c0.346,0,0.626,0.28,0.626,0.626v1.187C381.563,165.64,381.283,165.921,380.937,165.921z"
						/>
					<path style="fill:#5E60F4;" d="M384.07,165.921L384.07,165.921c-0.346,0-0.626-0.28-0.626-0.626v-1.187
						c0-0.346,0.28-0.626,0.626-0.626l0,0c0.346,0,0.626,0.28,0.626,0.626v1.187C384.697,165.64,384.416,165.921,384.07,165.921z"/>
					<path style="fill:#5E60F4;" d="M387.204,165.921L387.204,165.921c-0.346,0-0.626-0.28-0.626-0.626v-1.187
						c0-0.346,0.28-0.626,0.626-0.626l0,0c0.346,0,0.626,0.28,0.626,0.626v1.187C387.83,165.64,387.55,165.921,387.204,165.921z"/>
					<path style="fill:#5E60F4;" d="M390.337,165.921L390.337,165.921c-0.346,0-0.626-0.28-0.626-0.626v-1.187
						c0-0.346,0.28-0.626,0.626-0.626l0,0c0.346,0,0.626,0.28,0.626,0.626v1.187C390.964,165.64,390.683,165.921,390.337,165.921z"
						/>
					<path style="fill:#5E60F4;" d="M393.471,165.921L393.471,165.921c-0.346,0-0.626-0.28-0.626-0.626v-1.187
						c0-0.346,0.281-0.626,0.626-0.626l0,0c0.346,0,0.626,0.28,0.626,0.626v1.187C394.097,165.64,393.817,165.921,393.471,165.921z"
						/>
				</g>
			</g>
			<g>
				<path style="fill:#9AB4EF;" d="M84.907,235.376h40.103c5.161,0,9.344,4.183,9.344,9.344l0,0c0,5.161-4.184,9.345-9.344,9.345
					h-24.962c-3.307,8.127-13.427,7.682-13.427,7.682c4.115-1.66,4.942-5.616,5.085-7.682h-6.799c-5.161,0-9.344-4.184-9.344-9.345
					l0,0C75.563,239.559,79.746,235.376,84.907,235.376z"/>
				<g>
					<path style="fill:#5E60F4;" d="M113,244.666c0,1.434,1.163,2.597,2.597,2.597s2.597-1.163,2.597-2.597
						c0-1.434-1.163-2.597-2.597-2.597S113,243.232,113,244.666z"/>
					<path style="fill:#5E60F4;" d="M102.362,244.666c0,1.434,1.163,2.597,2.597,2.597s2.597-1.163,2.597-2.597
						c0-1.434-1.163-2.597-2.597-2.597S102.362,243.232,102.362,244.666z"/>
					<path style="fill:#5E60F4;" d="M91.723,244.666c0,1.434,1.163,2.597,2.597,2.597c1.434,0,2.597-1.163,2.597-2.597
						c0-1.434-1.163-2.597-2.597-2.597C92.886,242.069,91.723,243.232,91.723,244.666z"/>
				</g>
			</g>
			<path style="fill:#9AB4EF;" d="M358.237,81.412v-2.658l-3.348-0.93c-0.186-0.693-0.458-1.35-0.802-1.961l1.704-3.015
				l-1.879-1.879l-2.998,1.695c-0.618-0.356-1.285-0.636-1.988-0.828l-0.92-3.313h-2.658l-0.921,3.313
				c-0.703,0.192-1.37,0.472-1.988,0.828l-2.998-1.695l-1.879,1.879l1.704,3.015c-0.345,0.611-0.616,1.268-0.803,1.961l-3.348,0.93
				v2.658l3.374,0.937c0.19,0.674,0.461,1.314,0.802,1.91l-1.729,3.059l1.879,1.879l3.077-1.739c0.588,0.33,1.219,0.592,1.883,0.776
				l0.947,3.409h2.658l0.947-3.409c0.664-0.184,1.295-0.446,1.883-0.776l3.077,1.739l1.879-1.879l-1.729-3.059
				c0.341-0.595,0.612-1.235,0.802-1.91L358.237,81.412z M346.676,85.088c-2.789,0-5.05-2.261-5.05-5.05s2.261-5.05,5.05-5.05
				s5.05,2.261,5.05,5.05S349.465,85.088,346.676,85.088z"/>
			<g>
				<path style="fill:#9AB4EF;" d="M150.658,200.091c0,5.589-4.531,10.12-10.12,10.12c-5.589,0-10.12-4.531-10.12-10.12
					c0-5.589,4.531-10.12,10.12-10.12C146.127,189.971,150.658,194.502,150.658,200.091z"/>
				<path style="fill:#353DC9;" d="M146.996,196.966c1.04-0.202,2.005-0.464,2.881-0.774c-0.212-0.507-0.471-0.988-0.759-1.448
					c-0.517,0.174-1.063,0.335-1.652,0.471c0.064-0.177,0.131-0.348,0.201-0.511c0.199-0.458,0.409-0.821,0.622-1.112
					c-0.35-0.417-0.735-0.801-1.147-1.157c-0.339,0.424-0.663,0.953-0.955,1.625c-0.199,0.458-0.372,0.959-0.52,1.493
					c-1.363,0.205-2.83,0.316-4.323,0.318v-5.859c-0.267-0.021-0.535-0.04-0.807-0.04c-0.272,0-0.54,0.019-0.807,0.04v5.819
					c-1.463-0.074-2.874-0.25-4.154-0.517c-0.132-0.445-0.283-0.865-0.452-1.254c-0.322-0.739-0.682-1.306-1.057-1.747
					c-0.416,0.346-0.798,0.73-1.153,1.137c0.298,0.372,0.56,0.838,0.781,1.376c-0.307-0.098-0.601-0.201-0.88-0.311
					c-0.179-0.071-0.365-0.16-0.549-0.243c-0.312,0.443-0.586,0.913-0.825,1.405c0.246,0.116,0.503,0.231,0.782,0.341
					c0.624,0.246,1.305,0.462,2.028,0.649c0.186,0.858,0.303,1.786,0.347,2.719h-4.147c-0.016,0.234-0.036,0.468-0.036,0.706
					c0,0.307,0.019,0.608,0.046,0.908h4.141c-0.047,1.128-0.196,2.213-0.432,3.175c-0.694,0.182-1.347,0.392-1.948,0.629
					c-0.181,0.071-0.353,0.145-0.52,0.219c0.269,0.481,0.577,0.936,0.919,1.365c0.064-0.027,0.13-0.057,0.193-0.082
					c0.225-0.088,0.461-0.172,0.704-0.253c-0.156,0.323-0.318,0.59-0.481,0.816c0.365,0.403,0.756,0.78,1.18,1.12
					c0.321-0.414,0.628-0.924,0.906-1.563c0.123-0.282,0.235-0.582,0.339-0.895c1.31-0.28,2.76-0.465,4.267-0.542v5.181
					c0.267,0.021,0.535,0.041,0.807,0.041c0.273,0,0.54-0.02,0.807-0.041v-5.221c1.53,0.002,3.033,0.119,4.425,0.333
					c0.124,0.404,0.263,0.787,0.418,1.143c0.253,0.58,0.529,1.055,0.817,1.448c0.42-0.35,0.806-0.738,1.165-1.15
					c-0.208-0.315-0.396-0.679-0.561-1.083c0.406,0.097,0.79,0.206,1.162,0.321c0.321-0.449,0.603-0.925,0.848-1.425
					c-0.786-0.264-1.638-0.489-2.548-0.669c-0.199-0.902-0.321-1.884-0.362-2.869h3.903c0.027-0.299,0.046-0.601,0.046-0.908
					c0-0.238-0.019-0.472-0.036-0.706h-3.91C146.752,198.542,146.848,197.725,146.996,196.966z M139.731,203.372
					c-1.335,0.063-2.621,0.205-3.821,0.421c0.169-0.877,0.274-1.818,0.31-2.794h3.51V203.372z M139.731,199.385h-3.514
					c-0.034-0.813-0.117-1.601-0.244-2.348c1.182,0.21,2.446,0.349,3.758,0.41V199.385z M141.345,197.485
					c1.369-0.002,2.701-0.088,3.961-0.249c-0.109,0.687-0.18,1.407-0.211,2.148h-3.751V197.485z M141.345,203.334v-2.336h3.748
					c0.033,0.901,0.124,1.773,0.271,2.591C144.086,203.424,142.734,203.336,141.345,203.334z"/>
			</g>
			<g>
				<path style="fill:#9AB4EF;" d="M354.215,252.906c0,0.47-0.381,0.851-0.851,0.851c-0.47,0-0.85-0.381-0.85-0.851
					c0-0.47,0.381-0.851,0.85-0.851C353.834,252.056,354.215,252.437,354.215,252.906z"/>
				<path style="fill:#9AB4EF;" d="M354.215,246.783c0,0.47-0.381,0.851-0.851,0.851c-0.47,0-0.85-0.381-0.85-0.851
					c0-0.47,0.381-0.851,0.85-0.851C353.834,245.932,354.215,246.313,354.215,246.783z"/>
				<path style="fill:#9AB4EF;" d="M354.215,240.659c0,0.47-0.381,0.85-0.851,0.85c-0.47,0-0.85-0.381-0.85-0.85
					c0-0.47,0.381-0.85,0.85-0.85C353.834,239.809,354.215,240.19,354.215,240.659z"/>
				<path style="fill:#9AB4EF;" d="M354.215,234.536c0,0.469-0.381,0.851-0.851,0.851c-0.47,0-0.85-0.381-0.85-0.851
					c0-0.47,0.381-0.851,0.85-0.851C353.834,233.685,354.215,234.066,354.215,234.536z"/>
				<path style="fill:#9AB4EF;" d="M354.215,228.412c0,0.47-0.381,0.851-0.851,0.851c-0.47,0-0.85-0.381-0.85-0.851
					s0.381-0.851,0.85-0.851C353.834,227.562,354.215,227.943,354.215,228.412z"/>
				<path style="fill:#9AB4EF;" d="M354.215,222.289c0,0.47-0.381,0.851-0.851,0.851c-0.47,0-0.85-0.381-0.85-0.851
					c0-0.47,0.381-0.851,0.85-0.851C353.834,221.438,354.215,221.819,354.215,222.289z"/>
				<path style="fill:#9AB4EF;" d="M354.215,216.165c0,0.47-0.381,0.851-0.851,0.851c-0.47,0-0.85-0.381-0.85-0.851
					c0-0.47,0.381-0.85,0.85-0.85C353.834,215.315,354.215,215.696,354.215,216.165z"/>
				<path style="fill:#9AB4EF;" d="M354.215,210.042c0,0.469-0.381,0.851-0.851,0.851c-0.47,0-0.85-0.381-0.85-0.851
					c0-0.47,0.381-0.85,0.85-0.85C353.834,209.192,354.215,209.572,354.215,210.042z"/>
				<path style="fill:#9AB4EF;" d="M354.215,203.918c0,0.47-0.381,0.851-0.851,0.851c-0.47,0-0.85-0.381-0.85-0.851
					c0-0.47,0.381-0.85,0.85-0.85C353.834,203.068,354.215,203.449,354.215,203.918z"/>
				<path style="fill:#9AB4EF;" d="M354.215,197.795c0,0.47-0.381,0.851-0.851,0.851c-0.47,0-0.85-0.381-0.85-0.851
					c0-0.47,0.381-0.851,0.85-0.851C353.834,196.944,354.215,197.325,354.215,197.795z"/>
				<path style="fill:#9AB4EF;" d="M354.215,191.671c0,0.47-0.381,0.851-0.851,0.851c-0.47,0-0.85-0.381-0.85-0.851
					c0-0.469,0.381-0.85,0.85-0.85C353.834,190.821,354.215,191.202,354.215,191.671z"/>
				<path style="fill:#9AB4EF;" d="M354.215,185.548c0,0.469-0.381,0.85-0.851,0.85c-0.47,0-0.85-0.381-0.85-0.85
					c0-0.47,0.381-0.851,0.85-0.851C353.834,184.698,354.215,185.078,354.215,185.548z"/>
				<path style="fill:#9AB4EF;" d="M354.215,179.425c0,0.47-0.381,0.85-0.851,0.85c-0.47,0-0.85-0.381-0.85-0.85
					c0-0.47,0.381-0.851,0.85-0.851C353.834,178.574,354.215,178.955,354.215,179.425z"/>
				<path style="fill:#9AB4EF;" d="M354.215,173.301c0,0.47-0.381,0.851-0.851,0.851c-0.47,0-0.85-0.381-0.85-0.851
					c0-0.47,0.381-0.85,0.85-0.85C353.834,172.451,354.215,172.831,354.215,173.301z"/>
				<path style="fill:#9AB4EF;" d="M354.215,167.178c0,0.469-0.381,0.851-0.851,0.851c-0.47,0-0.85-0.381-0.85-0.851
					c0-0.47,0.381-0.851,0.85-0.851C353.834,166.327,354.215,166.708,354.215,167.178z"/>
				<path style="fill:#9AB4EF;" d="M354.215,161.054c0,0.47-0.381,0.851-0.851,0.851c-0.47,0-0.85-0.381-0.85-0.851
					c0-0.47,0.381-0.85,0.85-0.85C353.834,160.204,354.215,160.584,354.215,161.054z"/>
				<path style="fill:#9AB4EF;" d="M354.215,154.931c0,0.47-0.381,0.851-0.851,0.851c-0.47,0-0.85-0.381-0.85-0.851
					c0-0.47,0.381-0.851,0.85-0.851C353.834,154.08,354.215,154.461,354.215,154.931z"/>
				<path style="fill:#9AB4EF;" d="M354.215,148.807c0,0.47-0.381,0.85-0.851,0.85c-0.47,0-0.85-0.381-0.85-0.85
					c0-0.47,0.381-0.85,0.85-0.85C353.834,147.957,354.215,148.337,354.215,148.807z"/>
				<path style="fill:#9AB4EF;" d="M354.215,142.684c0,0.47-0.381,0.851-0.851,0.851c-0.47,0-0.85-0.381-0.85-0.851
					c0-0.47,0.381-0.85,0.85-0.85C353.834,141.833,354.215,142.214,354.215,142.684z"/>
				<path style="fill:#9AB4EF;" d="M354.215,136.56c0,0.47-0.381,0.851-0.851,0.851c-0.47,0-0.85-0.381-0.85-0.851
					c0-0.469,0.381-0.85,0.85-0.85C353.834,135.71,354.215,136.09,354.215,136.56z"/>
				<path style="fill:#9AB4EF;" d="M354.215,130.437c0,0.47-0.381,0.851-0.851,0.851c-0.47,0-0.85-0.381-0.85-0.851
					c0-0.47,0.381-0.851,0.85-0.851C353.834,129.586,354.215,129.967,354.215,130.437z"/>
				<path style="fill:#9AB4EF;" d="M352.375,124.707c0,0.47-0.381,0.851-0.85,0.851c-0.469,0-0.851-0.381-0.851-0.851
					c0-0.47,0.381-0.85,0.851-0.85C351.994,123.856,352.375,124.237,352.375,124.707z"/>
				<path style="fill:#9AB4EF;" d="M347.526,121.272c0,0.47-0.381,0.851-0.85,0.851c-0.47,0-0.851-0.381-0.851-0.851
					c0-0.47,0.381-0.85,0.851-0.85C347.146,120.422,347.526,120.802,347.526,121.272z"/>
				<path style="fill:#9AB4EF;" d="M341.508,120.486c0,0.47-0.381,0.851-0.851,0.851c-0.47,0-0.851-0.381-0.851-0.851
					s0.381-0.85,0.851-0.85C341.127,119.636,341.508,120.017,341.508,120.486z"/>
				<path style="fill:#9AB4EF;" d="M335.384,120.486c0,0.47-0.381,0.851-0.851,0.851c-0.47,0-0.851-0.381-0.851-0.851
					s0.381-0.85,0.851-0.85C335.003,119.636,335.384,120.017,335.384,120.486z"/>
				<path style="fill:#9AB4EF;" d="M149.014,88.551c0,0.47-0.381,0.851-0.851,0.851c-0.47,0-0.85-0.381-0.85-0.851
					c0-0.47,0.381-0.85,0.85-0.85C148.633,87.701,149.014,88.082,149.014,88.551z"/>
				<path style="fill:#9AB4EF;" d="M142.891,88.551c0,0.47-0.381,0.851-0.851,0.851c-0.47,0-0.85-0.381-0.85-0.851
					c0-0.47,0.381-0.85,0.85-0.85C142.51,87.701,142.891,88.082,142.891,88.551z"/>
				<path style="fill:#9AB4EF;" d="M136.767,88.551c0,0.47-0.381,0.851-0.851,0.851c-0.47,0-0.851-0.381-0.851-0.851
					c0-0.47,0.381-0.85,0.851-0.85C136.386,87.701,136.767,88.082,136.767,88.551z"/>
				<path style="fill:#9AB4EF;" d="M130.666,88.72c0,0.47-0.381,0.851-0.85,0.851c-0.47,0-0.851-0.381-0.851-0.851
					c0-0.47,0.381-0.851,0.851-0.851C130.285,87.869,130.666,88.25,130.666,88.72z"/>
				<path style="fill:#9AB4EF;" d="M124.964,90.68c0,0.47-0.381,0.85-0.85,0.85s-0.851-0.381-0.851-0.85
					c0-0.47,0.381-0.851,0.851-0.851S124.964,90.21,124.964,90.68z"/>
				<path style="fill:#9AB4EF;" d="M121.148,95.308c0,0.47-0.38,0.85-0.851,0.85c-0.47,0-0.85-0.381-0.85-0.85
					c0-0.47,0.381-0.851,0.85-0.851C120.768,94.457,121.148,94.838,121.148,95.308z"/>
				<circle style="fill:#9AB4EF;" cx="119.043" cy="101.264" r="0.851"/>
				<path style="fill:#9AB4EF;" d="M119.894,107.388c0,0.47-0.381,0.851-0.851,0.851c-0.47,0-0.851-0.381-0.851-0.851
					c0-0.47,0.381-0.85,0.851-0.85C119.512,106.537,119.894,106.918,119.894,107.388z"/>
				<circle style="fill:#9AB4EF;" cx="119.043" cy="113.511" r="0.851"/>
				<circle style="fill:#9AB4EF;" cx="119.043" cy="119.635" r="0.85"/>
				<path style="fill:#9AB4EF;" d="M119.894,125.758c0,0.47-0.381,0.85-0.851,0.85c-0.47,0-0.851-0.381-0.851-0.85
					c0-0.47,0.381-0.851,0.851-0.851C119.512,124.908,119.894,125.289,119.894,125.758z"/>
				<path style="fill:#9AB4EF;" d="M119.894,131.882c0,0.47-0.381,0.851-0.851,0.851c-0.47,0-0.851-0.381-0.851-0.851
					c0-0.47,0.381-0.85,0.851-0.85C119.512,131.031,119.894,131.412,119.894,131.882z"/>
				<circle style="fill:#9AB4EF;" cx="119.043" cy="138.005" r="0.851"/>
				<path style="fill:#9AB4EF;" d="M119.894,144.129c0,0.47-0.381,0.851-0.851,0.851c-0.47,0-0.851-0.381-0.851-0.851
					c0-0.47,0.381-0.85,0.851-0.85C119.512,143.278,119.894,143.659,119.894,144.129z"/>
				<path style="fill:#9AB4EF;" d="M119.894,150.252c0,0.47-0.381,0.851-0.851,0.851c-0.47,0-0.851-0.381-0.851-0.851
					c0-0.47,0.381-0.85,0.851-0.85C119.512,149.402,119.894,149.782,119.894,150.252z"/>
				<circle style="fill:#9AB4EF;" cx="119.043" cy="156.376" r="0.85"/>
				<circle style="fill:#9AB4EF;" cx="119.043" cy="162.499" r="0.851"/>
				<path style="fill:#9AB4EF;" d="M119.894,168.623c0,0.47-0.381,0.851-0.851,0.851c-0.47,0-0.851-0.381-0.851-0.851
					c0-0.47,0.381-0.85,0.851-0.85C119.512,167.772,119.894,168.153,119.894,168.623z"/>
				<circle style="fill:#9AB4EF;" cx="119.043" cy="174.746" r="0.851"/>
				<path style="fill:#9AB4EF;" d="M119.894,180.87c0,0.47-0.381,0.851-0.851,0.851c-0.47,0-0.851-0.381-0.851-0.851
					c0-0.47,0.381-0.85,0.851-0.85C119.512,180.019,119.894,180.4,119.894,180.87z"/>
				<circle style="fill:#9AB4EF;" cx="119.043" cy="186.993" r="0.851"/>
				<circle style="fill:#9AB4EF;" cx="119.043" cy="193.117" r="0.851"/>
				<circle style="fill:#9AB4EF;" cx="119.043" cy="199.24" r="0.851"/>
				<circle style="fill:#9AB4EF;" cx="119.043" cy="205.364" r="0.851"/>
				<path style="fill:#9AB4EF;" d="M119.894,211.487c0,0.47-0.381,0.85-0.851,0.85c-0.47,0-0.851-0.381-0.851-0.85
					c0-0.47,0.381-0.851,0.851-0.851C119.512,210.636,119.894,211.018,119.894,211.487z"/>
				<path style="fill:#9AB4EF;" d="M119.894,217.611c0,0.47-0.381,0.85-0.851,0.85c-0.47,0-0.851-0.381-0.851-0.85
					c0-0.47,0.381-0.851,0.851-0.851C119.512,216.76,119.894,217.141,119.894,217.611z"/>
				<path style="fill:#9AB4EF;" d="M119.894,223.734c0,0.47-0.381,0.85-0.851,0.85c-0.47,0-0.851-0.381-0.851-0.85
					s0.381-0.851,0.851-0.851C119.512,222.884,119.894,223.264,119.894,223.734z"/>
				<circle style="fill:#9AB4EF;" cx="119.043" cy="229.858" r="0.851"/>
				<path style="fill:#9AB4EF;" d="M119.894,235.981c0,0.47-0.381,0.851-0.851,0.851c-0.47,0-0.851-0.381-0.851-0.851
					c0-0.469,0.381-0.85,0.851-0.85C119.512,235.13,119.894,235.512,119.894,235.981z"/>
				<path style="fill:#9AB4EF;" d="M119.894,242.104c0,0.47-0.381,0.851-0.851,0.851c-0.47,0-0.851-0.381-0.851-0.851
					c0-0.47,0.381-0.85,0.851-0.85C119.512,241.254,119.894,241.635,119.894,242.104z"/>
			</g>
			<g>
				<polygon style="fill:#9AB4EF;" points="214.96,101.146 218.729,95.54 211.304,95.54 				"/>
				<path style="fill:#9AB4EF;" d="M214.166,60.862c0-0.47,0.381-0.851,0.851-0.851c0.47,0,0.851,0.381,0.851,0.851
					c0,0.469-0.381,0.851-0.851,0.851C214.547,61.713,214.166,61.332,214.166,60.862z"/>
				<path style="fill:#9AB4EF;" d="M214.166,66.985c0-0.469,0.381-0.85,0.851-0.85c0.47,0,0.851,0.381,0.851,0.85
					c0,0.47-0.381,0.851-0.851,0.851C214.547,67.836,214.166,67.455,214.166,66.985z"/>
				<path style="fill:#9AB4EF;" d="M214.166,73.109c0-0.469,0.381-0.85,0.851-0.85c0.47,0,0.851,0.381,0.851,0.85
					c0,0.47-0.381,0.851-0.851,0.851C214.547,73.96,214.166,73.579,214.166,73.109z"/>
				<path style="fill:#9AB4EF;" d="M214.166,79.233c0-0.47,0.381-0.851,0.851-0.851c0.47,0,0.851,0.381,0.851,0.851
					c0,0.47-0.381,0.85-0.851,0.85C214.547,80.083,214.166,79.703,214.166,79.233z"/>
				<path style="fill:#9AB4EF;" d="M214.166,85.356c0-0.47,0.381-0.851,0.851-0.851c0.47,0,0.851,0.381,0.851,0.851
					c0,0.469-0.381,0.85-0.851,0.85C214.547,86.207,214.166,85.826,214.166,85.356z"/>
				<path style="fill:#9AB4EF;" d="M214.166,91.479c0-0.469,0.381-0.85,0.851-0.85c0.47,0,0.851,0.381,0.851,0.85
					c0,0.47-0.381,0.851-0.851,0.851C214.547,92.33,214.166,91.949,214.166,91.479z"/>
			</g>
			<g>
				<polygon style="fill:#9AB4EF;" points="271.055,36.631 267.287,42.236 274.711,42.236 				"/>
				<path style="fill:#9AB4EF;" d="M271.85,76.914c0,0.47-0.381,0.851-0.851,0.851c-0.47,0-0.85-0.381-0.85-0.851
					c0-0.47,0.38-0.851,0.85-0.851C271.469,76.064,271.85,76.445,271.85,76.914z"/>
				<path style="fill:#9AB4EF;" d="M271.85,70.791c0,0.47-0.381,0.85-0.851,0.85c-0.47,0-0.85-0.381-0.85-0.85
					c0-0.47,0.38-0.85,0.85-0.85C271.469,69.941,271.85,70.321,271.85,70.791z"/>
				<path style="fill:#9AB4EF;" d="M271.85,64.667c0,0.47-0.381,0.851-0.851,0.851c-0.47,0-0.85-0.381-0.85-0.851
					c0-0.47,0.38-0.851,0.85-0.851C271.469,63.817,271.85,64.197,271.85,64.667z"/>
				<path style="fill:#9AB4EF;" d="M271.85,58.544c0,0.47-0.381,0.851-0.851,0.851c-0.47,0-0.85-0.381-0.85-0.851
					c0-0.47,0.38-0.851,0.85-0.851C271.469,57.693,271.85,58.074,271.85,58.544z"/>
				<path style="fill:#9AB4EF;" d="M271.85,52.42c0,0.47-0.381,0.851-0.851,0.851c-0.47,0-0.85-0.381-0.85-0.851
					c0-0.469,0.38-0.851,0.85-0.851C271.469,51.57,271.85,51.951,271.85,52.42z"/>
				<path style="fill:#9AB4EF;" d="M271.85,46.297c0,0.469-0.381,0.85-0.851,0.85c-0.47,0-0.85-0.381-0.85-0.85
					c0-0.47,0.38-0.851,0.85-0.851C271.469,45.447,271.85,45.827,271.85,46.297z"/>
			</g>
			<g>
				<polygon style="fill:#9AB4EF;" points="101.617,212.929 105.386,207.324 97.961,207.324 				"/>
				<circle style="fill:#9AB4EF;" cx="101.674" cy="154.275" r="0.85"/>
				<circle style="fill:#9AB4EF;" cx="101.674" cy="160.398" r="0.851"/>
				<circle style="fill:#9AB4EF;" cx="101.674" cy="166.522" r="0.851"/>
				<circle style="fill:#9AB4EF;" cx="101.674" cy="172.646" r="0.851"/>
				<circle style="fill:#9AB4EF;" cx="101.674" cy="178.769" r="0.85"/>
				<path style="fill:#9AB4EF;" d="M100.823,184.893c0-0.47,0.381-0.851,0.851-0.851c0.47,0,0.851,0.381,0.851,0.851
					c0,0.47-0.381,0.85-0.851,0.85C101.204,185.743,100.823,185.362,100.823,184.893z"/>
				<circle style="fill:#9AB4EF;" cx="101.674" cy="191.016" r="0.851"/>
				<circle style="fill:#9AB4EF;" cx="101.674" cy="197.14" r="0.851"/>
				<path style="fill:#9AB4EF;" d="M100.823,203.263c0-0.469,0.381-0.85,0.851-0.85c0.47,0,0.851,0.381,0.851,0.85
					c0,0.47-0.381,0.851-0.851,0.851C101.204,204.113,100.823,203.732,100.823,203.263z"/>
			</g>
			<g>
				<polygon style="fill:#9AB4EF;" points="380.142,97.882 376.374,103.487 383.799,103.487 				"/>
				<path style="fill:#9AB4EF;" d="M380.937,156.536c0,0.47-0.381,0.851-0.851,0.851s-0.851-0.381-0.851-0.851
					c0-0.47,0.381-0.85,0.851-0.85S380.937,156.066,380.937,156.536z"/>
				<path style="fill:#9AB4EF;" d="M380.937,150.412c0,0.47-0.381,0.851-0.851,0.851s-0.851-0.381-0.851-0.851
					c0-0.47,0.381-0.85,0.851-0.85S380.937,149.943,380.937,150.412z"/>
				<path style="fill:#9AB4EF;" d="M380.937,144.289c0,0.47-0.381,0.851-0.851,0.851s-0.851-0.381-0.851-0.851
					c0-0.47,0.381-0.85,0.851-0.85S380.937,143.819,380.937,144.289z"/>
				<circle style="fill:#9AB4EF;" cx="380.086" cy="138.165" r="0.851"/>
				<path style="fill:#9AB4EF;" d="M380.937,132.042c0,0.469-0.381,0.85-0.851,0.85s-0.851-0.381-0.851-0.85
					c0-0.47,0.381-0.851,0.851-0.851S380.937,131.573,380.937,132.042z"/>
				<path style="fill:#9AB4EF;" d="M380.937,125.919c0,0.469-0.381,0.85-0.851,0.85s-0.851-0.381-0.851-0.85
					c0-0.47,0.381-0.851,0.851-0.851S380.937,125.449,380.937,125.919z"/>
				<path style="fill:#9AB4EF;" d="M380.937,119.795c0,0.47-0.381,0.85-0.851,0.85s-0.851-0.381-0.851-0.85
					c0-0.47,0.381-0.851,0.851-0.851S380.937,119.325,380.937,119.795z"/>
				<path style="fill:#9AB4EF;" d="M380.937,113.671c0,0.47-0.381,0.851-0.851,0.851s-0.851-0.381-0.851-0.851
					c0-0.469,0.381-0.85,0.851-0.85S380.937,113.202,380.937,113.671z"/>
				<path style="fill:#9AB4EF;" d="M380.937,107.548c0,0.47-0.381,0.85-0.851,0.85s-0.851-0.381-0.851-0.85
					c0-0.47,0.381-0.851,0.851-0.851S380.937,107.078,380.937,107.548z"/>
			</g>
			<g>
				<g>
					<g>
						<g>
							<rect x="304.693" y="338.293" style="fill:#83A0F0;" width="109.061" height="100.749"/>
						</g>
						<g>
							<rect x="379.65" y="338.293" style="fill:#5E60F4;" width="34.105" height="100.749"/>
						</g>
						<g>
							<g>
								<g>
									<g>
										<rect x="301.882" y="414.966" style="fill:#5E60F4;" width="80.878" height="20.072"/>
									</g>
									<g>
										<rect x="382.76" y="414.966" style="fill:#A0B7EA;" width="33.806" height="20.072"/>
									</g>
									<g>
										<path style="fill:#83A0F0;" d="M381.38,416.346v17.312h-78.118v-17.312H381.38 M382.76,414.966h-80.878v20.072h80.878
											V414.966L382.76,414.966z"/>
									</g>
									<g>
										<g>
											<g>
												<g>
													<rect x="308.659" y="423.276" style="fill:#FFFFFF;" width="26.64" height="3.453"/>
												</g>
											</g>
											<g>
												<rect x="351.183" y="423.276" style="fill:#9AB4EF;" width="1.942" height="3.453"/>
											</g>
											<g>
												<rect x="347.298" y="423.276" style="fill:#F9CF70;" width="1.942" height="3.453"/>
											</g>
											<g>
												<rect x="343.413" y="423.276" style="fill:#9AB4EF;" width="1.942" height="3.453"/>
											</g>
											<g>
												<rect x="339.528" y="423.276" style="fill:#F9CF70;" width="1.942" height="3.453"/>
											</g>
										</g>
										<g>
											<rect x="366.699" y="420.012" style="fill:#83A0F0;" width="9.283" height="9.283"/>
										</g>
									</g>
									<g>
										<g>
											<rect x="308.659" y="418.452" style="fill:#FFFFFF;" width="0.766" height="0.766"/>
										</g>
										<g>
											<rect x="310.953" y="418.452" style="fill:#9AB4EF;" width="0.766" height="0.766"/>
										</g>
										<g>
											<rect x="313.247" y="418.452" style="fill:#9AB4EF;" width="0.766" height="0.766"/>
										</g>
									</g>
								</g>
								<g>
									<g>
										<rect x="301.882" y="390.743" style="fill:#5E60F4;" width="80.878" height="20.072"/>
									</g>
									<g>
										<rect x="382.76" y="390.743" style="fill:#A0B7EA;" width="33.806" height="20.072"/>
									</g>
									<g>
										<path style="fill:#83A0F0;" d="M381.38,392.123v17.312h-78.118v-17.312H381.38 M382.76,390.743h-80.878v20.072h80.878
											V390.743L382.76,390.743z"/>
									</g>
									<g>
										<g>
											<g>
												<g>
													<rect x="308.659" y="399.053" style="fill:#FFFFFF;" width="26.64" height="3.453"/>
												</g>
											</g>
											<g>
												<rect x="351.183" y="399.053" style="fill:#9AB4EF;" width="1.942" height="3.453"/>
											</g>
											<g>
												<rect x="347.298" y="399.053" style="fill:#F9CF70;" width="1.942" height="3.453"/>
											</g>
											<g>
												<rect x="343.413" y="399.053" style="fill:#9AB4EF;" width="1.942" height="3.453"/>
											</g>
											<g>
												<rect x="339.528" y="399.053" style="fill:#F9CF70;" width="1.942" height="3.453"/>
											</g>
										</g>
										<g>
											<rect x="366.699" y="395.789" style="fill:#83A0F0;" width="9.283" height="9.283"/>
										</g>
									</g>
									<g>
										<g>
											<rect x="308.659" y="394.229" style="fill:#FFFFFF;" width="0.766" height="0.766"/>
										</g>
										<g>
											<rect x="310.953" y="394.229" style="fill:#9AB4EF;" width="0.766" height="0.766"/>
										</g>
										<g>
											<rect x="313.247" y="394.229" style="fill:#9AB4EF;" width="0.766" height="0.766"/>
										</g>
									</g>
								</g>
								<g>
									<g>
										<rect x="301.882" y="366.52" style="fill:#5E60F4;" width="80.878" height="20.072"/>
									</g>
									<g>
										<rect x="382.76" y="366.52" style="fill:#A0B7EA;" width="33.806" height="20.072"/>
									</g>
									<g>
										<path style="fill:#83A0F0;" d="M381.38,367.9v17.312h-78.118V367.9H381.38 M382.76,366.52h-80.878v20.072h80.878V366.52
											L382.76,366.52z"/>
									</g>
									<g>
										<g>
											<g>
												<g>
													<rect x="308.659" y="374.829" style="fill:#FFFFFF;" width="26.64" height="3.453"/>
												</g>
											</g>
											<g>
												<rect x="351.183" y="374.829" style="fill:#9AB4EF;" width="1.942" height="3.453"/>
											</g>
											<g>
												<rect x="347.298" y="374.829" style="fill:#F9CF70;" width="1.942" height="3.453"/>
											</g>
											<g>
												<rect x="343.413" y="374.829" style="fill:#9AB4EF;" width="1.942" height="3.453"/>
											</g>
											<g>
												<rect x="339.528" y="374.829" style="fill:#F9CF70;" width="1.942" height="3.453"/>
											</g>
										</g>
										<g>
											<rect x="366.699" y="371.565" style="fill:#83A0F0;" width="9.283" height="9.283"/>
										</g>
									</g>
									<g>
										<g>
											<rect x="308.659" y="370.006" style="fill:#FFFFFF;" width="0.766" height="0.766"/>
										</g>
										<g>
											<rect x="310.953" y="370.006" style="fill:#9AB4EF;" width="0.766" height="0.766"/>
										</g>
										<g>
											<rect x="313.247" y="370.006" style="fill:#9AB4EF;" width="0.766" height="0.766"/>
										</g>
									</g>
								</g>
								<g>
									<g>
										<rect x="301.882" y="342.297" style="fill:#5E60F4;" width="80.878" height="20.072"/>
									</g>
									<g>
										<rect x="382.76" y="342.297" style="fill:#A0B7EA;" width="33.806" height="20.072"/>
									</g>
									<g>
										<path style="fill:#83A0F0;" d="M381.38,343.677v17.312h-78.118v-17.312H381.38 M382.76,342.297h-80.878v20.072h80.878
											V342.297L382.76,342.297z"/>
									</g>
									<g>
										<g>
											<g>
												<g>
													<rect x="308.659" y="350.606" style="fill:#FFFFFF;" width="26.64" height="3.453"/>
												</g>
											</g>
											<g>
												<rect x="351.183" y="350.606" style="fill:#9AB4EF;" width="1.942" height="3.453"/>
											</g>
											<g>
												<rect x="347.298" y="350.606" style="fill:#F9CF70;" width="1.942" height="3.453"/>
											</g>
											<g>
												<rect x="343.413" y="350.606" style="fill:#9AB4EF;" width="1.942" height="3.453"/>
											</g>
											<g>
												<rect x="339.528" y="350.606" style="fill:#F9CF70;" width="1.942" height="3.453"/>
											</g>
										</g>
										<g>
											<rect x="366.699" y="347.342" style="fill:#83A0F0;" width="9.283" height="9.283"/>
										</g>
									</g>
									<g>
										<g>
											<rect x="308.659" y="345.783" style="fill:#FFFFFF;" width="0.766" height="0.766"/>
										</g>
										<g>
											<rect x="310.953" y="345.783" style="fill:#9AB4EF;" width="0.766" height="0.766"/>
										</g>
										<g>
											<rect x="313.247" y="345.783" style="fill:#9AB4EF;" width="0.766" height="0.766"/>
										</g>
									</g>
								</g>
							</g>
							<g>
								<path style="fill:#5E60F4;" d="M406.312,430.586h-13.298c-1.522,0-2.755-1.234-2.755-2.755v-5.657
									c0-1.522,1.234-2.755,2.755-2.755h13.298c1.522,0,2.755,1.234,2.755,2.755v5.657
									C409.067,429.352,407.834,430.586,406.312,430.586z"/>
							</g>
							<g>
								<path style="fill:#83A0F0;" d="M398.265,426.666v-3.329c0-0.381,0.309-0.69,0.69-0.69h1.416c0.381,0,0.69,0.309,0.69,0.69
									v3.329c0,0.381-0.309,0.69-0.69,0.69h-1.416C398.574,427.356,398.265,427.047,398.265,426.666z"/>
							</g>
							<g>
								<path style="fill:#5E60F4;" d="M406.312,406.363h-13.298c-1.522,0-2.755-1.234-2.755-2.755v-5.657
									c0-1.522,1.234-2.755,2.755-2.755h13.298c1.522,0,2.755,1.234,2.755,2.755v5.657
									C409.067,405.129,407.834,406.363,406.312,406.363z"/>
							</g>
							<g>
								<path style="fill:#83A0F0;" d="M398.265,402.443v-3.329c0-0.381,0.309-0.69,0.69-0.69h1.416c0.381,0,0.69,0.309,0.69,0.69
									v3.329c0,0.381-0.309,0.69-0.69,0.69h-1.416C398.574,403.133,398.265,402.824,398.265,402.443z"/>
							</g>
							<g>
								<path style="fill:#5E60F4;" d="M406.312,382.14h-13.298c-1.522,0-2.755-1.234-2.755-2.755v-5.657
									c0-1.522,1.234-2.755,2.755-2.755h13.298c1.522,0,2.755,1.234,2.755,2.755v5.657
									C409.067,380.906,407.834,382.14,406.312,382.14z"/>
							</g>
							<g>
								<path style="fill:#83A0F0;" d="M398.265,378.22v-3.329c0-0.381,0.309-0.69,0.69-0.69h1.416c0.381,0,0.69,0.309,0.69,0.69
									v3.329c0,0.381-0.309,0.69-0.69,0.69h-1.416C398.574,378.91,398.265,378.601,398.265,378.22z"/>
							</g>
							<g>
								<path style="fill:#5E60F4;" d="M406.312,357.917h-13.298c-1.522,0-2.755-1.234-2.755-2.755v-5.657
									c0-1.522,1.234-2.755,2.755-2.755h13.298c1.522,0,2.755,1.234,2.755,2.755v5.657
									C409.067,356.683,407.834,357.917,406.312,357.917z"/>
							</g>
							<g>
								<path style="fill:#83A0F0;" d="M398.265,353.997v-3.329c0-0.381,0.309-0.69,0.69-0.69h1.416c0.381,0,0.69,0.309,0.69,0.69
									v3.329c0,0.381-0.309,0.69-0.69,0.69h-1.416C398.574,354.687,398.265,354.378,398.265,353.997z"/>
							</g>
						</g>
					</g>
					<g>
						<g>
							<rect x="304.693" y="241.548" style="fill:#83A0F0;" width="109.061" height="100.749"/>
						</g>
						<g>
							<rect x="379.65" y="241.548" style="fill:#5E60F4;" width="34.105" height="100.749"/>
						</g>
						<g>
							<g>
								<g>
									<g>
										<rect x="301.882" y="318.221" style="fill:#5E60F4;" width="80.878" height="20.072"/>
									</g>
									<g>
										<rect x="382.76" y="318.221" style="fill:#A0B7EA;" width="33.806" height="20.072"/>
									</g>
									<g>
										<path style="fill:#83A0F0;" d="M381.38,319.601v17.312h-78.118v-17.312H381.38 M382.76,318.221h-80.878v20.072h80.878
											V318.221L382.76,318.221z"/>
									</g>
									<g>
										<g>
											<g>
												<g>
													<rect x="308.659" y="326.531" style="fill:#FFFFFF;" width="26.64" height="3.453"/>
												</g>
											</g>
											<g>
												<rect x="351.183" y="326.531" style="fill:#9AB4EF;" width="1.942" height="3.453"/>
											</g>
											<g>
												<rect x="347.298" y="326.531" style="fill:#F9CF70;" width="1.942" height="3.453"/>
											</g>
											<g>
												<rect x="343.413" y="326.531" style="fill:#9AB4EF;" width="1.942" height="3.453"/>
											</g>
											<g>
												<rect x="339.528" y="326.531" style="fill:#F9CF70;" width="1.942" height="3.453"/>
											</g>
										</g>
										<g>
											<rect x="366.699" y="323.267" style="fill:#83A0F0;" width="9.283" height="9.283"/>
										</g>
									</g>
									<g>
										<g>
											<rect x="308.659" y="321.707" style="fill:#FFFFFF;" width="0.766" height="0.766"/>
										</g>
										<g>
											<rect x="310.953" y="321.707" style="fill:#9AB4EF;" width="0.766" height="0.766"/>
										</g>
										<g>
											<rect x="313.247" y="321.707" style="fill:#9AB4EF;" width="0.766" height="0.766"/>
										</g>
									</g>
								</g>
								<g>
									<g>
										<rect x="301.882" y="293.998" style="fill:#5E60F4;" width="80.878" height="20.072"/>
									</g>
									<g>
										<rect x="382.76" y="293.998" style="fill:#A0B7EA;" width="33.806" height="20.072"/>
									</g>
									<g>
										<path style="fill:#83A0F0;" d="M381.38,295.378v17.312h-78.118v-17.312H381.38 M382.76,293.998h-80.878v20.072h80.878
											V293.998L382.76,293.998z"/>
									</g>
									<g>
										<g>
											<g>
												<g>
													<rect x="308.659" y="302.308" style="fill:#FFFFFF;" width="26.64" height="3.453"/>
												</g>
											</g>
											<g>
												<rect x="351.183" y="302.308" style="fill:#9AB4EF;" width="1.942" height="3.453"/>
											</g>
											<g>
												<rect x="347.298" y="302.308" style="fill:#F9CF70;" width="1.942" height="3.453"/>
											</g>
											<g>
												<rect x="343.413" y="302.308" style="fill:#9AB4EF;" width="1.942" height="3.453"/>
											</g>
											<g>
												<rect x="339.528" y="302.308" style="fill:#F9CF70;" width="1.942" height="3.453"/>
											</g>
										</g>
										<g>
											<rect x="366.699" y="299.044" style="fill:#83A0F0;" width="9.283" height="9.283"/>
										</g>
									</g>
									<g>
										<g>
											<rect x="308.659" y="297.484" style="fill:#FFFFFF;" width="0.766" height="0.766"/>
										</g>
										<g>
											<rect x="310.953" y="297.484" style="fill:#9AB4EF;" width="0.766" height="0.766"/>
										</g>
										<g>
											<rect x="313.247" y="297.484" style="fill:#9AB4EF;" width="0.766" height="0.766"/>
										</g>
									</g>
								</g>
								<g>
									<g>
										<rect x="301.882" y="269.775" style="fill:#5E60F4;" width="80.878" height="20.072"/>
									</g>
									<g>
										<rect x="382.76" y="269.775" style="fill:#A0B7EA;" width="33.806" height="20.072"/>
									</g>
									<g>
										<path style="fill:#83A0F0;" d="M381.38,271.155v17.312h-78.118v-17.312H381.38 M382.76,269.775h-80.878v20.072h80.878
											V269.775L382.76,269.775z"/>
									</g>
									<g>
										<g>
											<g>
												<g>
													<rect x="308.659" y="278.085" style="fill:#FFFFFF;" width="26.64" height="3.453"/>
												</g>
											</g>
											<g>
												<rect x="351.183" y="278.085" style="fill:#9AB4EF;" width="1.942" height="3.453"/>
											</g>
											<g>
												<rect x="347.298" y="278.085" style="fill:#F9CF70;" width="1.942" height="3.453"/>
											</g>
											<g>
												<rect x="343.413" y="278.085" style="fill:#9AB4EF;" width="1.942" height="3.453"/>
											</g>
											<g>
												<rect x="339.528" y="278.085" style="fill:#F9CF70;" width="1.942" height="3.453"/>
											</g>
										</g>
										<g>
											<rect x="366.699" y="274.82" style="fill:#83A0F0;" width="9.283" height="9.283"/>
										</g>
									</g>
									<g>
										<g>
											<rect x="308.659" y="273.261" style="fill:#FFFFFF;" width="0.766" height="0.766"/>
										</g>
										<g>
											<rect x="310.953" y="273.261" style="fill:#9AB4EF;" width="0.766" height="0.766"/>
										</g>
										<g>
											<rect x="313.247" y="273.261" style="fill:#9AB4EF;" width="0.766" height="0.766"/>
										</g>
									</g>
								</g>
								<g>
									<g>
										<rect x="301.882" y="245.552" style="fill:#5E60F4;" width="80.878" height="20.072"/>
									</g>
									<g>
										<rect x="382.76" y="245.552" style="fill:#A0B7EA;" width="33.806" height="20.072"/>
									</g>
									<g>
										<path style="fill:#83A0F0;" d="M381.38,246.932v17.312h-78.118v-17.312H381.38 M382.76,245.552h-80.878v20.072h80.878
											V245.552L382.76,245.552z"/>
									</g>
									<g>
										<g>
											<g>
												<g>
													<rect x="308.659" y="253.861" style="fill:#FFFFFF;" width="26.64" height="3.453"/>
												</g>
											</g>
											<g>
												<rect x="351.183" y="253.861" style="fill:#9AB4EF;" width="1.942" height="3.453"/>
											</g>
											<g>
												<rect x="347.298" y="253.861" style="fill:#F9CF70;" width="1.942" height="3.453"/>
											</g>
											<g>
												<rect x="343.413" y="253.861" style="fill:#9AB4EF;" width="1.942" height="3.453"/>
											</g>
											<g>
												<rect x="339.528" y="253.861" style="fill:#F9CF70;" width="1.942" height="3.453"/>
											</g>
										</g>
										<g>
											<rect x="366.699" y="250.597" style="fill:#83A0F0;" width="9.283" height="9.283"/>
										</g>
									</g>
									<g>
										<g>
											<rect x="308.659" y="249.038" style="fill:#FFFFFF;" width="0.766" height="0.766"/>
										</g>
										<g>
											<rect x="310.953" y="249.038" style="fill:#9AB4EF;" width="0.766" height="0.766"/>
										</g>
										<g>
											<rect x="313.247" y="249.038" style="fill:#9AB4EF;" width="0.766" height="0.766"/>
										</g>
									</g>
								</g>
							</g>
							<g>
								<path style="fill:#5E60F4;" d="M406.312,333.841h-13.298c-1.522,0-2.755-1.234-2.755-2.755v-5.657
									c0-1.522,1.234-2.755,2.755-2.755h13.298c1.522,0,2.755,1.234,2.755,2.755v5.657
									C409.067,332.607,407.834,333.841,406.312,333.841z"/>
							</g>
							<g>
								<path style="fill:#83A0F0;" d="M398.265,329.921v-3.329c0-0.381,0.309-0.69,0.69-0.69h1.416c0.381,0,0.69,0.309,0.69,0.69
									v3.329c0,0.381-0.309,0.69-0.69,0.69h-1.416C398.574,330.611,398.265,330.302,398.265,329.921z"/>
							</g>
							<g>
								<path style="fill:#5E60F4;" d="M406.312,309.618h-13.298c-1.522,0-2.755-1.234-2.755-2.755v-5.657
									c0-1.522,1.234-2.755,2.755-2.755h13.298c1.522,0,2.755,1.234,2.755,2.755v5.657
									C409.067,308.384,407.834,309.618,406.312,309.618z"/>
							</g>
							<g>
								<path style="fill:#83A0F0;" d="M398.265,305.698v-3.329c0-0.381,0.309-0.69,0.69-0.69h1.416c0.381,0,0.69,0.309,0.69,0.69
									v3.329c0,0.381-0.309,0.69-0.69,0.69h-1.416C398.574,306.388,398.265,306.079,398.265,305.698z"/>
							</g>
							<g>
								<path style="fill:#5E60F4;" d="M406.312,285.395h-13.298c-1.522,0-2.755-1.234-2.755-2.755v-5.657
									c0-1.522,1.234-2.755,2.755-2.755h13.298c1.522,0,2.755,1.234,2.755,2.755v5.657
									C409.067,284.161,407.834,285.395,406.312,285.395z"/>
							</g>
							<g>
								<path style="fill:#83A0F0;" d="M398.265,281.475v-3.329c0-0.381,0.309-0.69,0.69-0.69h1.416c0.381,0,0.69,0.309,0.69,0.69
									v3.329c0,0.381-0.309,0.69-0.69,0.69h-1.416C398.574,282.165,398.265,281.856,398.265,281.475z"/>
							</g>
							<g>
								<path style="fill:#5E60F4;" d="M406.312,261.172h-13.298c-1.522,0-2.755-1.234-2.755-2.755v-5.657
									c0-1.522,1.234-2.755,2.755-2.755h13.298c1.522,0,2.755,1.234,2.755,2.755v5.657
									C409.067,259.938,407.834,261.172,406.312,261.172z"/>
							</g>
							<g>
								<path style="fill:#83A0F0;" d="M398.265,257.252v-3.329c0-0.381,0.309-0.69,0.69-0.69h1.416c0.381,0,0.69,0.309,0.69,0.69
									v3.329c0,0.381-0.309,0.69-0.69,0.69h-1.416C398.574,257.942,398.265,257.633,398.265,257.252z"/>
							</g>
						</g>
					</g>
				</g>
				<path style="fill:#9AB4EF;" d="M425.156,201.158v53.889H414.65v-0.541h-3.94v0.541h-11.047v1.081h11.047v0.541h3.94v-0.541
					h10.506v23.142H414.65v-0.541h-3.94v0.541h-11.047v1.081h11.047v0.541h3.94v-0.541h10.506v23.142H414.65v-0.541h-3.94v0.541
					h-11.047v1.081h11.047v0.541h3.94v-0.541h10.506v23.142h-25.493v1.081h25.493v22.995H414.65v-0.541h-3.94v0.541h-11.047v1.081
					h11.047v0.541h3.94v-0.541h10.506v23.142H414.65v-0.541h-3.94v0.541h-11.047v1.081h11.047v0.541h3.94v-0.541h10.506v23.142
					H414.65v-0.541h-3.94v0.541h-11.047v1.081h11.047v0.541h3.94v-0.541h10.506v23.142H414.65v-0.541h-3.94v0.541h-11.047v1.081
					h11.047v0.541h3.94v-0.541h11.588V201.299C425.877,201.247,425.516,201.206,425.156,201.158z"/>
				<g>
					<circle style="fill:#F9CF70;" cx="425.697" cy="198.548" r="2.116"/>
				</g>
				<g>
					<circle style="fill:#F9CF70;" cx="425.697" cy="255.588" r="2.116"/>
				</g>
				<g>
					<circle style="fill:#F9CF70;" cx="425.697" cy="279.721" r="2.116"/>
				</g>
				<g>
					<circle style="fill:#F9CF70;" cx="425.697" cy="304.034" r="2.116"/>
				</g>
				<g>
					<circle style="fill:#F9CF70;" cx="425.697" cy="327.988" r="2.116"/>
				</g>
				<g>
					<circle style="fill:#F9CF70;" cx="425.697" cy="352.121" r="2.116"/>
				</g>
				<g>
					<circle style="fill:#F9CF70;" cx="425.697" cy="376.255" r="2.116"/>
				</g>
				<g>
					<circle style="fill:#F9CF70;" cx="425.697" cy="400.388" r="2.116"/>
				</g>
				<g>
					<circle style="fill:#F9CF70;" cx="425.697" cy="424.522" r="2.116"/>
				</g>
			</g>
			<g>
				<g>
					<g>
						<path style="fill:#353DC9;" d="M167.55,188.845v240.243c0,2.313,0.368,4.544,1.059,6.639
							c2.809,8.585,10.913,14.826,20.406,14.826h101.056c9.493,0,17.597-6.241,20.406-14.826c0.691-2.095,1.059-4.326,1.059-6.639
							V188.845c0-4.431-1.359-8.555-3.688-11.987c-3.861-5.701-10.402-9.471-17.778-9.471H189.015
							c-7.375,0-13.917,3.77-17.785,9.471C168.909,180.29,167.55,184.413,167.55,188.845z"/>
						<g>
							<path style="fill:#1B29AF;" d="M195.312,168.106c-11.469,0-20.799,9.33-20.799,20.799v240.258
								c0,11.468,9.331,20.799,20.799,20.799h99.331c11.469,0,20.799-9.331,20.799-20.799V188.905
								c0-11.469-9.33-20.799-20.799-20.799H195.312z"/>
						</g>
						<g>
							<path style="fill:#353DC9;" d="M175.397,428.134c0,11.408,9.334,20.742,20.742,20.742h97.676
								c11.408,0,20.742-9.334,20.742-20.742V189.727c0-11.408-9.334-20.742-20.742-20.742h-97.676
								c-11.408,0-20.742,9.334-20.742,20.742V428.134z"/>
						</g>
						<path style="fill:#83A0F0;" d="M196.502,176.004h17.089v1.514c0,4.634,3.757,8.391,8.391,8.391h47.604
							c4.902,0,8.875-3.974,8.875-8.875v-1.03h14.964c8.079,0,14.628,6.549,14.628,14.628V427.22
							c0,8.079-6.549,14.628-14.628,14.628l-96.923,0c-8.079,0-14.628-6.549-14.628-14.628l0-236.588
							C181.874,182.554,188.423,176.004,196.502,176.004z"/>
						<path style="fill:#F9CF70;" d="M252.709,178.654c0.814,0,1.477-0.662,1.477-1.476c0-0.814-0.662-1.476-1.477-1.476h-15.49
							c-0.814,0-1.477,0.662-1.477,1.476c0,0.814,0.662,1.476,1.477,1.476H252.709z"/>
						<g>
							<g>
								<path style="fill:#F9CF70;" d="M262.006,176.958c0,1.05-0.851,1.904-1.904,1.904c-1.052,0-1.902-0.854-1.902-1.904
									c0-1.055,0.851-1.903,1.902-1.903C261.155,175.055,262.006,175.904,262.006,176.958L262.006,176.958z"/>
								<path style="fill:#353DC9;" d="M261.135,176.958c0,0.57-0.461,1.033-1.032,1.033c-0.571,0-1.032-0.463-1.032-1.033
									c0-0.572,0.461-1.032,1.032-1.032C260.674,175.926,261.135,176.386,261.135,176.958L261.135,176.958z"/>
							</g>
						</g>
						<g>
							<path style="fill:#1B29AF;" d="M171.991,226.202c0-0.814-0.662-1.477-1.476-1.477c-0.814,0-1.476,0.662-1.476,1.477v20.936
								c0,0.814,0.662,1.477,1.476,1.477c0.814,0,1.476-0.662,1.476-1.477V226.202z"/>
						</g>
						<g>
							<path style="fill:#1B29AF;" d="M171.991,259.977c0-0.814-0.662-1.477-1.476-1.477c-0.814,0-1.476,0.662-1.476,1.477v20.936
								c0,0.814,0.662,1.477,1.476,1.477c0.814,0,1.476-0.663,1.476-1.477V259.977z"/>
						</g>
						
							<rect x="167.55" y="196.081" transform="matrix(-1 -1.224647e-16 1.224647e-16 -1 342.0626 395.6226)" style="fill:#1B29AF;" width="6.963" height="3.462"/>
						
							<rect x="167.55" y="418.656" transform="matrix(-1 -1.224647e-16 1.224647e-16 -1 342.0626 840.7741)" style="fill:#1B29AF;" width="6.963" height="3.462"/>
					</g>
				</g>
			</g>
		</g>
		<g>
			<path style="fill:#F9CF70;" d="M207.092,323.327c0,0-11.315,13.184-24.837-1.428c0,0-13.343,0.563-29.373,18.228v76.266
				l82.983,0.874v-74.523C235.866,342.744,226.123,327.689,207.092,323.327z"/>
			<path style="fill:#F9CF70;" d="M199.45,410.259c-10.062,5.777-29.731,5.249-40.693,4.955
				c-31.98-0.858-20.526-49.278-10.221-69.147c10.308-19.876,19.767-2.955,20.258,13.056c0.267,8.692-1.888,19.918-6.682,27.66
				c12.213,0.654,38.003,10.941,38.003,10.941C194.825,403.686,199.45,410.259,199.45,410.259z"/>
			<path style="fill:#F9CF70;" d="M194.615,414.182c10.746,4.375,30.166,1.213,40.99-0.549c31.576-5.14,13.729-51.586,0.852-69.893
				c-12.882-18.313-19.985-0.276-18.323,15.656c0.902,8.649,4.543,19.485,10.332,26.514c-12.015,2.287-36.192,15.94-36.192,15.94
				C198.316,407.048,194.615,414.182,194.615,414.182z"/>
			<polygon style="fill:#1B29AF;" points="241.014,412.939 139.896,409.706 146.148,426.45 205.024,444.539 242.518,432.295 			"/>
			<polygon style="fill:#F9CF70;" points="230.226,391.734 229.349,409.706 152.083,409.706 150.136,372.08 			"/>
			<path style="fill:#FEBAC7;" d="M222.135,399.998l1.558-6.296c0.107-0.432-0.141-0.872-0.567-1.005l-2.133-0.662
				c-0.298-0.093-0.52-0.343-0.577-0.65l-0.362-1.956c-0.074-0.398-0.421-0.687-0.826-0.687h-1.745c-0.29,0-0.559-0.149-0.712-0.395
				l-1.064-1.702c-0.242-0.387-0.748-0.51-1.141-0.277l-2.02,1.197c-0.258,0.153-0.577,0.157-0.839,0.01l-1.185-0.663
				c-0.384-0.215-0.868-0.097-1.111,0.27l-4.248,6.42c-0.263,0.397-0.144,0.932,0.263,1.181l0.941,0.575
				c0.348,0.212,0.798,0.145,1.067-0.16l0,0c0.556-0.629,1.589-0.143,1.46,0.686l-0.043,0.279c-0.057,0.363,0.129,0.721,0.458,0.883
				l8.331,4.111c0.055,0.027,0.111,0.048,0.17,0.062c0.523,0.13,3.082,0.666,4.208-0.953
				C222.074,400.185,222.112,400.092,222.135,399.998z"/>
			<path style="fill:#FEBAC7;" d="M163.436,399.998l-1.558-6.296c-0.107-0.432,0.142-0.872,0.567-1.005l2.133-0.662
				c0.298-0.093,0.52-0.343,0.577-0.65l0.362-1.956c0.074-0.398,0.421-0.687,0.826-0.687h1.745c0.29,0,0.559-0.149,0.713-0.395
				l1.064-1.702c0.242-0.387,0.748-0.51,1.141-0.277l2.02,1.197c0.258,0.153,0.577,0.157,0.839,0.01l1.186-0.663
				c0.384-0.215,0.868-0.097,1.111,0.27l4.248,6.42c0.263,0.397,0.143,0.932-0.263,1.181l-0.941,0.575
				c-0.348,0.212-0.798,0.145-1.068-0.16l0,0c-0.556-0.629-1.589-0.143-1.46,0.686l0.044,0.279c0.057,0.363-0.129,0.721-0.458,0.883
				l-8.331,4.111c-0.055,0.027-0.111,0.048-0.17,0.062c-0.523,0.13-3.082,0.666-4.208-0.953
				C163.496,400.185,163.459,400.092,163.436,399.998z"/>
			<g>
				<path style="fill:#5E60F4;" d="M254.279,394.82l-75.122,45.61c6.048,4.91,9.414,11.326,10.767,18.871l78.251-39.408
					c7.877-3.967,10.342-14.035,5.189-21.193h0C268.991,392.625,260.679,390.935,254.279,394.82z"/>
				<path style="fill:#1B29AF;" d="M200.881,447.354l4.77,4.028l-9.436,4.752c-2.823-2.43-8.329-7.118-9.148-7.431
					C185.957,448.278,200.881,447.354,200.881,447.354z"/>
				<path style="fill:#1B29AF;" d="M179.157,440.43l-12.512,7.05c-0.934,0.526-1.259,1.712-0.726,2.642
					c3.301,5.756,14.309,24.358,20.126,26.887c0,0,4.697-1.509,2.898-7.649c-1.799-6.141,0.621-11.821,0.621-11.821
					S189.157,443.223,179.157,440.43z"/>
			</g>
			<g>
				<path style="fill:#5E60F4;" d="M139.725,399.97l79.371,37.734c-5.517,5.5-8.213,12.224-8.792,19.868l-81.853-31.246
					c-8.24-3.145-11.716-12.911-7.318-20.555l0,0C124.867,399.282,132.963,396.755,139.725,399.97z"/>
				<path style="fill:#1B29AF;" d="M219.096,437.704l13.164,5.741c0.982,0.428,1.427,1.575,0.991,2.554
					c-2.698,6.061-11.758,25.687-17.287,28.794c0,0-4.826-1.023-3.661-7.315c1.165-6.292-1.82-11.697-1.82-11.697
					S209.432,441.499,219.096,437.704z"/>
			</g>
			<g>
				<g>
					<path style="fill:#EF947A;" d="M199.461,322.259c-1.418-0.135-2.815-0.423-4.143-0.922c-4.529-1.704-7.706-5.627-9.85-9.711
						c0,0-0.186,7.736-0.531,10.122c-0.345,2.386-1.473,3.73-1.473,3.73l10.048,8.131l5.113-5.398
						C198.625,328.21,198.947,325.394,199.461,322.259z"/>
					<path style="fill:#C97865;" d="M198.132,328.731c-1.703,0.868-3.381,1.757-4.982,2.635c-2.885-2.441-6.017-4.59-9.331-6.406
						c-0.206,0.339-0.354,0.517-0.354,0.517l10.048,8.131L198.132,328.731z"/>
					<path style="fill:#1B29AF;" d="M195.318,321.336c-3.409-1.282-6.051-3.822-8.064-6.741c0.899,2.891,2.321,5.65,4.193,8.122
						c0.985,1.301,2.114,2.541,3.537,3.424c1.115,0.692,2.433,1.146,3.749,1.176c0.135-1.076,0.39-2.998,0.728-5.06
						C198.043,322.124,196.646,321.836,195.318,321.336z"/>
				</g>
				<g>
					<path style="fill:#EF947A;" d="M185.468,311.626c2.102,4.379,5.24,8.573,9.757,10.358c2.582,1.021,5.438,1.177,8.202,0.915
						c3.35-0.318,5.632-1.463,7.141-4.572c1.21-2.494,1.482-5.397,1.837-8.056c0.535-4.003,0.542-7.963,0.735-11.982
						c0.155-3.218-0.062-5.509-2.849-7.754c-0.947,0.737-2.338,1.13-3.466,1.539c-1.128,0.408-2.397,0.522-3.526,0.116
						c-1.183-0.426-2.094-1.362-3.106-2.107c-1.012-0.745-2.323-1.326-3.504-0.897c-3.778,1.373-6.028,5.361-6.466,9.356
						c-0.286,2.613,0.209,7.768-3.668,8.093c-0.26-0.905-0.903-2.416-1.466-3.17c-0.563-0.754-1.491-1.31-2.421-1.164
						c-0.829,0.131-1.492,0.786-1.894,1.523c-0.804,1.472-0.739,3.36,0.095,4.814C181.704,310.095,183.807,311.394,185.468,311.626z
						"/>
					<g>
						<g>
							<path style="fill:#F5EDEC;" d="M197.802,313.502c2.849,1.274,6.02,1.819,9.131,1.568c-0.908,1.364-2.167,2.979-3.781,3.263
								c-1.268,0.224-2.575-0.384-3.472-1.307C198.783,316.102,198.254,314.707,197.802,313.502z"/>
							<path style="fill:#DDD7D7;" d="M197.802,313.502c0.158,0.421,0.326,0.865,0.515,1.305c2.032,1.017,4.284,1.595,6.555,1.671
								c0.339,0.011,0.685,0.006,1.032-0.016c0.382-0.453,0.725-0.937,1.028-1.392C203.822,315.32,200.65,314.776,197.802,313.502z"
								/>
						</g>
						<path style="fill:#1B29AF;" d="M201.845,311.753c-0.158-0.023-0.279-0.16-0.277-0.324c0.002-0.179,0.149-0.321,0.328-0.319
							l3.276,0.044c-0.204-2.848-0.284-5.735-0.236-8.588c0.003-0.179,0.15-0.321,0.329-0.318c0.179,0.003,0.321,0.15,0.318,0.329
							c-0.049,2.951,0.038,5.939,0.261,8.881c0.007,0.091-0.025,0.18-0.087,0.246c-0.062,0.066-0.149,0.103-0.24,0.102l-3.629-0.049
							C201.873,311.756,201.859,311.755,201.845,311.753z"/>
						<path style="fill:#1B29AF;" d="M196.599,297.666c0.509-0.272,1.21-0.389,1.769-0.509c0.891-0.192,2.93-0.556,2.958,0.881
							c0.01,0.499-0.306,0.963-0.719,1.244c-0.412,0.282-0.91,0.408-1.402,0.493c-0.659,0.114-1.336,0.162-1.998,0.064
							c-0.337-0.05-0.682-0.144-0.94-0.367c-0.584-0.504-0.296-1.434,0.288-1.782C196.57,297.682,196.585,297.674,196.599,297.666z
							 M211.687,299.104c-0.375-0.369-0.958-0.653-1.416-0.902c-0.73-0.398-2.419-1.244-2.815,0.006
							c-0.138,0.434,0.019,0.921,0.307,1.274c0.288,0.353,0.691,0.592,1.099,0.794c0.547,0.27,1.127,0.487,1.731,0.573
							c0.308,0.043,0.634,0.05,0.917-0.078c0.641-0.29,0.63-1.178,0.208-1.634C211.708,299.125,211.697,299.114,211.687,299.104z"/>
						<path style="fill:#1B29AF;" d="M199.168,305.552c-0.089,0.612-0.656,1.036-1.268,0.947s-1.036-0.656-0.947-1.268
							c0.089-0.612,0.656-1.036,1.268-0.947S199.256,304.94,199.168,305.552z M209.497,305.16c-0.612-0.089-1.179,0.336-1.268,0.948
							c-0.089,0.612,0.336,1.179,0.947,1.268c0.612,0.089,1.179-0.336,1.268-0.947C210.533,305.817,210.109,305.249,209.497,305.16z
							"/>
					</g>
					<g>
						<path style="fill:#1B29AF;" d="M211.826,286.885c0.912-1.83-1.025-4.764-2.91-5.558c-1.885-0.794-4.027-0.51-6.051-0.212
							c-2.307,0.34-4.614,0.679-6.922,1.019c-2.008,0.296-4.06,0.605-5.859,1.545c-2.228,1.164-3.894,3.225-4.96,5.501
							c-1.067,2.276-1.581,4.77-1.946,7.257c-0.283,1.931-0.476,3.916-0.264,5.844c0.844-0.023,1.66,0.497,2.173,1.184
							c0.563,0.754,1.206,2.265,1.466,3.17c3.877-0.324,3.382-5.48,3.668-8.093c0.438-3.995,2.688-7.983,6.466-9.356
							c1.181-0.429,2.491,0.152,3.504,0.897c1.012,0.745,1.924,1.681,3.106,2.107c1.129,0.406,2.398,0.293,3.526-0.116
							c1.128-0.408,2.519-0.802,3.466-1.539c2.787,2.244,3.004,4.536,2.849,7.754c-0.042,0.865-0.074,1.727-0.106,2.588
							c0.313-0.88,0.626-1.76,0.939-2.64c0.212-0.595,0.424-1.19,0.577-1.802C215.397,293.073,214.319,289.295,211.826,286.885z"/>
					</g>
					<path style="fill:#1B29AF;" d="M184.924,308.708c-0.046-0.007-0.09-0.026-0.126-0.058c-0.717-0.632-1.791-1.066-2.612-1.056
						c-0.134,0.001-0.244-0.106-0.245-0.24c-0.002-0.134,0.106-0.244,0.24-0.245c0.797-0.009,1.762,0.326,2.532,0.861
						c-0.114-1.094-0.928-2.13-1.986-2.437c-0.129-0.037-0.203-0.172-0.165-0.301c0.037-0.129,0.172-0.203,0.301-0.165
						c1.447,0.42,2.473,1.923,2.338,3.423c-0.008,0.091-0.067,0.17-0.152,0.203C185.008,308.709,184.965,308.714,184.924,308.708z"
						/>
				</g>
			</g>
			<path style="fill:#E5B75C;" d="M168.45,345.182c2.874,7.817,3.93,15.205,4.688,23.369c1.194,12.856,9.066,16.786,20.203,20.698
				l-11.522,10.624l-26.84-8.23C154.98,391.643,168.45,345.182,168.45,345.182z"/>
			<polygon style="fill:#EAECE9;" points="198.39,330.804 195.517,338.861 176.443,324.867 181.323,320.651 			"/>
			<polygon style="fill:#EAECE9;" points="199.066,329.846 205.574,336.034 208.264,323.947 204.675,321.899 			"/>
			<path style="fill:#E5B75C;" d="M220.285,342.237c-2.874,7.817-3.93,15.205-4.688,23.369
				c-1.194,12.856-9.066,16.786-20.203,20.698l11.522,10.624l26.84-8.23C233.756,388.698,220.285,342.237,220.285,342.237z"/>
			<g>
				<path style="fill:#9AB4EF;" d="M165.714,365.763h57.158c2.513,0,4.55,2.037,4.55,4.55v37.722c0,2.513-2.037,4.55-4.55,4.55
					h-57.158c-2.513,0-4.55-2.037-4.55-4.55v-37.722C161.164,367.8,163.201,365.763,165.714,365.763z"/>
				<path style="fill:#746980;" d="M162.266,414.789h64.054c0.609,0,1.102-0.493,1.102-1.102l0,0c0-0.609-0.493-1.102-1.102-1.102
					h-64.054c-0.608,0-1.102,0.493-1.102,1.102l0,0C161.164,414.296,161.657,414.789,162.266,414.789z"/>
				<circle style="fill:#9E8FAE;" cx="172.267" cy="413.604" r="0.47"/>
				
					<rect x="173.87" y="413.135" transform="matrix(-1 -4.511292e-11 4.511292e-11 -1 351.531 827.2087)" style="fill:#9E8FAE;" width="3.79" height="0.939"/>
			</g>
		</g>
	</g>
</g>
</svg>
