<?xml version="1.0" encoding="utf-8"?>
<!-- Generator: Adobe Illustrator 27.5.0, SVG Export Plug-In . SVG Version: 6.00 Build 0)  -->
<svg version="1.1" xmlns="http://www.w3.org/2000/svg" xmlns:xlink="http://www.w3.org/1999/xlink" x="0px" y="0px"
	 viewBox="0 0 500 500" style="enable-background:new 0 0 500 500;" xml:space="preserve">
<g id="Background_2">
	<g>
		<g>
			<g>
				<g>
					<rect y="382.398" style="fill:#D1E3FF;" width="500" height="0.25"/>
					<rect x="90.5" y="393.764" style="fill:#D1E3FF;" width="48.628" height="0.25"/>
					<rect x="66.889" y="393.889" style="fill:#D1E3FF;" width="12.79" height="0.25"/>
					<rect x="194.717" y="392.208" style="fill:#D1E3FF;" width="14.969" height="0.25"/>
					<rect x="215.444" y="392.208" style="fill:#D1E3FF;" width="61.217" height="0.25"/>
					<rect x="363.886" y="394.139" style="fill:#D1E3FF;" width="56.78" height="0.25"/>
					<rect x="343.292" y="394.139" style="fill:#D1E3FF;" width="15.041" height="0.25"/>
					<rect x="435.667" y="389.625" style="fill:#D1E3FF;" width="12.889" height="0.25"/>
					<path style="fill:#D1E3FF;" d="M237.014,337.8H43.915c-3.147,0-5.708-2.561-5.708-5.708V60.66c0-3.147,2.561-5.708,5.708-5.708
						h193.099c3.146,0,5.707,2.561,5.707,5.708v271.432C242.721,335.239,240.16,337.8,237.014,337.8z M43.915,55.203
						c-3.01,0-5.458,2.448-5.458,5.458v271.432c0,3.01,2.448,5.458,5.458,5.458h193.099c3.009,0,5.457-2.448,5.457-5.458V60.66
						c0-3.009-2.448-5.458-5.457-5.458H43.915z"/>
					<path style="fill:#D1E3FF;" d="M453.31,337.8H260.212c-3.146,0-5.707-2.561-5.707-5.708V60.66c0-3.147,2.561-5.708,5.707-5.708
						H453.31c3.148,0,5.708,2.561,5.708,5.708v271.432C459.019,335.239,456.458,337.8,453.31,337.8z M260.212,55.203
						c-3.009,0-5.457,2.448-5.457,5.458v271.432c0,3.01,2.448,5.458,5.457,5.458H453.31c3.01,0,5.458-2.448,5.458-5.458V60.66
						c0-3.009-2.448-5.458-5.458-5.458H260.212z"/>
				</g>
			</g>
		</g>
		<g>
			<g>
				<path style="fill:#D1E3FF;" d="M500,367.595h-68.899c-1.548,0-2.808-1.26-2.808-2.808V183.62c0-1.272-1.035-2.308-2.309-2.308
					h-7.255v-0.5h7.255c1.549,0,2.809,1.26,2.809,2.808v181.168c0,1.272,1.035,2.308,2.308,2.308H500V367.595z"/>
				<path style="fill:#D1E3FF;" d="M500,363.936h-66.559c-1.548,0-2.808-1.26-2.808-2.809V179.961c0-1.272-1.035-2.308-2.308-2.308
					h-9.597v-0.5h9.597c1.548,0,2.808,1.259,2.808,2.808v181.167c0,1.273,1.035,2.309,2.308,2.309H500V363.936z"/>
				<path style="fill:#D1E3FF;" d="M500,360.277h-64.218c-1.548,0-2.808-1.26-2.808-2.808V176.302c0-1.272-1.035-2.308-2.308-2.308
					h-11.938v-0.5h11.938c1.548,0,2.808,1.259,2.808,2.808V357.47c0,1.272,1.035,2.308,2.308,2.308H500V360.277z"/>
				<path style="fill:#D1E3FF;" d="M500,356.619h-61.877c-1.548,0-2.808-1.26-2.808-2.808V172.644c0-1.272-1.035-2.308-2.308-2.308
					h-14.278v-0.5h14.278c1.548,0,2.808,1.26,2.808,2.808v181.167c0,1.273,1.035,2.308,2.308,2.308H500V356.619z"/>
				<path style="fill:#D1E3FF;" d="M500,352.96h-59.536c-1.548,0-2.808-1.26-2.808-2.808V168.985c0-1.272-1.035-2.308-2.308-2.308
					h-16.619v-0.5h16.619c1.548,0,2.808,1.26,2.808,2.808v181.167c0,1.272,1.035,2.308,2.308,2.308H500V352.96z"/>
				<path style="fill:#D1E3FF;" d="M500,349.302h-57.194c-1.549,0-2.809-1.26-2.809-2.808V165.327c0-1.273-1.035-2.308-2.308-2.308
					h-18.96v-0.5h18.96c1.548,0,2.808,1.259,2.808,2.808v181.167c0,1.272,1.035,2.308,2.309,2.308H500V349.302z"/>
				<path style="fill:#D1E3FF;" d="M500,345.644h-54.854c-1.548,0-2.808-1.26-2.808-2.808V161.668c0-1.273-1.035-2.308-2.309-2.308
					h-21.301v-0.5h21.301c1.549,0,2.809,1.259,2.809,2.808v181.168c0,1.272,1.035,2.308,2.308,2.308H500V345.644z"/>
				<rect x="217.04" y="199.02" style="fill:#D1E3FF;" width="61.797" height="0.5"/>
				<rect x="217.04" y="195.362" style="fill:#D1E3FF;" width="61.797" height="0.5"/>
				<rect x="217.04" y="191.703" style="fill:#D1E3FF;" width="61.797" height="0.5"/>
				<rect x="217.04" y="188.044" style="fill:#D1E3FF;" width="61.797" height="0.5"/>
				<rect x="217.04" y="184.386" style="fill:#D1E3FF;" width="61.797" height="0.5"/>
				<rect x="217.04" y="180.727" style="fill:#D1E3FF;" width="61.797" height="0.5"/>
				<rect x="217.04" y="177.069" style="fill:#D1E3FF;" width="61.797" height="0.5"/>
				<rect x="217.04" y="322.979" style="fill:#D1E3FF;" width="61.797" height="0.5"/>
				<rect x="217.04" y="319.321" style="fill:#D1E3FF;" width="61.797" height="0.5"/>
				<rect x="217.04" y="315.662" style="fill:#D1E3FF;" width="61.797" height="0.5"/>
				<rect x="217.04" y="312.004" style="fill:#D1E3FF;" width="61.797" height="0.5"/>
				<rect x="217.04" y="308.345" style="fill:#D1E3FF;" width="61.797" height="0.5"/>
				<rect x="217.04" y="304.686" style="fill:#D1E3FF;" width="61.797" height="0.5"/>
				<rect x="217.04" y="301.028" style="fill:#D1E3FF;" width="61.797" height="0.5"/>
			</g>
			<g>
				<path style="fill:#D1E3FF;" d="M95.936,349.772H71.943c-1.548,0-2.808-1.26-2.808-2.808V165.797
					c0-1.273-1.035-2.308-2.308-2.308h-28.37v-0.5h28.37c1.548,0,2.808,1.259,2.808,2.808v181.168c0,1.272,1.036,2.308,2.308,2.308
					h23.994V349.772z"/>
				<path style="fill:#D1E3FF;" d="M95.936,353.431H69.602c-1.548,0-2.808-1.26-2.808-2.808V169.456
					c0-1.272-1.035-2.308-2.308-2.308H38.457v-0.5h26.029c1.548,0,2.808,1.259,2.808,2.808v181.167c0,1.273,1.035,2.308,2.308,2.308
					h26.335V353.431z"/>
				<path style="fill:#D1E3FF;" d="M95.936,357.089H67.261c-1.548,0-2.808-1.26-2.808-2.808V173.114
					c0-1.273-1.036-2.308-2.308-2.308H38.457v-0.5h23.688c1.548,0,2.808,1.26,2.808,2.808v181.167c0,1.272,1.035,2.308,2.308,2.308
					h28.676V357.089z"/>
				<path style="fill:#D1E3FF;" d="M95.936,360.748H64.92c-1.548,0-2.808-1.26-2.808-2.808V176.773c0-1.273-1.035-2.308-2.308-2.308
					H38.457v-0.5h21.347c1.548,0,2.808,1.259,2.808,2.808V357.94c0,1.272,1.036,2.308,2.308,2.308h31.017V360.748z"/>
				<path style="fill:#D1E3FF;" d="M95.936,364.406H62.579c-1.548,0-2.808-1.26-2.808-2.808V180.431
					c0-1.272-1.035-2.308-2.308-2.308H38.457v-0.5h19.006c1.548,0,2.808,1.259,2.808,2.808v181.167c0,1.272,1.035,2.308,2.308,2.308
					h33.358V364.406z"/>
				<path style="fill:#D1E3FF;" d="M95.936,368.065H60.238c-1.548,0-2.808-1.26-2.808-2.808V184.09c0-1.272-1.035-2.308-2.308-2.308
					H38.457v-0.5h16.665c1.548,0,2.808,1.26,2.808,2.808v181.167c0,1.272,1.036,2.308,2.308,2.308h35.699V368.065z"/>
				<path style="fill:#D1E3FF;" d="M95.936,371.724h-38.04c-1.548,0-2.808-1.26-2.808-2.808V187.748
					c0-1.272-1.035-2.308-2.308-2.308H38.457v-0.5h14.324c1.548,0,2.808,1.259,2.808,2.808v181.168c0,1.273,1.035,2.308,2.308,2.308
					h38.04V371.724z"/>
			</g>
			<g>
				<g>
					<g>
						<rect x="95.936" y="367.345" style="fill:#E3EEFF;" width="101.464" height="15.054"/>
						
							<rect x="197.4" y="367.345" transform="matrix(-1 -1.224647e-16 1.224647e-16 -1 415.3804 749.743)" style="fill:#D1E3FF;" width="20.58" height="15.054"/>
						<rect x="89.072" y="101.377" style="fill:#EEF5FF;" width="108.328" height="265.968"/>
						<rect x="98.17" y="99.102" style="fill:#E3EEFF;" width="117.576" height="2.275"/>
						
							<rect x="197.4" y="101.377" transform="matrix(-1 -1.224647e-16 1.224647e-16 -1 422.2446 468.7212)" style="fill:#E3EEFF;" width="27.444" height="265.968"/>
					</g>
					<g>
						<rect x="92.301" y="104.563" style="fill:#E3EEFF;" width="101.871" height="29.143"/>
						<rect x="92.301" y="334.852" style="fill:#E3EEFF;" width="101.871" height="29.143"/>
						<rect x="92.301" y="301.953" style="fill:#E3EEFF;" width="101.871" height="29.143"/>
						<rect x="92.301" y="269.055" style="fill:#E3EEFF;" width="101.871" height="29.143"/>
						<rect x="92.301" y="236.157" style="fill:#E3EEFF;" width="101.871" height="29.143"/>
						<rect x="92.301" y="203.258" style="fill:#E3EEFF;" width="101.871" height="29.143"/>
						<rect x="92.301" y="170.36" style="fill:#E3EEFF;" width="101.871" height="29.143"/>
						<rect x="92.301" y="137.462" style="fill:#E3EEFF;" width="101.871" height="29.143"/>
					</g>
					<path style="opacity:0.7;fill:#FFFFFF;" d="M185.938,129.543h-19.857c-2.338,0-4.251-1.913-4.251-4.251v-12.316
						c0-2.338,1.913-4.251,4.251-4.251h19.857c2.338,0,4.251,1.913,4.251,4.251v12.316
						C190.19,127.63,188.277,129.543,185.938,129.543z"/>
					<path style="fill:#EEF5FF;" d="M181.552,120.519v-2.77c0-0.704,0.571-1.275,1.275-1.275h2.777c0.704,0,1.275,0.571,1.275,1.275
						v2.77c0,0.704-0.571,1.275-1.275,1.275h-2.777C182.123,121.794,181.552,121.223,181.552,120.519z"/>
					<path style="opacity:0.7;fill:#FFFFFF;" d="M185.938,162.442h-19.857c-2.338,0-4.251-1.913-4.251-4.251v-12.316
						c0-2.338,1.913-4.251,4.251-4.251h19.857c2.338,0,4.251,1.913,4.251,4.251v12.316
						C190.19,160.529,188.277,162.442,185.938,162.442z"/>
					<path style="fill:#EEF5FF;" d="M181.552,153.418v-2.77c0-0.704,0.571-1.275,1.275-1.275h2.777c0.704,0,1.275,0.571,1.275,1.275
						v2.77c0,0.704-0.571,1.275-1.275,1.275h-2.777C182.123,154.693,181.552,154.122,181.552,153.418z"/>
					<path style="opacity:0.7;fill:#FFFFFF;" d="M185.938,195.34h-19.857c-2.338,0-4.251-1.913-4.251-4.251v-12.315
						c0-2.338,1.913-4.251,4.251-4.251h19.857c2.338,0,4.251,1.913,4.251,4.251v12.315
						C190.19,193.427,188.277,195.34,185.938,195.34z"/>
					<path style="fill:#EEF5FF;" d="M181.552,186.317v-2.771c0-0.704,0.571-1.275,1.275-1.275h2.777
						c0.704,0,1.275,0.571,1.275,1.275v2.771c0,0.704-0.571,1.275-1.275,1.275h-2.777
						C182.123,187.592,181.552,187.021,181.552,186.317z"/>
					<path style="opacity:0.7;fill:#FFFFFF;" d="M185.938,228.239h-19.857c-2.338,0-4.251-1.913-4.251-4.251v-12.316
						c0-2.338,1.913-4.251,4.251-4.251h19.857c2.338,0,4.251,1.913,4.251,4.251v12.316
						C190.19,226.326,188.277,228.239,185.938,228.239z"/>
					<path style="fill:#EEF5FF;" d="M181.552,219.214v-2.77c0-0.704,0.571-1.275,1.275-1.275h2.777c0.704,0,1.275,0.571,1.275,1.275
						v2.77c0,0.704-0.571,1.275-1.275,1.275h-2.777C182.123,220.49,181.552,219.919,181.552,219.214z"/>
					<path style="opacity:0.7;fill:#FFFFFF;" d="M185.938,261.137h-19.857c-2.338,0-4.251-1.913-4.251-4.251V244.57
						c0-2.338,1.913-4.251,4.251-4.251h19.857c2.338,0,4.251,1.913,4.251,4.251v12.315
						C190.19,259.224,188.277,261.137,185.938,261.137z"/>
					<path style="fill:#EEF5FF;" d="M181.552,252.113v-2.77c0-0.704,0.571-1.275,1.275-1.275h2.777c0.704,0,1.275,0.571,1.275,1.275
						v2.77c0,0.704-0.571,1.275-1.275,1.275h-2.777C182.123,253.388,181.552,252.817,181.552,252.113z"/>
					<path style="opacity:0.7;fill:#FFFFFF;" d="M185.938,294.035h-19.857c-2.338,0-4.251-1.913-4.251-4.251v-12.315
						c0-2.338,1.913-4.251,4.251-4.251h19.857c2.338,0,4.251,1.913,4.251,4.251v12.315
						C190.19,292.122,188.277,294.035,185.938,294.035z"/>
					<path style="fill:#EEF5FF;" d="M181.552,285.012v-2.77c0-0.704,0.571-1.275,1.275-1.275h2.777c0.704,0,1.275,0.571,1.275,1.275
						v2.77c0,0.704-0.571,1.275-1.275,1.275h-2.777C182.123,286.287,181.552,285.716,181.552,285.012z"/>
					<path style="opacity:0.7;fill:#FFFFFF;" d="M185.938,326.934h-19.857c-2.338,0-4.251-1.913-4.251-4.251v-12.316
						c0-2.338,1.913-4.251,4.251-4.251h19.857c2.338,0,4.251,1.913,4.251,4.251v12.316
						C190.19,325.021,188.277,326.934,185.938,326.934z"/>
					<path style="fill:#EEF5FF;" d="M181.552,317.909v-2.769c0-0.704,0.571-1.275,1.275-1.275h2.777
						c0.704,0,1.275,0.571,1.275,1.275v2.769c0,0.704-0.571,1.275-1.275,1.275h-2.777
						C182.123,319.185,181.552,318.614,181.552,317.909z"/>
					<path style="opacity:0.7;fill:#FFFFFF;" d="M185.938,359.832h-19.857c-2.338,0-4.251-1.913-4.251-4.251v-12.316
						c0-2.338,1.913-4.251,4.251-4.251h19.857c2.338,0,4.251,1.913,4.251,4.251v12.316
						C190.19,357.919,188.277,359.832,185.938,359.832z"/>
					<path style="fill:#EEF5FF;" d="M181.552,350.808v-2.77c0-0.704,0.571-1.275,1.275-1.275h2.777c0.704,0,1.275,0.571,1.275,1.275
						v2.77c0,0.704-0.571,1.275-1.275,1.275h-2.777C182.123,352.083,181.552,351.512,181.552,350.808z"/>
					<path style="fill:#EEF5FF;" d="M173.346,120.519v-2.77c0-0.704,0.571-1.275,1.275-1.275h2.777c0.704,0,1.275,0.571,1.275,1.275
						v2.77c0,0.704-0.571,1.275-1.275,1.275h-2.777C173.917,121.794,173.346,121.223,173.346,120.519z"/>
					<path style="fill:#EEF5FF;" d="M173.346,153.418v-2.77c0-0.704,0.571-1.275,1.275-1.275h2.777c0.704,0,1.275,0.571,1.275,1.275
						v2.77c0,0.704-0.571,1.275-1.275,1.275h-2.777C173.917,154.693,173.346,154.122,173.346,153.418z"/>
					<path style="fill:#EEF5FF;" d="M173.346,186.317v-2.771c0-0.704,0.571-1.275,1.275-1.275h2.777
						c0.704,0,1.275,0.571,1.275,1.275v2.771c0,0.704-0.571,1.275-1.275,1.275h-2.777
						C173.917,187.592,173.346,187.021,173.346,186.317z"/>
					<path style="fill:#EEF5FF;" d="M173.346,219.214v-2.77c0-0.704,0.571-1.275,1.275-1.275h2.777c0.704,0,1.275,0.571,1.275,1.275
						v2.77c0,0.704-0.571,1.275-1.275,1.275h-2.777C173.917,220.49,173.346,219.919,173.346,219.214z"/>
					<path style="fill:#EEF5FF;" d="M173.346,252.113v-2.77c0-0.704,0.571-1.275,1.275-1.275h2.777c0.704,0,1.275,0.571,1.275,1.275
						v2.77c0,0.704-0.571,1.275-1.275,1.275h-2.777C173.917,253.388,173.346,252.817,173.346,252.113z"/>
					<path style="fill:#EEF5FF;" d="M173.346,285.012v-2.77c0-0.704,0.571-1.275,1.275-1.275h2.777c0.704,0,1.275,0.571,1.275,1.275
						v2.77c0,0.704-0.571,1.275-1.275,1.275h-2.777C173.917,286.287,173.346,285.716,173.346,285.012z"/>
					<path style="fill:#EEF5FF;" d="M173.346,317.909v-2.769c0-0.704,0.571-1.275,1.275-1.275h2.777
						c0.704,0,1.275,0.571,1.275,1.275v2.769c0,0.704-0.571,1.275-1.275,1.275h-2.777
						C173.917,319.185,173.346,318.614,173.346,317.909z"/>
					<path style="fill:#EEF5FF;" d="M173.346,350.808v-2.77c0-0.704,0.571-1.275,1.275-1.275h2.777c0.704,0,1.275,0.571,1.275,1.275
						v2.77c0,0.704-0.571,1.275-1.275,1.275h-2.777C173.917,352.083,173.346,351.512,173.346,350.808z"/>
					<g>
						<circle style="fill:#EEF5FF;" cx="151.603" cy="119.134" r="3.363"/>
						<path style="fill:#EEF5FF;" d="M145.356,119.134c0,1.857-1.506,3.363-3.363,3.363c-1.857,0-3.363-1.506-3.363-3.363
							s1.506-3.363,3.363-3.363C143.85,115.771,145.356,117.277,145.356,119.134z"/>
						<path style="fill:#EEF5FF;" d="M135.746,119.134c0,1.857-1.506,3.363-3.363,3.363c-1.857,0-3.363-1.506-3.363-3.363
							s1.506-3.363,3.363-3.363C134.24,115.771,135.746,117.277,135.746,119.134z"/>
						<circle style="fill:#EEF5FF;" cx="122.773" cy="119.134" r="3.363"/>
					</g>
					<g>
						<circle style="fill:#EEF5FF;" cx="151.603" cy="152.033" r="3.363"/>
						<path style="fill:#EEF5FF;" d="M145.356,152.033c0,1.857-1.506,3.363-3.363,3.363c-1.857,0-3.363-1.506-3.363-3.363
							c0-1.857,1.506-3.363,3.363-3.363C143.85,148.67,145.356,150.176,145.356,152.033z"/>
						<path style="fill:#EEF5FF;" d="M135.746,152.033c0,1.857-1.506,3.363-3.363,3.363c-1.857,0-3.363-1.506-3.363-3.363
							c0-1.857,1.506-3.363,3.363-3.363C134.24,148.67,135.746,150.176,135.746,152.033z"/>
						<circle style="fill:#EEF5FF;" cx="122.773" cy="152.033" r="3.363"/>
					</g>
					<g>
						<path style="fill:#EEF5FF;" d="M154.966,184.931c0,1.857-1.506,3.363-3.363,3.363s-3.363-1.506-3.363-3.363
							c0-1.857,1.506-3.363,3.363-3.363S154.966,183.074,154.966,184.931z"/>
						<path style="fill:#EEF5FF;" d="M145.356,184.931c0,1.857-1.506,3.363-3.363,3.363c-1.857,0-3.363-1.506-3.363-3.363
							c0-1.857,1.506-3.363,3.363-3.363C143.85,181.568,145.356,183.074,145.356,184.931z"/>
						<path style="fill:#EEF5FF;" d="M135.746,184.931c0,1.857-1.506,3.363-3.363,3.363c-1.857,0-3.363-1.506-3.363-3.363
							c0-1.857,1.506-3.363,3.363-3.363C134.24,181.568,135.746,183.074,135.746,184.931z"/>
						<path style="fill:#EEF5FF;" d="M126.136,184.931c0,1.857-1.506,3.363-3.363,3.363s-3.363-1.506-3.363-3.363
							c0-1.857,1.506-3.363,3.363-3.363S126.136,183.074,126.136,184.931z"/>
					</g>
					<g>
						<path style="fill:#EEF5FF;" d="M154.966,217.83c0,1.857-1.506,3.363-3.363,3.363s-3.363-1.506-3.363-3.363
							c0-1.857,1.506-3.363,3.363-3.363S154.966,215.972,154.966,217.83z"/>
						<path style="fill:#EEF5FF;" d="M145.356,217.83c0,1.857-1.506,3.363-3.363,3.363c-1.857,0-3.363-1.506-3.363-3.363
							c0-1.857,1.506-3.363,3.363-3.363C143.85,214.467,145.356,215.972,145.356,217.83z"/>
						<path style="fill:#EEF5FF;" d="M135.746,217.83c0,1.857-1.506,3.363-3.363,3.363c-1.857,0-3.363-1.506-3.363-3.363
							c0-1.857,1.506-3.363,3.363-3.363C134.24,214.467,135.746,215.972,135.746,217.83z"/>
						<path style="fill:#EEF5FF;" d="M126.136,217.83c0,1.857-1.506,3.363-3.363,3.363s-3.363-1.506-3.363-3.363
							c0-1.857,1.506-3.363,3.363-3.363S126.136,215.972,126.136,217.83z"/>
					</g>
					<g>
						<path style="fill:#EEF5FF;" d="M154.966,250.728c0,1.857-1.506,3.363-3.363,3.363s-3.363-1.506-3.363-3.363
							c0-1.857,1.506-3.363,3.363-3.363S154.966,248.871,154.966,250.728z"/>
						<path style="fill:#EEF5FF;" d="M145.356,250.728c0,1.857-1.506,3.363-3.363,3.363c-1.857,0-3.363-1.506-3.363-3.363
							c0-1.857,1.506-3.363,3.363-3.363C143.85,247.365,145.356,248.871,145.356,250.728z"/>
						<path style="fill:#EEF5FF;" d="M135.746,250.728c0,1.857-1.506,3.363-3.363,3.363c-1.857,0-3.363-1.506-3.363-3.363
							c0-1.857,1.506-3.363,3.363-3.363C134.24,247.365,135.746,248.871,135.746,250.728z"/>
						<path style="fill:#EEF5FF;" d="M126.136,250.728c0,1.857-1.506,3.363-3.363,3.363s-3.363-1.506-3.363-3.363
							c0-1.857,1.506-3.363,3.363-3.363S126.136,248.871,126.136,250.728z"/>
					</g>
					<g>
						<path style="fill:#EEF5FF;" d="M154.966,283.627c0,1.857-1.506,3.363-3.363,3.363s-3.363-1.506-3.363-3.363
							c0-1.857,1.506-3.363,3.363-3.363S154.966,281.769,154.966,283.627z"/>
						<path style="fill:#EEF5FF;" d="M145.356,283.627c0,1.857-1.506,3.363-3.363,3.363c-1.857,0-3.363-1.506-3.363-3.363
							c0-1.857,1.506-3.363,3.363-3.363C143.85,280.263,145.356,281.769,145.356,283.627z"/>
						<path style="fill:#EEF5FF;" d="M135.746,283.627c0,1.857-1.506,3.363-3.363,3.363c-1.857,0-3.363-1.506-3.363-3.363
							c0-1.857,1.506-3.363,3.363-3.363C134.24,280.263,135.746,281.769,135.746,283.627z"/>
						<path style="fill:#EEF5FF;" d="M126.136,283.627c0,1.857-1.506,3.363-3.363,3.363s-3.363-1.506-3.363-3.363
							c0-1.857,1.506-3.363,3.363-3.363S126.136,281.769,126.136,283.627z"/>
					</g>
					<g>
						<circle style="fill:#EEF5FF;" cx="151.603" cy="316.525" r="3.363"/>
						<path style="fill:#EEF5FF;" d="M145.356,316.525c0,1.857-1.506,3.363-3.363,3.363c-1.857,0-3.363-1.506-3.363-3.363
							s1.506-3.363,3.363-3.363C143.85,313.162,145.356,314.668,145.356,316.525z"/>
						<path style="fill:#EEF5FF;" d="M135.746,316.525c0,1.857-1.506,3.363-3.363,3.363c-1.857,0-3.363-1.506-3.363-3.363
							s1.506-3.363,3.363-3.363C134.24,313.162,135.746,314.668,135.746,316.525z"/>
						<circle style="fill:#EEF5FF;" cx="122.773" cy="316.525" r="3.363"/>
					</g>
					<g>
						<circle style="fill:#EEF5FF;" cx="151.603" cy="349.423" r="3.363"/>
						<path style="fill:#EEF5FF;" d="M145.356,349.423c0,1.857-1.506,3.363-3.363,3.363c-1.857,0-3.363-1.506-3.363-3.363
							s1.506-3.363,3.363-3.363C143.85,346.06,145.356,347.566,145.356,349.423z"/>
						<path style="fill:#EEF5FF;" d="M135.746,349.423c0,1.857-1.506,3.363-3.363,3.363c-1.857,0-3.363-1.506-3.363-3.363
							s1.506-3.363,3.363-3.363C134.24,346.06,135.746,347.566,135.746,349.423z"/>
						<circle style="fill:#EEF5FF;" cx="122.773" cy="349.423" r="3.363"/>
					</g>
					<circle style="fill:#D1E3FF;" cx="105.419" cy="119.134" r="7.286"/>
					<circle style="fill:#D1E3FF;" cx="105.419" cy="152.033" r="7.286"/>
					
						<ellipse transform="matrix(0.1598 -0.9871 0.9871 0.1598 -93.9829 259.4401)" style="fill:#D1E3FF;" cx="105.419" cy="184.931" rx="7.286" ry="7.286"/>
					
						<ellipse transform="matrix(0.1598 -0.9871 0.9871 0.1598 -126.4585 287.0807)" style="fill:#D1E3FF;" cx="105.419" cy="217.83" rx="7.286" ry="7.286"/>
					
						<ellipse transform="matrix(0.9246 -0.381 0.381 0.9246 -87.574 59.0737)" style="fill:#D1E3FF;" cx="105.419" cy="250.728" rx="7.286" ry="7.286"/>
					
						<ellipse transform="matrix(0.9246 -0.381 0.381 0.9246 -100.1079 61.555)" style="fill:#D1E3FF;" cx="105.419" cy="283.627" rx="7.286" ry="7.286"/>
					<circle style="fill:#D1E3FF;" cx="105.419" cy="316.525" r="7.286"/>
					<circle style="fill:#D1E3FF;" cx="105.419" cy="349.423" r="7.286"/>
				</g>
			</g>
			<g>
				<g>
					<g>
						<rect x="275.366" y="368.591" style="fill:#E3EEFF;" width="117.307" height="13.807"/>
						
							<rect x="392.673" y="368.591" transform="matrix(-1 -1.224647e-16 1.224647e-16 -1 804.8859 750.9896)" style="fill:#D1E3FF;" width="19.539" height="13.807"/>
						<rect x="268.849" y="124.648" style="fill:#EEF5FF;" width="123.824" height="243.943"/>
						<rect x="277.487" y="122.562" style="fill:#E3EEFF;" width="132.604" height="2.086"/>
						
							<rect x="392.673" y="124.648" transform="matrix(-1 -1.224647e-16 1.224647e-16 -1 811.4031 493.2391)" style="fill:#E3EEFF;" width="26.056" height="243.943"/>
					</g>
					<g>
						
							<rect x="271.915" y="127.57" transform="matrix(-1 -1.224647e-16 1.224647e-16 -1 661.5224 281.8704)" style="fill:#E3EEFF;" width="117.693" height="26.73"/>
						
							<rect x="271.915" y="338.789" transform="matrix(-1 -1.224647e-16 1.224647e-16 -1 661.5224 704.308)" style="fill:#E3EEFF;" width="117.693" height="26.73"/>
						
							<rect x="271.915" y="308.615" transform="matrix(-1 -1.224647e-16 1.224647e-16 -1 661.5224 643.9598)" style="fill:#E3EEFF;" width="117.693" height="26.73"/>
						
							<rect x="271.915" y="278.441" transform="matrix(-1 -1.224647e-16 1.224647e-16 -1 661.5224 583.6116)" style="fill:#E3EEFF;" width="117.693" height="26.73"/>
						
							<rect x="271.915" y="248.267" transform="matrix(-1 -1.224647e-16 1.224647e-16 -1 661.5224 523.2634)" style="fill:#E3EEFF;" width="117.693" height="26.73"/>
						
							<rect x="271.915" y="218.093" transform="matrix(-1 -1.224647e-16 1.224647e-16 -1 661.5224 462.9152)" style="fill:#E3EEFF;" width="117.693" height="26.73"/>
						
							<rect x="271.915" y="187.919" transform="matrix(-1 -1.224647e-16 1.224647e-16 -1 661.5224 402.5669)" style="fill:#E3EEFF;" width="117.693" height="26.73"/>
						
							<rect x="271.915" y="157.745" transform="matrix(-1 -1.224647e-16 1.224647e-16 -1 661.5224 342.2186)" style="fill:#E3EEFF;" width="117.693" height="26.73"/>
					</g>
					<path style="fill:#D1E3FF;" d="M279.662,150.482h56.658c2.182,0,3.967-1.785,3.967-3.967v-11.16
						c0-2.182-1.785-3.967-3.967-3.967h-56.658c-2.182,0-3.967,1.785-3.967,3.967v11.16
						C275.695,148.697,277.48,150.482,279.662,150.482z"/>
					<path style="fill:#EEF5FF;" d="M283.896,142.185v-2.499c0-0.657-0.533-1.19-1.19-1.19h-2.679c-0.657,0-1.19,0.533-1.19,1.19
						v2.499c0,0.657,0.533,1.19,1.19,1.19h2.679C283.364,143.375,283.896,142.842,283.896,142.185z"/>
					<path style="fill:#D1E3FF;" d="M279.662,180.656h56.658c2.182,0,3.967-1.785,3.967-3.967v-11.16
						c0-2.182-1.785-3.967-3.967-3.967h-56.658c-2.182,0-3.967,1.785-3.967,3.967v11.16
						C275.695,178.871,277.48,180.656,279.662,180.656z"/>
					<path style="fill:#EEF5FF;" d="M283.896,172.359v-2.499c0-0.657-0.533-1.19-1.19-1.19h-2.679c-0.657,0-1.19,0.533-1.19,1.19
						v2.499c0,0.657,0.533,1.19,1.19,1.19h2.679C283.364,173.549,283.896,173.016,283.896,172.359z"/>
					<path style="fill:#D1E3FF;" d="M279.662,210.83h56.658c2.182,0,3.967-1.785,3.967-3.967v-11.16
						c0-2.182-1.785-3.967-3.967-3.967h-56.658c-2.182,0-3.967,1.785-3.967,3.967v11.16
						C275.695,209.045,277.48,210.83,279.662,210.83z"/>
					<path style="fill:#EEF5FF;" d="M283.896,202.534v-2.5c0-0.657-0.533-1.19-1.19-1.19h-2.679c-0.657,0-1.19,0.533-1.19,1.19v2.5
						c0,0.657,0.533,1.19,1.19,1.19h2.679C283.364,203.723,283.896,203.191,283.896,202.534z"/>
					<path style="fill:#D1E3FF;" d="M279.662,241.005h56.658c2.182,0,3.967-1.785,3.967-3.967v-11.16
						c0-2.182-1.785-3.967-3.967-3.967h-56.658c-2.182,0-3.967,1.785-3.967,3.967v11.16
						C275.695,239.219,277.48,241.005,279.662,241.005z"/>
					<path style="fill:#EEF5FF;" d="M283.896,232.707v-2.499c0-0.657-0.533-1.19-1.19-1.19h-2.679c-0.657,0-1.19,0.533-1.19,1.19
						v2.499c0,0.657,0.533,1.19,1.19,1.19h2.679C283.364,233.897,283.896,233.364,283.896,232.707z"/>
					<path style="fill:#D1E3FF;" d="M279.662,271.179h56.658c2.182,0,3.967-1.785,3.967-3.967v-11.16
						c0-2.182-1.785-3.967-3.967-3.967h-56.658c-2.182,0-3.967,1.785-3.967,3.967v11.16
						C275.695,269.393,277.48,271.179,279.662,271.179z"/>
					<path style="fill:#EEF5FF;" d="M283.896,262.882v-2.499c0-0.657-0.533-1.19-1.19-1.19h-2.679c-0.657,0-1.19,0.533-1.19,1.19
						v2.499c0,0.657,0.533,1.19,1.19,1.19h2.679C283.364,264.071,283.896,263.539,283.896,262.882z"/>
					<path style="fill:#D1E3FF;" d="M279.662,301.353h56.658c2.182,0,3.967-1.785,3.967-3.967v-11.16
						c0-2.182-1.785-3.967-3.967-3.967h-56.658c-2.182,0-3.967,1.785-3.967,3.967v11.16
						C275.695,299.568,277.48,301.353,279.662,301.353z"/>
					<path style="fill:#EEF5FF;" d="M283.896,293.056v-2.5c0-0.657-0.533-1.19-1.19-1.19h-2.679c-0.657,0-1.19,0.533-1.19,1.19v2.5
						c0,0.657,0.533,1.19,1.19,1.19h2.679C283.364,294.246,283.896,293.713,283.896,293.056z"/>
					<path style="fill:#D1E3FF;" d="M279.662,331.527h56.658c2.182,0,3.967-1.785,3.967-3.967V316.4
						c0-2.182-1.785-3.967-3.967-3.967h-56.658c-2.182,0-3.967,1.785-3.967,3.967v11.16
						C275.695,329.742,277.48,331.527,279.662,331.527z"/>
					<path style="fill:#EEF5FF;" d="M283.896,323.229v-2.499c0-0.657-0.533-1.19-1.19-1.19h-2.679c-0.657,0-1.19,0.533-1.19,1.19
						v2.499c0,0.657,0.533,1.19,1.19,1.19h2.679C283.364,324.419,283.896,323.887,283.896,323.229z"/>
					<path style="fill:#D1E3FF;" d="M279.662,361.701h56.658c2.182,0,3.967-1.785,3.967-3.967v-11.16
						c0-2.182-1.785-3.967-3.967-3.967h-56.658c-2.182,0-3.967,1.785-3.967,3.967v11.16
						C275.695,359.916,277.48,361.701,279.662,361.701z"/>
					<path style="fill:#EEF5FF;" d="M283.896,353.404v-2.499c0-0.657-0.533-1.19-1.19-1.19h-2.679c-0.657,0-1.19,0.533-1.19,1.19
						v2.499c0,0.657,0.533,1.19,1.19,1.19h2.679C283.364,354.594,283.896,354.061,283.896,353.404z"/>
					<path style="fill:#EEF5FF;" d="M291.687,142.185v-2.499c0-0.657-0.533-1.19-1.19-1.19h-2.678c-0.657,0-1.19,0.533-1.19,1.19
						v2.499c0,0.657,0.533,1.19,1.19,1.19h2.678C291.155,143.375,291.687,142.842,291.687,142.185z"/>
					<path style="fill:#EEF5FF;" d="M291.687,172.359v-2.499c0-0.657-0.533-1.19-1.19-1.19h-2.678c-0.657,0-1.19,0.533-1.19,1.19
						v2.499c0,0.657,0.533,1.19,1.19,1.19h2.678C291.155,173.549,291.687,173.016,291.687,172.359z"/>
					<path style="fill:#EEF5FF;" d="M291.687,202.534v-2.5c0-0.657-0.533-1.19-1.19-1.19h-2.678c-0.657,0-1.19,0.533-1.19,1.19v2.5
						c0,0.657,0.533,1.19,1.19,1.19h2.678C291.155,203.723,291.687,203.191,291.687,202.534z"/>
					<path style="fill:#EEF5FF;" d="M291.687,232.707v-2.499c0-0.657-0.533-1.19-1.19-1.19h-2.678c-0.657,0-1.19,0.533-1.19,1.19
						v2.499c0,0.657,0.533,1.19,1.19,1.19h2.678C291.155,233.897,291.687,233.364,291.687,232.707z"/>
					<path style="fill:#EEF5FF;" d="M291.687,262.882v-2.499c0-0.657-0.533-1.19-1.19-1.19h-2.678c-0.657,0-1.19,0.533-1.19,1.19
						v2.499c0,0.657,0.533,1.19,1.19,1.19h2.678C291.155,264.071,291.687,263.539,291.687,262.882z"/>
					<path style="fill:#EEF5FF;" d="M291.687,293.056v-2.5c0-0.657-0.533-1.19-1.19-1.19h-2.678c-0.657,0-1.19,0.533-1.19,1.19v2.5
						c0,0.657,0.533,1.19,1.19,1.19h2.678C291.155,294.246,291.687,293.713,291.687,293.056z"/>
					<path style="fill:#EEF5FF;" d="M291.687,323.229v-2.499c0-0.657-0.533-1.19-1.19-1.19h-2.678c-0.657,0-1.19,0.533-1.19,1.19
						v2.499c0,0.657,0.533,1.19,1.19,1.19h2.678C291.155,324.419,291.687,323.887,291.687,323.229z"/>
					<path style="fill:#EEF5FF;" d="M291.687,353.404v-2.499c0-0.657-0.533-1.19-1.19-1.19h-2.678c-0.657,0-1.19,0.533-1.19,1.19
						v2.499c0,0.657,0.533,1.19,1.19,1.19h2.678C291.155,354.594,291.687,354.061,291.687,353.404z"/>
					<path style="fill:#EEF5FF;" d="M299.478,142.185v-2.499c0-0.657-0.533-1.19-1.19-1.19h-2.678c-0.657,0-1.19,0.533-1.19,1.19
						v2.499c0,0.657,0.533,1.19,1.19,1.19h2.678C298.946,143.375,299.478,142.842,299.478,142.185z"/>
					<path style="fill:#EEF5FF;" d="M299.478,172.359v-2.499c0-0.657-0.533-1.19-1.19-1.19h-2.678c-0.657,0-1.19,0.533-1.19,1.19
						v2.499c0,0.657,0.533,1.19,1.19,1.19h2.678C298.946,173.549,299.478,173.016,299.478,172.359z"/>
					<path style="fill:#EEF5FF;" d="M299.478,202.534v-2.5c0-0.657-0.533-1.19-1.19-1.19h-2.678c-0.657,0-1.19,0.533-1.19,1.19v2.5
						c0,0.657,0.533,1.19,1.19,1.19h2.678C298.946,203.723,299.478,203.191,299.478,202.534z"/>
					<path style="fill:#EEF5FF;" d="M299.478,232.707v-2.499c0-0.657-0.533-1.19-1.19-1.19h-2.678c-0.657,0-1.19,0.533-1.19,1.19
						v2.499c0,0.657,0.533,1.19,1.19,1.19h2.678C298.946,233.897,299.478,233.364,299.478,232.707z"/>
					<path style="fill:#EEF5FF;" d="M299.478,262.882v-2.499c0-0.657-0.533-1.19-1.19-1.19h-2.678c-0.657,0-1.19,0.533-1.19,1.19
						v2.499c0,0.657,0.533,1.19,1.19,1.19h2.678C298.946,264.071,299.478,263.539,299.478,262.882z"/>
					<path style="fill:#EEF5FF;" d="M299.478,293.056v-2.5c0-0.657-0.533-1.19-1.19-1.19h-2.678c-0.657,0-1.19,0.533-1.19,1.19v2.5
						c0,0.657,0.533,1.19,1.19,1.19h2.678C298.946,294.246,299.478,293.713,299.478,293.056z"/>
					<path style="fill:#EEF5FF;" d="M299.478,323.229v-2.499c0-0.657-0.533-1.19-1.19-1.19h-2.678c-0.657,0-1.19,0.533-1.19,1.19
						v2.499c0,0.657,0.533,1.19,1.19,1.19h2.678C298.946,324.419,299.478,323.887,299.478,323.229z"/>
					<path style="fill:#EEF5FF;" d="M299.478,353.404v-2.499c0-0.657-0.533-1.19-1.19-1.19h-2.678c-0.657,0-1.19,0.533-1.19,1.19
						v2.499c0,0.657,0.533,1.19,1.19,1.19h2.678C298.946,354.594,299.478,354.061,299.478,353.404z"/>
					<path style="fill:#EEF5FF;" d="M307.269,142.185v-2.499c0-0.657-0.533-1.19-1.19-1.19h-2.678c-0.657,0-1.19,0.533-1.19,1.19
						v2.499c0,0.657,0.533,1.19,1.19,1.19h2.678C306.736,143.375,307.269,142.842,307.269,142.185z"/>
					<path style="fill:#EEF5FF;" d="M307.269,172.359v-2.499c0-0.657-0.533-1.19-1.19-1.19h-2.678c-0.657,0-1.19,0.533-1.19,1.19
						v2.499c0,0.657,0.533,1.19,1.19,1.19h2.678C306.736,173.549,307.269,173.016,307.269,172.359z"/>
					<path style="fill:#EEF5FF;" d="M307.269,202.534v-2.5c0-0.657-0.533-1.19-1.19-1.19h-2.678c-0.657,0-1.19,0.533-1.19,1.19v2.5
						c0,0.657,0.533,1.19,1.19,1.19h2.678C306.736,203.723,307.269,203.191,307.269,202.534z"/>
					<path style="fill:#EEF5FF;" d="M307.269,232.707v-2.499c0-0.657-0.533-1.19-1.19-1.19h-2.678c-0.657,0-1.19,0.533-1.19,1.19
						v2.499c0,0.657,0.533,1.19,1.19,1.19h2.678C306.736,233.897,307.269,233.364,307.269,232.707z"/>
					<path style="fill:#EEF5FF;" d="M307.269,262.882v-2.499c0-0.657-0.533-1.19-1.19-1.19h-2.678c-0.657,0-1.19,0.533-1.19,1.19
						v2.499c0,0.657,0.533,1.19,1.19,1.19h2.678C306.736,264.071,307.269,263.539,307.269,262.882z"/>
					<path style="fill:#EEF5FF;" d="M307.269,293.056v-2.5c0-0.657-0.533-1.19-1.19-1.19h-2.678c-0.657,0-1.19,0.533-1.19,1.19v2.5
						c0,0.657,0.533,1.19,1.19,1.19h2.678C306.736,294.246,307.269,293.713,307.269,293.056z"/>
					<path style="fill:#EEF5FF;" d="M307.269,323.229v-2.499c0-0.657-0.533-1.19-1.19-1.19h-2.678c-0.657,0-1.19,0.533-1.19,1.19
						v2.499c0,0.657,0.533,1.19,1.19,1.19h2.678C306.736,324.419,307.269,323.887,307.269,323.229z"/>
					<path style="fill:#EEF5FF;" d="M307.269,353.404v-2.499c0-0.657-0.533-1.19-1.19-1.19h-2.678c-0.657,0-1.19,0.533-1.19,1.19
						v2.499c0,0.657,0.533,1.19,1.19,1.19h2.678C306.736,354.594,307.269,354.061,307.269,353.404z"/>
					<g>
						<path style="fill:#EEF5FF;" d="M346.805,140.935c0,1.704,1.43,3.085,3.193,3.085c1.764,0,3.193-1.381,3.193-3.085
							s-1.43-3.085-3.193-3.085C348.234,137.85,346.805,139.232,346.805,140.935z"/>
						<path style="fill:#EEF5FF;" d="M355.929,140.935c0,1.704,1.43,3.085,3.193,3.085c1.764,0,3.193-1.381,3.193-3.085
							s-1.43-3.085-3.193-3.085C357.358,137.85,355.929,139.232,355.929,140.935z"/>
						<path style="fill:#EEF5FF;" d="M365.053,140.935c0,1.704,1.43,3.085,3.193,3.085c1.764,0,3.193-1.381,3.193-3.085
							s-1.43-3.085-3.193-3.085C366.482,137.85,365.053,139.232,365.053,140.935z"/>
						<path style="fill:#EEF5FF;" d="M374.177,140.935c0,1.704,1.43,3.085,3.193,3.085c1.764,0,3.193-1.381,3.193-3.085
							s-1.43-3.085-3.193-3.085C375.606,137.85,374.177,139.232,374.177,140.935z"/>
					</g>
					<g>
						<path style="fill:#EEF5FF;" d="M346.805,171.109c0,1.704,1.43,3.085,3.193,3.085c1.764,0,3.193-1.381,3.193-3.085
							s-1.43-3.085-3.193-3.085C348.234,168.025,346.805,169.406,346.805,171.109z"/>
						<path style="fill:#EEF5FF;" d="M355.929,171.109c0,1.704,1.43,3.085,3.193,3.085c1.764,0,3.193-1.381,3.193-3.085
							s-1.43-3.085-3.193-3.085C357.358,168.025,355.929,169.406,355.929,171.109z"/>
						<path style="fill:#EEF5FF;" d="M365.053,171.109c0,1.704,1.43,3.085,3.193,3.085c1.764,0,3.193-1.381,3.193-3.085
							s-1.43-3.085-3.193-3.085C366.482,168.025,365.053,169.406,365.053,171.109z"/>
						<path style="fill:#EEF5FF;" d="M374.177,171.109c0,1.704,1.43,3.085,3.193,3.085c1.764,0,3.193-1.381,3.193-3.085
							s-1.43-3.085-3.193-3.085C375.606,168.025,374.177,169.406,374.177,171.109z"/>
					</g>
					<g>
						<path style="fill:#EEF5FF;" d="M346.805,201.283c0,1.704,1.43,3.085,3.193,3.085c1.764,0,3.193-1.381,3.193-3.085
							c0-1.704-1.43-3.085-3.193-3.085C348.234,198.199,346.805,199.58,346.805,201.283z"/>
						<path style="fill:#EEF5FF;" d="M355.929,201.283c0,1.704,1.43,3.085,3.193,3.085c1.764,0,3.193-1.381,3.193-3.085
							c0-1.704-1.43-3.085-3.193-3.085C357.358,198.199,355.929,199.58,355.929,201.283z"/>
						<path style="fill:#EEF5FF;" d="M365.053,201.283c0,1.704,1.43,3.085,3.193,3.085c1.764,0,3.193-1.381,3.193-3.085
							c0-1.704-1.43-3.085-3.193-3.085C366.482,198.199,365.053,199.58,365.053,201.283z"/>
						<path style="fill:#EEF5FF;" d="M374.177,201.283c0,1.704,1.43,3.085,3.193,3.085c1.764,0,3.193-1.381,3.193-3.085
							c0-1.704-1.43-3.085-3.193-3.085C375.606,198.199,374.177,199.58,374.177,201.283z"/>
					</g>
					<g>
						<path style="fill:#EEF5FF;" d="M346.805,231.458c0,1.704,1.43,3.085,3.193,3.085c1.764,0,3.193-1.381,3.193-3.085
							s-1.43-3.085-3.193-3.085C348.234,228.373,346.805,229.754,346.805,231.458z"/>
						<path style="fill:#EEF5FF;" d="M355.929,231.458c0,1.704,1.43,3.085,3.193,3.085c1.764,0,3.193-1.381,3.193-3.085
							s-1.43-3.085-3.193-3.085C357.358,228.373,355.929,229.754,355.929,231.458z"/>
						<path style="fill:#EEF5FF;" d="M365.053,231.458c0,1.704,1.43,3.085,3.193,3.085c1.764,0,3.193-1.381,3.193-3.085
							s-1.43-3.085-3.193-3.085C366.482,228.373,365.053,229.754,365.053,231.458z"/>
						<path style="fill:#EEF5FF;" d="M374.177,231.458c0,1.704,1.43,3.085,3.193,3.085c1.764,0,3.193-1.381,3.193-3.085
							s-1.43-3.085-3.193-3.085C375.606,228.373,374.177,229.754,374.177,231.458z"/>
					</g>
					<g>
						<path style="fill:#EEF5FF;" d="M346.805,261.632c0,1.704,1.43,3.085,3.193,3.085c1.764,0,3.193-1.381,3.193-3.085
							c0-1.704-1.43-3.085-3.193-3.085C348.234,258.547,346.805,259.928,346.805,261.632z"/>
						<path style="fill:#EEF5FF;" d="M355.929,261.632c0,1.704,1.43,3.085,3.193,3.085c1.764,0,3.193-1.381,3.193-3.085
							c0-1.704-1.43-3.085-3.193-3.085C357.358,258.547,355.929,259.928,355.929,261.632z"/>
						<path style="fill:#EEF5FF;" d="M365.053,261.632c0,1.704,1.43,3.085,3.193,3.085c1.764,0,3.193-1.381,3.193-3.085
							c0-1.704-1.43-3.085-3.193-3.085C366.482,258.547,365.053,259.928,365.053,261.632z"/>
						<path style="fill:#EEF5FF;" d="M374.177,261.632c0,1.704,1.43,3.085,3.193,3.085c1.764,0,3.193-1.381,3.193-3.085
							c0-1.704-1.43-3.085-3.193-3.085C375.606,258.547,374.177,259.928,374.177,261.632z"/>
					</g>
					<g>
						<path style="fill:#EEF5FF;" d="M346.805,291.806c0,1.704,1.43,3.085,3.193,3.085c1.764,0,3.193-1.381,3.193-3.085
							c0-1.704-1.43-3.085-3.193-3.085C348.234,288.721,346.805,290.102,346.805,291.806z"/>
						<path style="fill:#EEF5FF;" d="M355.929,291.806c0,1.704,1.43,3.085,3.193,3.085c1.764,0,3.193-1.381,3.193-3.085
							c0-1.704-1.43-3.085-3.193-3.085C357.358,288.721,355.929,290.102,355.929,291.806z"/>
						<path style="fill:#EEF5FF;" d="M365.053,291.806c0,1.704,1.43,3.085,3.193,3.085c1.764,0,3.193-1.381,3.193-3.085
							c0-1.704-1.43-3.085-3.193-3.085C366.482,288.721,365.053,290.102,365.053,291.806z"/>
						<path style="fill:#EEF5FF;" d="M374.177,291.806c0,1.704,1.43,3.085,3.193,3.085c1.764,0,3.193-1.381,3.193-3.085
							c0-1.704-1.43-3.085-3.193-3.085C375.606,288.721,374.177,290.102,374.177,291.806z"/>
					</g>
					<g>
						<path style="fill:#EEF5FF;" d="M346.805,321.98c0,1.704,1.43,3.085,3.193,3.085c1.764,0,3.193-1.381,3.193-3.085
							c0-1.704-1.43-3.085-3.193-3.085C348.234,318.895,346.805,320.276,346.805,321.98z"/>
						<path style="fill:#EEF5FF;" d="M355.929,321.98c0,1.704,1.43,3.085,3.193,3.085c1.764,0,3.193-1.381,3.193-3.085
							c0-1.704-1.43-3.085-3.193-3.085C357.358,318.895,355.929,320.276,355.929,321.98z"/>
						<path style="fill:#EEF5FF;" d="M365.053,321.98c0,1.704,1.43,3.085,3.193,3.085c1.764,0,3.193-1.381,3.193-3.085
							c0-1.704-1.43-3.085-3.193-3.085C366.482,318.895,365.053,320.276,365.053,321.98z"/>
						<path style="fill:#EEF5FF;" d="M374.177,321.98c0,1.704,1.43,3.085,3.193,3.085c1.764,0,3.193-1.381,3.193-3.085
							c0-1.704-1.43-3.085-3.193-3.085C375.606,318.895,374.177,320.276,374.177,321.98z"/>
					</g>
					<g>
						<path style="fill:#EEF5FF;" d="M346.805,352.154c0,1.704,1.43,3.085,3.193,3.085c1.764,0,3.193-1.381,3.193-3.085
							c0-1.704-1.43-3.085-3.193-3.085C348.234,349.069,346.805,350.45,346.805,352.154z"/>
						<path style="fill:#EEF5FF;" d="M355.929,352.154c0,1.704,1.43,3.085,3.193,3.085c1.764,0,3.193-1.381,3.193-3.085
							c0-1.704-1.43-3.085-3.193-3.085C357.358,349.069,355.929,350.45,355.929,352.154z"/>
						<path style="fill:#EEF5FF;" d="M365.053,352.154c0,1.704,1.43,3.085,3.193,3.085c1.764,0,3.193-1.381,3.193-3.085
							c0-1.704-1.43-3.085-3.193-3.085C366.482,349.069,365.053,350.45,365.053,352.154z"/>
						<path style="fill:#EEF5FF;" d="M374.177,352.154c0,1.704,1.43,3.085,3.193,3.085c1.764,0,3.193-1.381,3.193-3.085
							c0-1.704-1.43-3.085-3.193-3.085C375.606,349.069,374.177,350.45,374.177,352.154z"/>
					</g>
				</g>
			</g>
		</g>
	</g>
</g>
<g id="Background_1" style="display:none;">
	<path style="display:inline;opacity:0.4;fill:#D4E8FF;" d="M328.885,268.966c50.853-20.693,103.174,14.014,120.052-57.617
		c10.082-42.79-9.515-83.622-46.677-113.445c-43.192-34.662-81.17-43.869-129.528-13.807
		c-48.881,30.387-60.893,35.283-116.876,29.893c-87.812-8.455-158.95,98.946-76.484,160.646
		c40.099,30.001,100.796,58.052,150.951,58.741c17.07,0.235,40.22-1.644,54.836-11.959
		C305.614,306.982,301.91,279.942,328.885,268.966z"/>
</g>
<g id="Objects">
	<g>
		<ellipse style="fill:#F0F6FF;" cx="250" cy="416.238" rx="193.889" ry="11.323"/>
		<g>
			<g>
				<g>
					<g>
						<rect x="118.88" y="403.801" style="fill:#0053CC;" width="116.934" height="13.344"/>
						<g style="opacity:0.2;">
							<rect x="121.922" y="405.698" style="fill:#0F264C;" width="2.927" height="9.549"/>
							<rect x="127.064" y="405.698" style="fill:#0F264C;" width="2.927" height="9.549"/>
							<rect x="132.207" y="405.698" style="fill:#0F264C;" width="2.927" height="9.549"/>
							<rect x="137.349" y="405.698" style="fill:#0F264C;" width="2.927" height="9.549"/>
							<rect x="142.491" y="405.698" style="fill:#0F264C;" width="2.927" height="9.549"/>
							<rect x="147.634" y="405.698" style="fill:#0F264C;" width="2.927" height="9.549"/>
							<rect x="152.776" y="405.698" style="fill:#0F264C;" width="2.927" height="9.549"/>
							<rect x="157.918" y="405.698" style="fill:#0F264C;" width="2.927" height="9.549"/>
							<rect x="163.06" y="405.698" style="fill:#0F264C;" width="2.927" height="9.549"/>
							<rect x="168.203" y="405.698" style="fill:#0F264C;" width="2.927" height="9.549"/>
							<rect x="173.345" y="405.698" style="fill:#0F264C;" width="2.927" height="9.549"/>
							<rect x="178.487" y="405.698" style="fill:#0F264C;" width="2.927" height="9.549"/>
							<rect x="183.629" y="405.698" style="fill:#0F264C;" width="2.927" height="9.549"/>
							<rect x="188.772" y="405.698" style="fill:#0F264C;" width="2.927" height="9.549"/>
							<rect x="193.914" y="405.698" style="fill:#0F264C;" width="2.927" height="9.549"/>
							<rect x="199.056" y="405.698" style="fill:#0F264C;" width="2.927" height="9.549"/>
							<rect x="204.198" y="405.698" style="fill:#0F264C;" width="2.927" height="9.549"/>
							<rect x="209.341" y="405.698" style="fill:#0F264C;" width="2.927" height="9.549"/>
							<rect x="214.483" y="405.698" style="fill:#0F264C;" width="2.927" height="9.549"/>
							<rect x="219.625" y="405.698" style="fill:#0F264C;" width="2.927" height="9.549"/>
							<rect x="224.767" y="405.698" style="fill:#0F264C;" width="2.927" height="9.549"/>
							<rect x="229.91" y="405.698" style="fill:#0F264C;" width="2.927" height="9.549"/>
						</g>
						
							<rect x="235.814" y="403.801" transform="matrix(-1 -1.224647e-16 1.224647e-16 -1 489.8692 820.9464)" style="fill:#0050AF;" width="18.242" height="13.344"/>
						<rect x="112.796" y="168.049" style="fill:#4EA4F9;" width="123.018" height="235.752"/>
						<rect x="120.86" y="166.033" style="fill:#0D6AB7;" width="131.215" height="2.016"/>
						<g>
							<rect x="107.918" y="277.904" style="fill:#197BDD;" width="1" height="9.935"/>
							<rect x="107.918" y="291.168" style="fill:#197BDD;" width="1" height="25.832"/>
						</g>
						
							<rect x="235.814" y="168.049" transform="matrix(-1 -1.224647e-16 1.224647e-16 -1 495.9536 571.8506)" style="fill:#197BDD;" width="24.326" height="235.752"/>
					</g>
					<g>
						<path style="opacity:0.6;fill:#0D6AB7;" d="M229.683,253.81H118.927c-1.806,0-3.269-1.464-3.269-3.269v-16.859
							c0-1.805,1.464-3.269,3.269-3.269h110.756c1.805,0,3.269,1.464,3.269,3.269v16.859
							C232.952,252.347,231.488,253.81,229.683,253.81z"/>
						<path style="fill:#197BDD;" d="M223.077,238.962l-4.726-9.767v25.832h4.914h1.335h8.351v-12.916h-4.853
							C225.96,242.112,224.009,240.888,223.077,238.962z"/>
						<rect x="115.658" y="170.874" style="fill:#2B97EF;" width="117.294" height="25.832"/>
						<rect x="115.658" y="375" style="fill:#2B97EF;" width="117.294" height="25.832"/>
						<rect x="115.658" y="345.839" style="fill:#2B97EF;" width="117.294" height="25.832"/>
						<rect x="115.658" y="316.678" style="fill:#2B97EF;" width="117.294" height="25.832"/>
						<rect x="115.658" y="287.517" style="fill:#2B97EF;" width="117.294" height="25.832"/>
						<rect x="115.658" y="258.356" style="fill:#2B97EF;" width="117.294" height="25.832"/>
						<rect x="101.057" y="229.195" style="fill:#2B97EF;" width="117.294" height="25.832"/>
						<rect x="115.658" y="200.035" style="fill:#2B97EF;" width="117.294" height="25.832"/>
					</g>
					<path style="fill:#197BDD;" d="M225.654,193.016h-44.598c-2.073,0-3.768-1.696-3.768-3.768v-10.916
						c0-2.073,1.696-3.768,3.768-3.768h44.598c2.072,0,3.768,1.696,3.768,3.768v10.916
						C229.422,191.32,227.726,193.016,225.654,193.016z"/>
					<path style="opacity:0.2;fill:#FFFFFF;" d="M204.905,184.549v-1.519c0-0.883,0.716-1.598,1.598-1.598h14.451
						c0.883,0,1.598,0.716,1.598,1.598v1.519c0,0.883-0.716,1.598-1.598,1.598h-14.451
						C205.621,186.147,204.905,185.432,204.905,184.549z"/>
					<path style="fill:#197BDD;" d="M225.654,222.177h-44.598c-2.073,0-3.768-1.696-3.768-3.768v-10.916
						c0-2.072,1.696-3.768,3.768-3.768h44.598c2.072,0,3.768,1.696,3.768,3.768v10.916
						C229.422,220.481,227.726,222.177,225.654,222.177z"/>
					<path style="opacity:0.2;fill:#FFFFFF;" d="M204.905,213.71v-1.519c0-0.883,0.716-1.598,1.598-1.598h14.451
						c0.883,0,1.598,0.716,1.598,1.598v1.519c0,0.883-0.716,1.598-1.598,1.598h-14.451
						C205.621,215.308,204.905,214.593,204.905,213.71z"/>
					<path style="fill:#197BDD;" d="M211.054,251.338h-44.598c-2.073,0-3.768-1.696-3.768-3.768v-10.916
						c0-2.073,1.696-3.768,3.768-3.768h44.598c2.072,0,3.768,1.696,3.768,3.768v10.916
						C214.822,249.642,213.126,251.338,211.054,251.338z"/>
					<path style="opacity:0.2;fill:#FFFFFF;" d="M190.305,242.871v-1.519c0-0.883,0.716-1.598,1.598-1.598h14.451
						c0.883,0,1.599,0.716,1.599,1.598v1.519c0,0.883-0.716,1.598-1.599,1.598h-14.451
						C191.02,244.47,190.305,243.754,190.305,242.871z"/>
					<path style="fill:#197BDD;" d="M225.654,280.499h-44.598c-2.073,0-3.768-1.696-3.768-3.768v-10.916
						c0-2.073,1.696-3.768,3.768-3.768h44.598c2.072,0,3.768,1.696,3.768,3.768v10.916
						C229.422,278.803,227.726,280.499,225.654,280.499z"/>
					<path style="opacity:0.2;fill:#FFFFFF;" d="M204.905,272.032v-1.519c0-0.883,0.716-1.598,1.598-1.598h14.451
						c0.883,0,1.598,0.716,1.598,1.598v1.519c0,0.883-0.716,1.598-1.598,1.598h-14.451
						C205.621,273.63,204.905,272.914,204.905,272.032z"/>
					<path style="fill:#197BDD;" d="M225.654,309.66h-44.598c-2.073,0-3.768-1.696-3.768-3.768v-10.916
						c0-2.072,1.696-3.768,3.768-3.768h44.598c2.072,0,3.768,1.696,3.768,3.768v10.916
						C229.422,307.964,227.726,309.66,225.654,309.66z"/>
					<path style="opacity:0.2;fill:#FFFFFF;" d="M204.905,301.193v-1.519c0-0.883,0.716-1.598,1.598-1.598h14.451
						c0.883,0,1.598,0.716,1.598,1.598v1.519c0,0.883-0.716,1.598-1.598,1.598h-14.451
						C205.621,302.791,204.905,302.076,204.905,301.193z"/>
					<path style="fill:#197BDD;" d="M225.654,338.821h-44.598c-2.073,0-3.768-1.696-3.768-3.768v-10.916
						c0-2.073,1.696-3.768,3.768-3.768h44.598c2.072,0,3.768,1.696,3.768,3.768v10.916
						C229.422,337.125,227.726,338.821,225.654,338.821z"/>
					<path style="opacity:0.2;fill:#FFFFFF;" d="M204.905,330.354v-1.519c0-0.883,0.716-1.598,1.598-1.598h14.451
						c0.883,0,1.598,0.716,1.598,1.598v1.519c0,0.883-0.716,1.598-1.598,1.598h-14.451
						C205.621,331.952,204.905,331.237,204.905,330.354z"/>
					<path style="fill:#197BDD;" d="M225.654,367.982h-44.598c-2.073,0-3.768-1.696-3.768-3.768v-10.916
						c0-2.073,1.696-3.768,3.768-3.768h44.598c2.072,0,3.768,1.696,3.768,3.768v10.916
						C229.422,366.286,227.726,367.982,225.654,367.982z"/>
					<path style="opacity:0.2;fill:#FFFFFF;" d="M204.905,359.514v-1.519c0-0.883,0.716-1.598,1.598-1.598h14.451
						c0.883,0,1.598,0.716,1.598,1.598v1.519c0,0.883-0.716,1.598-1.598,1.598h-14.451
						C205.621,361.113,204.905,360.397,204.905,359.514z"/>
					<path style="fill:#197BDD;" d="M225.654,397.143h-44.598c-2.073,0-3.768-1.696-3.768-3.768v-10.916
						c0-2.073,1.696-3.768,3.768-3.768h44.598c2.072,0,3.768,1.696,3.768,3.768v10.916
						C229.422,395.447,227.726,397.143,225.654,397.143z"/>
					<path style="opacity:0.2;fill:#FFFFFF;" d="M204.905,388.676v-1.519c0-0.883,0.716-1.598,1.598-1.598h14.451
						c0.883,0,1.598,0.716,1.598,1.598v1.519c0,0.883-0.716,1.598-1.598,1.598h-14.451
						C205.621,390.274,204.905,389.558,204.905,388.676z"/>
					<g>
						<circle style="fill:#197BDD;" cx="168.222" cy="183.79" r="2.981"/>
						<circle style="fill:#197BDD;" cx="159.704" cy="183.79" r="2.981"/>
						<circle style="fill:#64B9FF;" cx="151.186" cy="183.79" r="2.981"/>
						<path style="fill:#197BDD;" d="M145.649,183.79c0,1.646-1.335,2.981-2.981,2.981c-1.646,0-2.981-1.335-2.981-2.981
							c0-1.646,1.335-2.981,2.981-2.981C144.315,180.809,145.649,182.143,145.649,183.79z"/>
					</g>
					<g>
						<circle style="fill:#197BDD;" cx="168.222" cy="212.951" r="2.981"/>
						<circle style="fill:#197BDD;" cx="159.704" cy="212.951" r="2.981"/>
						<circle style="fill:#197BDD;" cx="151.186" cy="212.951" r="2.981"/>
						<path style="fill:#64B9FF;" d="M145.649,212.951c0,1.646-1.335,2.981-2.981,2.981c-1.646,0-2.981-1.335-2.981-2.981
							c0-1.646,1.335-2.981,2.981-2.981C144.315,209.969,145.649,211.304,145.649,212.951z"/>
					</g>
					<g>
						<circle style="fill:#64B9FF;" cx="153.622" cy="242.111" r="2.981"/>
						<circle style="fill:#197BDD;" cx="145.104" cy="242.111" r="2.981"/>
						<circle style="fill:#64B9FF;" cx="136.586" cy="242.111" r="2.981"/>
						<circle style="fill:#197BDD;" cx="128.068" cy="242.111" r="2.981"/>
					</g>
					<g>
						<circle style="fill:#64B9FF;" cx="168.222" cy="271.272" r="2.981"/>
						<circle style="fill:#64B9FF;" cx="159.704" cy="271.272" r="2.981"/>
						<circle style="fill:#197BDD;" cx="151.186" cy="271.272" r="2.981"/>
						<path style="fill:#197BDD;" d="M145.649,271.272c0,1.646-1.335,2.981-2.981,2.981c-1.646,0-2.981-1.335-2.981-2.981
							s1.335-2.981,2.981-2.981C144.315,268.291,145.649,269.626,145.649,271.272z"/>
					</g>
					<g>
						<circle style="fill:#197BDD;" cx="168.222" cy="300.433" r="2.981"/>
						<circle style="fill:#64B9FF;" cx="159.704" cy="300.433" r="2.981"/>
						<circle style="fill:#197BDD;" cx="151.186" cy="300.433" r="2.981"/>
						<path style="fill:#197BDD;" d="M145.649,300.433c0,1.646-1.335,2.981-2.981,2.981c-1.646,0-2.981-1.335-2.981-2.981
							c0-1.646,1.335-2.981,2.981-2.981C144.315,297.452,145.649,298.787,145.649,300.433z"/>
					</g>
					<g>
						<circle style="fill:#197BDD;" cx="168.222" cy="329.594" r="2.981"/>
						<circle style="fill:#197BDD;" cx="159.704" cy="329.594" r="2.981"/>
						<circle style="fill:#64B9FF;" cx="151.186" cy="329.594" r="2.981"/>
						<path style="fill:#64B9FF;" d="M145.649,329.594c0,1.646-1.335,2.981-2.981,2.981c-1.646,0-2.981-1.335-2.981-2.981
							s1.335-2.981,2.981-2.981C144.315,326.613,145.649,327.948,145.649,329.594z"/>
					</g>
					<g>
						<path style="fill:#64B9FF;" d="M171.203,358.755c0,1.647-1.335,2.981-2.981,2.981s-2.981-1.335-2.981-2.981
							c0-1.646,1.335-2.981,2.981-2.981S171.203,357.109,171.203,358.755z"/>
						<path style="fill:#197BDD;" d="M162.685,358.755c0,1.647-1.335,2.981-2.981,2.981c-1.646,0-2.981-1.335-2.981-2.981
							c0-1.646,1.335-2.981,2.981-2.981C161.351,355.774,162.685,357.109,162.685,358.755z"/>
						<path style="fill:#197BDD;" d="M154.167,358.755c0,1.647-1.335,2.981-2.981,2.981c-1.646,0-2.981-1.335-2.981-2.981
							c0-1.646,1.335-2.981,2.981-2.981C152.833,355.774,154.167,357.109,154.167,358.755z"/>
						<path style="fill:#197BDD;" d="M145.649,358.755c0,1.647-1.335,2.981-2.981,2.981c-1.646,0-2.981-1.335-2.981-2.981
							c0-1.646,1.335-2.981,2.981-2.981C144.315,355.774,145.649,357.109,145.649,358.755z"/>
					</g>
					<g>
						<circle style="fill:#197BDD;" cx="168.222" cy="387.916" r="2.981"/>
						<circle style="fill:#197BDD;" cx="159.704" cy="387.916" r="2.981"/>
						<circle style="fill:#64B9FF;" cx="151.186" cy="387.916" r="2.981"/>
						<path style="fill:#197BDD;" d="M145.649,387.916c0,1.646-1.335,2.981-2.981,2.981c-1.646,0-2.981-1.335-2.981-2.981
							s1.335-2.981,2.981-2.981C144.315,384.935,145.649,386.27,145.649,387.916z"/>
					</g>
					<path style="opacity:0.2;fill:#FFFFFF;" d="M133.744,183.79c0,3.567-2.891,6.458-6.458,6.458c-3.567,0-6.458-2.891-6.458-6.458
						c0-3.567,2.891-6.458,6.458-6.458C130.852,177.332,133.744,180.223,133.744,183.79z"/>
					<path style="opacity:0.2;fill:#FFFFFF;" d="M133.744,212.951c0,3.567-2.891,6.458-6.458,6.458
						c-3.567,0-6.458-2.891-6.458-6.458c0-3.567,2.891-6.458,6.458-6.458C130.852,206.492,133.744,209.384,133.744,212.951z"/>
					<path style="opacity:0.2;fill:#FFFFFF;" d="M119.143,242.111c0,3.567-2.891,6.458-6.458,6.458
						c-3.567,0-6.458-2.891-6.458-6.458c0-3.567,2.891-6.458,6.458-6.458C116.252,235.654,119.143,238.545,119.143,242.111z"/>
					<path style="opacity:0.2;fill:#FFFFFF;" d="M133.744,271.272c0,3.567-2.891,6.458-6.458,6.458
						c-3.567,0-6.458-2.891-6.458-6.458c0-3.567,2.891-6.458,6.458-6.458C130.852,264.814,133.744,267.706,133.744,271.272z"/>
					<path style="opacity:0.2;fill:#FFFFFF;" d="M133.744,300.433c0,3.567-2.891,6.458-6.458,6.458
						c-3.567,0-6.458-2.891-6.458-6.458c0-3.567,2.891-6.458,6.458-6.458C130.852,293.975,133.744,296.867,133.744,300.433z"/>
					<path style="opacity:0.2;fill:#FFFFFF;" d="M133.744,329.594c0,3.567-2.891,6.458-6.458,6.458
						c-3.567,0-6.458-2.891-6.458-6.458s2.891-6.458,6.458-6.458C130.852,323.136,133.744,326.028,133.744,329.594z"/>
					<path style="opacity:0.2;fill:#FFFFFF;" d="M133.744,358.755c0,3.567-2.891,6.458-6.458,6.458
						c-3.567,0-6.458-2.891-6.458-6.458c0-3.567,2.891-6.458,6.458-6.458C130.852,352.297,133.744,355.189,133.744,358.755z"/>
					<path style="opacity:0.2;fill:#FFFFFF;" d="M133.744,387.916c0,3.567-2.891,6.458-6.458,6.458
						c-3.567,0-6.458-2.891-6.458-6.458c0-3.567,2.891-6.458,6.458-6.458C130.852,381.458,133.744,384.349,133.744,387.916z"/>
				</g>
				<g>
					<path style="fill:#197BDD;" d="M222.553,145.477c-0.879-4.954-3.96-9.152-8.19-11.552c-0.002-0.001-0.005-0.002-0.007-0.004
						c0.003-0.131,0.02-0.257,0.02-0.389c0-9.221-7.475-16.696-16.696-16.696h-6.394v1.275c-4.258,1.773-7.622,5.261-9.239,9.602
						c-0.541-0.091-1.093-0.149-1.66-0.149c-4.204,0-7.793,2.602-9.263,6.281c-2.119-0.486-4.429-0.469-6.883,0.517
						c-4.464,1.793-7.627,6.041-7.729,10.852c-0.142,6.712,5.256,12.198,11.936,12.198c0.004,0,0.008-0.001,0.011-0.001h23.588
						h21.614c4.946,0,9.133-3.921,9.162-8.867c0-0.033,0.001-0.066,0.001-0.099C222.822,147.431,222.729,146.439,222.553,145.477z"
						/>
					<path style="fill:#4EA4F9;" d="M216.159,145.477c-0.879-4.954-3.961-9.152-8.19-11.551c-0.002-0.001-0.005-0.003-0.007-0.004
						c0.003-0.13,0.02-0.257,0.02-0.388c0-9.221-7.475-16.696-16.696-16.696c-7.171,0-13.268,4.53-15.633,10.877
						c-0.541-0.091-1.093-0.149-1.66-0.149c-4.204,0-7.793,2.602-9.264,6.281c-2.119-0.486-4.429-0.469-6.883,0.517
						c-4.464,1.793-7.628,6.042-7.729,10.852c-0.142,6.712,5.256,12.198,11.936,12.198c0.004,0,0.008-0.001,0.011-0.001h23.588
						h21.614c4.946,0,9.133-3.921,9.162-8.867c0-0.033,0-0.066,0-0.099C216.428,147.431,216.335,146.438,216.159,145.477z"/>
				</g>
			</g>
			<g>
				<rect x="191.669" y="106.323" style="fill:#0053CC;" width="0.837" height="2.51"/>
				<path style="fill:#0053CC;" d="M353.376,163.342h-0.836v-4.995h0.836V163.342z M353.376,153.353h-0.836v-4.994h0.836V153.353z
					 M353.376,143.364h-0.836v-4.995h0.836V143.364z M353.376,133.375h-0.836v-4.995h0.836V133.375z M353.376,123.386h-0.836v-4.995
					h0.836V123.386z M353.376,113.397h-0.836v-4.995h0.836V113.397z M353.376,103.408h-0.836v-4.994h0.836V103.408z
					 M192.506,101.329h-0.837v-3.44c0-0.535,0.032-1.073,0.094-1.6l0.831,0.099c-0.059,0.494-0.088,0.998-0.088,1.501V101.329z
					 M351.813,93.646c-0.542-1.526-1.362-2.919-2.438-4.139l0.627-0.554c1.147,1.301,2.022,2.786,2.6,4.413L351.813,93.646z
					 M194.055,91.811l-0.734-0.401c0.83-1.516,1.928-2.844,3.264-3.948l0.533,0.645C195.863,89.143,194.832,90.389,194.055,91.811z
					 M345.572,86.566c-1.447-0.731-3.003-1.172-4.622-1.311l0.07-0.834c1.728,0.147,3.386,0.618,4.929,1.397L345.572,86.566z
					 M201.333,85.805l-0.254-0.797c1.324-0.421,2.705-0.635,4.105-0.635h0.951v0.837h-0.951
					C203.871,85.21,202.575,85.41,201.333,85.805z M335.994,85.21h-4.995v-0.837h4.995V85.21z M326.005,85.21h-4.994v-0.837h4.994
					V85.21z M316.016,85.21h-4.994v-0.837h4.994V85.21z M306.026,85.21h-4.994v-0.837h4.994V85.21z M296.038,85.21h-4.995v-0.837
					h4.995V85.21z M286.049,85.21h-4.995v-0.837h4.995V85.21z M276.06,85.21h-4.994v-0.837h4.994V85.21z M266.07,85.21h-4.994
					v-0.837h4.994V85.21z M256.081,85.21h-4.994v-0.837h4.994V85.21z M246.092,85.21h-4.995v-0.837h4.995V85.21z M236.103,85.21
					h-4.994v-0.837h4.994V85.21z M226.114,85.21h-4.995v-0.837h4.995V85.21z M216.125,85.21h-4.995v-0.837h4.995V85.21z"/>
				<rect x="352.54" y="168.364" style="fill:#0053CC;" width="0.836" height="2.51"/>
			</g>
			<g>
				<g>
					<polygon style="fill:#FF8B7B;" points="286.203,409.644 293.55,409.644 294.336,392.632 286.99,392.632 					"/>
					<path style="fill:#14365B;" d="M293.803,408.793h-8.023c-0.3,0-0.553,0.209-0.608,0.502l-1.217,6.53
						c-0.126,0.677,0.411,1.318,1.104,1.307c2.892-0.049,7.068-0.219,10.705-0.219c4.253,0,4.851,0.232,9.839,0.232
						c3.016,0,3.743-3.049,2.471-3.325c-5.792-1.257-7.406-1.392-12.482-4.454C295.042,409.033,294.438,408.793,293.803,408.793z"/>
					<polygon style="fill:#EA7063;" points="294.335,392.636 293.93,401.405 286.581,401.405 286.985,392.636 					"/>
					<path style="fill:#FF8B7B;" d="M335.444,165.12c-0.143,2.307-0.302,4.836-0.371,7.258c-0.06,2.446-0.128,4.883-0.089,7.296
						c0.018,2.407,0.116,4.802,0.322,7.104c0.191,2.301,0.545,4.542,1.057,6.435c0.246,0.951,0.575,1.765,0.866,2.321
						c0.033,0.106,0.241,0.413,0.378,0.639l0.454,0.727c0.291,0.486,0.643,0.969,0.956,1.461c1.309,1.955,2.767,3.894,4.261,5.839
						c3.018,3.854,6.268,7.745,9.478,11.548l-3.826,4.475c-4.469-2.903-8.559-6.111-12.474-9.733
						c-1.954-1.809-3.83-3.734-5.637-5.813c-0.45-0.528-0.909-1.031-1.333-1.601l-0.648-0.835c-0.224-0.299-0.408-0.496-0.689-0.946
						c-1.062-1.604-1.75-3.152-2.281-4.626c-1.059-2.961-1.588-5.768-2.004-8.524c-0.411-2.759-0.592-5.461-0.732-8.148
						c-0.092-2.683-0.134-5.346-0.032-7.995c0.097-2.674,0.209-5.237,0.511-8.009L335.444,165.12z"/>
					<path style="fill:#9FC6FF;" d="M338.04,180.18l-3.12,1.25l-5.25,2.09l-9.32,3.73c0,0-4.25-22.11-1.96-28.83
						c2.52-7.38,11.42-7.21,16.23,1.2C339.3,167.82,338.04,180.18,338.04,180.18z"/>
					<path style="fill:#77B3FC;" d="M334.459,181.613l-4.789,1.907c-0.8-3.47-1.54-9.28,0.83-13.63
						C333.736,172.597,334.239,178.074,334.459,181.613z"/>
					<path style="fill:#9FC6FF;" d="M329.7,212.33h-40.21c-0.29-3.61,0.62-13.39,0.02-26.71c-0.14-3.07-0.36-6.32-0.69-9.73
						c-0.68-7.09-1.86-14.85-3.82-23c0,0,6.85-1.39,13.4-1.7c5.13-0.25,12.56-0.41,17.1,0c5.97,0.54,11.66,2.14,11.66,2.14
						S336.61,170.06,329.7,212.33z"/>
					<path style="fill:#77B3FC;" d="M289.51,185.62c-0.14-3.07-0.36-6.32-0.69-9.73c1.3-0.81,3-0.86,3.35,3.9
						C292.49,184.19,290.95,185.41,289.51,185.62z"/>
					<polygon style="fill:#FF8B7B;" points="364.172,221.107 358.372,224.722 351.206,223.189 356.907,216.116 					"/>
					<path style="fill:#FF8B7B;" d="M350.214,215.041l6.694,1.076l-5.702,7.072c0,0-3.574-0.357-4.545-5.195L350.214,215.041z"/>
					<path style="fill:#FF8B7B;" d="M299.406,131.941c1.276,5.5,2.713,15.576-1.003,19.246c0,0,1.863,3.688,12.082,3.688
						c9.338,0,5.01-3.687,5.01-3.687c-6.185-1.464-6.19-6.014-5.275-10.287L299.406,131.941z"/>
					<path style="fill:#EA7063;" d="M303.815,135.597l6.4,5.299c-0.22,1.011-0.383,2.037-0.418,3.034
						c-1.949,1.898-5.666-2.91-6.002-5.363C303.627,137.342,303.636,136.167,303.815,135.597z"/>
					<path style="fill:#0F264C;" d="M321.239,117.95c2.565,3.183-0.428,13.203-5.73,12.949
						C310.208,130.646,316.381,111.922,321.239,117.95z"/>
					<path style="fill:#FF8B7B;" d="M300.496,122.802c-0.574,7.413-1.288,11.709,1.912,16.126
						c4.814,6.643,14.394,4.877,17.181-2.135c2.508-6.312,3.026-17.375-3.79-21.557C309.084,111.115,301.07,115.389,300.496,122.802
						z"/>
					<path style="fill:#0F264C;" d="M297.823,113.472l8.008,2.833c-3.515,4.697,1.585,15.752-4.615,13.687
						C298.374,129.046,289.107,118.815,297.823,113.472z"/>
					<path style="fill:#0F264C;" d="M301.697,115.389c3.024,2.222,15.313,4.861,22.34,0.944c-1.819-0.389-4.187-1.583-4.187-1.583
						s5.26-0.25,7.593-4.139c-5.014,0.764-8.393-0.667-9.659-1.222c2.292-0.5,4.713-2.862,5.368-4.556
						c-9.712,0.119-30.62,2.083-26.958,8.917C299.856,120.583,301.697,115.389,301.697,115.389z"/>
					<path style="fill:#0F264C;" d="M297.498,114.49c0,0-2.419-1.112-3.951-2.832C293.087,112.806,293.094,115.921,297.498,114.49z"
						/>
					<path style="fill:#FF8B7B;" d="M296.03,130.303c0.811,1.869,2.397,3.221,3.948,3.85c2.333,0.947,3.704-1.039,3.226-3.362
						c-0.43-2.091-2.163-5.103-4.587-5.063C296.229,125.769,295.103,128.166,296.03,130.303z"/>
					<polygon style="fill:#FF8B7B;" points="308.747,409.644 316.093,409.644 317.614,392.632 310.267,392.632 					"/>
					<path style="fill:#14365B;" d="M316.428,408.793h-8.023c-0.3,0-0.553,0.209-0.607,0.502l-1.217,6.53
						c-0.126,0.677,0.411,1.318,1.104,1.307c2.892-0.049,7.068-0.219,10.706-0.219c4.253,0,7.935,0.232,12.922,0.232
						c3.016,0,3.743-3.049,2.471-3.325c-5.792-1.257-10.49-1.392-15.566-4.454C317.667,409.033,317.062,408.793,316.428,408.793z"/>
					<polygon style="fill:#EA7063;" points="317.612,392.636 316.83,401.405 309.48,401.405 310.262,392.636 					"/>
					<path style="fill:#407BFF;" d="M319.499,409.919c0.569,0.089,1.112,0.077,1.484-0.152c0.295-0.182,0.457-0.476,0.479-0.873
						c0.018-0.295-0.121-0.459-0.242-0.545c-0.766-0.549-3.362,0.542-3.656,0.667c-0.065,0.029-0.105,0.094-0.103,0.166
						c0.003,0.07,0.049,0.135,0.116,0.162C318.082,409.552,318.809,409.811,319.499,409.919z M320.796,408.557
						c0.093,0.014,0.168,0.04,0.224,0.08c0.045,0.032,0.094,0.086,0.086,0.224c-0.016,0.283-0.12,0.48-0.318,0.601
						c-0.449,0.278-1.43,0.17-2.667-0.283C319.024,408.826,320.224,408.467,320.796,408.557z"/>
					<path style="fill:#407BFF;" d="M317.619,409.358c0.029,0.005,0.059,0.002,0.087-0.007c0.824-0.296,2.516-1.688,2.459-2.542
						c-0.01-0.154-0.089-0.431-0.507-0.549c-0.273-0.078-0.533-0.04-0.781,0.107c-0.954,0.569-1.394,2.684-1.412,2.773
						c-0.013,0.064,0.01,0.13,0.061,0.173C317.553,409.337,317.585,409.352,317.619,409.358z M319.493,406.584
						c0.026,0.004,0.052,0.011,0.08,0.018c0.227,0.064,0.234,0.173,0.237,0.218c0.034,0.504-1.068,1.584-1.907,2.043
						c0.164-0.613,0.555-1.824,1.166-2.189C319.208,406.591,319.348,406.561,319.493,406.584z"/>
					<path style="fill:#0053CC;" d="M306.708,399.3h11.95c0,0,18.416-70.32,18.06-94.17c-0.343-22.94-7.021-92.8-7.021-92.8h-26.43
						c0,0,2.058,15.54,4.396,34.71c2.087,16.92,4.387,36.69,5.704,51.09c0.384,4.28,0.69,8.08,0.872,11.2
						C315.609,332.75,306.708,399.3,306.708,399.3z"/>
					<path style="fill:#004DAA;" d="M307.663,247.04c2.087,16.92,4.387,36.69,5.704,51.09c2.789-12.57,9.607-49.11-0.616-67.59
						C310.192,234.19,308.628,240.5,307.663,247.04z"/>
					<path style="fill:#0053CC;" d="M315.435,212.333c0,0-0.994,67.366-4.905,88.889c-4.283,23.569-12.804,98.079-12.804,98.079
						h-13.769c0,0,2.008-72.607,4.097-95.942c2.267-25.327,1.435-91.025,1.435-91.025H315.435z"/>
					<polygon style="fill:#0F264C;" points="283.436,399.597 298.27,399.597 299.362,394 282.927,393.542 					"/>
					<polygon style="fill:#0F264C;" points="306.031,399.597 320.864,399.597 321.956,394 305.584,394.285 					"/>
					<path style="fill:#9FC6FF;" d="M289.215,391.166c-0.007,0-0.014-0.001-0.021-0.002c-0.07-0.011-0.12-0.077-0.111-0.147
						c0.091-0.696,1.117-65.853,2.994-86.815c2.037-22.751,0.762-83.113,0.805-83.62c0.006-0.07,0.069-0.116,0.138-0.112
						c0.071,0.008,0.123,0.072,0.117,0.142c-0.042,0.507,1.232,60.87-0.805,83.622c-1.877,20.965-2.904,86.128-2.995,86.825
						C289.33,391.122,289.277,391.166,289.215,391.166z"/>
					<path style="fill:#0F264C;" d="M311.407,126.876c-0.084,0.597,0.167,1.137,0.56,1.206c0.393,0.069,0.779-0.36,0.863-0.957
						c0.084-0.597-0.167-1.137-0.56-1.206C311.877,125.851,311.491,126.279,311.407,126.876z"/>
					<path style="fill:#0F264C;" d="M318.339,127.708c-0.084,0.597,0.167,1.137,0.56,1.206c0.393,0.069,0.779-0.36,0.863-0.957
						c0.084-0.597-0.167-1.137-0.56-1.206C318.809,126.682,318.422,127.111,318.339,127.708z"/>
					<path style="fill:#FF5652;" d="M315.995,127.917c0,0,0.884,3.684,2.155,5.609c-1.201,0.8-2.946,0.033-2.946,0.033
						L315.995,127.917z"/>
					<path style="fill:#0F264C;" d="M313.952,135.955c0.098,0.013,0.185-0.056,0.195-0.153c0.009-0.097-0.062-0.187-0.16-0.2
						c-2.651-0.354-3.707-2.362-3.717-2.382c-0.047-0.089-0.155-0.127-0.24-0.084c-0.087,0.042-0.121,0.148-0.075,0.237
						C310,133.462,311.111,135.575,313.952,135.955z"/>
					<path style="fill:#0F264C;" d="M309.584,122.563c0.105,0.028,0.22,0.009,0.309-0.062c1.221-0.973,2.48-0.558,2.492-0.553
						c0.174,0.067,0.388-0.033,0.445-0.22c0.058-0.186-0.048-0.389-0.236-0.453c-0.066-0.023-1.643-0.545-3.158,0.663
						c-0.151,0.121-0.171,0.344-0.046,0.499C309.442,122.501,309.511,122.544,309.584,122.563z"/>
					<g>
						<path style="fill:#318FFF;" d="M290.915,151.527l1.893-0.165c0.19-0.016,0.367,0.115,0.409,0.302
							c6.301,28.368,4.416,58.483,4.416,58.483h-2.094c0.591-31.249-4.235-54.914-4.941-58.196
							C290.552,151.739,290.7,151.546,290.915,151.527z"/>
						<path style="fill:#0F264C;" d="M295.934,210.824h1.45c0.372,0,0.665-0.304,0.652-0.676l0,0
							c-0.013-0.372-0.329-0.676-0.701-0.676h-1.45c-0.372,0-0.665,0.304-0.652,0.676l0,0
							C295.247,210.52,295.562,210.824,295.934,210.824z"/>
						<path style="fill:#0F264C;" d="M297.607,212.587l-0.068-1.897c-0.018-0.487-0.43-0.885-0.917-0.885l0,0
							c-0.487,0-0.87,0.398-0.853,0.885l0.068,1.897c0.017,0.487,0.43,0.885,0.917,0.885l0,0
							C297.24,213.472,297.624,213.074,297.607,212.587z"/>
					</g>
					<path style="fill:#0F264C;" d="M321.474,124.115c0.051,0.009,0.105,0.007,0.158-0.01c0.185-0.055,0.286-0.255,0.226-0.446
						c-0.602-1.911-2.167-2.409-2.233-2.429c-0.181-0.063-0.381,0.05-0.432,0.241c-0.051,0.19,0.06,0.39,0.246,0.448l0,0
						c0.052,0.016,1.268,0.418,1.749,1.943C321.23,123.997,321.345,124.092,321.474,124.115z"/>
					<path style="fill:#FF8B7B;" d="M289.526,164.76c-1.149,4.713-2.302,9.615-3.33,14.381c-0.491,2.394-0.972,4.773-1.346,7.113
						c-0.347,2.316-0.657,4.651-0.633,6.548c0.058,3.847,1.456,7.662,4.073,11.137c1.293,1.734,2.852,3.377,4.578,4.896
						c0.861,0.763,1.761,1.507,2.703,2.195c0.47,0.345,0.949,0.681,1.433,1.001c0.46,0.32,1.007,0.668,1.383,0.91l-2.182,5.469
						c-0.798-0.244-1.395-0.447-2.071-0.696c-0.649-0.253-1.287-0.523-1.921-0.806c-1.266-0.568-2.507-1.197-3.721-1.899
						c-2.411-1.426-4.717-3.13-6.804-5.191c-2.085-2.055-3.943-4.481-5.362-7.241c-1.404-2.756-2.36-5.843-2.697-8.978
						c-0.293-3.178-0.199-5.931,0.026-8.658c0.237-2.704,0.569-5.342,0.997-7.945c0.847-5.221,1.965-10.231,3.4-15.344
						L289.526,164.76z"/>
					<path style="fill:#9FC6FF;" d="M285.005,152.887c-7.956,1.426-12.453,22.669-12.453,22.669l19.657,7.035
						c0,0,1.499-6.955,0.024-16.174C290.787,157.372,292.546,151.535,285.005,152.887z"/>
					<g>
						<path style="fill:#318FFF;" d="M322.762,151.908l1.892,0.355c0.157,0.029,0.283,0.156,0.311,0.314
							c5.001,28.382,1.683,57.571,1.683,57.571h-2.094c2.018-30.892-1.594-54.163-2.211-57.83
							C322.3,152.069,322.513,151.861,322.762,151.908z"/>
						<path style="fill:#0F264C;" d="M324.916,210.824h1.45c0.372,0,0.679-0.304,0.683-0.676l0,0
							c0.004-0.372-0.297-0.676-0.669-0.676h-1.45c-0.372,0-0.679,0.304-0.683,0.676l0,0
							C324.244,210.52,324.545,210.824,324.916,210.824z"/>
						<path style="fill:#0F264C;" d="M326.508,212.587l0.02-1.897c0.005-0.487-0.389-0.885-0.875-0.885l0,0
							c-0.487,0-0.889,0.398-0.894,0.885l-0.02,1.897c-0.005,0.487,0.389,0.885,0.875,0.885l0,0
							C326.1,213.472,326.503,213.074,326.508,212.587z"/>
					</g>
					<path style="fill:#407BFF;" d="M296.875,409.919c0.569,0.089,1.112,0.077,1.484-0.152c0.295-0.182,0.457-0.476,0.479-0.873
						c0.018-0.295-0.121-0.459-0.242-0.545c-0.766-0.549-3.362,0.542-3.656,0.667c-0.065,0.029-0.105,0.094-0.103,0.166
						c0.003,0.07,0.049,0.135,0.116,0.162C295.457,409.552,296.185,409.811,296.875,409.919z M298.172,408.557
						c0.093,0.014,0.168,0.04,0.224,0.08c0.045,0.032,0.094,0.086,0.086,0.224c-0.016,0.283-0.12,0.48-0.318,0.601
						c-0.449,0.278-1.43,0.17-2.667-0.283C296.399,408.826,297.6,408.467,298.172,408.557z"/>
					<path style="fill:#407BFF;" d="M294.994,409.358c0.029,0.005,0.059,0.002,0.087-0.007c0.824-0.296,2.516-1.688,2.459-2.542
						c-0.01-0.154-0.09-0.431-0.507-0.549c-0.273-0.078-0.533-0.04-0.781,0.107c-0.954,0.569-1.394,2.684-1.412,2.773
						c-0.013,0.064,0.01,0.13,0.061,0.173C294.928,409.337,294.96,409.352,294.994,409.358z M296.869,406.584
						c0.026,0.004,0.052,0.011,0.08,0.018c0.227,0.064,0.234,0.173,0.237,0.218c0.034,0.504-1.068,1.584-1.907,2.043
						c0.164-0.613,0.554-1.824,1.166-2.189C296.583,406.591,296.723,406.561,296.869,406.584z"/>
					<path style="fill:#FF8B7B;" d="M292.447,216.963l2.302-4.184l6.313,0.221l4.907,2.041l3.343,4.92l-8.585-0.525
						C300.727,219.436,295.474,220.929,292.447,216.963z"/>
					<polygon style="fill:#77B3FC;" points="309.868,154.87 308.364,153.806 305.347,156.813 					"/>
					<path style="fill:#318FFF;" d="M308.364,153.806c0,0-2.454,3.611-2.86,6.222c-3.129-1.278-9.07-4.48-10.01-9
						c1.186-0.242,3.133-1.5,3.133-1.5S301.833,152.167,308.364,153.806z"/>
					<polygon style="fill:#77B3FC;" points="309.868,154.87 310.429,153.643 314.583,156.813 					"/>
					<path style="fill:#318FFF;" d="M310.429,153.643c0,0,2.687,2.343,3.177,5.753c3.038-1.278,4.096-5.451,3.191-8.229
						c-1.713-0.802-3.696-1.198-3.696-1.198S313.517,152.667,310.429,153.643z"/>
				</g>
				<g>
					<polygon style="fill:#318FFF;" points="382.446,183.435 319.48,181.209 310.372,218.022 373.339,220.247 					"/>
					<polygon style="fill:#0F264C;" points="384.384,183.503 321.418,181.277 312.311,218.09 375.277,220.316 					"/>
					<polygon style="fill:#0F264C;" points="375.277,220.316 375.023,222.36 312.054,220.134 312.307,218.09 					"/>
					<polygon style="fill:#318FFF;" points="312.307,218.09 312.054,220.134 287.34,219.26 287.593,217.216 					"/>
				</g>
			</g>
		</g>
	</g>
</g>
<g id="Designed_by_Freepik">
	<g>
		<g>
			<g id="XMLID_197_">
				<g id="XMLID_216_">
					<path id="XMLID_224_" style="fill:#A5B7C6;" d="M261.442,464.892c-0.49,0.502-0.91,1.054-1.255,1.646l-0.527-0.273
						c-0.076-0.337-0.396-0.569-0.746-0.528c-0.375,0.044-0.643,0.384-0.599,0.759c0.044,0.375,0.384,0.643,0.758,0.599
						c0.074-0.009,0.144-0.029,0.208-0.059l0.511,0.265c-0.284,0.627-0.49,1.289-0.611,1.975l0.845,0.149
						c0.26-1.479,0.962-2.839,2.029-3.932L261.442,464.892z"/>
					<path id="XMLID_223_" style="fill:#A5B7C6;" d="M267.656,462.285c-0.194,0-0.386,0.007-0.577,0.019l-0.083-0.709
						c0.212-0.169,0.335-0.44,0.301-0.73c-0.052-0.445-0.456-0.763-0.901-0.711c-0.445,0.052-0.763,0.455-0.711,0.901
						c0.034,0.288,0.214,0.522,0.458,0.638l0.083,0.707c-0.808,0.132-1.589,0.376-2.332,0.732l0.37,0.774
						c1.058-0.506,2.199-0.762,3.392-0.762c0.562,0,1.124,0.06,1.67,0.178l0.182-0.839
						C268.903,462.352,268.279,462.285,267.656,462.285z"/>
					<path id="XMLID_222_" style="fill:#A5B7C6;" d="M275.133,465.17c0.375-0.046,0.641-0.387,0.595-0.761
						c-0.046-0.375-0.387-0.641-0.761-0.595c-0.35,0.043-0.606,0.344-0.6,0.689l-0.471,0.411c-0.473-0.487-1.007-0.92-1.594-1.29
						l-0.458,0.726c1.284,0.809,2.288,1.955,2.903,3.313l0.782-0.354c-0.284-0.627-0.643-1.214-1.067-1.75l0.455-0.397
						C274.986,465.175,275.059,465.179,275.133,465.17z"/>
					<path id="XMLID_221_" style="fill:#A5B7C6;" d="M267.036,473.845c-0.437,0.026-0.878,0.039-1.31,0.039
						c-0.997,0-1.962-0.069-2.807-0.203c-0.442-0.07-0.958-0.176-1.438-0.331c1.185,2.107,3.476,3.539,6.102,3.539
						c3.233,0,5.959-2.17,6.737-5.1c-0.772,0.509-1.705,0.935-2.784,1.271C270.201,473.478,268.643,473.749,267.036,473.845z"/>
					<path id="XMLID_217_" style="fill:#A5B7C6;" d="M267.656,464.002c-3.796,0-6.884,3.019-6.884,6.73
						c0,0.482,0.052,0.962,0.155,1.428c0.763,0.547,3.064,1.008,6.055,0.828c3.261-0.196,5.998-1.084,7.556-2.444
						c-0.006-0.221-0.023-0.442-0.051-0.659C274.056,466.531,271.12,464.002,267.656,464.002z M265.211,471.38
						c-1.155,0-2.095-0.94-2.095-2.095c0-1.155,0.94-2.095,2.095-2.095c1.155,0,2.095,0.94,2.095,2.095
						C267.306,470.44,266.366,471.38,265.211,471.38z M270.576,470.351c-0.849,0-1.54-0.691-1.54-1.54
						c0-0.849,0.691-1.541,1.54-1.541c0.849,0,1.541,0.691,1.541,1.541C272.116,469.66,271.425,470.351,270.576,470.351z"/>
				</g>
				<path id="XMLID_214_" style="fill:#A5B7C6;" d="M285.779,466.116c-0.334-0.131-0.912-0.35-1.565-0.269
					c-0.624,0.078-0.956,0.386-0.956,1.14v0.981h2.523v1.945h-2.523v6.177h-2.188v-6.177h-1.517v-1.945h1.517v-1.006
					c0-1.902,1.014-3.151,2.908-3.151c0.728,0,1.31,0.138,1.8,0.349L285.779,466.116z"/>
				<path id="XMLID_212_" style="fill:#A5B7C6;" d="M291.104,469.89c-0.2-0.034-0.405-0.052-0.596-0.052
					c-1.014,0-1.71,0.62-1.71,1.827v4.425h-2.188v-8.122h2.12v0.888c0.511-0.763,1.291-1.106,2.288-1.106
					c0.469,0,0.96,0.144,1.239,0.381L291.104,469.89z"/>
				<path id="XMLID_209_" style="fill:#A5B7C6;" d="M299.786,472.017c0,0.251-0.017,0.553-0.042,0.738h-5.758
					c0.235,1.173,1.056,1.685,2.087,1.685c0.704,0,1.467-0.285,2.053-0.779l1.282,1.408c-0.922,0.846-2.095,1.232-3.461,1.232
					c-2.489,0-4.216-1.693-4.216-4.249c0-2.556,1.676-4.3,4.107-4.3C298.177,467.75,299.778,469.485,299.786,472.017z
					 M293.995,471.262h3.595c-0.201-1.039-0.83-1.626-1.768-1.626C294.791,469.636,294.187,470.257,293.995,471.262z"/>
				<path id="XMLID_206_" style="fill:#A5B7C6;" d="M308.453,472.017c0,0.251-0.017,0.553-0.042,0.738h-5.758
					c0.235,1.173,1.056,1.685,2.087,1.685c0.704,0,1.467-0.285,2.053-0.779l1.282,1.408c-0.922,0.846-2.095,1.232-3.461,1.232
					c-2.489,0-4.216-1.693-4.216-4.249c0-2.556,1.676-4.3,4.107-4.3C306.843,467.75,308.444,469.485,308.453,472.017z
					 M302.661,471.262h3.596c-0.201-1.039-0.83-1.626-1.768-1.626C303.457,469.636,302.854,470.257,302.661,471.262z"/>
				<path id="XMLID_203_" style="fill:#A5B7C6;" d="M317.903,472.025c0,2.439-1.693,4.275-3.931,4.275
					c-1.09,0-1.861-0.428-2.389-1.056v4.199h-2.179v-11.474h2.137v0.897c0.528-0.662,1.307-1.115,2.422-1.115
					C316.21,467.75,317.903,469.586,317.903,472.025z M311.475,472.025c0,1.282,0.846,2.238,2.087,2.238
					c1.291,0,2.095-0.997,2.095-2.238c0-1.24-0.805-2.238-2.095-2.238C312.321,469.787,311.475,470.742,311.475,472.025z"/>
				<path id="XMLID_200_" style="fill:#A5B7C6;" d="M321.418,465.311c0,0.788-0.612,1.391-1.4,1.391
					c-0.788,0-1.391-0.603-1.391-1.391c0-0.788,0.604-1.408,1.391-1.408C320.806,463.903,321.418,464.524,321.418,465.311z
					 M321.124,476.09h-2.188v-8.122h2.188V476.09z"/>
				<path id="XMLID_198_" style="fill:#A5B7C6;" d="M324.775,470.86l3.059-2.892h2.682l-3.939,3.822l3.964,4.3h-2.69l-3.076-3.285
					v3.285h-2.188v-12.069h2.188V470.86z"/>
			</g>
			<g>
				<path style="fill:#A5B7C6;" d="M175.729,476.016v-1.194c-0.597,0.813-1.576,1.393-2.704,1.393c-2.09,0-3.566-1.592-3.566-4.196
					c0-2.555,1.46-4.213,3.566-4.213c1.078,0,2.057,0.531,2.704,1.41v-4.263h1.244v11.064H175.729z M175.729,473.843v-3.633
					c-0.448-0.697-1.41-1.294-2.405-1.294c-1.609,0-2.571,1.327-2.571,3.102c0,1.775,0.962,3.085,2.571,3.085
					C174.319,475.104,175.281,474.54,175.729,473.843z"/>
				<path style="fill:#A5B7C6;" d="M178.582,472.002c0-2.322,1.659-4.197,3.948-4.197c2.422,0,3.848,1.891,3.848,4.296v0.316h-6.486
					c0.1,1.509,1.161,2.77,2.886,2.77c0.912,0,1.841-0.365,2.471-1.012l0.597,0.813c-0.796,0.796-1.874,1.227-3.185,1.227
					C180.29,476.215,178.582,474.507,178.582,472.002z M182.513,468.834c-1.709,0-2.555,1.443-2.621,2.67h5.258
					C185.134,470.31,184.337,468.834,182.513,468.834z"/>
				<path style="fill:#A5B7C6;" d="M187.273,474.955l0.647-0.895c0.531,0.614,1.543,1.145,2.637,1.145
					c1.228,0,1.891-0.581,1.891-1.377c0-1.94-4.96-0.746-4.96-3.716c0-1.244,1.078-2.306,2.985-2.306
					c1.36,0,2.323,0.514,2.969,1.161l-0.581,0.863c-0.481-0.581-1.36-1.012-2.389-1.012c-1.095,0-1.775,0.547-1.775,1.261
					c0,1.758,4.96,0.597,4.96,3.716c0,1.344-1.078,2.422-3.151,2.422C189.197,476.215,188.086,475.817,187.273,474.955z"/>
				<path style="fill:#A5B7C6;" d="M195.053,466.031c0-0.464,0.382-0.846,0.829-0.846c0.465,0,0.846,0.381,0.846,0.846
					c0,0.465-0.381,0.829-0.846,0.829C195.434,466.86,195.053,466.495,195.053,466.031z M195.268,476.016v-8.012h1.244v8.012
					H195.268z"/>
				<path style="fill:#A5B7C6;" d="M198.569,478.073l0.63-0.929c0.663,0.796,1.46,1.095,2.604,1.095
					c1.327,0,2.571-0.647,2.571-2.405v-1.145c-0.581,0.813-1.559,1.427-2.687,1.427c-2.09,0-3.566-1.559-3.566-4.147
					c0-2.571,1.46-4.163,3.566-4.163c1.078,0,2.04,0.531,2.687,1.41v-1.211h1.244v7.78c0,2.654-1.858,3.483-3.815,3.483
					C200.443,479.267,199.514,479.002,198.569,478.073z M204.374,473.711v-3.5c-0.432-0.697-1.393-1.294-2.389-1.294
					c-1.609,0-2.571,1.277-2.571,3.052c0,1.758,0.962,3.052,2.571,3.052C202.981,475.021,203.943,474.408,204.374,473.711z"/>
				<path style="fill:#A5B7C6;" d="M213.099,476.016v-5.242c0-1.41-0.713-1.858-1.791-1.858c-0.979,0-1.908,0.597-2.372,1.244v5.855
					h-1.244v-8.012h1.244v1.161c0.564-0.663,1.658-1.36,2.853-1.36c1.675,0,2.555,0.846,2.555,2.588v5.623H213.099z"/>
				<path style="fill:#A5B7C6;" d="M215.952,472.002c0-2.322,1.659-4.197,3.948-4.197c2.422,0,3.848,1.891,3.848,4.296v0.316h-6.486
					c0.099,1.509,1.161,2.77,2.886,2.77c0.912,0,1.841-0.365,2.472-1.012l0.597,0.813c-0.796,0.796-1.874,1.227-3.185,1.227
					C217.66,476.215,215.952,474.507,215.952,472.002z M219.883,468.834c-1.708,0-2.555,1.443-2.621,2.67h5.258
					C222.503,470.31,221.707,468.834,219.883,468.834z"/>
				<path style="fill:#A5B7C6;" d="M231.146,476.016v-1.194c-0.597,0.813-1.576,1.393-2.704,1.393c-2.09,0-3.566-1.592-3.566-4.196
					c0-2.555,1.46-4.213,3.566-4.213c1.078,0,2.057,0.531,2.704,1.41v-4.263h1.244v11.064H231.146z M231.146,473.843v-3.633
					c-0.448-0.697-1.41-1.294-2.405-1.294c-1.609,0-2.571,1.327-2.571,3.102c0,1.775,0.962,3.085,2.571,3.085
					C229.736,475.104,230.697,474.54,231.146,473.843z"/>
				<path style="fill:#A5B7C6;" d="M238.327,476.016v-11.064h1.244v4.263c0.647-0.879,1.609-1.41,2.704-1.41
					c2.09,0,3.566,1.659,3.566,4.213c0,2.604-1.476,4.196-3.566,4.196c-1.128,0-2.107-0.581-2.704-1.393v1.194H238.327z
					 M241.96,475.104c1.626,0,2.588-1.31,2.588-3.085c0-1.775-0.962-3.102-2.588-3.102c-0.979,0-1.957,0.597-2.388,1.294v3.633
					C240.003,474.54,240.981,475.104,241.96,475.104z"/>
				<path style="fill:#A5B7C6;" d="M247.201,478.023c0.182,0.083,0.481,0.133,0.68,0.133c0.547,0,0.912-0.182,1.194-0.846
					l0.531-1.211l-3.351-8.095h1.344l2.671,6.569l2.654-6.569h1.36l-4.014,9.637c-0.481,1.161-1.294,1.609-2.356,1.625
					c-0.265,0-0.68-0.05-0.912-0.116L247.201,478.023z"/>
			</g>
		</g>
	</g>
</g>
</svg>
