<?xml version="1.0" encoding="utf-8"?>
<!-- Generator: Adobe Illustrator 27.5.0, SVG Export Plug-In . SVG Version: 6.00 Build 0)  -->
<svg version="1.1" xmlns="http://www.w3.org/2000/svg" xmlns:xlink="http://www.w3.org/1999/xlink" x="0px" y="0px"
	 viewBox="0 0 500 500" style="enable-background:new 0 0 500 500;" xml:space="preserve">
<g id="BACKGROUND">
	<rect style="fill:#FFFFFF;" width="500" height="500"/>
</g>
<g id="OBJECTS">
	<g>
		<g>
			<g>
				<path style="fill:#6F93FF;" d="M111.822,229.636c0.247-3.927,0.037-7.888-0.624-11.779c-0.438-2.578-1.454-5.553-3.966-6.314
					c-1.756-0.532-3.678,0.298-4.934,1.605c-1.256,1.307-1.221,4.705-5.246,4.062c-4.025-0.643-3.147-9.637-6.004-14.774
					c-0.734-1.319-1.516-2.692-2.78-3.522c-1.264-0.83-3.161-0.902-4.103,0.254c-0.87,1.067-0.619,2.682-1.247,3.908
					c-1.076,2.102-4.256,2.118-6.268,0.822c-2.012-1.296-3.291-3.438-4.944-5.169c-3.924-4.109-11.528-7.322-15.604-4.044
					c-4.077,3.279-2.457,11.36,0.781,16.023c1.364,1.964,3.21,3.649,4.073,5.873c0.863,2.225,0.196,5.318-2.093,5.934
					c-1.335,0.36-2.873-0.215-4.101,0.413c-1.33,0.681-1.648,2.542-1.09,3.943c0.558,1.401,1.748,2.444,2.896,3.428
					c4.468,3.834,19.525,6.069,19.036,9.573c-0.49,3.504-9.258,2.621-10.802,3.576c-1.543,0.955-2.753,2.657-2.59,4.475
					c0.234,2.602,2.953,4.201,5.399,5.155c3.693,1.441,7.547,2.457,11.461,3.021c1.581,0.228,3.234,0.404,4.593,1.256
					c1.358,0.853,2.3,2.635,1.631,4.07c-1.043,2.24-4.565,1.683-6.422,3.311c-1.626,1.425-1.391,4.193-0.037,5.915
					c1.354,1.723,3.299,2.645,5.378,3.329c12.195,4.01,25.893,2.973,37.872,2.052l0.027,0.214c-0.001-0.006-0.013,0.014-0.01,0.014
					c0.007-0.001,0.012-0.001,0.012-0.001l-0.006-0.049c4.493-12.302,7.442-24.905,5.995-37.601
					c-0.247-2.164-0.596-4.489-2.014-6.16c-1.418-1.672-4.044-2.498-5.78-1.206c-1.982,1.474-2.132,5.002-4.549,5.559
					c-1.549,0.357-3.097-0.933-3.658-2.43C111.544,232.876,111.722,231.223,111.822,229.636z"/>
				<g>
					<g>
						<path style="fill:#FFDB82;" d="M76.223,217.986c20.508,23.317,39.12,48.204,55.69,74.467c0.508,0.805,1.792,0.062,1.281-0.749
							c-16.636-26.368-35.331-51.356-55.922-74.767C76.64,216.219,75.594,217.271,76.223,217.986L76.223,217.986z"/>
					</g>
				</g>
				<g>
					<g>
						<path style="fill:#FFDB82;" d="M115.964,266.749c-7.357,0.557-14.583,0.03-21.783-1.604c-0.929-0.211-1.326,1.219-0.394,1.43
							c7.326,1.662,14.681,2.225,22.178,1.657C116.909,268.16,116.917,266.677,115.964,266.749L115.964,266.749z"/>
					</g>
				</g>
				<g>
					<g>
						<path style="fill:#FFDB82;" d="M101.853,247.452c-7.272,0.677-14.318-0.438-21.01-3.373c-0.866-0.38-1.622,0.898-0.749,1.281
							c6.943,3.045,14.204,4.278,21.759,3.576C102.795,248.848,102.805,247.363,101.853,247.452L101.853,247.452z"/>
					</g>
				</g>
				<g>
					<g>
						<path style="fill:#FFDB82;" d="M88.897,231.299c-5.285,0-10.351-0.953-15.282-2.839c-0.892-0.341-1.278,1.092-0.394,1.43
							c5.062,1.936,10.26,2.892,15.676,2.892C89.851,232.782,89.853,231.299,88.897,231.299L88.897,231.299z"/>
					</g>
				</g>
				<g>
					<g>
						<path style="fill:#FFDB82;" d="M117.006,267.688c2.746-6.516,4.409-13.238,5.075-20.272c0.09-0.95-1.394-0.944-1.483,0
							c-0.654,6.901-2.332,13.495-5.022,19.878C115.206,268.172,116.64,268.556,117.006,267.688L117.006,267.688z"/>
					</g>
				</g>
				<g>
					<g>
						<path style="fill:#FFDB82;" d="M102.411,248.058c2.317-6.215,3.451-12.583,3.457-19.21c0.001-0.954-1.482-0.956-1.483,0
							c-0.006,6.495-1.138,12.736-3.404,18.816C100.647,248.559,102.08,248.946,102.411,248.058L102.411,248.058z"/>
					</g>
				</g>
				<g>
					<g>
						<path style="fill:#FFDB82;" d="M89.628,232.121c1.535-5.369,1.598-10.796,0.232-16.208c-0.233-0.925-1.664-0.533-1.43,0.394
							c1.306,5.176,1.236,10.285-0.232,15.42C87.935,232.646,89.366,233.038,89.628,232.121L89.628,232.121z"/>
					</g>
				</g>
			</g>
			<g>
				<path style="fill:#7DC1A3;" d="M83.474,275.689c-1.856-3.469-4.119-6.727-6.729-9.688c-1.729-1.962-4.159-3.957-6.695-3.282
					c-1.773,0.472-2.971,2.189-3.351,3.961c-0.38,1.772,1.438,4.643-2.323,6.215c-3.761,1.572-7.747-6.539-12.879-9.403
					c-1.318-0.736-2.706-1.491-4.217-1.532c-1.512-0.041-3.162,0.896-3.355,2.375c-0.179,1.365,0.884,2.606,0.996,3.98
					c0.192,2.354-2.504,4.041-4.897,3.997c-2.393-0.044-4.608-1.192-6.924-1.794c-5.499-1.429-13.656-0.161-15.397,4.772
					c-1.741,4.933,3.888,10.953,9.096,13.214c2.194,0.952,4.65,1.414,6.554,2.851c1.904,1.438,2.965,4.419,1.343,6.148
					c-0.946,1.009-2.556,1.329-3.27,2.509c-0.773,1.279-0.064,3.029,1.148,3.927c1.211,0.898,2.772,1.158,4.266,1.392
					c5.817,0.909,19.797-5.113,21.224-1.877c1.427,3.237-6.494,7.1-7.304,8.725c-0.81,1.624-0.943,3.708,0.152,5.168
					c1.568,2.089,4.721,2.019,7.304,1.543c3.899-0.718,7.711-1.882,11.336-3.462c1.465-0.638,2.963-1.359,4.566-1.349
					c1.604,0.01,3.342,1.03,3.529,2.602c0.291,2.454-2.996,3.834-3.718,6.194c-0.632,2.068,1.023,4.297,3.081,5.05
					c2.058,0.753,4.197,0.513,6.324,0.001c12.48-3.007,23.583-11.097,33.285-18.183l0.136,0.168
					c-0.004-0.005-0.003,0.019-0.001,0.017c0.005-0.004,0.009-0.008,0.009-0.008l-0.031-0.039
					c-2.653-12.825-6.777-25.094-14.688-35.129c-1.348-1.71-2.869-3.503-4.954-4.179c-2.085-0.675-4.753,0.004-5.55,2.015
					c-0.909,2.297,0.819,5.375-0.943,7.121c-1.129,1.119-3.124,0.837-4.389-0.142C84.943,278.59,84.225,277.091,83.474,275.689z"/>
				<g>
					<g>
						<path style="fill:#FFDB82;" d="M47.045,284.508c29.708,9.037,58.632,20.398,86.542,34.01c0.854,0.417,1.607-0.862,0.749-1.281
							c-28.023-13.668-57.066-25.086-86.896-34.16C46.524,282.799,46.133,284.23,47.045,284.508L47.045,284.508z"/>
					</g>
				</g>
				<g>
					<g>
						<path style="fill:#FFDB82;" d="M106.542,305.059c-5.958,4.356-12.384,7.715-19.372,10.105c-0.898,0.307-0.512,1.74,0.394,1.43
							c7.09-2.425,13.674-5.831,19.726-10.255C108.053,305.782,107.314,304.494,106.542,305.059L106.542,305.059z"/>
					</g>
				</g>
				<g>
					<g>
						<path style="fill:#FFDB82;" d="M84.388,296.075c-5.873,4.457-12.537,7.205-19.836,8.224c-0.941,0.131-0.541,1.561,0.394,1.43
							c7.424-1.036,14.217-3.841,20.19-8.373C85.888,296.786,85.15,295.497,84.388,296.075L84.388,296.075z"/>
					</g>
				</g>
				<g>
					<g>
						<path style="fill:#FFDB82;" d="M64.871,289.157c-4.489,2.789-9.304,4.651-14.493,5.634c-0.937,0.177-0.54,1.607,0.394,1.43
							c5.304-1.004,10.264-2.935,14.847-5.783C66.429,289.935,65.685,288.651,64.871,289.157L64.871,289.157z"/>
					</g>
				</g>
				<g>
					<g>
						<path style="fill:#FFDB82;" d="M107.91,305.33c-1.086-6.971-3.212-13.589-6.346-19.905c-0.424-0.855-1.704-0.105-1.281,0.749
							c3.083,6.215,5.129,12.699,6.196,19.551C106.626,306.665,108.055,306.266,107.91,305.33L107.91,305.33z"/>
					</g>
				</g>
				<g>
					<g>
						<path style="fill:#FFDB82;" d="M85.169,296.318c-1.284-6.482-3.682-12.536-7.162-18.15c-0.502-0.81-1.786-0.066-1.281,0.749
							c3.421,5.519,5.751,11.429,7.012,17.796C83.924,297.648,85.354,297.252,85.169,296.318L85.169,296.318z"/>
					</g>
				</g>
				<g>
					<g>
						<path style="fill:#FFDB82;" d="M65.913,289.492c-1.487-5.351-4.309-10.052-8.315-13.897c-0.689-0.661-1.739,0.386-1.049,1.049
							c3.834,3.68,6.51,8.12,7.934,13.242C64.738,290.805,66.169,290.415,65.913,289.492L65.913,289.492z"/>
					</g>
				</g>
			</g>
			<g>
				<path style="fill:#7DC1A3;" d="M419.906,265.67c3.901-0.514,7.747-1.484,11.438-2.882c2.445-0.926,5.169-2.497,5.431-5.108
					c0.183-1.825-1.001-3.552-2.526-4.532c-1.525-0.98-4.852-0.291-4.997-4.365c-0.145-4.074,8.85-4.945,13.34-8.738
					c1.153-0.974,2.349-2.006,2.92-3.406c0.571-1.4,0.276-3.275-1.04-3.977c-1.215-0.648-2.751-0.091-4.076-0.47
					c-2.27-0.65-2.899-3.768-2.014-5.992c0.884-2.224,2.74-3.892,4.119-5.847c3.276-4.643,4.964-12.723,0.961-16.091
					c-4.003-3.369-11.621-0.222-15.572,3.855c-1.664,1.717-2.962,3.853-4.978,5.128c-2.016,1.275-5.181,1.217-6.227-0.91
					c-0.61-1.241-0.342-2.861-1.196-3.944c-0.924-1.174-2.812-1.127-4.079-0.31c-1.267,0.817-2.061,2.186-2.806,3.502
					c-2.901,5.123-2.193,20.329-5.725,20.524c-3.533,0.194-4.356-8.58-5.59-9.911c-1.234-1.33-3.138-2.19-4.89-1.679
					c-2.508,0.731-3.553,3.707-4.018,6.292c-0.702,3.902-0.956,7.879-0.755,11.828c0.081,1.596,0.227,3.251-0.347,4.749
					c-0.575,1.497-2.142,2.765-3.679,2.385c-2.399-0.592-2.531-4.155-4.486-5.663c-1.712-1.321-4.382-0.557-5.812,1.103
					c-1.43,1.661-1.959,3.747-2.23,5.918c-1.585,12.739,2.072,25.98,5.284,37.558l-0.205,0.068c0.006-0.002-0.017-0.01-0.016-0.007
					c0.002,0.007,0.004,0.012,0.004,0.012l0.047-0.016c12.937,2.038,25.872,2.503,38.052-1.364c2.076-0.659,4.29-1.45,5.657-3.164
					c1.367-1.713,1.671-4.45,0.07-5.904c-1.829-1.66-5.319-1.128-6.331-3.393c-0.649-1.451,0.318-3.219,1.68-4.057
					C416.674,266.022,418.33,265.878,419.906,265.67z"/>
				<g>
					<g>
						<path style="fill:#FFDB82;" d="M424.454,228.533c-18.927,24.615-39.773,47.671-62.348,68.989
							c-0.695,0.657,0.355,1.704,1.049,1.049c22.67-21.408,43.574-44.571,62.58-69.289
							C426.316,228.525,425.028,227.785,424.454,228.533L424.454,228.533z"/>
					</g>
				</g>
				<g>
					<g>
						<path style="fill:#FFDB82;" d="M384.275,276.832c-1.965-7.111-2.825-14.315-2.61-21.685c0.028-0.955-1.455-0.954-1.483,0
							c-0.219,7.517,0.661,14.834,2.663,22.08C383.099,278.145,384.53,277.755,384.275,276.832L384.275,276.832z"/>
					</g>
				</g>
				<g>
					<g>
						<path style="fill:#FFDB82;" d="M400.491,259.267c-2.067-7.046-2.3-14.092-0.712-21.259c0.206-0.93-1.224-1.327-1.43-0.394
							c-1.64,7.403-1.423,14.77,0.712,22.048C399.329,260.576,400.761,260.186,400.491,259.267L400.491,259.267z"/>
					</g>
				</g>
				<g>
					<g>
						<path style="fill:#FFDB82;" d="M413.844,243.441c-1.006-5.119-1.061-10.208-0.171-15.346c0.162-0.934-1.268-1.335-1.43-0.394
							c-0.935,5.4-0.885,10.758,0.171,16.135C412.598,244.771,414.028,244.375,413.844,243.441L413.844,243.441z"/>
					</g>
				</g>
				<g>
					<g>
						<path style="fill:#FFDB82;" d="M383.425,278.065c6.917,1.438,13.834,1.814,20.869,1.112c0.941-0.094,0.951-1.578,0-1.483
							c-6.893,0.688-13.688,0.352-20.475-1.059C382.888,276.442,382.49,277.871,383.425,278.065L383.425,278.065z"/>
					</g>
				</g>
				<g>
					<g>
						<path style="fill:#FFDB82;" d="M399.875,259.961c6.601,1.085,13.147,0.986,19.712-0.297c0.936-0.183,0.54-1.613-0.394-1.43
							c-6.309,1.233-12.58,1.34-18.923,0.297C399.336,258.377,398.934,259.806,399.875,259.961L399.875,259.961z"/>
					</g>
				</g>
				<g>
					<g>
						<path style="fill:#FFDB82;" d="M413.247,244.373c5.56,0.479,10.9-0.535,15.936-2.921c0.862-0.409,0.11-1.688-0.749-1.281
							c-4.807,2.278-9.891,3.175-15.188,2.719C412.296,242.808,412.302,244.292,413.247,244.373L413.247,244.373z"/>
					</g>
				</g>
			</g>
			<g>
				<path style="fill:#FB523A;" d="M416.267,282.742c1.295-3.715,3.024-7.285,5.142-10.616c1.403-2.207,3.494-4.555,6.104-4.282
					c1.825,0.19,3.275,1.701,3.925,3.392c0.651,1.692-0.699,4.81,3.26,5.778c3.96,0.968,6.637-7.663,11.262-11.29
					c1.188-0.932,2.441-1.894,3.928-2.169c1.487-0.275,3.263,0.394,3.684,1.825c0.389,1.321-0.469,2.712-0.366,4.086
					c0.176,2.355,3.102,3.602,5.459,3.188c2.357-0.415,4.367-1.894,6.561-2.848c5.21-2.266,13.465-2.28,15.952,2.322
					c2.487,4.603-2.14,11.424-6.932,14.467c-2.019,1.282-4.374,2.119-6.031,3.835c-1.658,1.716-2.243,4.826-0.372,6.282
					c1.092,0.849,2.732,0.915,3.62,1.971c0.962,1.143,0.534,2.983-0.524,4.057c-1.057,1.075-2.559,1.575-3.998,2.038
					c-5.605,1.802-20.351-1.975-21.258,1.444c-0.907,3.419,7.518,6.005,8.571,7.484c1.052,1.479,1.508,3.516,0.652,5.129
					c-1.224,2.308-4.35,2.728-6.976,2.659c-3.963-0.104-7.91-0.661-11.736-1.659c-1.546-0.403-3.138-0.882-4.72-0.623
					c-1.583,0.26-3.142,1.537-3.082,3.119c0.093,2.469,3.555,3.322,4.636,5.542c0.946,1.944-0.343,4.404-2.259,5.467
					c-1.916,1.063-4.067,1.159-6.248,0.983c-12.796-1.031-25.02-7.298-35.706-12.791l-0.091,0.16
					c0.003-0.006,0.023-0.009,0.021-0.01c-0.006-0.004-0.01-0.006-0.01-0.006l0.008-0.016c0.628-13.081,2.787-25.828,9.043-36.971
					c1.066-1.899,2.286-3.9,4.241-4.891c1.955-0.991,4.694-0.731,5.793,1.132c1.255,2.127,0.025,5.439,2.037,6.89
					c1.289,0.93,3.216,0.342,4.313-0.821C415.267,285.835,415.743,284.243,416.267,282.742z"/>
				<g>
					<g>
						<path style="fill:#FFDB82;" d="M452.943,284.477c-28,13.571-54.862,29.325-80.37,47.145c-0.777,0.543-0.036,1.829,0.749,1.281
							c25.508-17.82,52.37-33.574,80.37-47.145C454.551,285.342,453.8,284.062,452.943,284.477L452.943,284.477z"/>
					</g>
				</g>
				<g>
					<g>
						<path style="fill:#FFDB82;" d="M397.398,316.67c6.671,3.427,13.68,5.793,21.07,7.094c0.934,0.164,1.334-1.265,0.394-1.43
							c-7.27-1.28-14.144-3.568-20.716-6.944C397.299,314.954,396.548,316.233,397.398,316.67L397.398,316.67z"/>
					</g>
				</g>
				<g>
					<g>
						<path style="fill:#FFDB82;" d="M417.886,304.353c6.674,3.568,13.869,5.304,21.434,5.19c0.954-0.014,0.956-1.498,0-1.483
							c-7.327,0.111-14.222-1.532-20.685-4.987C417.793,302.623,417.043,303.903,417.886,304.353L417.886,304.353z"/>
					</g>
				</g>
				<g>
					<g>
						<path style="fill:#FFDB82;" d="M436.269,294.562c4.997,2.102,10.164,3.209,15.576,3.386c0.955,0.031,0.954-1.452,0-1.483
							c-5.283-0.173-10.315-1.286-15.182-3.333C435.785,292.762,435.401,294.197,436.269,294.562L436.269,294.562z"/>
					</g>
				</g>
				<g>
					<g>
						<path style="fill:#FFDB82;" d="M398.212,315.903c-0.005-6.928,1.032-13.658,3.103-20.266c0.286-0.913-1.145-1.303-1.43-0.394
							c-2.115,6.747-3.161,13.592-3.156,20.66C396.73,316.858,398.213,316.859,398.212,315.903L398.212,315.903z"/>
					</g>
				</g>
				<g>
					<g>
						<path style="fill:#FFDB82;" d="M419.276,303.467c0.268-6.491,1.672-12.676,4.182-18.659c0.369-0.879-1.066-1.263-1.43-0.394
							c-2.566,6.117-3.962,12.432-4.235,19.053C417.754,304.422,419.237,304.42,419.276,303.467L419.276,303.467z"/>
					</g>
				</g>
				<g>
					<g>
						<path style="fill:#FFDB82;" d="M437.238,293.732c0.621-5.276,2.616-10.064,5.816-14.293c0.576-0.761-0.711-1.501-1.281-0.749
							c-3.374,4.457-5.366,9.496-6.019,15.041C435.643,294.678,437.127,294.67,437.238,293.732L437.238,293.732z"/>
					</g>
				</g>
			</g>
		</g>
		<g>
			<path style="fill:#D3E3F8;" d="M54.037,390.853h391.845c12.094-18.547,16.816-41.833,12.664-63.603
				c-4.539-23.803-19.603-45.401-40.372-57.884c-29.015-17.44-67.951-17.845-91.362-42.298
				c-12.354-12.904-18.399-30.78-30.473-43.947c-21.228-23.15-60.877-26.113-85.31-6.375c-9.74,7.868-16.863,18.433-25.239,27.74
				c-8.376,9.307-18.883,17.774-31.327,19.161c-11.452,1.276-22.554-3.599-33.515-7.154c-10.961-3.555-23.695-5.645-33.424,0.53
				c-9.216,5.849-12.972,17.513-13.699,28.404c-0.727,10.891,0.87,21.913-0.775,32.703c-2.26,14.82-10.406,27.967-17.952,40.921
				c-7.546,12.954-14.847,26.829-15.114,41.818C39.779,372.312,45.007,384.461,54.037,390.853z"/>
			<path style="fill:#5DB18C;" d="M438.333,425.491h-378c-11.046,0-20-8.954-20-20l0,0c0-11.046,8.954-20,20-20h378
				c11.046,0,20,8.954,20,20l0,0C458.333,416.537,449.379,425.491,438.333,425.491z"/>
		</g>
	</g>
	<g>
		<path style="fill:#D3E3F8;" d="M451.083,125.169c-0.216-1.007-0.655-1.908-1.332-2.695c-0.404-0.357-0.808-0.715-1.213-1.072
			c-0.886-0.585-1.857-0.918-2.916-0.998c-0.798-0.087-1.56,0.022-2.285,0.327c-0.443,0.103-0.853,0.273-1.238,0.496
			c-0.11-0.153-0.217-0.307-0.342-0.453c-0.421-0.373-0.843-0.745-1.264-1.118c-0.923-0.61-1.936-0.957-3.04-1.041
			c-0.832-0.091-1.626,0.023-2.382,0.341c-0.42,0.098-0.814,0.249-1.184,0.451c0.024-0.156,0.04-0.315,0.046-0.478
			c0.038-1.303-0.292-2.684-1.215-3.66c-0.338-0.298-0.675-0.597-1.013-0.895c-0.74-0.489-1.551-0.767-2.435-0.834
			c-0.667-0.073-1.303,0.018-1.908,0.273c-0.66,0.154-1.245,0.468-1.752,0.942c-0.542,0.434-0.936,0.967-1.184,1.598
			c-0.34,0.562-0.521,1.179-0.545,1.849c-0.001,0.049,0.001,0.098,0.001,0.146c-0.158-0.024-0.314-0.053-0.476-0.066
			c-0.794-0.087-1.552,0.022-2.273,0.325c-0.787,0.184-1.482,0.558-2.087,1.122c-0.645,0.517-1.115,1.152-1.41,1.904
			c-0.22,0.365-0.379,0.751-0.488,1.154c-0.139-0.073-0.281-0.143-0.43-0.202c-0.641-0.387-1.343-0.593-2.106-0.62
			c-0.76-0.083-1.484,0.021-2.174,0.311c-0.753,0.176-1.418,0.534-1.996,1.073c-0.346,0.301-0.641,0.636-0.899,0.995
			L451.083,125.169z"/>
		<path style="fill:#D3E3F8;" d="M83.155,121.778H48.651c0.091-0.257,0.197-0.51,0.332-0.757c0.384-0.839,0.944-1.52,1.68-2.042
			c0.62-0.629,1.364-1.063,2.232-1.305c1.104-0.346,2.222-0.404,3.356-0.176c0.178,0.032,0.355,0.064,0.532,0.096
			c0.938,0.198,1.781,0.585,2.537,1.143c0.017-0.223,0.034-0.445,0.05-0.668c0.208-0.986,0.648-1.855,1.321-2.607
			c0.381-0.324,0.762-0.647,1.143-0.971c0.831-0.526,1.737-0.816,2.718-0.871c0.741-0.066,1.444,0.049,2.11,0.345
			c0.028,0.007,0.054,0.019,0.082,0.027c0.022-0.295,0.044-0.589,0.066-0.883c0.213-1.012,0.665-1.903,1.355-2.674
			c0.391-0.332,0.781-0.664,1.172-0.996c0.852-0.54,1.782-0.837,2.789-0.894c0.76-0.068,1.481,0.05,2.164,0.354
			c0.748,0.19,1.405,0.561,1.972,1.111c0.606,0.506,1.044,1.121,1.311,1.845c0.374,0.647,0.566,1.353,0.578,2.116
			c-0.037,0.488-0.074,0.975-0.11,1.462c-0.109,0.517-0.282,1.002-0.516,1.456c0.097-0.004,0.191-0.014,0.291-0.014
			C81.049,116.874,82.869,119.27,83.155,121.778z"/>
		<path style="fill:#D3E3F8;" d="M111.498,90.821c-0.219-0.186-0.438-0.372-0.657-0.558c-0.545-0.345-1.136-0.546-1.768-0.619
			c0.215-1.866-0.824-3.824-3.241-3.824c-1.217,0-2.136,0.504-2.748,1.241c0.013-0.112,0.024-0.225,0.026-0.34
			c-0.028-0.369-0.056-0.738-0.084-1.108c-0.161-0.766-0.503-1.441-1.026-2.026c-0.296-0.251-0.592-0.503-0.888-0.754
			c-0.646-0.409-1.35-0.634-2.112-0.677c-0.576-0.051-1.122,0.038-1.64,0.268c-0.567,0.144-1.064,0.425-1.494,0.842
			c-0.459,0.383-0.79,0.849-0.993,1.398c-0.283,0.49-0.429,1.025-0.438,1.602c0.028,0.369,0.056,0.738,0.084,1.108
			c0.037,0.178,0.087,0.35,0.144,0.518c-0.314,0.024-0.619,0.097-0.911,0.227c-0.482,0.123-0.906,0.362-1.272,0.717
			c-0.391,0.326-0.673,0.723-0.846,1.19c-0.145,0.251-0.242,0.517-0.303,0.795H111.498z"/>
		<g>
			<path style="fill:#D3E3F8;" d="M412.243,93.699c-0.139-0.179-0.289-0.351-0.452-0.515c-0.37-0.286-0.74-0.572-1.111-0.858
				c-0.856-0.496-1.779-0.746-2.769-0.749c-0.755-0.028-1.46,0.129-2.114,0.473c-0.223,0.073-0.433,0.168-0.636,0.275
				c-0.286-2.357-1.955-4.513-5.02-4.513c-1.296,0-2.342,0.389-3.141,1.014c-0.048-0.477-0.177-0.931-0.403-1.361
				c-0.203-0.625-0.546-1.165-1.037-1.622c-0.355-0.292-0.716-0.572-1.089-0.839l-1.199-0.507c-0.668-0.209-1.335-0.239-2.003-0.09
				c-0.453,0.001-0.876,0.116-1.268,0.343c-0.623,0.203-1.162,0.549-1.617,1.039c-0.262,0.339-0.524,0.678-0.786,1.017l-0.507,1.2
				c-0.121,0.388-0.175,0.775-0.176,1.163c-0.078-0.005-0.155-0.012-0.234-0.012c-0.581-0.022-1.124,0.099-1.627,0.364
				c-0.523,0.17-0.976,0.461-1.359,0.873c-0.412,0.382-0.703,0.835-0.873,1.359c-0.264,0.503-0.386,1.045-0.364,1.627
				c0.005,0.106,0.015,0.214,0.026,0.32H412.243z"/>
		</g>
	</g>
	<g>
		<g>
			<path style="fill:#193441;" d="M381.473,169.543c-0.867-0.913-1.887-1.716-2.497-2.817c-0.861-1.554-0.772-3.432-0.946-5.199
				c-0.45-4.561-2.755-8.701-5.01-12.69c-1.321-2.337-2.848-4.852-5.38-5.746c-1.636-0.578-3.448-0.373-5.136-0.775
				c-2.509-0.598-4.519-2.469-6.925-3.398c-4.596-1.775-8.807-0.479-11.617,0.409c-2.81,0.887-4.718,3.411-5.512,5.589
				c-0.793,2.177-1.333,4.595-3.031,6.173c-2.059,1.913-5.441,2.191-7.011,4.523c-1.129,1.677-0.938,3.875-0.79,5.892
				c0.147,2.016,0.121,4.281-1.28,5.739c-1.151,1.197-3.01,1.579-4.011,2.904c-1.454,1.924-0.182,4.952,1.986,6.007
				c2.168,1.054,4.771,0.61,7.027-0.241c2.323-0.876,4.901-2.163,7.138-1.087c1.336,0.642,2.196,2.009,3.495,2.723
				c1.857,1.021,4.174,0.499,6.135-0.304c1.961-0.803,3.896-1.881,6.015-1.923c4.138-0.081,7.781,3.803,11.856,3.084
				c2.183-0.385,3.961-2.045,6.126-2.523c2.026-0.447,4.122,0.191,6.197,0.178c2.074-0.013,4.495-1.118,4.686-3.184
				C383.105,171.622,382.34,170.456,381.473,169.543z"/>
			<g>
				<g>
					<path style="fill:#B56B1F;" d="M346.691,193.733c-0.977-3.496-4.58-5.544-8.076-4.567l-0.315,0.087
						c-0.297,0.089-0.644,0.207-0.958,0.327c-0.387,0.148-0.497,0.206-0.649,0.273l-0.461,0.211
						c-0.537,0.261-1.019,0.513-1.462,0.755c-0.883,0.484-1.695,0.974-2.481,1.455c-1.576,0.965-3.076,1.931-4.567,2.902
						c-2.973,1.944-5.838,3.967-8.718,5.957c-5.567,3.848-11.03,7.797-16.478,11.672c-2.52,0.734-5.038,1.477-7.533,2.317
						c-1.461,0.466-2.906,1.004-4.358,1.509l-4.352,1.539c-2.899,1.034-5.8,2.062-8.732,2.952c-0.734,0.216-1.457,0.482-2.201,0.659
						c-0.746,0.165-1.524,0.189-2.302,0.21c-0.777,0.029-1.542,0.11-2.273,0.338c-0.727,0.248-1.438,0.566-2.07,1.237
						c-1.122,1.19-1.067,3.065,0.124,4.187c0.284,0.268,0.617,0.471,0.959,0.606c0.859,0.334,1.638,0.315,2.401,0.227
						c0.759-0.109,1.484-0.364,2.198-0.672c0.712-0.315,1.425-0.628,2.169-0.8c0.747-0.16,1.514-0.231,2.27-0.351
						c3.03-0.457,6.091-0.775,9.153-1.088l4.59-0.481c1.529-0.168,3.064-0.304,4.584-0.511c3.05-0.367,6.072-0.859,9.093-1.353
						c0.48-0.079,0.925-0.242,1.321-0.474l0.482-0.284c3.038-1.787,6.036-3.603,9.008-5.44c2.985-1.818,5.932-3.676,8.87-5.526
						l8.792-5.465c1.447-0.902,2.897-1.793,4.309-2.618l2.046-1.157c0.321-0.177,0.612-0.327,0.857-0.449l0.133-0.061
						c0.008-0.004,0.017-0.008,0.025-0.012l0.042-0.012C345.626,200.855,347.668,197.229,346.691,193.733z M342.014,201.87
						c-0.111,0.042-0.256,0.079-0.349,0.092l0.315-0.088l0.081-0.023C342.046,201.857,342.037,201.86,342.014,201.87z"/>
					<path style="fill:#B56B1F;" d="M370.225,187.509c-7.882-0.088-10.37-5.266-11.179-9.44h-4.916l-0.065,0.063l-6.866,0.212
						c0,0,1.228,9.124-9.038,9.434c-1.536,0.046-4.932,10.538-4.932,10.538h47.07C380.299,198.316,374.018,187.551,370.225,187.509z
						"/>
					<g>
						<path style="fill:#193441;" d="M347.25,377.491l0.693,8.602c-0.016,2.467-2.029,4.455-4.496,4.439l-14.804-0.095
							c-1.295-0.008-2.183-1.307-1.72-2.517l0,0c0.266-0.697,0.924-1.166,1.67-1.191l1.347-0.017c4.627-0.06,9.363-3.263,10.3-7.795
							L347.25,377.491z"/>
					</g>
					<g>
						<path style="fill:#B56B1F;" d="M353.244,249.133c-6.012-2.105-12.441-0.289-16.516,4.097
							c-1.773,7.626-2.724,15.352-2.584,23.268c0.012,0.7-0.24,1.209-0.625,1.549c0.092,1.67,0.182,3.463,0.263,5.374
							c0.133,2.715,0.258,5.652,0.342,8.754c0.106,3.104,0.218,6.378,0.267,9.761c0.057,3.383,0.182,6.889,0.198,10.456
							c0.031,1.8,0.063,3.614,0.095,5.436l0.075,3.027c0.012,0.53,0.059,0.916,0.086,1.381l0.024,0.335l0.003,0.042
							c0.001-0.034-0.003,0.431,0.002,0.261l0.01,0.11l0.02,0.22l0.086,0.877c0.276,2.226,0.619,4.053,0.888,5.896
							c0.259,1.826,0.512,3.592,0.686,5.324c0.376,3.451,0.618,6.765,0.918,9.781c0.069,0.709,0.137,1.412,0.205,2.108
							c0.059,0.766,0.117,1.524,0.175,2.275c0.108,1.526,0.185,3.073,0.255,4.575c0.121,3.01,0.321,5.89,0.442,8.551
							c0.184,2.664,0.309,5.109,0.497,7.283c0.155,2.172,0.34,4.07,0.483,5.634c0.31,3.13,0.561,4.918,0.561,4.918
							c0.27,1.938,2.059,3.29,3.997,3.021c1.471-0.205,2.605-1.292,2.948-2.648c0,0,0.444-1.772,1.059-4.872
							c0.295-1.552,0.66-3.437,1.007-5.605c0.383-2.166,0.71-4.618,1.095-7.297c0.319-2.683,0.71-5.593,0.964-8.708
							c0.134-1.56,0.267-3.16,0.371-4.851l0.04-0.633l0.023-0.74l0.041-1.226c-0.015-0.889-0.015-1.994-0.088-2.852
							c-0.205-3.65-0.916-7.182-1.549-10.675c-0.333-1.74-0.604-3.472-0.824-5.164c-0.2-1.675-0.32-3.388-0.211-4.723l0.046-0.459
							l0.011-0.114l0.005-0.057c0.003-0.198-0.001,0.239,0.002,0.177l0.006-0.042l0.049-0.333c0.068-0.425,0.122-0.93,0.201-1.288
							l0.464-2.293c0.346-1.715,0.691-3.424,1.033-5.119c0.682-3.42,1.5-6.785,2.25-10.05c0.739-3.265,1.536-6.416,2.302-9.403
							c0.742-2.989,1.501-5.809,2.223-8.409c1.409-5.203,2.719-9.523,3.664-12.525c0.458-1.501,0.875-2.673,1.134-3.446
							c0.266-0.76,0.408-1.165,0.408-1.165C365.606,260.829,361.34,251.968,353.244,249.133z"/>
					</g>
					<g>
						<path style="fill:#193441;" d="M377,377.866l0.675,7.896c0.029,2.467-1.948,4.491-4.415,4.519l-14.803,0.173
							c-1.295,0.015-2.206-1.267-1.765-2.485l0,0c0.254-0.701,0.903-1.183,1.648-1.221l1.347-0.042
							c4.625-0.144,9.095-3.473,9.95-8.021l0,0L377,377.866z"/>
					</g>
					<g>
						<path style="fill:#B56B1F;" d="M378.607,348.564l-0.033-0.647l-0.057-0.729l-0.098-1.22c-0.105-0.88-0.227-1.91-0.376-2.746
							c-0.563-3.522-1.548-6.905-2.441-10.297c-0.463-1.69-0.858-3.382-1.206-5.051c-0.332-1.659-0.573-3.352-0.603-4.774
							c0.065-3.471,0.131-6.942,0.195-10.359c0.047-3.511,0.217-6.977,0.342-10.323c0.113-3.346,0.298-6.584,0.49-9.65
							c0.042-0.773,0.087-1.535,0.135-2.286h-22.301c0.304,1.31,0.611,2.653,0.917,4.035c0.692,3.025,1.42,6.208,2.104,9.504
							c0.695,3.296,1.467,6.693,2.131,10.155c0.706,3.553,1.423,7.163,2.14,10.773c0.451,2.102,0.919,3.896,1.318,5.702
							c0.387,1.796,0.769,3.545,1.078,5.269c0.644,3.437,1.192,6.772,1.815,9.812c0.149,0.72,0.297,1.434,0.443,2.142
							c0.144,0.75,0.286,1.493,0.427,2.228c0.276,1.458,0.51,2.958,0.724,4.421c0.432,2.969,0.84,5.776,1.217,8.367
							c0.777,5.23,1.507,9.613,2.045,12.69c0.538,3.083,0.961,4.817,0.961,4.817v0.009c0.86,1.934,2.234,3.153,4.148,2.747
							c1.453-0.308,2.456-1.452,2.703-2.829c0,0,0.321-1.805,0.705-4.942c0.178-1.571,0.401-3.48,0.575-5.672
							c0.212-2.193,0.339-4.669,0.493-7.383c0.094-2.711,0.214-5.661,0.159-8.822C378.736,351.921,378.7,350.292,378.607,348.564z"
							/>
					</g>
					<path style="fill:#91BAEE;" d="M379.201,190.501c-4.867-3.637-11.388-3.261-11.388-3.261s-2.889,8.133-13.427,8.266
						c-10.538-0.133-13.427-8.266-13.427-8.266s-5.343-0.569-9.676,3.691c-4.333,4.26-8.382,7.366-8.382,7.366l7.206,10.872
						l6.574-4.046c0,0-1.391,4.551-0.379,7.712c1.011,3.161,3.625,19.456,2.655,26.296c0,0,3.962,4.702,15.429,4.702
						c11.468,0,18.864-3.98,18.864-3.98c-0.97-6.84,2.201-33.55,2.201-33.55l4.13,2.023l5.815-13.274
						C385.396,195.052,381.383,192.131,379.201,190.501z"/>
					<path style="fill:#FB523A;" d="M338.735,239.367c-0.852-0.31-5.947,20.205-6.019,44.71c-0.071,24.09,0,35.252,1.72,42.704
						c1.72,7.452,4.012,41.844,4.012,41.844s8.598,2.293,12.611,0.287c0,0,2.293-31.526-0.86-43.277l4.012-24.934l12.897,67.065
						c0,0,9.171,2.579,12.61,0.287c0,0,0.287-19.489-2.579-35.252c-2.866-15.763-2.293-25.221-0.86-42.13
						c1.433-16.91,8.844-32.558-3.03-50.815C373.25,239.854,357.65,246.245,338.735,239.367z"/>
					<path style="fill:#B56B1F;" d="M405.976,215.441c-0.395-1.155-0.875-2.121-1.369-2.979c-0.996-1.705-2.059-3.057-3.123-4.292
						c-2.131-2.451-4.333-4.398-6.47-6.204c-2.138-1.799-8.727-5.869-9.786-6.576c-1.921,4.309-3.705,7.947-5.394,12.347
						c2.216,1.36,4.784,3.067,7.066,4.682c1.935,1.363,3.828,2.866,5.426,4.356c0.79,0.741,1.485,1.498,1.95,2.118
						c0.232,0.305,0.388,0.565,0.474,0.7c0.089,0.136,0.082,0.117,0.117-0.126c0.106,0.127-0.012,1.149-0.298,2.137
						c-0.286,1.019-0.662,2.154-1.117,3.282c-0.899,2.273-1.96,4.604-3.091,6.824c-1.128,2.228-2.302,4.377-3.455,6.402
						c-1.153,2.027-2.327,3.903-3.436,5.62c-0.566,0.852-1.108,1.669-1.623,2.446c-0.513,0.78-1.019,1.506-1.6,2.106
						c-1.174,1.19-2.35,2.099-3.073,3.043c-0.758,0.916-1.199,1.761-1.436,2.39c-0.247,0.622-0.286,1.017-0.286,1.017l-0.018,0.169
						c-0.04,0.414,0.002,0.843,0.137,1.265c0.533,1.667,2.317,2.587,3.984,2.053c0,0,0.407-0.13,0.986-0.5
						c0.59-0.363,1.356-0.976,2.119-1.93c0.797-0.926,1.458-2.295,2.362-3.741c0.459-0.718,1.053-1.398,1.693-2.107
						c0.628-0.719,1.289-1.475,1.978-2.263c1.38-1.59,2.876-3.312,4.458-5.134c1.586-1.835,3.236-3.804,4.892-5.926
						c1.647-2.132,3.337-4.382,4.893-6.945c0.765-1.293,1.535-2.644,2.197-4.2c0.331-0.783,0.646-1.611,0.92-2.545
						c0.138-0.476,0.257-0.948,0.369-1.525l0.082-0.515l0.061-0.448l0.034-0.257l0.017-0.128c-0.007,0.158,0.014-0.245,0.013-0.237
						l0.002-0.074l0.004-0.149C406.681,217.976,406.364,216.591,405.976,215.441z"/>
				</g>
				<path style="fill:#EB3434;" d="M354.211,300.699c0,0-1.634-9.115-2.4-18.987c-0.667-8.594-1.182-17.196-3.722-19.367
					c0,0,4.973,41.141,4.328,49.309L354.211,300.699z"/>
			</g>
			<path style="fill:#885017;" d="M347.237,179.555c-0.196,0.804-0.383,3.029-0.885,3.887c3.951,4.678,10.24,4.046,14.001-1.454
				c-0.303-0.509-0.376-2.949-0.376-2.949L347.237,179.555z"/>
			<path style="fill:#B56B1F;" d="M338.639,157.016c0.862-9.187,7.583-14.46,14.197-14.353c6.613,0.106,13.204,5.592,13.842,14.804
				c0.374,5.395-0.8,11.21-1.647,14.553c-0.503,1.989-1.445,3.797-2.751,5.224c-2.992,3.271-6.88,5.88-9.936,5.831
				c-3.056-0.049-6.878-2.781-9.79-6.147c-1.271-1.469-2.168-3.306-2.623-5.31C339.168,168.248,338.134,162.398,338.639,157.016z"/>
			<g>
				<path style="fill:#193441;" d="M346.108,164.448c0,0.694-0.563,1.257-1.257,1.257c-0.694,0-1.257-0.563-1.257-1.257
					c0-0.694,0.563-1.256,1.257-1.256C345.545,163.192,346.108,163.754,346.108,164.448z"/>
				<path style="fill:#D18015;" d="M347.638,169.727c0,1.133-1.186,2.051-2.648,2.051c-1.463,0-2.649-0.918-2.649-2.051
					c0-1.133,1.186-2.052,2.649-2.052C346.452,167.675,347.638,168.594,347.638,169.727z"/>
				<path style="fill:#193441;" d="M357.848,164.448c0,0.694,0.563,1.257,1.257,1.257c0.694,0,1.257-0.563,1.257-1.257
					c0-0.694-0.563-1.256-1.257-1.256C358.411,163.192,357.848,163.754,357.848,164.448z"/>
				<path style="fill:#D18015;" d="M356.318,169.727c0,1.133,1.186,2.051,2.648,2.051c1.463,0,2.649-0.918,2.649-2.051
					c0-1.133-1.186-2.052-2.649-2.052C357.504,167.675,356.318,168.594,356.318,169.727z"/>
				<path style="fill:#FFFFFF;" d="M355.601,173.428c0.508,0,0.846,0.573,0.557,0.991c-0.847,1.224-2.254,2.027-3.856,2.027
					c-1.573,0-2.958-0.775-3.81-1.962c-0.317-0.442-0.027-1.056,0.516-1.056H355.601z"/>
			</g>
			<path style="fill:#193441;" d="M362.704,158.289c0.397,0.09,0.82,0.055,1.202,0.196c0.967,0.357,1.212,1.607,1.17,2.637
				c-0.042,1.03-0.182,2.185,0.478,2.977c0.79,0.948,2.4,0.792,3.311-0.042c0.91-0.834,1.26-2.113,1.417-3.338
				c0.712-5.55-1.937-11.399-6.578-14.525c-1.237-0.833-4.716-2.254-5.629-0.09c-0.428,1.016,0.667,1.796,1.269,2.479
				c1.1,1.249,1.72,2.286,1.646,3.994C360.91,154.37,360.14,157.708,362.704,158.289z"/>
			<path style="fill:#193441;" d="M354.537,152.705c-0.875,0.078-1.791-0.017-2.601,0.322c-1.16,0.485-1.789,1.709-2.48,2.759
				c-0.691,1.051-1.771,2.101-3.012,1.899c-0.526-0.086-1.005-0.394-1.537-0.419c-0.726-0.034-1.38,0.474-1.781,1.08
				c-0.401,0.606-0.615,1.314-0.925,1.971c-0.509,1.076-1.32,2.047-2.402,2.543c-1.082,0.497-2.449,0.446-3.378-0.298
				c-0.904-0.725-1.259-1.972-1.177-3.128s0.538-2.249,1.01-3.307c1.053-2.364,2.21-4.682,3.467-6.945
				c1.436-2.585,3.114-5.208,5.701-6.641c2.818-1.561,6.227-1.452,9.445-1.301c2.644,0.124,8.265,1.272,6.706,5.261
				c-0.478,1.223-1.824,2.776-2.652,3.787C357.836,151.611,356.254,152.551,354.537,152.705z"/>
		</g>
		<g>
			<path style="fill:#FFC366;" d="M119.349,137.449c-3.502,3.829-2.393,9.779-2.888,14.944c-0.645,6.716-4.578,13.038-10.318,16.585
				c-2.542,1.57-5.483,2.687-7.369,5.004c-1.715,2.107-2.3,5.083-1.509,7.683c0.791,2.599,2.935,4.745,5.533,5.539
				c1.512,0.462,3.246,0.541,4.398,1.624c1.193,1.122,1.35,2.938,2.106,4.391c1.825,3.51,6.95,4.105,10.413,2.193
				c3.463-1.912,5.587-5.539,7.331-9.09c4.672-9.515,7.566-15.338,9.18-25.865c1.163-7.591,3.139-18.964-3.975-23.691
				C128.441,134.234,122.659,133.829,119.349,137.449z"/>
			<path style="opacity:0.5;fill:#E89A49;" d="M118.41,142.13c5.597,0.045,11.098-1.09,16.647-0.851
				c-4.902-3.389-12.332-5.087-16.187,0.328c-0.159,0.223-0.341,0.39-0.531,0.53C118.364,142.136,118.385,142.13,118.41,142.13z"/>
			<path style="fill:#E89A49;" d="M112.215,378.675l-0.212,6.485c-0.08,2.459,1.849,4.518,4.308,4.598l14.756,0.481
				c1.29,0.042,2.226-1.218,1.812-2.441l0,0c-0.238-0.705-0.876-1.198-1.618-1.252l-1.342-0.07c-4.609-0.24-8.431-3.652-9.188-8.205
				l0,0L112.215,378.675z"/>
			<path style="fill:#E89A49;" d="M113.185,385.273c0,0-0.436-1.854-1.05-5.089c-0.287-1.621-0.661-3.59-1.003-5.856
				c-0.173-1.134-0.356-2.341-0.55-3.613c-0.166-1.277-0.341-2.619-0.523-4.02c-0.371-2.805-0.683-5.855-0.952-9.116
				c-0.258-3.283-0.479-6.68-0.451-10.543c-0.029-1.66,0.093-3.755,0.274-5.576c0.204-1.872,0.469-3.754,0.8-5.609
				c0.635-3.697,1.417-7.431,1.559-10.796c0.022-0.821,0.032-1.627-0.041-2.31l-0.048-0.502l-0.003-0.031
				c0.004-0.35-0.001-0.122-0.001-0.212l-0.006-0.087l-0.013-0.174l-0.025-0.358l-0.024-1.788c-0.025-2.028,0-3.894,0.001-5.773
				c0.006-3.708,0.012-7.356,0.018-10.888c-0.033-7.03-0.153-13.568-0.441-19.131c-0.122-2.778-0.273-5.309-0.468-7.515
				c-0.17-2.203-0.382-4.083-0.597-5.53c-0.194-1.462-0.452-2.424-0.624-2.731c-0.045-0.048-0.084-0.091-0.118-0.128
				c-0.016-0.057-0.034,0.076-0.046,0.118c-0.011,0.06-0.021,0.114-0.03,0.163c-0.03,0.195-0.034,0.297-0.034,0.297
				c-1.042-8.298,4.841-15.87,13.139-16.912c8.298-1.042,15.87,4.841,16.912,13.139c0,0,0.006,0.333,0.018,0.977
				c0,0.161-0.001,0.341-0.002,0.54c-0.004,0.181-0.002,0.466-0.02,0.576c-0.029,0.295-0.063,0.638-0.101,1.025
				c-0.17,1.435-0.506,3.029-0.927,4.812c-0.434,1.799-0.979,3.854-1.583,6.161c-0.612,2.268-1.303,4.827-2.057,7.619
				c-1.521,5.521-3.202,11.898-4.91,18.707c-0.844,3.401-1.7,6.919-2.503,10.454c-0.405,1.757-0.785,3.559-1.124,5.22l-0.119,0.579
				l-0.104,0.405l-0.048,0.337l-0.023,0.173l-0.012,0.087c-0.001-0.06-0.007,0.197-0.003-0.125l-0.005,0.056l-0.084,0.89
				c-0.129,1.173-0.282,2.22-0.44,3.248c-0.31,2.028-0.605,3.916-0.832,5.769c-0.224,1.849-0.395,3.654-0.55,5.425
				c-0.151,1.748-0.301,3.482-0.449,5.195c-0.164,1.749-0.318,3.187-0.531,5.007c-0.164,1.531-0.296,3.174-0.396,4.775
				c-0.095,1.629-0.188,3.222-0.278,4.773c-0.161,3.152-0.313,6.131-0.454,8.882c-0.068,1.385-0.133,2.712-0.195,3.975
				c-0.074,1.266-0.143,2.467-0.209,3.595c-0.112,2.258,0.173,4.234,0.076,5.859c-0.238,3.259,0.024,5.113,0.024,5.113v0.004
				c-1,1.932-2.362,3.342-4.294,3.15C115.174,387.813,113.522,386.692,113.185,385.273z"/>
			<path style="fill:#193441;" d="M132.879,387.799c-0.238-0.705-0.876-1.198-1.618-1.252l-1.342-0.07
				c-3.679-0.191-6.851-2.408-8.369-5.608c-0.911,2.04-2.82,3.648-5.647,3.648c-1.673,0-2.942-0.557-3.832-1.429l-0.068,2.072
				c-0.08,2.459,1.849,4.518,4.308,4.598l14.756,0.481C132.358,390.282,133.293,389.022,132.879,387.799z"/>
			<path style="fill:#E89A49;" d="M110.776,187.155c10.237-0.309,9.315-9.012,9.315-9.012l6.847-0.211l6.847,0.211
				c0,0-0.922,8.702,9.314,9.012c3.327,0.101,10.002,10.906,10.002,10.906H106.16C106.16,198.061,109.245,187.202,110.776,187.155z"
				/>
			<path style="fill:#E88620;" d="M134.112,180.854c0.198,0.811,0.512,1.713,1.019,2.579c-3.206,6.954-12.09,7.836-16.082-0.477
				c0.306-0.514,0.527-1.307,0.686-2.102H134.112z"/>
			<path style="fill:#E89A49;" d="M141.631,157.069c-0.87-9.268-7.65-14.587-14.321-14.479c-6.671,0.107-13.319,5.641-13.964,14.934
				c-0.377,5.443,0.807,11.308,1.661,14.68c0.508,2.006,1.457,3.83,2.775,5.27c3.019,3.3,6.94,5.932,10.023,5.882
				c3.083-0.049,6.938-2.805,9.876-6.201c1.282-1.482,2.186-3.335,2.646-5.357C141.098,168.398,142.14,162.498,141.631,157.069z"/>
			<path style="fill:#E89A49;" d="M153.795,196.292c0,0,0.369,1.118,1.016,3.075c0.629,1.955,1.547,4.736,2.701,8.022
				c1.143,3.282,2.506,7.105,4.146,10.945c0.82,1.906,1.708,3.843,2.669,5.505c0.469,0.818,0.984,1.574,1.36,2.046
				c0.174,0.226,0.341,0.393,0.277,0.371c-0.021,0.009-0.132-0.058-0.337-0.117l-0.086-0.025l-0.044-0.01l-0.022-0.004
				c-0.581-0.16-0.146-0.04-0.269-0.073l0.214,0.066c-0.009-0.024-0.609-0.091-0.539-0.07c-0.291,0.029-0.128,0.086,0.119,0.052
				c0.254-0.024,0.617-0.104,1.008-0.221c0.789-0.235,1.712-0.585,2.619-1.006c1.837-0.837,3.716-1.861,5.512-2.922
				c1.791-1.076,3.488-2.228,5.044-3.393c0.778-0.583,1.52-1.17,2.224-1.755c0.691-0.596,1.34-1.191,1.947-1.776
				c1.194-1.184,2.23-2.321,3.006-3.401c0.711-1.133,0.848-2.331,1.178-3.119c0.298-0.81,0.651-1.342,0.961-1.702
				c0.305-0.359,0.563-0.541,0.563-0.541l0.637-0.45c1.244-0.879,2.965-0.583,3.844,0.661c0.144,0.204,0.26,0.433,0.342,0.656
				c0,0,0.036,0.099,0.082,0.292c0.044,0.194,0.101,0.481,0.104,0.841c0.026,0.722-0.118,1.761-0.672,2.86
				c-0.524,1.12-1.589,2.165-2.466,3.472c-0.809,1.362-1.739,2.863-2.855,4.418c-0.548,0.785-1.141,1.584-1.773,2.395
				c-0.62,0.822-1.282,1.655-1.984,2.495c-1.405,1.679-2.971,3.38-4.709,5.062c-1.738,1.689-3.655,3.332-5.901,4.831
				c-1.138,0.738-2.328,1.474-3.755,2.11c-0.716,0.318-1.485,0.621-2.391,0.877c-0.911,0.245-1.942,0.486-3.427,0.438
				c-0.229,0.015-1.123-0.112-1.426-0.183l-0.221-0.041c-0.141-0.038,0.276,0.079-0.323-0.087l-0.075-0.023l-0.149-0.048l-0.297-0.1
				c-0.76-0.276-1.408-0.614-1.921-0.941c-1.068-0.672-1.775-1.328-2.422-1.961c-1.255-1.263-2.116-2.45-2.92-3.607
				c-1.563-2.309-2.772-4.509-3.858-6.653c-2.147-4.279-3.79-8.267-5.132-11.703c-1.32-3.439-2.318-6.315-3.019-8.323
				c-0.664-2.012-1.043-3.162-1.043-3.162c-1.134-3.438,0.733-7.144,4.171-8.278c3.438-1.134,7.144,0.733,8.278,4.171
				L153.795,196.292z"/>
			<path style="fill:#E89A49;" d="M131.045,378.675l-0.212,6.485c-0.08,2.459,1.848,4.518,4.308,4.598l14.756,0.481
				c1.29,0.042,2.226-1.218,1.812-2.441l0,0c-0.238-0.705-0.876-1.198-1.618-1.252l-1.342-0.07c-4.609-0.24-8.431-3.652-9.189-8.205
				l0,0L131.045,378.675z"/>
			<path style="fill:#E89A49;" d="M132.015,385.273c0,0-0.436-1.853-1.049-5.086c-0.287-1.62-0.661-3.587-1.003-5.852
				c-0.173-1.133-0.356-2.339-0.55-3.611c-0.166-1.276-0.341-2.617-0.523-4.016c-0.371-2.803-0.683-5.851-0.952-9.109
				c-0.258-3.282-0.48-6.671-0.453-10.536c-0.029-1.659,0.091-3.748,0.271-5.57c0.202-1.871,0.467-3.752,0.797-5.605
				c0.634-3.696,1.417-7.427,1.564-10.792l0.021-1.213c-0.01-0.366-0.021-0.777-0.057-1.104l-0.049-0.502l-0.006-0.063
				c0.002,0.339-0.003,0.069-0.004,0.133l-0.006-0.043l-0.023-0.173l-0.047-0.346c-0.062-0.462-0.122-0.942-0.199-1.313
				c-0.313-1.727-0.626-3.448-0.935-5.155c-0.669-3.562-1.396-7.1-2.117-10.51c-1.466-6.829-2.954-13.2-4.367-18.638
				c-0.349-1.359-0.683-2.662-1.001-3.901c-0.338-1.235-0.659-2.406-0.96-3.507c-0.597-2.197-1.155-4.109-1.628-5.662
				c-0.233-0.785-0.437-1.472-0.634-2.056c-0.191-0.578-0.355-1.119-0.485-1.47c-0.268-0.714-0.411-1.095-0.411-1.095
				c-3.021-8.046,1.052-17.018,9.098-20.039c8.046-3.021,17.018,1.052,20.039,9.098c0.798,2.125,1.101,4.315,0.967,6.443
				l-0.053,0.725c0,0-0.037,0.542-0.105,1.558c-0.076,0.918-0.189,2.264-0.331,3.977c-0.142,1.68-0.315,3.696-0.473,6.004
				c-0.185,2.307-0.355,4.903-0.522,7.729c-0.378,5.657-0.686,12.232-0.964,19.282c-0.124,3.533-0.251,7.183-0.381,10.893
				c-0.066,1.941-0.133,3.898-0.201,5.862c-0.014,0.552-0.053,0.998-0.088,1.462l-0.026,0.348l-0.013,0.174l-0.003,0.043
				c-0.001,0.093-0.004-0.147-0.002,0.22l-0.01,0.111l-0.084,0.889c-0.132,1.166-0.282,2.214-0.442,3.237
				c-0.309,2.024-0.603,3.91-0.829,5.761c-0.223,1.847-0.394,3.65-0.549,5.42c-0.151,1.746-0.301,3.478-0.449,5.19
				c-0.165,1.745-0.317,3.186-0.531,5.005c-0.163,1.525-0.295,3.172-0.394,4.77c-0.095,1.628-0.188,3.22-0.278,4.77
				c-0.161,3.149-0.313,6.127-0.453,8.875c-0.068,1.384-0.133,2.71-0.195,3.971c-0.074,1.265-0.143,2.465-0.209,3.593
				c-0.112,2.257,0.259,4.23,0.162,5.855c-0.238,3.257,0.11,5.11,0.11,5.11v0.004c0,1.932-2.447,3.342-4.379,3.15
				C134.088,387.813,132.351,386.692,132.015,385.273z"/>
			<path style="fill:#FB523A;" d="M158.049,209.883c-2.639-9.564-1.628-15.06-5.949-19.308c-4.321-4.248-11.739-3.877-11.739-3.877
				s-2.594,8.428-13.103,8.561c-10.509-0.133-13.249-8.552-13.249-8.552s-7.271-0.38-11.593,3.868
				c-4.321,4.248-3.805,10.616-6.444,20.18l12.293,2.409c0,0,3.677,17.857,2.71,24.678c0,0,4.846,3.9,16.282,3.9
				c11.437,0,19.094-2.474,19.094-2.474c-0.967-6.821,1.435-25.533,1.435-25.533L158.049,209.883z"/>
			<path style="fill:#193441;" d="M151.709,387.799c-0.238-0.705-0.876-1.198-1.618-1.252l-1.342-0.07
				c-3.679-0.191-6.851-2.408-8.369-5.608c-0.911,2.04-2.82,3.648-5.647,3.648c-1.673,0-2.942-0.557-3.833-1.429l-0.068,2.072
				c-0.08,2.459,1.848,4.518,4.308,4.598l14.756,0.481C151.187,390.282,152.122,389.022,151.709,387.799z"/>
			<path style="fill:#FFFFFF;" d="M98.511,338.8c7.347,4.089,16.523,4.729,24.366,1.699c2.936-1.134,6.039-2.783,9.054-1.88
				c2.158,0.647,3.743,2.485,5.774,3.46c6.768,3.247,14.854-4.064,21.968-1.667c-6.781-33.261-11.932-67.713-12.965-101.643
				l-35.562-0.772c0,0-10.014,28.374-7.874,52.339C105.413,314.3,98.511,338.8,98.511,338.8z"/>
			<path style="fill:#E89A49;" d="M115.582,268.216c-0.156-0.487-0.372-1.014-0.656-1.568c-0.28-0.55-0.64-1.108-0.943-1.738
				c-0.314-0.626-0.563-1.306-0.775-2.054c-0.223-0.743-0.481-1.504-0.737-2.311c-0.516-1.604-1.074-3.342-1.665-5.18
				c-0.579-1.84-1.203-3.775-1.867-5.769c-0.667-1.992-1.358-4.049-2.095-6.125c-0.385-1.031-0.774-2.071-1.164-3.115l-0.618-1.551
				l-0.308-0.77l-0.08-0.199l-0.028-0.097c-0.021-0.064-0.038-0.129-0.053-0.194c-0.13-0.516-0.195-1.031-0.164-1.536
				c0.013-0.248,0.05-0.507,0.103-0.732c0.009,0.039,0.168-0.696,0.286-1.189c0.503-2.116,3.161-21.069,3.161-21.069l-11.697-2.282
				c0,0-0.121,2.459-0.321,3.831c-0.497,3.28-1.034,7.11-1.561,11.221c-0.259,2.056-0.547,4.177-0.792,6.341
				c-0.061,0.578-0.125,0.912-0.218,2.042c-0.054,0.863-0.036,1.704,0.05,2.553c0.175,1.689,0.617,3.352,1.33,4.874
				c0.088,0.191,0.18,0.379,0.278,0.564l0.146,0.278l0.1,0.174l0.413,0.719l0.816,1.425c0.556,0.941,1.11,1.877,1.659,2.807
				c1.119,1.854,2.22,3.678,3.286,5.443c2.119,3.537,4.054,6.861,5.515,9.781c0.358,0.73,0.718,1.431,1.03,2.098
				c0.325,0.662,0.613,1.308,0.753,1.948c0.291,1.29,0.357,2.434,0.669,3.279c0.23,0.831,0.619,1.461,0.872,1.808
				c0.271,0.372,0.522,0.57,0.522,0.57l0.507,0.399c0.203,0.158,0.431,0.29,0.681,0.39c1.44,0.576,3.074-0.124,3.65-1.564
				c0,0,0.137-0.343,0.195-0.982C115.942,270.063,115.878,269.243,115.582,268.216z"/>
			<path style="fill:#FFC366;" d="M125.199,154.355c-2.623,1.479-5.569,2.615-7.499,4.926c-2.707,3.24-2.708,7.854-3.066,12.061
				c-0.058,0.678-0.199,1.465-0.803,1.779c-0.835,0.434-1.827-0.474-1.949-1.407c-0.122-0.933-0.31-7.441-1.619-10.901
				c-1.495-3.949-1.283-10.522,1.141-13.98c2.424-3.457,5.271-5.955,9.389-6.886c2.897-0.655,6.139-0.611,8.595,1.059
				C135.769,145.345,129.705,151.813,125.199,154.355z"/>
			<path style="fill:#FFC366;" d="M128.953,145.948c3.195,3.042,6.429,6.13,8.728,9.895c2.299,3.765,3.593,8.351,2.555,12.639
				c-0.186,0.768-0.445,1.564-0.253,2.33s1.075,1.418,1.769,1.04c0.522-0.284,0.657-0.958,0.736-1.547
				c0.479-3.563,0.952-7.126,1.419-10.691c0.446-3.408,0.874-6.958-0.224-10.215c-1.135-3.366-3.939-6.122-7.323-7.199
				c-3.385-1.077-7.266-0.448-10.137,1.643"/>
			<g>
				<path style="fill:#193441;" d="M121.834,164.322c0,0.694-0.563,1.257-1.257,1.257c-0.694,0-1.257-0.563-1.257-1.257
					c0-0.694,0.563-1.257,1.257-1.257C121.271,163.065,121.834,163.628,121.834,164.322z"/>
				<path style="fill:#E88620;" d="M123.364,169.6c0,1.133-1.186,2.051-2.648,2.051c-1.463,0-2.649-0.918-2.649-2.051
					c0-1.133,1.186-2.052,2.649-2.052C122.178,167.548,123.364,168.467,123.364,169.6z"/>
				<path style="fill:#193441;" d="M133.574,164.322c0,0.694,0.563,1.257,1.257,1.257c0.694,0,1.256-0.563,1.256-1.257
					c0-0.694-0.563-1.257-1.256-1.257C134.137,163.065,133.574,163.628,133.574,164.322z"/>
				<path style="fill:#E88620;" d="M132.044,169.6c0,1.133,1.186,2.051,2.648,2.051c1.463,0,2.649-0.918,2.649-2.051
					c0-1.133-1.186-2.052-2.649-2.052C133.23,167.548,132.044,168.467,132.044,169.6z"/>
				<path style="fill:#FFFFFF;" d="M131.327,173.302c0.508,0,0.846,0.573,0.557,0.991c-0.847,1.224-2.254,2.027-3.856,2.027
					c-1.573,0-2.958-0.775-3.81-1.962c-0.317-0.441-0.027-1.056,0.516-1.056H131.327z"/>
			</g>
		</g>
		<g>
			<path style="fill:#E89A49;" d="M296.541,379.067l0.21,6.429c0.079,2.438-1.832,4.478-4.27,4.558l-14.628,0.477
				c-1.279,0.042-2.206-1.207-1.796-2.42l0,0c0.236-0.699,0.868-1.188,1.604-1.241l1.33-0.069c4.569-0.238,8.357-3.621,9.109-8.133
				l0,0L296.541,379.067z"/>
			<path style="fill:#E89A49;" d="M302.424,298.741c-0.524,2.294-1.049,4.665-1.571,7.099c-0.714,3.381-1.435,6.888-2.098,10.419
				c-0.307,1.692-0.616,3.398-0.927,5.11c-0.077,0.368-0.136,0.843-0.197,1.302l-0.046,0.344l-0.023,0.172l-0.006,0.043
				c-0.001-0.064-0.006,0.203-0.004-0.132l-0.006,0.062l-0.048,0.498c-0.036,0.324-0.047,0.731-0.057,1.094l0.021,1.202
				c0.146,3.337,0.922,7.035,1.55,10.699c0.327,1.837,0.59,3.702,0.79,5.557c0.179,1.806,0.298,3.877,0.269,5.522
				c0.027,3.831-0.193,7.191-0.449,10.444c-0.267,3.229-0.576,6.251-0.944,9.03c-0.181,1.387-0.354,2.717-0.519,3.981
				c-0.192,1.26-0.374,2.456-0.545,3.579c-0.339,2.245-0.709,4.195-0.994,5.801c-0.607,3.205-1.04,5.041-1.04,5.041
				c-0.333,1.407-1.669,2.518-3.188,2.67c-1.915,0.191-3.106-1.207-3.955-3.122v-0.004c0,0-0.042-1.837-0.278-5.065
				c-0.096-1.61-0.115-3.567-0.226-5.804c-0.065-1.118-0.134-2.307-0.207-3.561c-0.061-1.25-0.126-2.565-0.193-3.937
				c-0.139-2.725-0.29-5.676-0.449-8.798c-0.09-1.536-0.181-3.115-0.275-4.728c-0.099-1.585-0.23-3.217-0.391-4.729
				c-0.212-1.803-0.363-3.231-0.527-4.961c-0.147-1.697-0.295-3.414-0.445-5.145c-0.153-1.754-0.323-3.542-0.544-5.372
				c-0.224-1.835-0.516-3.704-0.822-5.711c-0.159-1.014-0.308-2.053-0.438-3.209l-0.083-0.881l-0.01-0.11
				c0.002-0.364-0.001-0.126-0.002-0.218l-0.003-0.043l-0.013-0.173l-0.026-0.345c-0.035-0.46-0.073-0.902-0.087-1.449
				c-0.067-1.947-0.133-3.887-0.199-5.811c-0.129-3.677-0.255-7.296-0.378-10.798c-0.154-3.911-0.318-7.665-0.498-11.204
				C288.298,296.531,295.486,298.326,302.424,298.741z"/>
			<path style="fill:#E88620;" d="M299.098,314.5c-3.231-5.846-6.077-11.865-8.78-17.964c3.926,1.235,8.055,1.964,12.106,2.206
				c-0.524,2.294-1.049,4.665-1.571,7.099C300.258,308.656,299.665,311.567,299.098,314.5z"/>
			<path style="fill:#193441;" d="M276.057,388.111c0.236-0.699,0.868-1.188,1.604-1.241l1.33-0.069
				c3.647-0.19,6.791-2.387,8.296-5.56c0.903,2.022,2.796,3.616,5.598,3.616c1.658,0,2.916-0.553,3.799-1.417l0.067,2.055
				c0.079,2.438-1.832,4.478-4.27,4.558l-14.628,0.477C276.574,390.572,275.647,389.323,276.057,388.111z"/>
			<path style="fill:#E89A49;" d="M315.207,379.067l0.21,6.429c0.079,2.438-1.832,4.478-4.27,4.558l-14.628,0.477
				c-1.279,0.042-2.206-1.207-1.796-2.42l0,0c0.236-0.699,0.868-1.188,1.604-1.241l1.33-0.069c4.569-0.238,8.357-3.621,9.109-8.133
				l0,0L315.207,379.067z"/>
			<path style="fill:#E89A49;" d="M315.772,296.291c0.194-0.036,0.384-0.084,0.576-0.127c-0.043,2.516-0.069,5.13-0.082,7.819
				c0.006,3.5,0.012,7.118,0.017,10.793c0,1.863,0.026,3.712,0.001,5.722l-0.023,1.773l-0.024,0.355l-0.013,0.173l-0.006,0.086
				c0,0.089-0.004-0.137-0.001,0.21l-0.003,0.031l-0.048,0.498c-0.073,0.677-0.063,1.476-0.041,2.29
				c0.141,3.336,0.916,7.038,1.546,10.702c0.328,1.839,0.591,3.704,0.793,5.56c0.18,1.805,0.301,3.881,0.272,5.527
				c0.028,3.83-0.191,7.197-0.447,10.451c-0.267,3.232-0.576,6.256-0.944,9.037c-0.181,1.388-0.354,2.719-0.519,3.984
				c-0.192,1.261-0.374,2.457-0.546,3.582c-0.339,2.246-0.71,4.198-0.994,5.805c-0.608,3.207-1.041,5.045-1.041,5.045
				c-0.333,1.407-1.669,2.518-3.188,2.67c-1.915,0.191-3.106-1.207-3.954-3.122v-0.004c0,0-0.042-1.838-0.278-5.069
				c-0.096-1.611-0.115-3.569-0.226-5.808c-0.065-1.119-0.134-2.309-0.207-3.564c-0.061-1.251-0.126-2.567-0.193-3.94
				c-0.139-2.727-0.29-5.68-0.45-8.804c-0.09-1.538-0.182-3.117-0.276-4.731c-0.099-1.587-0.23-3.216-0.393-4.734
				c-0.211-1.804-0.364-3.23-0.526-4.964c-0.147-1.698-0.296-3.417-0.445-5.149c-0.154-1.756-0.323-3.545-0.546-5.378
				c-0.225-1.836-0.518-3.708-0.825-5.718c-0.156-1.02-0.308-2.057-0.436-3.22l-0.083-0.882l-0.005-0.055
				c0.003,0.318-0.002,0.063-0.003,0.123l-0.012-0.086l-0.023-0.172l-0.047-0.334l-0.103-0.402l-0.118-0.574
				c-0.336-1.647-0.713-3.432-1.114-5.174c-0.796-3.504-1.645-6.991-2.481-10.363c-1.05-4.184-2.089-8.203-3.086-11.958
				C301.74,296.767,309.141,297.523,315.772,296.291z"/>
			<path style="fill:#193441;" d="M294.723,388.111c0.236-0.699,0.868-1.188,1.604-1.241l1.33-0.069
				c3.647-0.19,6.791-2.387,8.296-5.56c0.904,2.022,2.796,3.616,5.598,3.616c1.658,0,2.917-0.553,3.799-1.417l0.067,2.055
				c0.079,2.438-1.832,4.478-4.27,4.558l-14.628,0.477C295.24,390.572,294.312,389.323,294.723,388.111z"/>
			<path style="fill:#FFFFFF;" d="M323.707,297.929c-4.622,4.388-36.048,7.35-47.624-2.288c-1.406-18.993,5.399-55.035,5.399-55.035
				l34.784-0.995c0,0,9.927,28.128,7.806,51.884C323.88,293.641,323.764,295.792,323.707,297.929z"/>
			<path style="fill:#FFDB82;" d="M280.39,172.192c1.306-5.808,5.525-10.952,11.082-13.086c4.838-1.858,10.394-1.403,15.141,0.676
				c4.747,2.08,14.919,19.443,12.303,26.005c-2.616,6.562-9.251,11.238-16.293,11.803c-7.042,0.565-14.2-2.86-18.438-8.512
				C280.614,184.315,279.084,178,280.39,172.192z"/>
			<path style="fill:#E89A49;" d="M316.633,189.211c-10.148-0.307-9.234-8.933-9.234-8.933l-6.787-0.21l-6.787,0.21
				c0,0,0.914,8.627-9.234,8.933c-3.298,0.1-9.915,10.811-9.915,10.811h46.533C321.21,200.022,318.151,189.257,316.633,189.211z"/>
			<path style="fill:#E88620;" d="M293.501,182.965c-0.196,0.804-0.508,1.698-1.01,2.557c3.178,6.893,11.985,7.768,15.942-0.473
				c-0.303-0.509-0.89-2.851-1.047-3.639L293.501,182.965z"/>
			<path style="fill:#E89A49;" d="M286.047,159.386c0.862-9.187,7.583-14.46,14.196-14.353c6.614,0.106,13.204,5.592,13.842,14.804
				c0.374,5.395-0.8,11.21-1.647,14.553c-0.503,1.989-1.445,3.797-2.751,5.224c-2.992,3.271-6.88,5.88-9.936,5.831
				c-3.056-0.049-6.878-2.781-9.79-6.147c-1.271-1.469-2.168-3.306-2.623-5.31C286.576,170.617,285.542,164.768,286.047,159.386z"/>
			<path style="fill:#E89A49;" d="M276.913,193.28c0,0-0.858,0.791-2.36,2.176c-1.485,1.392-3.619,3.36-6.2,5.654
				c-2.57,2.295-5.59,4.953-8.86,7.492c-1.628,1.258-3.329,2.51-4.962,3.487c-0.8,0.483-1.61,0.891-2.163,1.118
				c-0.26,0.112-0.485,0.177-0.418,0.188c0.014,0.018,0.142,0.013,0.348,0.06l0.087,0.019l0.043,0.012l0.021,0.007
				c0.581,0.141,0.145,0.036,0.268,0.066l-0.218-0.046c0.02-0.016,0.572,0.214,0.501,0.199c0.238,0.165,0.069,0.136-0.128-0.012
				c-0.208-0.143-0.485-0.387-0.767-0.676c-0.571-0.583-1.202-1.331-1.786-2.132c-1.19-1.609-2.326-3.401-3.372-5.184
				c-1.035-1.794-1.951-3.609-2.739-5.367c-0.394-0.879-0.755-1.746-1.083-2.591c-0.312-0.849-0.588-1.677-0.833-2.476
				c-0.466-1.6-0.816-3.084-0.969-4.394c-0.071-1.325,0.386-2.429,0.479-3.27c0.131-0.846,0.081-1.477-0.014-1.938
				c-0.092-0.458-0.227-0.74-0.227-0.74l-0.336-0.696c-0.656-1.36-2.29-1.932-3.65-1.276c-0.223,0.107-0.434,0.25-0.612,0.404
				c0,0-0.079,0.069-0.212,0.214c-0.131,0.147-0.319,0.369-0.495,0.679c-0.37,0.613-0.744,1.583-0.793,2.803
				c-0.085,1.223,0.336,2.641,0.467,4.196c0.046,1.569,0.13,3.318,0.349,5.203c0.098,0.944,0.227,1.922,0.385,2.928
				c0.142,1.011,0.315,2.051,0.52,3.117c0.41,2.131,0.949,4.359,1.646,6.653c0.694,2.3,1.565,4.646,2.791,7.026
				c0.631,1.187,1.309,2.397,2.239,3.635c0.468,0.62,0.988,1.253,1.65,1.911c0.671,0.651,1.449,1.356,2.76,2.028
				c0.191,0.123,1.027,0.443,1.324,0.527l0.211,0.071c0.141,0.034-0.277-0.065,0.322,0.08l0.076,0.016l0.152,0.031l0.306,0.056
				c0.792,0.127,1.516,0.145,2.118,0.109c1.249-0.069,2.178-0.297,3.042-0.534c1.695-0.491,3.013-1.106,4.266-1.721
				c2.465-1.249,4.572-2.574,6.545-3.911c3.919-2.676,7.262-5.342,10.079-7.675c2.799-2.346,5.047-4.358,6.62-5.761
				c1.544-1.425,2.426-2.239,2.426-2.239c2.637-2.434,2.801-6.545,0.367-9.182c-2.434-2.637-6.545-2.801-9.182-0.367L276.913,193.28
				z"/>
			<path style="fill:#193441;" d="M265.532,203.346c0,0,5.853-6.534,10.137-10.745c4.284-4.211,11.637-3.843,11.637-3.843
				s2.571,8.355,12.989,8.486c10.418-0.132,13.134-8.478,13.134-8.478s7.208-0.377,11.492,3.834
				c4.284,4.211,3.772,10.523,6.388,20.004l-12.186,2.388c0,0-3.779,18.063-2.82,24.825c0,0-4.67,3.505-16.008,3.505
				s-18.928-2.453-18.928-2.453c0.959-6.762-2.475-30.402-2.475-30.402l-4.794,2.463L265.532,203.346z"/>
			<path style="fill:#E89A49;" d="M311.869,269.568c0.155-0.483,0.369-1.005,0.651-1.554c0.277-0.545,0.634-1.098,0.935-1.723
				c0.311-0.62,0.558-1.295,0.768-2.036c0.221-0.737,0.477-1.491,0.731-2.291c0.511-1.59,1.065-3.313,1.65-5.135
				c0.574-1.824,1.193-3.743,1.851-5.719c0.662-1.974,1.347-4.014,2.077-6.072c0.382-1.022,0.767-2.053,1.154-3.088l0.612-1.537
				l0.305-0.763l0.079-0.197l0.028-0.097c0.021-0.063,0.037-0.128,0.052-0.192c0.129-0.512,0.193-1.022,0.162-1.523
				c-0.013-0.246-0.049-0.503-0.102-0.726c-0.009,0.039-0.166-0.69-0.284-1.178c-0.499-2.098-3.134-20.886-3.134-20.886
				l11.595-2.263c0,0,0.12,2.438,0.318,3.798c0.493,3.251,1.025,7.048,1.547,11.124c0.257,2.038,0.543,4.141,0.785,6.286
				c0.061,0.573,0.124,0.905,0.216,2.024c0.054,0.856,0.036,1.69-0.049,2.531c-0.173,1.674-0.612,3.322-1.318,4.832
				c-0.088,0.189-0.178,0.376-0.276,0.559l-0.145,0.276l-0.099,0.172l-0.409,0.713l-0.809,1.412c-0.551,0.932-1.1,1.861-1.645,2.782
				c-1.109,1.837-2.201,3.645-3.257,5.395c-2.101,3.506-4.019,6.801-5.467,9.696c-0.355,0.724-0.711,1.418-1.021,2.079
				c-0.322,0.656-0.608,1.296-0.746,1.931c-0.288,1.279-0.353,2.412-0.663,3.251c-0.228,0.823-0.613,1.448-0.865,1.792
				c-0.269,0.369-0.517,0.565-0.517,0.565l-0.503,0.396c-0.201,0.156-0.427,0.287-0.676,0.387c-1.427,0.571-3.047-0.123-3.619-1.55
				c0,0-0.136-0.34-0.193-0.974C311.512,271.398,311.576,270.586,311.869,269.568z"/>
			<path style="fill:#FFDB82;" d="M299.461,157.111c1.972,0.962,4.133,1.497,6.091,2.487c1.958,0.991,3.788,2.596,4.24,4.743
				c0.521,2.47-0.845,5.258,0.383,7.464c1.362,2.447,5.113,2.647,6.557,5.046c1.387,2.305-0.144,5.329-2.183,7.083
				c-2.039,1.754-4.617,2.928-6.229,5.081c-1.769,2.363-2.037,5.755-0.662,8.366c1.375,2.611,4.324,4.309,7.273,4.188
				c4.104-0.169,7.495-3.603,8.901-7.462c1.406-3.859,1.235-8.09,1.017-12.192c-0.246-4.632-0.527-9.262-0.843-13.889
				c-0.492-7.199-1.197-14.767-5.291-20.708c-3.043-4.417-7.869-7.568-13.137-8.578c-4.232-0.812-14.196-0.689-14.804,4.701
				C290.163,148.867,294.883,154.878,299.461,157.111z"/>
			<path style="fill:#FFDB82;" d="M290.143,157.51c-2.416,4.387-5.531,8.751-5.584,13.76c-0.038,3.613,1.546,7.016,2.979,10.332
				c1.433,3.317,2.771,6.889,2.211,10.458c-0.56,3.57-3.725,6.979-7.308,6.509c-2.451-0.321-4.411-2.35-5.338-4.641
				c-0.927-2.292-1.001-4.827-1.007-7.299c-0.027-10.562,0.959-21.126,2.938-31.501c0.947-4.966,3.917-13.196,10.69-11.542
				C295.866,145.086,292.063,154.023,290.143,157.51z"/>
			<g>
				<path style="fill:#193441;" d="M293.516,166.818c0,0.694-0.563,1.257-1.257,1.257c-0.694,0-1.257-0.563-1.257-1.257
					c0-0.694,0.563-1.257,1.257-1.257C292.953,165.561,293.516,166.124,293.516,166.818z"/>
				<path style="fill:#E88620;" d="M295.046,172.096c0,1.133-1.186,2.051-2.648,2.051c-1.463,0-2.649-0.918-2.649-2.051
					c0-1.133,1.186-2.052,2.649-2.052C293.86,170.045,295.046,170.963,295.046,172.096z"/>
				<path style="fill:#193441;" d="M305.256,166.818c0,0.694,0.563,1.257,1.257,1.257c0.694,0,1.257-0.563,1.257-1.257
					c0-0.694-0.563-1.257-1.257-1.257C305.819,165.561,305.256,166.124,305.256,166.818z"/>
				<path style="fill:#E88620;" d="M303.726,172.096c0,1.133,1.186,2.051,2.648,2.051c1.463,0,2.649-0.918,2.649-2.051
					c0-1.133-1.186-2.052-2.649-2.052C304.912,170.045,303.726,170.963,303.726,172.096z"/>
				<path style="fill:#FFFFFF;" d="M303.009,175.798c0.508,0,0.846,0.573,0.557,0.991c-0.847,1.224-2.254,2.027-3.856,2.027
					c-1.573,0-2.958-0.775-3.81-1.962c-0.317-0.441-0.027-1.056,0.516-1.056H303.009z"/>
			</g>
		</g>
		<g>
			<path style="fill:#B56B1F;" d="M250.277,195.461c-0.473-0.296-0.944-0.596-1.423-0.881l-2.293-1.414l-0.592-0.348l-1.321-0.038
				l-2.565-0.023c-1.714-0.004-3.428,0.043-5.134,0.08c-3.413,0.085-13.258,0.323-16.554,0.661c-2.27,0.25-6.622,0.99-6.622,0.99
				l-15.03-11.336c0,0,1.934-0.924,2.52-1.147c1.069-0.403,2.133-0.768,3.169-1.056c1.048-0.317,2.067-0.549,3.089-0.785
				c4.072-0.846,7.99-1.222,11.845-1.362c3.852-0.16,14.096-0.047,17.846,0.175c1.876,0.106,3.741,0.285,5.605,0.477l2.797,0.322
				l2.875,0.391l0.446,0.061c0.871,0.118,6.345-0.131,14.034,13.129C264.507,196.012,250.277,195.461,250.277,195.461z"/>
			<g>
				<g>
					<path style="fill:#FFC0A9;" d="M208.333,216.87v24.855c0.031-0.012,0.062-0.023,0.093-0.035
						c0.983-0.378,1.813-1.178,2.179-2.253l0.154-0.451c1.438-4.221,2.808-8.449,4.126-12.71c0.66-2.131,1.299-4.267,1.908-6.437
						c0.078-0.283,0.154-0.567,0.232-0.85C214.109,218.361,211.209,217.665,208.333,216.87z"/>
					<g>
						<g>
							<g>
								<path style="fill:#1D262D;" d="M233.747,378.392l0.217,6.644c0.082,2.519-1.894,4.628-4.413,4.711l-17.569,0.493
									c-1.322,0.043-2.28-1.247-1.856-2.5l0,0c0.244-0.722,0.897-1.227,1.657-1.282l3.827-0.072
									c4.721-0.245,8.637-3.742,9.413-8.405l0,0L233.747,378.392z"/>
								<path style="fill:#1D262D;" d="M223.25,367.331c-0.163-1.54-0.351-3.08-0.482-4.622c-0.237-2.584-0.47-5.172-0.669-7.763
									l13.358-2.915l-0.097,1.404l-0.699,9.178c-0.108,1.531-0.264,3.065-0.395,4.598c-0.135,1.534-0.061,3.085-0.224,4.62
									c-0.243,2.466-0.637,6.934-0.782,8.594c-0.04,0.458-0.19,0.897-0.429,1.289c-1.05,1.721-2.298,2.923-4.193,2.669
									c-1.724-0.231-3.236-1.582-3.516-3.211c-0.525-3.076-0.949-6.148-1.333-9.225
									C223.585,370.41,223.419,368.871,223.25,367.331z"/>
							</g>
							<g>
								<path style="fill:#193441;" d="M233.747,378.392l0.217,6.644c0.082,2.519-1.894,4.628-4.413,4.711l-17.569,0.493
									c-1.322,0.043-2.28-1.247-1.856-2.5l0,0c0.244-0.722,0.897-1.227,1.657-1.282l3.827-0.072
									c4.721-0.245,8.637-3.742,9.413-8.405l0,0L233.747,378.392z"/>
								<path style="fill:#FFC0A9;" d="M223.25,367.331c-0.163-1.54-0.351-3.08-0.482-4.622c-0.237-2.584-0.47-5.172-0.669-7.763
									l13.358-2.915l-0.097,1.404l-0.699,9.178c-0.108,1.531-0.264,3.065-0.395,4.598c-0.135,1.534-0.061,3.085-0.224,4.62
									c-0.243,2.466-0.637,6.934-0.782,8.594c-0.04,0.458-0.19,0.897-0.429,1.289c-1.05,1.721-2.298,2.923-4.193,2.669
									c-1.724-0.231-3.236-1.582-3.516-3.211c-0.525-3.076-0.949-6.148-1.333-9.225
									C223.585,370.41,223.419,368.871,223.25,367.331z"/>
							</g>
						</g>
						<path style="fill:#193441;" d="M243.049,264.343l-27.632-8.127c0,0-0.533,14.661-0.371,19.326
							c0.321,9.25,0.695,28.97,1.272,45.231c0.577,16.262,4.343,58.433,4.343,58.433s9.187,1.554,14.73,0.452
							c0,0,2.567-40.69,1.347-52.797c-1.22-12.107,1.101-26.488,3.94-44.664C241.625,276.132,242.899,270.003,243.049,264.343z"/>
						<g>
							<path style="fill:#193441;" d="M259.589,378.582l0.127,6.646c0.048,2.52-1.956,4.603-4.476,4.651l-17.574,0.29
								c-1.323,0.025-2.263-1.278-1.823-2.525l0,0c0.254-0.718,0.913-1.215,1.674-1.26l3.827-0.053
								c4.725-0.182,8.687-3.625,9.526-8.278l0,0L259.589,378.582z"/>
							<path style="fill:#FFC0A9;" d="M249.126,367.583c-0.226-1.532-0.477-3.063-0.671-4.598c-0.343-2.572-0.682-5.148-0.986-7.729
								l13.228-3.459l-0.039,1.407l-0.323,9.199c-0.045,1.535-0.138,3.073-0.206,4.61c-0.072,1.538,0.066,3.085-0.035,4.625
								c-0.176,3.079-0.33,6.166-0.458,9.256l0,0.008c-1.046,2.099-2.292,3.696-4.427,3.499c-1.732-0.16-3.298-1.448-3.644-3.063
								c-0.65-3.052-1.2-6.104-1.709-9.163C249.587,370.646,249.358,369.115,249.126,367.583z"/>
						</g>
						<path style="fill:#25506B;" d="M235.618,264.343c0.722,3.35,1.408,7.146,1.829,12.497c0.73,9.286,1.972,29.094,3.267,45.418
							c1.295,16.324,6.379,58.504,6.379,58.504s9.304,1.207,14.827-0.114c0,0,1.347-40.936-0.412-53.06
							c-1.759-12.123-0.057-26.668,1.997-45.049c0.692-6.19,2.393-16.032-2.807-29.593L235.618,264.343z"/>
						<path style="fill:#FFC0A9;" d="M257.039,192.519c-10.488-0.317-9.543-9.232-9.543-9.232l-7.014-0.217l-7.014,0.217
							c0,0,0.945,8.915-9.543,9.232c-3.408,0.103-10.247,11.173-10.247,11.173h48.09
							C261.769,203.691,258.608,192.566,257.039,192.519z"/>
						<path style="fill:#FFAF96;" d="M233.133,186.064c-0.203,0.831-0.525,1.755-1.044,2.642c3.284,7.124,12.386,8.028,16.475-0.489
							c-0.313-0.526-0.54-1.339-0.703-2.154H233.133z"/>
						<path style="fill:#FFC0A9;" d="M224.184,161.173c0.968-10.315,8.515-16.236,15.94-16.116
							c7.426,0.119,14.825,6.279,15.542,16.622c0.42,6.058-0.899,12.587-1.849,16.34c-0.565,2.233-1.622,4.263-3.088,5.865
							c-3.36,3.673-7.725,6.602-11.156,6.547c-3.431-0.055-7.723-3.123-10.993-6.902c-1.427-1.649-2.434-3.712-2.945-5.962
							C224.777,173.784,223.617,167.216,224.184,161.173z"/>
						<path style="fill:#E89A49;" d="M265.941,221.687l11.168-4.992c-2.704-9.798-3.809-16.322-8.237-20.674
							c-4.427-4.352-15-3.647-15-3.647s-2.477,8.138-13.463,8.138c-10.986,0-13.228-8.177-13.228-8.177s-10.808-0.667-15.235,3.685
							c-4.427,4.352-6.99,10.875-9.693,20.674l12.625,4.992l-2.221,54.217c0,0,9.429,3.91,25.17,3.91
							c20.099,0,28.175-3.229,28.175-3.229L265.941,221.687z"/>
						<path style="fill:#193441;" d="M232.734,169.614c0,0.677-0.549,1.226-1.226,1.226c-0.677,0-1.226-0.549-1.226-1.226
							c0-0.677,0.549-1.226,1.226-1.226C232.185,168.388,232.734,168.937,232.734,169.614z"/>
						<path style="fill:#193441;" d="M247.046,169.614c0,0.677,0.549,1.226,1.227,1.226c0.677,0,1.226-0.549,1.226-1.226
							c0-0.677-0.549-1.226-1.226-1.226C247.595,168.388,247.046,168.937,247.046,169.614z"/>
						<path style="fill:#FFFFFF;" d="M235.864,179.051c-0.621,0-1.034,0.699-0.68,1.21c1.034,1.494,2.753,2.475,4.709,2.475
							c1.921,0,3.613-0.946,4.653-2.395c0.387-0.539,0.033-1.29-0.631-1.29H235.864z"/>
						<g>
							<path style="fill:#FFAF8A;" d="M234.227,174.765c0,1.106-1.157,2.002-2.585,2.002c-1.427,0-2.585-0.896-2.585-2.002
								c0-1.106,1.157-2.002,2.585-2.002C233.07,172.763,234.227,173.659,234.227,174.765z"/>
						</g>
						<path style="fill:#FFAF8A;" d="M245.552,174.765c0,1.106,1.157,2.002,2.585,2.002c1.428,0,2.585-0.896,2.585-2.002
							c0-1.106-1.157-2.002-2.585-2.002C246.71,172.763,245.552,173.659,245.552,174.765z"/>
						<path style="fill:#AB661F;" d="M256.12,146.314c-3.1-1.454-6.155-4.557-9.572-5.187c-2.369-0.437-4.454,0.482-6.753,0.833
							c-2.719,0.416-5.827,0.212-8.503,0.994c-4.234,1.236-7.466,5.005-6.072,8.875c-1.012,1.943-1.616,4.087-1.829,6.266
							c-0.717,7.331,0.852,11.948,1.395,11.723c0.886-0.368,1.877-2.075,1.877-5.388c0-4.567,1.702-6.986,3.531-7.794
							c6.066,4.059,13.423,2.702,20.04,0.361c1.561,1.062,2.876,3.418,2.876,7.434c0,3.957,0.991,5.02,1.877,5.388
							c0.543,0.226,2.112-4.392,1.395-11.723c-0.114-1.164-0.35-2.315-0.686-3.434C259.447,152.416,261.55,148.861,256.12,146.314z"
							/>
					</g>
				</g>
				<path style="fill:#FFC0A9;" d="M279.037,240.761c-0.013-0.767-0.056-1.302-0.086-1.961c-0.083-1.185-0.175-2.323-0.287-3.395
					c-0.465-4.316-1.081-8.137-1.658-11.438c-0.307-1.641-0.57-3.145-0.856-4.465c-0.15-0.699-0.315-1.662-0.443-2.261
					c-4.762,1.997-9.536,4.133-14.621,5.312c0.358,1.383,0.77,2.952,1.247,4.699c0.426,1.555,0.887,3.24,1.375,5.021
					c0.5,1.768,1.008,3.638,1.488,5.515c0.259,0.946,0.487,1.87,0.705,2.775c0.088,0.399,0.177,0.801,0.266,1.204l0.095,0.42
					l0.013,0.053l0.004,0.013c0.011-0.635,0.003-0.161,0.006-0.296l0,0.05l0.002,0.202l0.002,0.202l0.001,0.101l-0.002,0.01
					c-0.001,0.014,0.003,0.028,0.01,0.043c0.008,0.007,0.021,0.018,0.006,0.154l-0.047,0.625c-0.051,0.462-0.1,0.926-0.173,1.43
					c-0.148,1.021-0.296,2.046-0.444,3.07c-0.331,2.127-0.663,4.254-0.989,6.348c-0.356,2.118-0.706,4.202-1.045,6.219
					c-0.357,2.019-0.681,3.982-1.067,5.821c-0.358,1.848-0.743,3.584-1.108,5.183c-0.189,0.798-0.331,1.575-0.553,2.287
					c-0.221,0.713-0.534,1.357-0.846,1.956c-0.65,1.191-1.127,2.255-1.348,3.186c-0.474,1.851-0.049,3.125-0.049,3.125l0.013,0.042
					c0.117,0.346,0.289,0.68,0.519,0.988c1.178,1.582,3.415,1.91,4.998,0.733c0,0,1.09-0.811,1.763-2.615
					c0.353-0.897,0.57-2.051,0.711-3.409c0.084-0.674,0.19-1.387,0.411-2.103c0.218-0.718,0.54-1.444,0.831-2.216
					c0.596-1.54,1.245-3.208,1.97-4.962c0.697-1.763,1.504-3.603,2.296-5.524c0.789-1.929,1.606-3.922,2.434-5.947
					c0.81-2.041,1.652-4.12,2.38-6.275c0.372-1.083,0.746-2.163,1.066-3.312c0.167-0.56,0.334-1.164,0.49-1.766l0.243-0.975
					c0.034-0.13,0.116-0.384,0.156-0.645l0.182-0.753L279.037,240.761z"/>
			</g>
			<path style="fill:#B56B1F;" d="M258.938,187.388c3.552,4.306,5.463,8.618,5.896,10.272c0.432,1.66,0.83,3.233,1.176,4.708
				c0.161,0.75,0.338,1.442,0.459,2.141c0.102,0.708,0.272,1.332,0.501,1.945c0.214,0.62,0.524,1.16,0.711,1.731
				c0.194,0.575,0.32,1.112,0.371,1.617c0.06,1.079-0.134,1.916-0.454,2.548c-0.283,0.6-0.558,0.869-0.558,0.869
				c-1.198,1.161-3.115,1.239-4.396,0.123l-1.318-1.148c0,0-0.23-0.201-0.428-0.478c-0.168-0.244-0.44-0.702-0.441-1.269
				c-0.121-0.619,0.126-1.458,0.094-2.507c-0.05-1.036-0.683-2.101-1.192-3.311c-0.566-1.198-1.272-2.48-2.074-3.811
				c-0.829-1.327-1.733-2.711-2.704-4.13c-0.972-1.421-2.011-2.869-3.075-4.34c-0.521-0.741-1.047-1.488-1.574-2.238l-1.078-1.574
				C248.855,188.537,258.692,187.089,258.938,187.388z"/>
			<path style="fill:#193441;" d="M175.816,133.809c0,3.937,3.192,7.128,7.128,7.128c3.937,0,7.129-3.192,7.129-7.128
				c0-3.937-3.191-7.129-7.129-7.129C179.008,126.681,175.816,129.872,175.816,133.809z"/>
			<g>
				<g>
					<g>
						<g>
							<path style="fill:#1D262D;" d="M189.444,377.91l-0.222,6.808c-0.084,2.582,1.941,4.743,4.522,4.827l18.003,0.505
								c1.355,0.044,2.337-1.278,1.902-2.562l0,0c-0.25-0.74-0.919-1.258-1.698-1.314l-3.921-0.073
								c-4.838-0.252-8.85-3.834-9.646-8.613l0,0L189.444,377.91z"/>
							<path style="fill:#1D262D;" d="M200.2,366.455c0.167-1.578,0.36-3.156,0.494-4.736c0.243-2.648,0.482-5.3,0.685-7.955
								l-13.689-2.987l0.099,1.439l0.716,9.405c0.11,1.569,0.271,3.141,0.405,4.712c0.138,1.571,0.062,3.161,0.23,4.734
								c0.309,3.145,0.859,9.466,0.859,9.466c1.158,2.105,2.502,3.688,4.679,3.397c1.766-0.237,3.316-1.621,3.602-3.29
								c0.538-3.152,0.973-6.3,1.366-9.453C199.856,369.61,200.027,368.033,200.2,366.455z"/>
						</g>
						<g>
							<path style="fill:#FB523A;" d="M189.444,377.91l-0.222,6.808c-0.084,2.582,1.941,4.743,4.522,4.827l18.003,0.505
								c1.355,0.044,2.337-1.278,1.902-2.562l0,0c-0.25-0.74-0.919-1.258-1.698-1.314l-3.921-0.073
								c-4.838-0.252-8.85-3.834-9.646-8.613l0,0L189.444,377.91z"/>
							<path style="fill:#B56B1F;" d="M200.2,366.455c0.167-1.578,0.36-3.156,0.494-4.736c0.243-2.648,0.482-5.3,0.685-7.955
								l-13.689-2.987l0.099,1.439l0.716,9.405c0.11,1.569,0.271,3.141,0.405,4.712c0.138,1.571,0.062,3.161,0.23,4.734
								c0.309,3.145,0.859,9.466,0.859,9.466c1.158,2.105,2.502,3.688,4.679,3.397c1.766-0.237,3.316-1.621,3.602-3.29
								c0.538-3.152,0.973-6.3,1.366-9.453C199.856,369.61,200.027,368.033,200.2,366.455z"/>
						</g>
					</g>
					<path style="fill:#385ABF;" d="M179.911,255.577l28.315-8.328c0,0,0.547,15.023,0.38,19.803
						c-0.329,9.479-0.712,29.686-1.304,46.349c-0.591,16.664-4.45,65.343-4.45,65.343s-9.415,1.593-15.094,0.464
						c0,0-2.631-47.161-1.38-59.568c1.251-12.406-1.128-27.142-4.037-45.768C181.371,267.657,180.065,261.376,179.911,255.577z"/>
					<g>
						<path style="fill:#FB523A;" d="M162.962,378.104l-0.13,6.81c-0.05,2.583,2.004,4.716,4.587,4.766l18.009,0.297
							c1.355,0.026,2.319-1.31,1.867-2.588l0,0c-0.26-0.736-0.936-1.245-1.716-1.291l-3.922-0.054
							c-4.841-0.187-8.901-3.715-9.761-8.483l0,0L162.962,378.104z"/>
						<path style="fill:#B56B1F;" d="M173.684,366.834c0.232-1.57,0.489-3.139,0.687-4.712c0.351-2.635,0.698-5.276,1.01-7.92
							l-13.555-3.545l0.04,1.441l0.331,9.426c0.046,1.573,0.142,3.149,0.211,4.724c0.074,1.576-0.068,3.161,0.036,4.739
							c0.18,3.155,0.338,6.319,0.47,9.485l0,0.008c1.072,2.151,2.349,3.787,4.536,3.585c1.775-0.164,3.38-1.484,3.734-3.139
							c0.666-3.128,1.23-6.255,1.752-9.39C173.212,369.972,173.447,368.403,173.684,366.834z"/>
					</g>
					<path style="fill:#4B78FF;" d="M187.526,255.577c-0.74,3.433-1.443,7.322-1.874,12.806c-0.748,9.515-2.021,29.813-3.348,46.541
						c-1.327,16.728-6.536,65.415-6.536,65.415s-9.534,1.237-15.193-0.117c0,0-1.38-47.413,0.422-59.836
						c1.803-12.423,0.059-27.327-2.046-46.163c-0.709-6.343-2.452-16.428,2.876-30.324L187.526,255.577z"/>
					<path style="fill:#B56B1F;" d="M165.576,181.977c10.747-0.325,9.779-9.46,9.779-9.46l7.188-0.222l7.188,0.222
						c0,0-0.968,9.135,9.779,9.46c3.492,0.105,10.5,11.449,10.5,11.449h-49.279C160.729,193.426,163.968,182.026,165.576,181.977z"
						/>
					<path style="fill:#885017;" d="M190.073,175.363c0.208,0.851,0.538,1.798,1.07,2.708c-3.365,7.3-12.692,8.227-16.883-0.501
						c0.321-0.539,0.554-1.372,0.721-2.207H190.073z"/>
					<path style="fill:#B56B1F;" d="M199.243,149.857c-0.992-10.57-8.725-16.637-16.334-16.514
						c-7.609,0.122-15.191,6.434-15.926,17.033c-0.43,6.208,0.921,12.898,1.895,16.744c0.579,2.289,1.662,4.368,3.165,6.01
						c3.443,3.764,7.916,6.765,11.432,6.709c3.516-0.057,7.914-3.2,11.264-7.073c1.462-1.69,2.494-3.804,3.017-6.11
						C198.635,162.779,199.824,156.049,199.243,149.857z"/>
					<path style="fill:#FFFFFF;" d="M156.454,211.867l-11.444-5.115c2.771-10.04,3.904-16.725,8.44-21.185
						c4.536-4.46,15.211-4.283,15.211-4.283s2.699,8.885,13.956,8.885c11.257,0,13.398-9.276,13.398-9.276s16.662-3.139,22.57-2.166
						c1.139,8.033,2.422,13.674,2.422,13.674l-10.999,7.97l1.048,67.052c0,0-9.662,4.007-25.792,4.007
						c-20.596,0-28.872-3.309-28.872-3.309L156.454,211.867z"/>
					<path style="fill:#193441;" d="M190.482,158.506c0,0.694,0.563,1.257,1.257,1.257c0.694,0,1.257-0.563,1.257-1.257
						c0-0.694-0.563-1.257-1.257-1.257C191.044,157.25,190.482,157.812,190.482,158.506z"/>
					<path style="fill:#193441;" d="M166.951,150.995c1.018,6.94,2.563,13.451,8.345,17.181c0.596-0.959,3.51-3.486,8.044-3.486
						c4.357,0,7.1,2.454,7.778,3.486c3.57-2.376,5.546-5.818,6.536-10.139c0.238-1.036,0.168-1.951-0.115-2.732
						c0.831-1.567,1.389-3.309,1.728-5.13c0.512,6.104-0.647,12.67-1.512,16.48c-0.523,2.306-1.555,4.42-3.017,6.11
						c-3.351,3.873-7.748,7.016-11.264,7.073c-3.516,0.057-7.989-2.945-11.432-6.709c-1.503-1.642-2.585-3.722-3.165-6.01
						C167.936,163.4,166.647,157.025,166.951,150.995z"/>
					<path style="fill:#193441;" d="M175.816,158.506c0,0.694-0.563,1.257-1.257,1.257c-0.694,0-1.257-0.563-1.257-1.257
						c0-0.694,0.563-1.257,1.257-1.257C175.253,157.25,175.816,157.812,175.816,158.506z"/>
					<path style="fill:#FFFFFF;" d="M187.274,168.877c0.636,0,1.059,0.716,0.697,1.24c-1.06,1.531-2.821,2.537-4.825,2.537
						c-1.968,0-3.702-0.97-4.768-2.455c-0.396-0.553-0.034-1.322,0.646-1.322H187.274z"/>
					<g>
						<path style="fill:#D18015;" d="M188.951,163.785c0,1.133,1.186,2.051,2.649,2.051c1.463,0,2.649-0.918,2.649-2.051
							c0-1.133-1.186-2.052-2.649-2.052C190.137,161.733,188.951,162.652,188.951,163.785z"/>
					</g>
					<path style="fill:#D18015;" d="M177.346,163.785c0,1.133-1.186,2.051-2.648,2.051c-1.463,0-2.649-0.918-2.649-2.051
						c0-1.133,1.186-2.052,2.649-2.052C176.161,161.733,177.346,162.652,177.346,163.785z"/>
					<path style="fill:#193441;" d="M166.248,146.703c0.735-7.512,5.88-14.66,16.904-14.66c11.024,0,16.169,7.148,16.904,14.66
						c0.735,7.512-0.873,12.244-1.43,12.013c-0.908-0.377-1.924-2.126-1.924-5.521c0-6.484-3.346-8.76-5.751-8.245
						c-2.263,0.484-3.915,2.206-7.8,2.206c-3.885,0-5.537-1.723-7.8-2.206c-2.405-0.514-5.751,1.762-5.751,8.245
						c0,4.055-1.016,5.144-1.924,5.521C167.121,158.947,165.513,154.215,166.248,146.703z"/>
				</g>
			</g>
			<path style="fill:#B56B1F;" d="M142.106,232.433l0.001-1.211c0.013-0.786,0.057-1.334,0.088-2.01
				c0.085-1.215,0.18-2.38,0.294-3.479c0.476-4.422,1.108-8.338,1.699-11.72c0.315-1.681,0.584-3.222,0.877-4.576
				c0.154-0.717,0.531-1.749,0.663-2.364c4.879,2.046,9.563,4.282,14.774,5.49c-0.367,1.418-0.789,3.025-1.278,4.815
				c-0.436,1.594-0.909,3.32-1.409,5.145c-0.512,1.811-1.033,3.728-1.525,5.651c-0.265,0.969-0.499,1.917-0.723,2.843
				c-0.09,0.409-0.182,0.821-0.273,1.234l-0.097,0.43l-0.014,0.055l-0.004,0.014c-0.012-0.65-0.003-0.165-0.006-0.304l-0.001,0.052
				l-0.002,0.207l-0.002,0.207l-0.001,0.104l0.002,0.011c0.001,0.014-0.003,0.029-0.01,0.044c-0.008,0.007-0.022,0.018-0.006,0.158
				l0.048,0.641c0.052,0.474,0.102,0.949,0.178,1.465c0.151,1.046,0.303,2.096,0.455,3.146c0.34,2.18,0.679,4.359,1.013,6.505
				c0.365,2.17,0.724,4.306,1.071,6.373c0.366,2.069,0.697,4.08,1.093,5.965c0.367,1.894,0.761,3.672,1.136,5.312
				c0.193,0.818,0.339,1.614,0.567,2.343c0.226,0.73,0.547,1.39,0.867,2.004c0.666,1.22,1.155,2.311,1.381,3.265
				c0.486,1.897,0.05,3.202,0.05,3.202l-0.013,0.044c-0.12,0.354-0.297,0.696-0.532,1.013c-1.207,1.621-3.5,1.958-5.121,0.751
				c0,0-1.117-0.831-1.807-2.679c-0.362-0.919-0.584-2.102-0.729-3.493c-0.086-0.691-0.195-1.421-0.421-2.156
				c-0.223-0.736-0.553-1.48-0.851-2.271c-0.611-1.578-1.276-3.287-2.018-5.085c-0.714-1.807-1.541-3.692-2.353-5.661
				c-0.809-1.977-1.646-4.019-2.495-6.094c-0.83-2.092-1.693-4.222-2.438-6.43c-0.381-1.11-0.765-2.217-1.093-3.394
				c-0.171-0.574-0.342-1.193-0.502-1.81l-0.249-0.999c-0.035-0.133-0.119-0.394-0.16-0.661l-0.187-0.772L142.106,232.433z"/>
		</g>
	</g>
	<g>
		<g>
			<path style="fill:#FFDACF;" d="M267.084,101.408c-7.868,0-14.1,6.378-14.1,14.245s6.451,14.245,14.318,14.245
				c3.972,0,7.306-1.627,9.889-4.249l3.808,5.16v-16.148C281,107.26,274.618,101.408,267.084,101.408z"/>
			<path style="fill:#FB523A;" d="M266.82,123.096l7.517-7.516c1.471-1.471,1.471-3.856,0-5.327c-1.471-1.471-3.856-1.471-5.327,0
				l-2.189,2.189l-2.189-2.189c-1.471-1.471-3.856-1.471-5.327,0c-1.471,1.471-1.471,3.856,0,5.327L266.82,123.096z"/>
		</g>
		<g>
			<path style="fill:#5DB18C;" d="M154.963,90.331c10.224,0,18.762,8.288,18.762,18.511c0,10.224-8.163,18.511-18.386,18.511
				c-5.161,0-10.264-2.114-13.62-5.521L136,128.537v-20.983C136,97.936,145.173,90.331,154.963,90.331z"/>
			<g>
				<path style="fill:#FFFFFF;" d="M168.011,104.68c-0.424-0.582-1.077-0.967-1.791-1.056c-0.715-0.091-1.441,0.122-1.996,0.581
					l-1.906,1.525c-0.608,0.486-1.385,0.75-2.156,0.643c-0.005-0.001-0.01-0.001-0.015-0.002c-1.958-0.28-2.32-1.993-5.257-1.993
					s-3.175,1.713-5.132,1.993l0,0c-0.669,0.094-1.347-0.091-1.874-0.513l-2.066-1.652c-0.555-0.459-1.281-0.672-1.996-0.581
					c-0.714,0.089-1.367,0.474-1.791,1.056c-0.756,1.037-0.653,2.455,0.254,3.383l6.503,6.403l0.005-0.005
					c1.436,1.446,3.497,2.806,6.228,2.859c3.166-0.061,5.435-1.839,6.867-3.477l5.87-5.78
					C168.664,107.135,168.767,105.717,168.011,104.68z M143.23,105.554c0.187-0.256,0.462-0.418,0.776-0.458
					c0.315-0.038,0.469,0.05,0.723,0.26l1.27,1.137v3.444l-2.815-2.922C142.796,106.618,142.903,106.003,143.23,105.554z
					 M166.837,107.016L164,109.937v-3.444l1.291-1.137c0.254-0.21,0.495-0.298,0.81-0.26c0.314,0.039,0.622,0.202,0.809,0.458
					C167.237,106.003,167.225,106.618,166.837,107.016z"/>
				<path style="fill:none;stroke:#5DB18C;stroke-width:0.5944;stroke-linecap:round;stroke-miterlimit:10;" d="M158.636,111.51
					c-2.245,1.963-5.694,1.975-7.938,0"/>
				<path style="fill:none;stroke:#5DB18C;stroke-width:0.5944;stroke-linecap:round;stroke-miterlimit:10;" d="M157.396,109.606
					c-1.544,1.097-3.915,1.103-5.458,0"/>
			</g>
		</g>
		<g>
			<path style="fill:#91BAEE;" d="M221.467,62.509c12.439,0,21.702,11.623,18.585,24.6c-1.851,7.707-8.497,13.289-16.359,14.299
				c-6.77,0.869-11.935-1.467-16.053-5.648l-4.967,7.077V80.689C202.672,70.537,211.133,62.509,221.467,62.509z"/>
			<g>
				<path style="fill:#FFFFFF;" d="M217.422,89.677h11.022c1.332,0,2.411-1.079,2.411-2.411v-7.118c0-1.332-1.08-2.411-2.411-2.411
					h-2.067l0.379-0.648c0.699-1.194,1.067-2.553,1.067-3.937v-0.389c0-1.014-0.822-1.836-1.836-1.836l0,0
					c-1.001,0-1.817,0.801-1.836,1.802l0,0c-0.008,0.915-0.337,1.799-0.929,2.498l0,0c-0.948,1.119-2.341,1.764-3.807,1.764h-1.994
					V89.677z"/>
				<path style="fill:#193441;" d="M215.698,90.158h-1.364c-1.41,0-2.553-1.143-2.553-2.553v-8.913c0-1.41,1.143-2.553,2.553-2.553
					h1.364c1.41,0,2.553,1.143,2.553,2.553v8.913C218.251,89.015,217.108,90.158,215.698,90.158z"/>
			</g>
		</g>
		<g>
			<path style="fill:#4B78FF;" d="M322.271,70.278c-12.526,0-22.735,10.155-22.735,22.681c0,12.526,10.127,22.681,22.653,22.681
				c6.323,0,12.134-2.59,16.246-6.765L345,117.09V91.38C345,79.596,334.266,70.278,322.271,70.278z"/>
			<path style="fill:#FFFFFF;" d="M329.42,105.041h-11.702l-0.047-3.23c-1.439-0.636-2.663-1.556-3.591-2.699
				c-1.938-2.384-2.912-4.834-2.953-4.937c-0.336-0.852,0.083-1.817,0.934-2.154c0.85-0.336,1.814,0.08,2.153,0.931
				c0.008,0.021,1.474,3.575,2.952,2.755c-1.176-4.01-3.184-11.5-3.184-11.5c-0.281-0.968,0.36-1.985,1.405-2.112
				c0.821-0.099,1.577,0.48,1.807,1.274l1.763,6.079c0.129-0.062,0.257-0.132,0.387-0.187l-0.78-9.202
				c-0.07-0.83,0.424-1.653,1.231-1.862c1.018-0.264,1.981,0.462,2.066,1.466l0.753,8.884c0.143-0.008,0.28-0.029,0.426-0.032
				c0.059-0.001,0.122,0.001,0.183,0.001l1.418-8.753c0.132-0.816,0.812-1.482,1.639-1.482c1.053-0.001,1.813,0.93,1.651,1.925
				l-1.45,8.949l0.728,0.178l1.447-5.341c0.168-0.62,0.802-0.99,1.424-0.831l0,0c0.572,0.146,0.947,0.689,0.877,1.275
				c-0.393,3.284-1.563,13.383-1.572,13.484C329.375,98.042,329.42,105.041,329.42,105.041z"/>
		</g>
	</g>
	<g>
		<g>
			<g>
				
					<rect x="180.31" y="286.202" transform="matrix(-1 -1.224647e-16 1.224647e-16 -1 407.2915 609.3638)" style="fill:#FFE79F;" width="46.672" height="36.96"/>
				
					<rect x="200.195" y="286.202" transform="matrix(-1 -1.224647e-16 1.224647e-16 -1 427.1763 609.3638)" style="opacity:0.4;fill:#FFC366;" width="26.787" height="36.96"/>
				
					<rect x="208.294" y="307.426" transform="matrix(-1 -1.224647e-16 1.224647e-16 -1 428.4384 621.0153)" style="fill:#FFFFFF;" width="11.85" height="6.163"/>
			</g>
			<path style="fill:none;stroke:#FB523A;stroke-width:0.4275;stroke-miterlimit:10;" d="M195,306.324
				c0,2.715-2.201,4.917-4.917,4.917c-2.715,0-4.917-2.201-4.917-4.917s2.201-4.917,4.917-4.917
				C192.799,301.408,195,303.609,195,306.324z"/>
			<g>
				
					<line style="fill:none;stroke:#FB523A;stroke-width:1.2826;stroke-miterlimit:10;" x1="190.083" y1="309.317" x2="190.083" y2="303.118"/>
				
					<line style="fill:none;stroke:#FB523A;stroke-width:1.2826;stroke-miterlimit:10;" x1="193.183" y1="306.218" x2="186.984" y2="306.218"/>
			</g>
		</g>
		<g>
			<g>
				
					<rect x="295.937" y="321.293" transform="matrix(-1 -1.224647e-16 1.224647e-16 -1 642.8674 665.8288)" style="fill:#FFC366;" width="50.994" height="23.243"/>
				
					<rect x="320.144" y="321.293" transform="matrix(-1 -1.224647e-16 1.224647e-16 -1 667.0749 665.8288)" style="opacity:0.4;fill:#E89A49;" width="26.787" height="23.243"/>
				
					<rect x="328.243" y="328.8" transform="matrix(-1 -1.224647e-16 1.224647e-16 -1 668.3368 663.7624)" style="fill:#FFFFFF;" width="11.85" height="6.163"/>
			</g>
			<g>
				<path style="fill:none;stroke:#FB523A;stroke-width:0.6007;stroke-miterlimit:10;" d="M312.15,333.324
					c0,3.815-3.093,6.908-6.909,6.908c-3.815,0-6.909-3.093-6.909-6.908c0-3.816,3.093-6.909,6.909-6.909
					C309.057,326.416,312.15,329.509,312.15,333.324z"/>
				<g>
					
						<line style="fill:none;stroke:#FB523A;stroke-width:1.8022;stroke-miterlimit:10;" x1="305.242" y1="337.529" x2="305.242" y2="328.819"/>
					
						<line style="fill:none;stroke:#FB523A;stroke-width:1.8022;stroke-miterlimit:10;" x1="309.597" y1="333.174" x2="300.886" y2="333.174"/>
				</g>
			</g>
		</g>
		<g>
			<g>
				
					<rect x="235.826" y="293.435" transform="matrix(-1 -1.224647e-16 1.224647e-16 -1 536.9697 638.5974)" style="fill:#FFE79F;" width="65.318" height="51.726"/>
				
					<rect x="263.655" y="293.435" transform="matrix(-1 -1.224647e-16 1.224647e-16 -1 564.7988 638.5974)" style="opacity:0.4;fill:#FFC366;" width="37.489" height="51.726"/>
				
					<rect x="276.477" y="329.426" transform="matrix(-1 -1.224647e-16 1.224647e-16 -1 564.8046 665.0151)" style="fill:#FFFFFF;" width="11.85" height="6.163"/>
			</g>
			<g>
				<circle style="fill:none;stroke:#FB523A;stroke-width:0.6884;stroke-miterlimit:10;" cx="249.417" cy="321.991" r="7.917"/>
				<g>
					
						<line style="fill:none;stroke:#FB523A;stroke-width:2.0652;stroke-miterlimit:10;" x1="249.417" y1="326.81" x2="249.417" y2="316.828"/>
					
						<line style="fill:none;stroke:#FB523A;stroke-width:2.0652;stroke-miterlimit:10;" x1="254.408" y1="321.819" x2="244.426" y2="321.819"/>
				</g>
			</g>
		</g>
		<g>
			<g>
				
					<rect x="147.069" y="321.919" transform="matrix(-1 -1.224647e-16 1.224647e-16 -1 385.1351 667.0812)" style="fill:#FFC366;" width="90.997" height="23.243"/>
				
					<rect x="211.279" y="321.919" transform="matrix(-1 -1.224647e-16 1.224647e-16 -1 449.3451 667.0812)" style="opacity:0.4;fill:#E89A49;" width="26.787" height="23.243"/>
				
					<rect x="219.379" y="329.426" transform="matrix(-1 -1.224647e-16 1.224647e-16 -1 450.607 665.0148)" style="fill:#FFFFFF;" width="11.85" height="6.163"/>
			</g>
			<g>
				<circle style="fill:none;stroke:#FB523A;stroke-width:0.6014;stroke-miterlimit:10;" cx="177.417" cy="333.951" r="6.917"/>
				<g>
					
						<line style="fill:none;stroke:#FB523A;stroke-width:1.8044;stroke-miterlimit:10;" x1="177.417" y1="338.161" x2="177.417" y2="329.44"/>
					
						<line style="fill:none;stroke:#FB523A;stroke-width:1.8044;stroke-miterlimit:10;" x1="181.777" y1="333.8" x2="173.056" y2="333.8"/>
				</g>
			</g>
		</g>
		<g>
			<polygon style="fill:#193441;" points="149,400 149,416 176,416 176,408 191,408 191,416 219,416 219,408 233,408 233,416 
				261,416 261,408 276,408 276,416 303,416 303,408 318,408 318,416 345,416 345,400 			"/>
		</g>
		<g>
			<g>
				
					<rect x="154.389" y="344.416" transform="matrix(-1 -1.224647e-16 1.224647e-16 -1 403.7758 745.8996)" style="fill:#FFE79F;" width="94.997" height="57.067"/>
				
					<rect x="222.6" y="344.416" transform="matrix(-1 -1.224647e-16 1.224647e-16 -1 471.986 745.8996)" style="opacity:0.4;fill:#FFC366;" width="26.787" height="57.067"/>
				
					<rect x="230.699" y="385.748" transform="matrix(-1 -1.224647e-16 1.224647e-16 -1 473.2481 777.6578)" style="fill:#FFFFFF;" width="11.85" height="6.163"/>
			</g>
			<g>
				<circle style="fill:none;stroke:#FB523A;stroke-miterlimit:10;" cx="186.75" cy="372.991" r="11.5"/>
				<g>
					
						<line style="fill:none;stroke:#FB523A;stroke-width:3;stroke-miterlimit:10;" x1="186.75" y1="379.991" x2="186.75" y2="365.491"/>
					<line style="fill:none;stroke:#FB523A;stroke-width:3;stroke-miterlimit:10;" x1="194" y1="372.741" x2="179.5" y2="372.741"/>
				</g>
			</g>
		</g>
		<g>
			<g>
				
					<rect x="248.588" y="344.416" transform="matrix(-1 -1.224647e-16 1.224647e-16 -1 588.1725 745.8996)" style="fill:#FFE79F;" width="90.997" height="57.067"/>
				
					<rect x="312.798" y="344.416" transform="matrix(-1 -1.224647e-16 1.224647e-16 -1 652.3824 745.8996)" style="opacity:0.4;fill:#FFC366;" width="26.787" height="57.067"/>
				
					<rect x="320.897" y="385.748" transform="matrix(-1 -1.224647e-16 1.224647e-16 -1 653.6445 777.6578)" style="fill:#FFFFFF;" width="11.85" height="6.163"/>
			</g>
			<g>
				<circle style="fill:none;stroke:#FB523A;stroke-miterlimit:10;" cx="279.417" cy="372.991" r="11.5"/>
				<g>
					
						<line style="fill:none;stroke:#FB523A;stroke-width:3;stroke-miterlimit:10;" x1="279.417" y1="379.991" x2="279.417" y2="365.491"/>
					
						<line style="fill:none;stroke:#FB523A;stroke-width:3;stroke-miterlimit:10;" x1="286.667" y1="372.741" x2="272.167" y2="372.741"/>
				</g>
			</g>
		</g>
	</g>
</g>
</svg>
