<?xml version="1.0" encoding="utf-8"?>
<!-- Generator: Adobe Illustrator 27.5.0, SVG Export Plug-In . SVG Version: 6.00 Build 0)  -->
<svg version="1.1" xmlns="http://www.w3.org/2000/svg" xmlns:xlink="http://www.w3.org/1999/xlink" x="0px" y="0px"
	 viewBox="0 0 500 500" style="enable-background:new 0 0 500 500;" xml:space="preserve">
<g id="Floor">
	<path id="XMLID_14686_" style="fill:#FAFAFA;" d="M135.776,456.018c64.802,33.853,169.868,33.854,234.669,0.001
		c64.802-33.854,64.802-88.741,0-122.594c-64.802-33.853-169.868-33.853-234.67-0.001
		C70.974,367.278,70.974,422.165,135.776,456.018z"/>
</g>
<g id="Shadows">
	<path id="XMLID_14559_" style="fill:#F0F0F0;" d="M287.444,377.594c-18.593,8.863-48.737,8.863-67.329,0
		c-18.593-8.86-18.593-23.228,0-32.09c18.593-8.86,48.736-8.86,67.329,0C306.037,354.366,306.037,368.734,287.444,377.594z"/>
	<path id="XMLID_14680_" style="fill:#F0F0F0;" d="M337.412,415.725c13.832,6.593,36.257,6.593,50.089,0
		c13.832-6.592,13.832-17.281,0-23.874c-13.832-6.591-36.257-6.591-50.089,0C323.58,398.444,323.58,409.133,337.412,415.725z"/>
	<path id="XMLID_14512_" style="fill:#F0F0F0;" d="M118.056,416.869c13.56,6.464,35.545,6.464,49.105,0
		c13.56-6.462,13.56-16.941,0-23.404c-13.56-6.462-35.545-6.462-49.105,0C104.496,399.928,104.496,410.407,118.056,416.869z"/>
</g>
<g id="Clouds">
	<path id="XMLID_14271_" style="fill:#F0F0F0;" d="M396.75,104.752l3.835,1.475V97.78c0-6.697,5.342-8.302,11.141-4.954l0,0
		c5.8,3.348,10.501,11.492,10.501,18.188v1.227c1.316-0.525,3.015-0.322,4.873,0.751l0,0c4.174,2.41,7.557,8.27,7.557,13.089v0.558
		l5.347,3.087c2.748,1.587,4.976,5.446,4.976,8.619c0,3.173-2.228,4.46-4.976,2.873l-43.254-24.972
		c-2.748-1.587-4.976-5.446-4.976-8.619S394.002,103.166,396.75,104.752z"/>
	<path id="XMLID_652_" style="fill:#F0F0F0;" d="M106.942,104.505l-8.849,5.109c0.044-0.395,0.074-0.788,0.074-1.172v-2.564
		c0-4.562-3.203-6.411-7.154-4.13c-1.6,0.924-3.072,2.388-4.264,4.1c-0.647-5.737-5.148-7.874-10.615-4.717
		c-5.911,3.413-10.703,11.712-10.703,18.538v3.835c0,1.768,0.327,3.257,0.906,4.443l-7.35,4.244
		c-2.192,1.266-3.968,4.343-3.968,6.873c0,2.531,1.777,3.556,3.968,2.291l47.954-27.686c2.192-1.265,3.968-4.343,3.968-6.873
		C110.91,104.265,109.133,103.239,106.942,104.505z"/>
</g>
<g id="SocialTree">
	<g>
		<circle id="XMLID_300_" style="fill:#27DEBF;" cx="310.494" cy="174.057" r="11.021"/>
		<circle id="XMLID_299_" style="fill:#27DEBF;" cx="241.347" cy="194.059" r="16.162"/>
		
			<ellipse id="XMLID_298_" transform="matrix(0.7071 -0.7071 0.7071 0.7071 -56.2599 187.0788)" style="fill:#27DEBF;" cx="197.694" cy="161.451" rx="25.311" ry="25.311"/>
		<circle id="XMLID_297_" style="fill:#27DEBF;" cx="225.541" cy="121.619" r="16.833"/>
		<circle id="XMLID_295_" style="fill:#27DEBF;" cx="276.341" cy="106.174" r="22.715"/>
		<path id="XMLID_296_" style="fill:#37474F;" d="M281.01,220.102l-4.083,6.523c-2.149,3.432-6.578,4.533-10.084,2.51
			c0,0-1.8-1.039-4.02-2.321c-2.22-1.281-4.077-4.558-4.148-7.319l-0.41-15.929c0-0.686-0.453-1.371-1.359-1.894
			c-1.812-1.046-4.749-1.046-6.561,0c-0.906,0.523-1.359,1.208-1.359,1.894l-0.853,33.146c-0.071,2.76-1.203,4.378-2.529,3.612
			l-2.401-1.386c-2.373-1.37-4.071-3.582-4.782-6.229l-2.692-10.023c-0.358-1.333-1.729-2.121-3.062-1.766
			c-1.334,0.358-2.124,1.73-1.766,3.063l2.692,10.023c1.056,3.936,3.581,7.225,7.11,9.262c0,0,1.602,0.925,3.577,2.066
			c1.976,1.141,3.52,4.303,3.449,7.064l-2.72,105.67c0,1.273,0.841,2.546,2.524,3.518c3.365,1.943,8.821,1.943,12.186,0
			c1.686-0.973,2.526-2.249,2.523-3.524l-3.159-122.709c-0.071-2.76,1.078-4.302,2.565-3.443l2.694,1.555
			c1.98,1.143,4.134,1.688,6.258,1.688c4.155,0,8.193-2.087,10.564-5.875l4.083-6.523c0.732-1.17,0.378-2.713-0.793-3.445
			C283.285,218.577,281.742,218.931,281.01,220.102z"/>
		<g>
			
				<ellipse id="XMLID_14442_" transform="matrix(0.226 -0.9741 0.9741 0.226 143.7507 384.8092)" style="fill:#27DEBF;" cx="314.038" cy="101.942" rx="38.367" ry="38.367"/>
			<path id="XMLID_14440_" style="opacity:0.2;" d="M352.397,101.657v0.291c0,21.176-17.177,38.354-38.354,38.354
				c-21.195,0-38.372-17.177-38.372-38.354c0-7.38,2.09-14.287,5.689-20.14c-0.527,2.49-0.818,5.09-0.818,7.762
				c0,20.413,16.541,36.936,36.936,36.936C333.656,126.505,347.398,116.126,352.397,101.657z"/>
		</g>
		<g>
			<path id="XMLID_14447_" style="fill:#27DEBF;" d="M278.085,115.354c5.44,14.574,19.482,24.955,35.953,24.955
				c5.125,0,10.011-1.013,14.48-2.836c-3.086-15.395-16.677-26.994-32.981-26.994C289.147,110.479,283.173,112.26,278.085,115.354z"
				/>
			<path id="XMLID_40_" style="opacity:0.1;" d="M278.085,115.354c5.44,14.574,19.482,24.955,35.953,24.955
				c5.125,0,10.011-1.013,14.48-2.836c-3.086-15.395-16.677-26.994-32.981-26.994C289.147,110.479,283.173,112.26,278.085,115.354z"
				/>
		</g>
		<g id="XMLID_14444_">
			<path id="XMLID_14454_" style="fill:#FFFFFF;" d="M315.774,86.132c3.546,0,3.966,0.013,5.366,0.077
				c1.295,0.059,1.998,0.275,2.466,0.457c0.62,0.241,1.062,0.529,1.527,0.993c0.465,0.465,0.752,0.907,0.993,1.527
				c0.182,0.468,0.398,1.171,0.457,2.466c0.064,1.4,0.077,1.82,0.077,5.366c0,3.546-0.014,3.966-0.077,5.366
				c-0.059,1.295-0.275,1.998-0.457,2.466c-0.241,0.62-0.529,1.062-0.993,1.527c-0.465,0.465-0.907,0.753-1.527,0.993
				c-0.468,0.182-1.171,0.398-2.466,0.457c-1.4,0.064-1.82,0.077-5.366,0.077s-3.966-0.013-5.366-0.077
				c-1.295-0.059-1.998-0.275-2.466-0.457c-0.62-0.241-1.062-0.529-1.527-0.993c-0.465-0.465-0.752-0.907-0.993-1.527
				c-0.182-0.468-0.398-1.171-0.457-2.466c-0.064-1.4-0.077-1.82-0.077-5.366c0-3.546,0.013-3.966,0.077-5.366
				c0.059-1.295,0.276-1.998,0.457-2.466c0.241-0.62,0.529-1.062,0.993-1.527c0.465-0.465,0.907-0.752,1.527-0.993
				c0.468-0.182,1.171-0.398,2.466-0.457C311.808,86.146,312.228,86.132,315.774,86.132 M315.774,83.74
				c-3.607,0-4.059,0.015-5.475,0.08c-1.414,0.064-2.379,0.289-3.224,0.617c-0.873,0.339-1.614,0.793-2.352,1.532
				c-0.738,0.738-1.193,1.479-1.532,2.352c-0.328,0.845-0.553,1.81-0.617,3.223c-0.065,1.417-0.08,1.869-0.08,5.475
				c0,3.607,0.015,4.059,0.08,5.476c0.064,1.413,0.289,2.379,0.617,3.224c0.339,0.873,0.793,1.614,1.532,2.352
				c0.738,0.738,1.479,1.192,2.352,1.532c0.845,0.328,1.81,0.553,3.224,0.617c1.417,0.065,1.869,0.08,5.475,0.08
				c3.607,0,4.059-0.015,5.475-0.08c1.414-0.064,2.379-0.289,3.224-0.617c0.873-0.339,1.614-0.793,2.352-1.532
				c0.738-0.738,1.193-1.479,1.532-2.352c0.328-0.845,0.553-1.81,0.617-3.224c0.065-1.417,0.08-1.869,0.08-5.476
				c0-3.607-0.015-4.059-0.08-5.475c-0.065-1.414-0.289-2.379-0.617-3.223c-0.339-0.873-0.793-1.614-1.532-2.352
				c-0.738-0.738-1.479-1.192-2.352-1.532c-0.845-0.328-1.81-0.553-3.224-0.617C319.833,83.755,319.381,83.74,315.774,83.74"/>
			<path id="XMLID_14449_" style="fill:#FFFFFF;" d="M315.774,90.2c-3.766,0-6.82,3.053-6.82,6.819c0,3.766,3.053,6.82,6.82,6.82
				c3.766,0,6.819-3.053,6.819-6.82C322.593,93.254,319.54,90.2,315.774,90.2 M315.774,101.447c-2.445,0-4.427-1.982-4.427-4.427
				c0-2.445,1.982-4.427,4.427-4.427s4.427,1.982,4.427,4.427C320.201,99.465,318.219,101.447,315.774,101.447"/>
			<path id="XMLID_14445_" style="fill:#FFFFFF;" d="M324.457,89.931c0,0.88-0.713,1.594-1.594,1.594
				c-0.88,0-1.594-0.714-1.594-1.594c0-0.88,0.714-1.594,1.594-1.594C323.743,88.337,324.457,89.051,324.457,89.931"/>
		</g>
		
			<ellipse id="XMLID_14384_" transform="matrix(0.1977 -0.9803 0.9803 0.1977 114.1335 461.363)" style="fill:#27DEBF;" cx="338.927" cy="160.954" rx="29.016" ry="29.016"/>
		<g>
			<path id="XMLID_14383_" style="fill:#27DEBF;" d="M367.936,160.738v0.22c0,16.015-12.99,29.005-29.006,29.005
				c-16.029,0-29.019-12.991-29.019-29.005c0-5.581,1.581-10.805,4.303-15.231c-0.398,1.883-0.619,3.849-0.619,5.87
				c0,15.438,12.51,27.933,27.933,27.933C353.763,179.53,364.156,171.681,367.936,160.738z"/>
			<path id="XMLID_31_" style="opacity:0.1;" d="M367.936,160.738v0.22c0,16.015-12.99,29.005-29.006,29.005
				c-16.029,0-29.019-12.991-29.019-29.005c0-5.581,1.581-10.805,4.303-15.231c-0.398,1.883-0.619,3.849-0.619,5.87
				c0,15.438,12.51,27.933,27.933,27.933C353.763,179.53,364.156,171.681,367.936,160.738z"/>
		</g>
		<g>
			<path id="XMLID_14387_" style="fill:#27DEBF;" d="M309.911,160.954c0,7.784,3.071,14.846,8.06,20.057
				c7.46-6.171,12.213-15.497,12.213-25.934c0-7.108-2.21-13.696-5.972-19.128C315.655,140.995,309.911,150.301,309.911,160.954z"/>
			<path id="XMLID_41_" style="opacity:0.1;" d="M309.911,160.954c0,7.784,3.071,14.846,8.06,20.057
				c7.46-6.171,12.213-15.497,12.213-25.934c0-7.108-2.21-13.696-5.972-19.128C315.655,140.995,309.911,150.301,309.911,160.954z"/>
		</g>
		<g id="XMLID_14385_">
			<path id="XMLID_14386_" style="fill:#FFFFFF;" d="M350.107,151.375c-2.785-0.09-4.671,1.482-5.659,4.718
				c0.51-0.219,1.006-0.33,1.488-0.33c1.022,0,1.473,0.575,1.352,1.723c-0.06,0.694-0.511,1.705-1.352,3.035
				c-0.843,1.329-1.474,1.993-1.894,1.993c-0.543,0-1.038-1.023-1.488-3.072c-0.152-0.601-0.422-2.137-0.813-4.607
				c-0.362-2.289-1.324-3.358-2.887-3.208c-0.662,0.061-1.655,0.662-2.978,1.805c-0.963,0.872-1.94,1.745-2.932,2.616l0.946,1.218
				c0.9-0.63,1.427-0.947,1.576-0.947c0.69,0,1.334,1.083,1.936,3.246c0.541,1.983,1.082,3.965,1.622,5.949
				c0.809,2.163,1.8,3.244,2.971,3.244c1.891,0,4.202-1.776,6.934-5.328c2.642-3.401,4.008-6.08,4.098-8.037
				C353.144,152.775,352.171,151.436,350.107,151.375z"/>
		</g>
		<circle id="XMLID_14464_" style="fill:#27DEBF;" cx="241.439" cy="71.985" r="40.681"/>
		<g>
			<path id="XMLID_14462_" style="opacity:0.5;fill:#27DEBF;" d="M282.111,71.683v0.308c0,22.453-18.213,40.666-40.666,40.666
				c-22.472,0-40.685-18.213-40.685-40.666c0-7.825,2.216-15.149,6.032-21.354c-0.559,2.64-0.867,5.396-0.867,8.23
				c0,21.643,17.539,39.163,39.163,39.163C262.24,98.029,276.811,87.024,282.111,71.683z"/>
			<path id="XMLID_26_" style="opacity:0.1;" d="M282.111,71.683v0.308c0,22.453-18.213,40.666-40.666,40.666
				c-22.472,0-40.685-18.213-40.685-40.666c0-7.825,2.216-15.149,6.032-21.354c-0.559,2.64-0.867,5.396-0.867,8.23
				c0,21.643,17.539,39.163,39.163,39.163C262.24,98.029,276.811,87.024,282.111,71.683z"/>
		</g>
		<g>
			<path id="XMLID_14469_" style="fill:#27DEBF;" d="M275.67,93.953c-4.268-8.58-13.12-14.478-23.353-14.478
				c-14.4,0-26.073,11.673-26.073,26.073c0,1.471,0.128,2.911,0.362,4.315c4.597,1.802,9.597,2.802,14.833,2.802
				C255.812,112.665,268.434,105.205,275.67,93.953z"/>
			<path id="XMLID_39_" style="opacity:0.1;" d="M275.67,93.953c-4.268-8.58-13.12-14.478-23.353-14.478
				c-14.4,0-26.073,11.673-26.073,26.073c0,1.471,0.128,2.911,0.362,4.315c4.597,1.802,9.597,2.802,14.833,2.802
				C255.812,112.665,268.434,105.205,275.67,93.953z"/>
		</g>
		<path id="XMLID_285_" style="fill:#FFFFFF;" d="M238.253,76.929h5.896V62.165h4.114l0.438-4.944h-4.552c0,0,0-1.846,0-2.816
			c0-1.165,0.234-1.626,1.361-1.626c0.907,0,3.191,0,3.191,0v-5.131c0,0-3.364,0-4.083,0c-4.387,0-6.365,1.932-6.365,5.631
			c0,3.222,0,3.941,0,3.941h-3.067v5.005h3.067V76.929z"/>
		
			<ellipse id="XMLID_14397_" transform="matrix(0.1581 -0.9874 0.9874 0.1581 34.1675 283.9346)" style="fill:#27DEBF;" cx="183.593" cy="121.93" rx="41.957" ry="41.957"/>
		<g>
			<path id="XMLID_14396_" style="opacity:0.7;fill:#27DEBF;" d="M225.541,121.619v0.318c0,23.157-18.784,41.942-41.942,41.942
				c-23.177,0-41.961-18.784-41.961-41.942c0-8.07,2.286-15.624,6.221-22.024c-0.576,2.723-0.894,5.566-0.894,8.488
				c0,22.322,18.089,40.391,40.392,40.391C205.047,148.791,220.074,137.441,225.541,121.619z"/>
			<path id="XMLID_25_" style="opacity:0.1;" d="M225.541,121.619v0.318c0,23.157-18.784,41.942-41.942,41.942
				c-23.177,0-41.961-18.784-41.961-41.942c0-8.07,2.286-15.624,6.221-22.024c-0.576,2.723-0.894,5.566-0.894,8.488
				c0,22.322,18.089,40.391,40.392,40.391C205.047,148.791,220.074,137.441,225.541,121.619z"/>
		</g>
		<g>
			<path id="XMLID_265_" style="fill:#27DEBF;" d="M164.26,136.081c-6.594,0-12.587,2.558-17.053,6.731
				c7.241,12.591,20.818,21.076,36.386,21.076c1.878,0,3.723-0.136,5.536-0.375c0.078-0.804,0.12-1.618,0.12-2.442
				C189.249,147.269,178.061,136.081,164.26,136.081z"/>
			<path id="XMLID_38_" style="opacity:0.1;" d="M164.26,136.081c-6.594,0-12.587,2.558-17.053,6.731
				c7.241,12.591,20.818,21.076,36.386,21.076c1.878,0,3.723-0.136,5.536-0.375c0.078-0.804,0.12-1.618,0.12-2.442
				C189.249,147.269,178.061,136.081,164.26,136.081z"/>
		</g>
		<g>
			<path id="XMLID_266_" style="fill:#27DEBF;" d="M225.537,122.419c-16.153,1.044-28.934,14.469-28.934,30.886
				c0,2.82,0.384,5.55,1.091,8.146C213.782,155.71,225.33,140.43,225.537,122.419z"/>
			<path id="XMLID_37_" style="opacity:0.1;" d="M225.537,122.419c-16.153,1.044-28.934,14.469-28.934,30.886
				c0,2.82,0.384,5.55,1.091,8.146C213.782,155.71,225.33,140.43,225.537,122.419z"/>
		</g>
		<path id="XMLID_14398_" style="fill:#FFFFFF;" d="M170.688,126.702c2.343,1.503,5.127,2.379,8.117,2.379
			c9.831,0,15.385-8.304,15.051-15.752c1.034-0.746,1.932-1.678,2.642-2.741c-0.95,0.421-1.971,0.706-3.041,0.834
			c1.093-0.654,1.932-1.692,2.328-2.929c-1.023,0.607-2.157,1.048-3.362,1.286c-0.966-1.029-2.342-1.672-3.866-1.672
			c-3.417,0-5.929,3.189-5.158,6.502c-4.401-0.221-8.303-2.329-10.914-5.533c-1.387,2.381-0.72,5.494,1.639,7.07
			c-0.868-0.027-1.686-0.266-2.399-0.663c-0.057,2.454,1.701,4.748,4.247,5.259c-0.746,0.203-1.562,0.249-2.39,0.09
			c0.673,2.104,2.628,3.634,4.946,3.678C176.302,126.255,173.497,127.034,170.688,126.702z"/>
		
			<ellipse id="XMLID_14351_" transform="matrix(0.7071 -0.7071 0.7071 0.7071 -81.8959 196.6181)" style="fill:#27DEBF;" cx="196.391" cy="197.166" rx="32.928" ry="32.928"/>
		<g>
			<path id="XMLID_14353_" style="opacity:0.3;fill:#27DEBF;" d="M201,164.566c-0.181,1.37-0.284,2.765-0.284,4.185
				c0,10.005,4.641,18.922,11.883,24.73c-3.053,3.726-4.887,8.489-4.887,13.682c0,6.739,3.087,12.754,7.921,16.717
				c8.287-5.98,13.686-15.713,13.686-26.713C229.319,180.546,217.002,166.809,201,164.566z"/>
			<path id="XMLID_36_" style="opacity:0.1;" d="M201,164.566c-0.181,1.37-0.284,2.765-0.284,4.185
				c0,10.005,4.641,18.922,11.883,24.73c-3.053,3.726-4.887,8.489-4.887,13.682c0,6.739,3.087,12.754,7.921,16.717
				c8.287-5.98,13.686-15.713,13.686-26.713C229.319,180.546,217.002,166.809,201,164.566z"/>
		</g>
		<g>
			<g>
				<path id="XMLID_14350_" style="fill:#27DEBF;" d="M229.312,196.921v0.25c0,18.174-14.742,32.916-32.916,32.916
					c-18.19,0-32.932-14.742-32.932-32.916c0-6.334,1.794-12.262,4.883-17.285c-0.452,2.137-0.702,4.368-0.702,6.661
					c0,17.519,14.196,31.699,31.699,31.699C213.228,218.247,225.022,209.339,229.312,196.921z"/>
				<path id="XMLID_23_" style="fill:#27DEBF;" d="M229.312,196.921v0.25c0,18.174-14.742,32.916-32.916,32.916
					c-18.19,0-32.932-14.742-32.932-32.916c0-6.334,1.794-12.262,4.883-17.285c-0.452,2.137-0.702,4.368-0.702,6.661
					c0,17.519,14.196,31.699,31.699,31.699C213.228,218.247,225.022,209.339,229.312,196.921z"/>
			</g>
			<g style="opacity:0.1;">
				<path id="XMLID_33_" d="M229.312,196.921v0.25c0,18.174-14.742,32.916-32.916,32.916c-18.19,0-32.932-14.742-32.932-32.916
					c0-6.334,1.794-12.262,4.883-17.285c-0.452,2.137-0.702,4.368-0.702,6.661c0,17.519,14.196,31.699,31.699,31.699
					C213.228,218.247,225.022,209.339,229.312,196.921z"/>
				<path id="XMLID_32_" d="M229.312,196.921v0.25c0,18.174-14.742,32.916-32.916,32.916c-18.19,0-32.932-14.742-32.932-32.916
					c0-6.334,1.794-12.262,4.883-17.285c-0.452,2.137-0.702,4.368-0.702,6.661c0,17.519,14.196,31.699,31.699,31.699
					C213.228,218.247,225.022,209.339,229.312,196.921z"/>
			</g>
		</g>
		<g id="XMLID_14352_">
			<g id="XMLID_14354_">
				<path id="XMLID_14373_" style="fill:#FFFFFF;" d="M190.329,202.79c0.659-0.137,1.232-0.391,1.717-0.763
					c0.429-0.323,0.789-0.721,1.076-1.195c0.451-0.716,0.676-1.522,0.676-2.423c0-0.872-0.198-1.615-0.591-2.226
					c-0.395-0.611-0.98-1.059-1.755-1.341c0.51-0.261,0.896-0.549,1.159-0.865c0.468-0.563,0.704-1.309,0.704-2.237
					c0-0.9-0.233-1.673-0.698-2.319c-0.772-1.051-2.085-1.59-3.937-1.618h-7.344v15.194h6.847
					C188.953,202.997,189.67,202.928,190.329,202.79z M184.366,190.442h3.306c0.728,0,1.326,0.079,1.796,0.238
					c0.545,0.226,0.817,0.694,0.817,1.401c0,0.639-0.206,1.084-0.618,1.335c-0.411,0.251-0.947,0.376-1.607,0.376h-3.693V190.442z
					 M184.366,200.358v-4.05h3.74c0.654,0.007,1.158,0.092,1.519,0.257c0.645,0.295,0.968,0.838,0.968,1.628
					c0,0.934-0.333,1.567-0.999,1.897c-0.366,0.179-0.88,0.267-1.538,0.267H184.366z"/>
				<g id="XMLID_14356_">
					<path id="XMLID_14370_" style="fill:#FFFFFF;" d="M196.371,201.996c1.143,0.922,2.462,1.383,3.957,1.383
						c1.812,0,3.221-0.546,4.227-1.639c0.648-0.688,1.011-1.365,1.09-2.03h-3c-0.174,0.329-0.376,0.587-0.605,0.772
						c-0.419,0.344-0.962,0.516-1.631,0.516c-0.631,0-1.171-0.141-1.619-0.423c-0.738-0.454-1.13-1.244-1.175-2.371h8.183
						c0.014-0.97-0.018-1.713-0.097-2.229c-0.136-0.881-0.435-1.656-0.895-2.322c-0.509-0.757-1.158-1.312-1.942-1.662
						c-0.783-0.351-1.663-0.526-2.642-0.526c-1.646,0-2.985,0.519-4.017,1.558c-1.032,1.038-1.548,2.53-1.548,4.477
						C194.657,199.574,195.228,201.074,196.371,201.996z M198.469,194.527c0.416-0.427,1-0.641,1.753-0.641
						c0.694,0,1.275,0.202,1.743,0.605c0.468,0.404,0.729,0.996,0.783,1.775h-5.062
						C197.794,195.534,198.054,194.955,198.469,194.527z"/>
					<rect id="XMLID_14369_" x="196.729" y="188.676" style="fill:#FFFFFF;" width="6.603" height="1.533"/>
				</g>
			</g>
		</g>
		<g>
			<circle id="XMLID_14335_" style="fill:#27DEBF;" cx="287.421" cy="147.807" r="33.641"/>
			<path id="XMLID_14334_" style="opacity:0.2;" d="M321.054,147.557v0.255c0,18.568-15.061,33.629-33.629,33.629
				c-18.583,0-33.645-15.061-33.645-33.629c0-6.471,1.833-12.527,4.988-17.659c-0.462,2.183-0.717,4.463-0.717,6.806
				c0,17.898,14.504,32.386,32.386,32.386C304.622,169.344,316.671,160.243,321.054,147.557z"/>
		</g>
		<g>
			<g>
				<g>
					<path id="XMLID_43_" style="fill:#27DEBF;" d="M258.509,130.607c-3.001,5.033-4.729,10.913-4.729,17.199
						c0,10.73,5.03,20.28,12.854,26.44c3.575-5.048,5.683-11.209,5.683-17.866C272.317,145.627,266.832,136.157,258.509,130.607z"/>
					<path id="XMLID_44_" style="opacity:0.1;fill:#27DEBF;" d="M258.509,130.607c-3.001,5.033-4.729,10.913-4.729,17.199
						c0,10.73,5.03,20.28,12.854,26.44c3.575-5.048,5.683-11.209,5.683-17.866C272.317,145.627,266.832,136.157,258.509,130.607z"/>
				</g>
			</g>
			<g style="opacity:0.1;">
				<g>
					<path id="XMLID_46_" d="M258.509,130.607c-3.001,5.033-4.729,10.913-4.729,17.199c0,10.73,5.03,20.28,12.854,26.44
						c3.575-5.048,5.683-11.209,5.683-17.866C272.317,145.627,266.832,136.157,258.509,130.607z"/>
					<path id="XMLID_45_" style="opacity:0.1;" d="M258.509,130.607c-3.001,5.033-4.729,10.913-4.729,17.199
						c0,10.73,5.03,20.28,12.854,26.44c3.575-5.048,5.683-11.209,5.683-17.866C272.317,145.627,266.832,136.157,258.509,130.607z"/>
				</g>
			</g>
		</g>
		<g id="XMLID_14336_">
			<path id="XMLID_14337_" style="fill:#FFFFFF;" d="M283.554,146.904c0.378,0.155,0.717,0.006,0.827-0.412
				c0.076-0.29,0.256-1.022,0.337-1.327c0.112-0.415,0.068-0.56-0.238-0.92c-0.665-0.785-1.09-1.802-1.09-3.242
				c0-4.176,3.124-7.913,8.135-7.913c4.437,0,6.875,2.711,6.875,6.333c0,4.764-2.108,8.785-5.238,8.785
				c-1.729,0-3.022-1.429-2.608-3.182c0.498-2.093,1.459-4.353,1.459-5.864c0-1.353-0.726-2.481-2.228-2.481
				c-1.768,0-3.187,1.828-3.187,4.277c0,1.559,0.528,2.615,0.528,2.615s-1.808,7.662-2.125,9.004
				c-0.632,2.672-0.096,5.948-0.05,6.279c0.027,0.197,0.279,0.243,0.393,0.095c0.163-0.213,2.268-2.812,2.982-5.408
				c0.203-0.735,1.163-4.541,1.163-4.541c0.574,1.095,2.252,2.059,4.036,2.059c5.312,0,8.916-4.842,8.916-11.324
				c0-4.901-4.151-9.466-10.46-9.466c-7.851,0-11.809,5.628-11.809,10.322C280.171,143.434,281.247,145.963,283.554,146.904z"/>
		</g>
		
			<ellipse id="XMLID_14324_" transform="matrix(0.7071 -0.7071 0.7071 0.7071 -54.2632 272.55)" style="fill:#27DEBF;" cx="301.865" cy="201.776" rx="29.024" ry="29.024"/>
		<g>
			<path id="XMLID_14323_" style="fill:#27DEBF;" d="M330.883,201.561v0.22c0,16.019-12.994,29.013-29.013,29.013
				c-16.033,0-29.027-12.994-29.027-29.013c0-5.583,1.581-10.808,4.304-15.235c-0.398,1.884-0.619,3.85-0.619,5.871
				c0,15.442,12.513,27.941,27.941,27.941C316.706,220.358,327.102,212.506,330.883,201.561z"/>
			<path id="XMLID_20_" style="opacity:0.2;" d="M330.883,201.561v0.22c0,16.019-12.994,29.013-29.013,29.013
				c-16.033,0-29.027-12.994-29.027-29.013c0-5.583,1.581-10.808,4.304-15.235c-0.398,1.884-0.619,3.85-0.619,5.871
				c0,15.442,12.513,27.941,27.941,27.941C316.706,220.358,327.102,212.506,330.883,201.561z"/>
		</g>
		<g>
			<path id="XMLID_290_" style="fill:#27DEBF;" d="M272.842,201.777c0,6.063,1.861,11.689,5.04,16.345
				c10.02-2.925,17.35-12.158,17.35-23.123c0-7.239-3.202-13.72-8.254-18.137C278.512,181.931,272.842,191.19,272.842,201.777z"/>
			<path id="XMLID_42_" style="opacity:0.1;" d="M272.842,201.777c0,6.063,1.861,11.689,5.04,16.345
				c10.02-2.925,17.35-12.158,17.35-23.123c0-7.239-3.202-13.72-8.254-18.137C278.512,181.931,272.842,191.19,272.842,201.777z"/>
		</g>
		<g id="XMLID_14325_">
			<g id="XMLID_14326_">
				<g id="XMLID_14329_">
					<rect id="XMLID_14331_" x="299.857" y="195.434" style="fill:#FFFFFF;" width="3.912" height="12.637"/>
					<path id="XMLID_14330_" style="fill:#FFFFFF;" d="M301.794,193.78c1.278,0,2.313-1.045,2.313-2.332
						c0-1.288-1.035-2.332-2.313-2.332c-1.278,0-2.313,1.044-2.313,2.332C299.481,192.735,300.516,193.78,301.794,193.78z"/>
				</g>
				<path id="XMLID_14328_" style="fill:#FFFFFF;" d="M310.022,201.438c0-1.776,0.818-2.835,2.383-2.835
					c1.438,0,2.129,1.016,2.129,2.835c0,1.82,0,6.633,0,6.633h3.893c0,0,0-4.616,0-8.001c0-3.385-1.919-5.021-4.598-5.021
					c-2.681,0-3.808,2.088-3.808,2.088v-1.702h-3.752v12.637h3.752C310.022,208.071,310.022,203.384,310.022,201.438z"/>
			</g>
		</g>
		<circle id="XMLID_14306_" style="fill:#27DEBF;" cx="268.724" cy="191.848" r="22.581"/>
		<path id="XMLID_14305_" style="fill:#27DEBF;" d="M291.3,191.68v0.171c0,12.463-10.11,22.573-22.573,22.573
			c-12.474,0-22.583-10.11-22.583-22.573c0-4.343,1.23-8.409,3.348-11.853c-0.31,1.466-0.481,2.995-0.481,4.568
			c0,12.014,9.735,21.738,21.738,21.738C280.271,206.305,288.358,200.196,291.3,191.68z"/>
		<path id="XMLID_21_" style="opacity:0.2;" d="M291.3,191.68v0.171c0,12.463-10.11,22.573-22.573,22.573
			c-12.474,0-22.583-10.11-22.583-22.573c0-4.343,1.23-8.409,3.348-11.853c-0.31,1.466-0.481,2.995-0.481,4.568
			c0,12.014,9.735,21.738,21.738,21.738C280.271,206.305,288.358,200.196,291.3,191.68z"/>
		<g id="XMLID_14308_">
			<g id="XMLID_14315_" transform="translate(-1)">
				<path id="XMLID_14320_" style="fill:#FFFFFF;" d="M258.869,184.236l5.426,3.457l5.426-3.457l-5.426-3.457L258.869,184.236z"/>
				<path id="XMLID_14319_" style="fill:#FFFFFF;" d="M269.714,184.236l5.426,3.457l5.426-3.457l-5.426-3.457L269.714,184.236z"/>
				<path id="XMLID_14318_" style="fill:#FFFFFF;" d="M258.869,191.101l5.426,3.457l5.427-3.457l-5.427-3.457L258.869,191.101z"/>
				<path id="XMLID_14317_" style="fill:#FFFFFF;" d="M275.14,187.644l-5.426,3.457l5.426,3.457l5.426-3.457L275.14,187.644z"/>
				<path id="XMLID_14316_" style="fill:#FFFFFF;" d="M264.331,195.704l5.426,3.457l5.427-3.457l-5.427-3.457L264.331,195.704z"/>
			</g>
		</g>
		
			<ellipse id="XMLID_14341_" transform="matrix(0.7071 -0.7071 0.7071 0.7071 -43.3496 211.9594)" style="fill:#27DEBF;" cx="234.183" cy="158.307" rx="30.959" ry="30.959"/>
		<g>
			<g>
				<path id="XMLID_14340_" style="opacity:0.7;fill:#27DEBF;" d="M265.135,158.077v0.235c0,17.087-13.86,30.948-30.948,30.948
					c-17.102,0-30.962-13.86-30.962-30.948c0-5.955,1.687-11.529,4.591-16.251c-0.425,2.009-0.66,4.107-0.66,6.263
					c0,16.471,13.347,29.804,29.804,29.804C250.013,178.127,261.102,169.753,265.135,158.077z"/>
			</g>
			<g style="opacity:0.1;">
				<path id="XMLID_28_" style="opacity:0.7;" d="M265.135,158.077v0.235c0,17.087-13.86,30.948-30.948,30.948
					c-17.102,0-30.962-13.86-30.962-30.948c0-5.955,1.687-11.529,4.591-16.251c-0.425,2.009-0.66,4.107-0.66,6.263
					c0,16.471,13.347,29.804,29.804,29.804C250.013,178.127,261.102,169.753,265.135,158.077z"/>
			</g>
		</g>
		<g id="XMLID_14342_">
			<path id="XMLID_14343_" style="fill:#FFFFFF;" d="M234.88,142.503c-7.821,0-14.161,6.34-14.161,14.161
				c0,7.821,6.34,14.161,14.161,14.161c7.821,0,14.161-6.34,14.161-14.161C249.041,148.843,242.701,142.503,234.88,142.503z
				 M241.394,162.965c-0.283,0.425-0.779,0.566-1.204,0.283c-3.328-2.053-7.505-2.478-12.461-1.345
				c-0.496,0.142-0.92-0.212-1.062-0.637c-0.142-0.496,0.212-0.921,0.637-1.062c5.381-1.204,10.054-0.708,13.736,1.557
				C241.536,161.974,241.607,162.54,241.394,162.965z M243.093,159.07c-0.354,0.496-0.991,0.708-1.487,0.354
				c-3.823-2.337-9.629-3.045-14.09-1.629c-0.567,0.141-1.204-0.142-1.345-0.708c-0.141-0.567,0.142-1.204,0.708-1.345
				c5.169-1.558,11.541-0.779,15.931,1.912C243.235,157.867,243.448,158.575,243.093,159.07z M243.235,155.105
				c-4.531-2.69-12.107-2.974-16.426-1.629c-0.708,0.213-1.416-0.212-1.629-0.849c-0.213-0.708,0.212-1.416,0.85-1.629
				c5.027-1.487,13.311-1.204,18.55,1.912c0.637,0.354,0.85,1.204,0.496,1.841C244.722,155.247,243.872,155.46,243.235,155.105z"/>
		</g>
		<circle id="XMLID_14301_" style="fill:#27DEBF;" cx="233.314" cy="209.59" r="21.108"/>
		<g>
			<g>
				<path id="XMLID_14313_" style="fill:#27DEBF;" d="M254.417,209.433v0.16c0,11.65-9.45,21.1-21.1,21.1
					c-11.66,0-21.11-9.45-21.11-21.1c0-4.06,1.15-7.86,3.13-11.08c-0.29,1.37-0.45,2.8-0.45,4.27c0,11.23,9.1,20.32,20.32,20.32
					C244.107,223.103,251.667,217.393,254.417,209.433z"/>
				<path id="XMLID_22_" style="opacity:0.2;fill:#27DEBF;" d="M254.417,209.433v0.16c0,11.65-9.45,21.1-21.1,21.1
					c-11.66,0-21.11-9.45-21.11-21.1c0-4.06,1.15-7.86,3.13-11.08c-0.29,1.37-0.45,2.8-0.45,4.27c0,11.23,9.1,20.32,20.32,20.32
					C244.107,223.103,251.667,217.393,254.417,209.433z"/>
			</g>
			<g style="opacity:0.1;">
				<path id="XMLID_35_" d="M254.417,209.433v0.16c0,11.65-9.45,21.1-21.1,21.1c-11.66,0-21.11-9.45-21.11-21.1
					c0-4.06,1.15-7.86,3.13-11.08c-0.29,1.37-0.45,2.8-0.45,4.27c0,11.23,9.1,20.32,20.32,20.32
					C244.107,223.103,251.667,217.393,254.417,209.433z"/>
				<path id="XMLID_34_" style="opacity:0.2;" d="M254.417,209.433v0.16c0,11.65-9.45,21.1-21.1,21.1
					c-11.66,0-21.11-9.45-21.11-21.1c0-4.06,1.15-7.86,3.13-11.08c-0.29,1.37-0.45,2.8-0.45,4.27c0,11.23,9.1,20.32,20.32,20.32
					C244.107,223.103,251.667,217.393,254.417,209.433z"/>
			</g>
		</g>
		<g id="XMLID_14310_">
			<path id="XMLID_14311_" style="fill:#FFFFFF;" d="M224.81,207.982c0,5.234,4.243,9.479,9.478,9.479
				c0.608,0,1.201-0.059,1.776-0.169c0.834,0.504,1.811,0.794,2.857,0.794c3.055-0.001,5.531-2.478,5.531-5.533
				c0-1.071-0.306-2.07-0.832-2.918c0.094-0.537,0.146-1.09,0.146-1.653c0-5.235-4.244-9.479-9.479-9.479
				c-0.596,0-1.179,0.057-1.746,0.163c-0.837-0.51-1.821-0.803-2.872-0.803c-3.055,0-5.532,2.477-5.532,5.532
				c0,1.065,0.302,2.059,0.823,2.903C224.864,206.845,224.81,207.407,224.81,207.982z M234.39,201.248
				c3.057,0.179,4.847,1.524,5.021,2.78c0.085,0.821-0.46,1.459-1.407,1.459c-1.383,0-1.524-1.843-3.905-1.843
				c-1.074,0-1.98,0.447-1.98,1.415c0,2.024,7.629,0.849,7.629,5.305c0,2.569-2.056,4.252-5.126,4.252
				c-2.699,0-5.413-1.224-5.399-3.331c0.004-0.636,0.479-1.219,1.11-1.219c1.59,0,1.575,2.362,4.107,2.362
				c1.775,0,2.382-0.969,2.382-1.644c0-2.438-7.675-0.943-7.675-5.529C229.147,202.771,231.186,201.06,234.39,201.248z"/>
		</g>
		
			<ellipse id="XMLID_14391_" transform="matrix(0.2273 -0.9738 0.9738 0.2273 -36.0662 282.8343)" style="fill:#27DEBF;" cx="160.197" cy="164.145" rx="24.989" ry="24.989"/>
		<g>
			<path id="XMLID_14390_" style="opacity:0.5;fill:#27DEBF;" d="M185.181,163.959v0.189c0,13.793-11.188,24.981-24.981,24.981
				c-13.804,0-24.992-11.188-24.992-24.981c0-4.807,1.361-9.306,3.706-13.118c-0.343,1.622-0.533,3.315-0.533,5.055
				c0,13.295,10.774,24.057,24.057,24.057C172.975,180.143,181.925,173.383,185.181,163.959z"/>
			<path id="XMLID_24_" style="opacity:0.1;" d="M185.181,163.959v0.189c0,13.793-11.188,24.981-24.981,24.981
				c-13.804,0-24.992-11.188-24.992-24.981c0-4.807,1.361-9.306,3.706-13.118c-0.343,1.622-0.533,3.315-0.533,5.055
				c0,13.295,10.774,24.057,24.057,24.057C172.975,180.143,181.925,173.383,185.181,163.959z"/>
		</g>
		<g id="XMLID_14392_">
			<path id="XMLID_14393_" style="fill-rule:evenodd;clip-rule:evenodd;fill:#FFFFFF;" d="M169.756,165.854v-0.004
				c-0.005-0.005-0.009-0.005-0.018-0.014c0,0,0,0-0.004,0l0,0c-0.233-0.148-0.471-0.17-0.619-0.224c0,0-0.009,0-0.009-0.004
				c-1.013-0.318-1.887-1.008-2.541-1.851c-0.363-0.471-0.668-0.977-0.869-1.519c0-0.005,0-0.005,0-0.009
				c-0.081-0.233-0.085-0.493,0.031-0.65c0,0,0.004,0,0.004-0.004c0.184-0.26,0.52-0.426,0.874-0.556c0.005,0,0.005,0,0.005,0
				c0.399-0.139,0.829-0.296,1.183-0.61c0.004,0,0.004-0.005,0.004-0.005c0.058-0.049,0.126-0.116,0.175-0.219
				c0.009-0.023,0.022-0.049,0.027-0.081c0.027-0.094,0.027-0.211-0.022-0.309c0-0.005,0-0.005,0-0.005
				c-0.103-0.206-0.278-0.318-0.412-0.394h-0.005c-0.219-0.13-0.479-0.139-0.708-0.063l0,0h-0.005
				c-0.242,0.072-0.444,0.161-0.627,0.184c0,0-0.009,0-0.014,0.005c-0.26,0.045-0.515,0.054-0.713-0.018
				c-0.004-0.027-0.004-0.085-0.013-0.157h0.004c-0.018-0.43,0.023-0.874,0.027-1.336c0,0,0,0,0-0.005
				c0.023-0.699,0.049-1.416-0.054-2.142c0-0.005,0-0.009,0-0.009c-0.229-1.223-1.013-2.277-2.008-2.976
				c-0.721-0.511-1.582-0.793-2.456-0.874l0,0c-0.3-0.027-0.592-0.036-0.883-0.036c-1.179,0.009-2.402,0.318-3.357,1.067
				c-0.717,0.56-1.282,1.304-1.636,2.133v0.005c-0.341,0.851-0.309,1.761-0.264,2.604l0,0c0.027,0.592,0.094,1.165,0.04,1.712
				c-0.005,0.018-0.005,0.027-0.009,0.036c-0.264,0.049-0.556,0.031-0.842-0.022h-0.005c-0.197-0.031-0.408-0.112-0.645-0.179
				c0,0-0.009,0-0.013-0.004c-0.229-0.049-0.457,0.014-0.627,0.143c0,0-0.009,0-0.009,0.005c-0.005,0.004-0.009,0.004-0.009,0.009
				c-0.144,0.09-0.336,0.246-0.345,0.515c-0.004,0.018,0,0.031,0,0.049l0.005,0.004c0.027,0.157,0.125,0.273,0.215,0.35
				c0.09,0.076,0.17,0.126,0.22,0.166c0,0,0.009,0.004,0.013,0.009c0.43,0.287,0.905,0.412,1.322,0.574l0,0
				c0.287,0.126,0.533,0.318,0.592,0.565c0.072,0.309-0.063,0.668-0.233,1.013v0.005c-0.466,0.914-1.156,1.712-2.008,2.299
				c-0.448,0.305-0.95,0.533-1.474,0.672c0,0-0.014,0.005-0.023,0.009c-0.107,0.04-0.363,0.063-0.524,0.305
				c-0.009,0.018-0.018,0.036-0.027,0.058c-0.054,0.152,0.009,0.318,0.085,0.412c0.072,0.085,0.153,0.139,0.224,0.175l0.014,0.005
				c0.439,0.255,0.923,0.363,1.362,0.475c0.005,0,0.005,0.004,0.005,0.004c0.318,0.067,0.614,0.108,0.852,0.211
				c0.009,0.018,0.036,0.099,0.09,0.233c0.081,0.242,0.117,0.524,0.206,0.825c0.027,0.081,0.099,0.148,0.184,0.166
				c0.202,0.045,0.309-0.023,0.327-0.027c0.009,0,0.018,0,0.027,0c0.735-0.13,1.474-0.242,2.151-0.076l0,0
				c0.708,0.188,1.327,0.677,2.021,1.093v0.005l0,0c0.462,0.287,0.995,0.569,1.613,0.591l0,0h0.005
				c0.466,0.027,0.919-0.004,1.367-0.031c0,0,0.005,0,0.009,0c0.381-0.036,0.749-0.166,1.076-0.368
				c0.005-0.004,0.009-0.009,0.014-0.009c0.731-0.417,1.376-0.914,2.089-1.228h0.005c0.229-0.081,0.52-0.076,0.838-0.098h0.009
				c0.592-0.018,1.179,0.013,1.766,0.09c0.018,0.005,0.04,0.005,0.058,0c0.081-0.009,0.161-0.063,0.202-0.112
				c0.045-0.049,0.054-0.094,0.063-0.125c0.018-0.058,0.031-0.085,0.005-0.036c0.009-0.018,0.018-0.032,0.022-0.049
				c0.108-0.354,0.166-0.672,0.341-0.869c0.076-0.076,0.211-0.112,0.363-0.112c0,0,0.022,0,0.031,0
				c0.511-0.058,0.968-0.242,1.403-0.395c0.005-0.004,0.014-0.004,0.018-0.004c0.161-0.072,0.404-0.152,0.569-0.381c0,0,0,0,0-0.004
				l0,0C170.015,166.235,169.948,165.971,169.756,165.854L169.756,165.854z"/>
		</g>
		
			<ellipse id="XMLID_14424_" transform="matrix(0.264 -0.9645 0.9645 0.264 73.7804 325.5697)" style="fill:#27DEBF;" cx="250.212" cy="114.442" rx="26.073" ry="26.073"/>
		<g>
			<g>
				<path id="XMLID_14423_" style="opacity:0.5;fill:#27DEBF;" d="M276.28,114.248v0.198c0,14.391-11.673,26.064-26.064,26.064
					c-14.403,0-26.076-11.673-26.076-26.064c0-5.015,1.421-9.709,3.866-13.687c-0.358,1.692-0.556,3.459-0.556,5.275
					c0,13.872,11.241,25.101,25.101,25.101C263.545,131.134,272.883,124.081,276.28,114.248z"/>
				<path id="XMLID_27_" style="opacity:0.1;fill:#27DEBF;" d="M276.28,114.248v0.198c0,14.391-11.673,26.064-26.064,26.064
					c-14.403,0-26.076-11.673-26.076-26.064c0-5.015,1.421-9.709,3.866-13.687c-0.358,1.692-0.556,3.459-0.556,5.275
					c0,13.872,11.241,25.101,25.101,25.101C263.545,131.134,272.883,124.081,276.28,114.248z"/>
			</g>
			<g style="opacity:0.1;">
				<path id="XMLID_30_" style="opacity:0.5;" d="M276.28,114.248v0.198c0,14.391-11.673,26.064-26.064,26.064
					c-14.403,0-26.076-11.673-26.076-26.064c0-5.015,1.421-9.709,3.866-13.687c-0.358,1.692-0.556,3.459-0.556,5.275
					c0,13.872,11.241,25.101,25.101,25.101C263.545,131.134,272.883,124.081,276.28,114.248z"/>
				<path id="XMLID_29_" style="opacity:0.1;" d="M276.28,114.248v0.198c0,14.391-11.673,26.064-26.064,26.064
					c-14.403,0-26.076-11.673-26.076-26.064c0-5.015,1.421-9.709,3.866-13.687c-0.358,1.692-0.556,3.459-0.556,5.275
					c0,13.872,11.241,25.101,25.101,25.101C263.545,131.134,272.883,124.081,276.28,114.248z"/>
			</g>
		</g>
		<g id="XMLID_14426_">
			<g id="XMLID_14428_">
				<path id="XMLID_14431_" style="fill-rule:evenodd;clip-rule:evenodd;fill:#FFFFFF;" d="M259.58,111.359
					c-0.121-4.8-4.076-8.654-8.943-8.654c-4.809,0-8.73,3.766-8.939,8.491c-0.004,0.13-0.008,0.26-0.008,0.389
					c0,1.68,0.469,3.247,1.282,4.587l-1.613,4.763l4.956-1.575c1.282,0.704,2.756,1.106,4.323,1.106
					c4.943,0,8.948-3.975,8.948-8.881C259.585,111.51,259.585,111.435,259.58,111.359z M250.637,119.05
					c-1.529,0-2.949-0.452-4.139-1.236l-2.89,0.922l0.938-2.773c-0.901-1.232-1.433-2.744-1.433-4.377
					c0-0.243,0.013-0.486,0.038-0.725c0.369-3.779,3.586-6.74,7.486-6.74c3.95,0,7.197,3.037,7.498,6.882
					c0.017,0.193,0.025,0.385,0.025,0.582C258.16,115.703,254.784,119.05,250.637,119.05z"/>
				<path id="XMLID_14430_" style="fill-rule:evenodd;clip-rule:evenodd;fill:#FFFFFF;" d="M254.738,113.378
					c-0.222-0.109-1.299-0.637-1.5-0.708c-0.201-0.075-0.348-0.109-0.495,0.109c-0.146,0.218-0.57,0.708-0.695,0.85
					c-0.13,0.147-0.255,0.163-0.477,0.054c-0.218-0.109-0.926-0.335-1.764-1.081c-0.649-0.574-1.093-1.286-1.219-1.504
					c-0.126-0.218-0.012-0.335,0.096-0.444c0.1-0.1,0.218-0.256,0.331-0.381c0.03-0.038,0.054-0.071,0.08-0.105
					c0.05-0.08,0.088-0.155,0.138-0.26c0.076-0.146,0.038-0.272-0.017-0.381s-0.494-1.181-0.679-1.617
					c-0.18-0.435-0.364-0.36-0.494-0.36c-0.126,0-0.272-0.021-0.419-0.021c-0.147,0-0.385,0.054-0.586,0.272
					c-0.201,0.218-0.767,0.746-0.767,1.818c0,0.251,0.046,0.503,0.113,0.742c0.222,0.766,0.7,1.399,0.783,1.508
					c0.109,0.142,1.516,2.413,3.745,3.288c2.233,0.867,2.233,0.578,2.635,0.54c0.402-0.034,1.299-0.524,1.479-1.035
					c0.184-0.507,0.184-0.943,0.13-1.035C255.102,113.542,254.955,113.487,254.738,113.378z"/>
			</g>
		</g>
	</g>
</g>
<g id="Speech_Bubbles">
	<g>
		<g>
			<path id="XMLID_14551_" style="fill:#27DEBF;" d="M404.555,210.696c0,6.748-4.103,14.588-9.164,17.51
				c-5.061,2.922-9.164-0.18-9.164-6.928s4.103-14.588,9.164-17.51C400.452,200.846,404.555,203.948,404.555,210.696z"/>
			<path id="XMLID_14_" style="opacity:0.2;" d="M404.555,210.696c0,6.748-4.103,14.588-9.164,17.51
				c-5.061,2.922-9.164-0.18-9.164-6.928s4.103-14.588,9.164-17.51C400.452,200.846,404.555,203.948,404.555,210.696z"/>
		</g>
		<g>
			<polygon id="XMLID_14546_" style="fill:#27DEBF;" points="394.251,231.494 389.445,228.718 401.456,203.298 406.295,206.126 			
				"/>
			<polygon id="XMLID_15_" style="opacity:0.2;" points="394.251,231.494 389.445,228.718 401.456,203.298 406.295,206.126 			"/>
		</g>
		<g>
			<polygon id="XMLID_14548_" style="fill:#27DEBF;" points="400.015,235.998 395.194,233.225 395.139,230.626 400.015,230.626 			
				"/>
		</g>
		<polygon id="XMLID_16_" style="fill:#27DEBF;" points="400.015,235.998 395.194,233.225 395.139,230.626 400.015,230.626 		"/>
		<g>
			<polygon id="XMLID_17_" style="fill:#27DEBF;" points="400.015,235.998 395.194,233.225 395.139,230.626 400.015,230.626 			"/>
			<polygon id="XMLID_18_" style="opacity:0.2;" points="400.015,235.998 395.194,233.225 395.139,230.626 400.015,230.626 			"/>
		</g>
		<path id="XMLID_14549_" style="fill:#27DEBF;" d="M398.132,231.887l1.789,3.999c0.118,0.263,0.499,0.238,0.581-0.039l1.895-6.423
			v-2.463l-4.266,2.463V231.887z"/>
		<g>
			<path id="XMLID_14589_" style="fill:#27DEBF;" d="M393.258,229.073l1.789,3.999c0.118,0.263,0.5,0.238,0.581-0.039l1.895-6.423
				v-2.463l-4.266,2.463V229.073z"/>
			<path id="XMLID_19_" style="opacity:0.2;" d="M393.258,229.073l1.789,3.999c0.118,0.263,0.5,0.238,0.581-0.039l1.895-6.423
				v-2.463l-4.266,2.463V229.073z"/>
		</g>
		<path id="XMLID_14552_" style="fill:#27DEBF;" d="M409.429,213.511c0,6.749-4.103,14.588-9.164,17.51
			c-5.061,2.922-9.164-0.18-9.164-6.928s4.103-14.588,9.164-17.51C405.326,203.661,409.429,206.763,409.429,213.511z"/>
		<path id="XMLID_14609_" style="fill:#FFFFFF;" d="M404.481,215.866c0.397-0.33,0.705-0.954,0.705-1.512
			c0-0.631-0.387-0.923-0.86-0.65l-2.552,1.473c0.089-0.148,0.161-0.315,0.204-0.487l0.148-0.59
			c0.256-1.022,0.374-2.026,0.347-2.948c-0.014-0.476-0.313-0.687-0.677-0.477c-0.301,0.174-0.566,0.592-0.65,1.025l-0.272,1.404
			c-0.024,0.123-0.063,0.248-0.116,0.368l-1.699,3.893c-0.007,0.014-1.123,1.566-1.123,2.301v4.593c0,0.324,0.491,0.475,0.734,0.335
			l3.171-1.747l0,0l2.13-1.188c0.398-0.229,0.759-0.851,0.759-1.38c0-0.423-0.192-0.652-0.478-0.615
			c0.351-0.29,0.632-0.841,0.632-1.332c0-0.301-0.1-0.504-0.259-0.598c0.269-0.324,0.461-0.793,0.461-1.214
			C405.087,216.027,404.826,215.781,404.481,215.866z"/>
		<path id="XMLID_14545_" style="fill:#FFFFFF;" d="M394.786,227.47l2.042-1.224c0.179-0.103,0.248-0.383,0.248-0.621v-5.717
			c0-0.238-0.177-0.349-0.356-0.246l-1.919,1.223c-0.179,0.103-0.125,0.383-0.125,0.622v5.717
			C394.676,227.463,394.607,227.574,394.786,227.47z"/>
	</g>
	<g>
		<g>
			<g id="XMLID_14618_">
				<path id="XMLID_14619_" style="fill:#27DEBF;" d="M98.186,210.696c0,6.748,4.103,14.588,9.164,17.51
					c5.061,2.922,9.164-0.18,9.164-6.928s-4.103-14.588-9.164-17.51C102.289,200.846,98.186,203.948,98.186,210.696z"/>
			</g>
			<g id="XMLID_1_" style="opacity:0.2;">
				<path id="XMLID_2_" d="M98.186,210.696c0,6.748,4.103,14.588,9.164,17.51c5.061,2.922,9.164-0.18,9.164-6.928
					s-4.103-14.588-9.164-17.51C102.289,200.846,98.186,203.948,98.186,210.696z"/>
			</g>
		</g>
		<g>
			<polygon id="XMLID_14617_" style="fill:#27DEBF;" points="108.49,231.494 113.296,228.718 101.284,203.298 96.445,206.126 			"/>
			<polygon id="XMLID_3_" style="opacity:0.2;" points="108.49,231.494 113.296,228.718 101.284,203.298 96.445,206.126 			"/>
		</g>
		<polygon id="XMLID_14616_" style="fill:#27DEBF;" points="102.726,235.998 107.547,233.225 107.601,230.626 102.726,230.626 		"/>
		<g>
			<polygon id="XMLID_10_" style="fill:#27DEBF;" points="102.726,235.998 107.547,233.225 107.601,230.626 102.726,230.626 			"/>
			<polygon id="XMLID_11_" style="opacity:0.2;fill:#FFFFFF;" points="102.726,235.998 107.547,233.225 107.601,230.626 
				102.726,230.626 			"/>
		</g>
		<g id="XMLID_14614_">
			<path id="XMLID_14615_" style="fill:#27DEBF;" d="M104.608,231.887l-1.789,3.999c-0.118,0.263-0.499,0.238-0.581-0.039
				l-1.895-6.423v-2.463l4.265,2.463V231.887z"/>
		</g>
		<g>
			<g id="XMLID_14612_">
				<path id="XMLID_14613_" style="fill:#27DEBF;" d="M109.483,229.073l-1.789,3.999c-0.118,0.263-0.499,0.238-0.581-0.039
					l-1.895-6.423v-2.463l4.266,2.463V229.073z"/>
			</g>
			<g id="XMLID_12_" style="opacity:0.2;">
				<path id="XMLID_13_" style="fill:#FFFFFF;" d="M109.483,229.073l-1.789,3.999c-0.118,0.263-0.499,0.238-0.581-0.039
					l-1.895-6.423v-2.463l4.266,2.463V229.073z"/>
			</g>
		</g>
		<path id="XMLID_14574_" style="fill:#27DEBF;" d="M93.292,213.5c0,6.762,4.112,14.618,9.183,17.547
			c5.072,2.928,9.184-0.18,9.184-6.943s-4.112-14.618-9.184-17.547C97.404,203.629,93.292,206.738,93.292,213.5z"/>
		<g>
			<path id="XMLID_14622_" style="fill:#27DEBF;" d="M108.745,222.314c0,1.884-0.492,3.408-1.32,4.392
				c-1.152,1.38-2.94,1.716-4.944,0.552c-2.016-1.164-3.804-3.576-4.956-6.276c-0.828-1.944-1.32-4.032-1.32-5.916L108.745,222.314z
				"/>
			<path id="XMLID_8_" style="opacity:0.3;" d="M108.745,222.314c0,1.884-0.492,3.408-1.32,4.392
				c-1.152,1.38-2.94,1.716-4.944,0.552c-2.016-1.164-3.804-3.576-4.956-6.276c-0.828-1.944-1.32-4.032-1.32-5.916L108.745,222.314z
				"/>
		</g>
		<g>
			<path id="XMLID_14620_" style="fill:#27DEBF;" d="M107.425,226.706c-1.152,1.38-2.94,1.716-4.944,0.552
				c-2.016-1.164-3.804-3.576-4.956-6.276c1.284-0.924,3.036-0.936,4.956,0.168C104.389,222.254,106.141,224.282,107.425,226.706z"
				/>
			<path id="XMLID_9_" style="opacity:0.2;fill:#FFFFFF;" d="M107.425,226.706c-1.152,1.38-2.94,1.716-4.944,0.552
				c-2.016-1.164-3.804-3.576-4.956-6.276c1.284-0.924,3.036-0.936,4.956,0.168C104.389,222.254,106.141,224.282,107.425,226.706z"
				/>
		</g>
		<g>
			<g id="XMLID_14556_">
				<path id="XMLID_14591_" style="fill:#27DEBF;" d="M108.299,219.428c-0.131,0-0.262-0.048-0.364-0.145l-3.266-3.091
					c-0.151-0.143-0.205-0.362-0.136-0.559c0.068-0.197,0.246-0.336,0.454-0.354l2.518-0.225c0.272-0.032,0.548,0.188,0.575,0.48
					c0.026,0.292-0.19,0.55-0.482,0.575l-1.346,0.121l2.412,2.283c0.212,0.201,0.221,0.537,0.021,0.749
					C108.581,219.373,108.44,219.428,108.299,219.428z"/>
			</g>
			<g id="XMLID_6_" style="opacity:0.2;">
				<path id="XMLID_7_" d="M108.299,219.428c-0.131,0-0.262-0.048-0.364-0.145l-3.266-3.091c-0.151-0.143-0.205-0.362-0.136-0.559
					c0.068-0.197,0.246-0.336,0.454-0.354l2.518-0.225c0.272-0.032,0.548,0.188,0.575,0.48c0.026,0.292-0.19,0.55-0.482,0.575
					l-1.346,0.121l2.412,2.283c0.212,0.201,0.221,0.537,0.021,0.749C108.581,219.373,108.44,219.428,108.299,219.428z"/>
			</g>
		</g>
		<g>
			<g id="XMLID_14555_">
				<path id="XMLID_14560_" style="fill:#27DEBF;" d="M100.034,213.45c-0.035,0-0.072-0.004-0.108-0.011l-3.266-0.678
					c-0.287-0.06-0.471-0.34-0.411-0.627c0.06-0.286,0.335-0.473,0.627-0.411l1.819,0.378l-1.593-1.98
					c-0.183-0.229-0.146-0.562,0.082-0.745c0.226-0.183,0.56-0.148,0.745,0.081l2.518,3.132c0.139,0.175,0.156,0.418,0.039,0.609
					C100.389,213.356,100.216,213.45,100.034,213.45z"/>
			</g>
			<g id="XMLID_4_" style="opacity:0.2;">
				<path id="XMLID_5_" d="M100.034,213.45c-0.035,0-0.072-0.004-0.108-0.011l-3.266-0.678c-0.287-0.06-0.471-0.34-0.411-0.627
					c0.06-0.286,0.335-0.473,0.627-0.411l1.819,0.378l-1.593-1.98c-0.183-0.229-0.146-0.562,0.082-0.745
					c0.226-0.183,0.56-0.148,0.745,0.081l2.518,3.132c0.139,0.175,0.156,0.418,0.039,0.609
					C100.389,213.356,100.216,213.45,100.034,213.45z"/>
			</g>
		</g>
	</g>
</g>
<g id="Character_2">
	<g id="XMLID_14629_">
		<g id="XMLID_8360_">
			<path id="XMLID_14748_" style="fill:#F28F8F;" d="M379.88,289.1c0.458,1.152,3.326,7.216,7.147,4.319
				c4.609-3.494,10.401-19.321,10.401-19.321l-4.254-1.971l-8.164,13.241L379.88,289.1"/>
			<path id="XMLID_14664_" style="fill:#F28F8F;" d="M380.149,263.576c2.036,6.84,6.143,22.079,6.143,22.079s-1.698,9.295-4.688,6.1
				c-1.019-1.089-1.537-2.086-2.591-4.684c-0.947-2.337-3.758-11.878-3.758-11.878s0.608-13.715-1.534-15.526
				c-2.142-1.811-3.932-2.356-3.932-2.356C373.201,257.578,378.284,257.31,380.149,263.576z"/>
			<path id="XMLID_14787_" style="fill:#37474F;" d="M369.752,257.279c0,0,3.152-0.186,5.146,0.285
				c1.994,0.472,4.163,2.338,5.137,5.654c0.973,3.316,5.152,18.369,5.152,18.369s-1.694,2.985-8.118,3.063L369.752,257.279z"/>
			<path id="XMLID_14761_" style="fill:#263238;" d="M389.737,264.56c1.13-2.104,1.41-2.196,2.082-2.658
				c0.672-0.462,4.796-1.077,6.507-1.221c2.014-0.17,2.728,0.2,2.168,1.932c-1.198,3.705-4.831,11.573-5.645,12.659
				c-0.534,0.711-0.643,1.373-2.906,1.594c-2.115,0.206-4.766,0.322-5.547,0.369c-0.781,0.047-1.86,0.241-1.161-2.056
				s2.351-6.026,3.091-7.631C389.198,265.658,389.737,264.56,389.737,264.56z"/>
			<path id="XMLID_14786_" style="fill:#F28F8F;" d="M397.428,274.097c0.845-3.717,3.315-7.15,1.92-8.408l-0.75,1.645
				c0,0-4.627,1.11-6.862,0.939c-2.235-0.171-4.062-0.701-4.674-0.27c-1.297,0.914-1.669,4.808,2.046,6.223
				C392.266,275.428,397.428,274.097,397.428,274.097z"/>
		</g>
		<g id="XMLID_14665_">
			<path id="XMLID_14666_" style="fill:#263238;" d="M367.382,252.534h-3.905c-7.298,0-13.213-5.916-13.213-13.213v0
				c0-8.376,6.79-15.166,15.166-15.166l0,0c8.376,0,15.166,6.79,15.166,15.166v0C380.595,246.618,374.679,252.534,367.382,252.534z"
				/>
		</g>
		<path id="XMLID_14785_" style="fill:#263238;" d="M342.99,260.644L342.99,260.644c5.124,0,9.277-4.154,9.277-9.277v-17.594l0,0
			c-5.124,0-9.277,4.154-9.277,9.277V260.644z"/>
		<g id="XMLID_14660_">
			<path id="XMLID_14661_" style="fill:#263238;" d="M367.764,391.569c-0.035,0.645,0.033,1.123,0.532,2.099
				c0.603,1.18,2.215,3.2,3.465,4.543c1.853,1.991,4.624,4.343,6.608,6.076c1.104,0.964,1.146,2.42-0.433,2.932
				c-1.579,0.512-5.073,0.731-8.689-1.213c-1.97-1.059-4.781-5.954-6.423-6.695c-1.886-0.851-2.945-1.278-3.582-2.146
				c-0.953-1.299-1.199-2.274-0.385-3.79c0.889-1.654,2.224-4.207,2.775-3.922l-0.171,0.527c0.433,1.349,4.112,2.921,5.999,2.546
				L367.764,391.569z"/>
		</g>
		<path id="XMLID_14663_" style="fill:#FFA8A7;" d="M369.424,385.056c-0.905,2.929-1.521,5.258-1.657,6.538
			c0.044,1.109,0.044,1.109,0.527,2.075c0.604,1.175,2.218,3.195,3.47,4.546c0.9,0.966,2.021,2.021,3.163,3.042
			c0.11,0.176,0.165,0.34,0.165,0.483c0,1.032-2.515,1.307-3.986,0.878c-1.801-0.527-3.327-1.889-4.546-3.492
			c-0.845-1.131-2.756-3.305-3.964-4.93c-0.516-0.681-0.911-1.263-1.054-1.636c-0.428-1.065-0.307-1.823-0.154-2.339l0.077-0.242
			c0.651-2.026,1.052-4.121,1.197-6.244"/>
		<path id="XMLID_14695_" style="fill:#FFA8A7;" d="M351.978,393.824c0.314,1.899,0.471,3.82,0.471,5.745v4.257h6.314v-7.258
			c0.033-0.011,0.066-0.022,0.088-0.044c0,0,0.105-1.428,0.28-3.66"/>
		<g id="XMLID_14659_">
			<path id="XMLID_14662_" style="fill:#37474F;" d="M369.424,385.056c3.484-11.279,11.247-31.462,12.31-35.001
				c1.131-3.777-0.483-36.804-1.406-47.378l-32.634-1.727c-2.504,10.717-0.066,25.168,0.791,34.194
				c0.835,8.785,1.867,19.051,1.867,19.051s-2.569,8.949-1.889,16.076c0.433,4.486,2.556,17.761,3.515,23.554
				c2.384,0.681,4.769,0.361,7.153-0.96c0.4-5.089,1.165-14.36,1.883-20.421c1.087-9.103,1.449-15.746,2.383-21.061
				c1.175-6.632,1.581-32.624,1.581-32.624l3.788,29.483c0,0-1.999,3.371-3.393,8.763c-1.084,4.19-2.247,19.925-2.712,26.731
				C364.323,384.89,366.597,385.308,369.424,385.056z"/>
		</g>
		<path id="XMLID_14708_" style="fill:#263238;" d="M364.978,318.76c0,0,6.009-2.107,9.431-5.25c0,0-2.33,4.023-7.047,6.162
			l-0.049,17.261L364.978,318.76"/>
		<g id="XMLID_14657_">
			<path id="XMLID_14658_" style="fill:#455A64;" d="M360.191,257.591c0,0-8.932,1.027-10.001,1.507
				c5.444,5.961,2.092,15.05,2.092,15.05l2.716,14.024c-3.572,4.572-6.632,8.163-7.487,13.612
				c3.827,6.743,25.204,7.886,33.083,2.861c-0.686-9.412-3.536-16.126-3.027-18.952c3.755-11.557,3.986-13.641,3.32-16.219
				c-1.875-7.256-9.272-12.164-11.098-12.164L360.191,257.591z"/>
		</g>
		<path id="XMLID_14626_" style="fill:#FFA8A7;" d="M334.095,289.086c-0.625-1.625,2.032-6.223,3.875-9.295l7.65,3.769l-2.63,4.777
			c0.246,1.107,3.445,9.379,5.517,13.035c0.367,0.648,0.975,1.123,1.679,1.363c1.891,0.643,2.804,1.545,4.351,2.553
			c1.211,0.789,2.098,0.848,2.046,1.201c-0.067,0.455-0.602,1.291-1.878,1.208c-0.642-0.042-1.527-0.329-2.637-0.719
			c0,0,1.166,1.863,3.363,3.553c2.977,2.29,3.488,4.006-1.168,5.145c-2.917,0.714-5.675-0.541-9.39-6.467
			c-1.07-1.707-2.476-4.214-3.6-6.507C338.616,297.279,335.538,292.839,334.095,289.086z"/>
		<path id="XMLID_14625_" style="fill:#455A64;" d="M350.19,259.098c-2.679,0.3-4.542,3.034-6.96,7.646
			c-2.115,4.034-7.193,14.609-7.193,14.609s3.245,4.597,8.957,5.172l7.288-12.376C352.282,274.148,356.248,264.287,350.19,259.098z"
			/>
		<g id="XMLID_14655_">
			<path id="XMLID_14656_" style="fill:#263238;" d="M358.766,400.715v-0.903c0.18,1.376,2.008,5.619,4.513,7.904
				c1.992,1.816,4.709,3.915,5.399,5.94c0.719,2.106-3.21,2.94-5.785,2.683c-3.014-0.301-5.366-2.112-6.481-3.391
				c-1.639-1.879-1.61-3.162-2.374-4.196c-0.764-1.034-2.526-2.189-2.94-3.386c-0.227-0.658,0.043-2.098,0.362-3.315
				c0.293-1.116,0.61-2.344,0.991-2.239c0.001,0.136,0,0.688,0,0.688c0.458,0.508,1.727,1.012,3.157,1.067
				C356.533,401.602,358.774,401.419,358.766,400.715z"/>
		</g>
		<g id="XMLID_14653_">
			<path id="XMLID_14654_" style="fill:#FFA8A7;" d="M352.453,400.5c0.458,0.508,1.727,1.012,3.156,1.067
				c0.924,0.035,3.165-0.148,3.157-0.852v-0.903c0.18,1.376,2.008,5.619,4.513,7.904c0.477,0.435,0.996,0.886,1.517,1.349
				c1.059,1.18,0.758,2.21-1.73,2.424c-2.489,0.215-4.678-1.288-6.567-3.605C354.611,405.565,352.453,400.5,352.453,400.5z"/>
		</g>
		<g id="XMLID_14651_">
			<path id="XMLID_14652_" style="fill:#FFA8A7;" d="M375.613,230.288c1.602,0.947,3.582,4.976,3.386,13.422
				c-0.165,7.158-2.486,8.927-3.651,9.437c-1.165,0.51-3.412,0.199-5.597-0.165v4.296c0,0,3.019,3.507,2.829,5.477
				c-0.19,1.97-4.359,2.435-7.185,0.511c-2.825-1.924-5.205-5.676-5.205-5.676l0.049-9.878c0,0-1.286,1.249-3.465-0.657
				c-1.8-1.574-2.406-4.227-1.004-5.65c1.402-1.424,3.995-1.036,4.988,0.994c0,0,1.214-3.372,6.246-5.016
				C371.553,235.897,374.024,234.186,375.613,230.288z"/>
		</g>
		<g id="XMLID_14649_">
			<path id="XMLID_14650_" style="fill:#263238;" d="M371.007,241.912c0.026,0.516-0.356,0.953-0.852,0.977
				c-0.497,0.024-0.92-0.375-0.946-0.891c-0.026-0.516,0.356-0.953,0.852-0.977C370.558,240.997,370.981,241.396,371.007,241.912z"
				/>
		</g>
		<g id="XMLID_14647_">
			<path id="XMLID_14648_" style="fill:#F28F8F;" d="M371.247,247.98l2.091,0.667c-0.174,0.598-0.782,0.934-1.36,0.75
				C371.401,249.213,371.074,248.579,371.247,247.98z"/>
		</g>
		<g id="XMLID_14645_">
			<path id="XMLID_14646_" style="fill:#263238;" d="M378.388,239.148l-1.821-1.262c0.332-0.52,1.01-0.659,1.513-0.31
				C378.582,237.924,378.72,238.628,378.388,239.148z"/>
		</g>
		<g id="XMLID_14643_">
			<path id="XMLID_14644_" style="fill:#263238;" d="M368.387,239.815l1.822-1.263c-0.332-0.52-1.01-0.659-1.513-0.31
				C368.193,238.59,368.055,239.294,368.387,239.815z"/>
		</g>
		<g id="XMLID_14637_">
			<path id="XMLID_14639_" style="fill:#263238;" d="M377.968,241.261c0.026,0.516-0.356,0.953-0.852,0.977
				c-0.496,0.024-0.92-0.376-0.946-0.891c-0.026-0.516,0.356-0.953,0.852-0.977C377.518,240.346,377.942,240.745,377.968,241.261z"
				/>
		</g>
		<g id="XMLID_14635_">
			<polygon id="XMLID_14636_" style="fill:#F28F8F;" points="373.721,240.746 373.864,246.165 376.716,245.281 			"/>
		</g>
		<g id="XMLID_14632_">
			<path id="XMLID_14634_" style="fill:#F28F8F;" d="M369.752,252.983c-2.302-0.302-7.038-1.662-7.777-3.535
				c0,0,0.246,1.177,1.661,2.389c1.415,1.213,6.116,2.579,6.116,2.579V252.983z"/>
		</g>
		<g id="XMLID_14630_">
			<polygon id="XMLID_14631_" style="fill:#37474F;" points="353.434,280.093 359.749,291.217 354.998,288.172 			"/>
		</g>
	</g>
</g>
<g id="Character_1">
	<g>
		<path id="XMLID_14543_" style="fill:#F28F8F;" d="M128.757,295.342c-0.531,1.336-3.856,8.367-8.287,5.008
			c-5.345-4.052-12.059-22.402-12.059-22.402l4.932-2.285l9.465,15.352L128.757,295.342"/>
		<path id="XMLID_14542_" style="fill:#F28F8F;" d="M128.445,265.748c-2.361,7.931-7.122,25.6-7.122,25.6s1.969,10.777,5.436,7.073
			c1.182-1.263,1.783-2.418,3.004-5.431c1.098-2.71,4.357-13.772,4.357-13.772s-0.704-15.901,1.778-18.002
			c2.483-2.1,4.559-2.732,4.559-2.732C136.501,258.794,130.608,258.483,128.445,265.748z"/>
		<path id="XMLID_14541_" style="fill:#263238;" d="M117.328,266.889c-1.311-2.44-1.635-2.547-2.414-3.082
			c-0.779-0.535-5.561-1.249-7.544-1.416c-2.335-0.197-3.163,0.232-2.514,2.24c1.389,4.296,5.601,13.419,6.545,14.677
			c0.619,0.825,0.746,1.592,3.369,1.848c2.452,0.239,5.526,0.373,6.432,0.428c0.905,0.054,2.157,0.279,1.346-2.383
			c-0.811-2.663-2.726-6.987-3.584-8.848C117.954,268.162,117.328,266.889,117.328,266.889z"/>
		<path id="XMLID_14466_" style="fill:#F28F8F;" d="M108.411,277.947c-0.979-4.31-3.844-8.29-2.226-9.749l0.87,1.907
			c0,0,5.365,1.287,7.956,1.089c2.591-0.198,4.71-0.813,5.419-0.313c1.504,1.059,1.935,5.575-2.372,7.215
			C114.396,279.49,108.411,277.947,108.411,277.947z"/>
		<path id="XMLID_14513_" style="fill:#37474F;" d="M140.831,257.07c-4.748,0.049-9.977,1.775-11.776,5.499
			c-1.799,3.723-5.871,19.942-5.871,19.942s3.629,3.875,10.285,3.443L140.831,257.07z"/>
		<g id="XMLID_14467_">
			<g id="XMLID_14471_">
				<g id="XMLID_14473_">
					<rect id="XMLID_14511_" x="154.861" y="394.16" style="fill:#FFA8A7;" width="6.567" height="9.564"/>
					
						<rect id="XMLID_14510_" x="131.929" y="382.434" transform="matrix(0.9994 -0.0344 0.0344 0.9994 -13.2335 4.8779)" style="fill:#FFA8A7;" width="6.567" height="9.564"/>
					<path id="XMLID_14509_" style="fill:#37474F;" d="M160.997,300.8c0,6.271,0.811,46.839,0.811,46.839
						c0.153,1.805,1.845,5.132,1.479,12.062c-0.497,9.415-1.311,35.569-1.311,35.569s-3.08,3.053-7.427,0
						c0,0-5.946-35.536-7.123-44.866c-1.027-8.143-2.769-30.263-2.769-30.263l-6.085,26.038c0,0,1.071,6.121,1.306,10.441
						c0.235,4.32-1.115,29.272-1.115,29.272s-3.338,2.307-7.146,0.273c0,0-5.276-36.457-5.953-40.359
						c-0.677-3.902,4.618-45.005,4.618-45.005H160.997z"/>
					<path id="XMLID_14507_" style="fill:#455A64;" d="M151.111,257.367c0.029,0.007,0.059,0.014,0.089,0.022
						c5.783,1.435,9.797,6.708,9.797,12.666v11.311V300.8c-4.605,5.01-20.66,7.344-30.716,0c0,0,0-26.897,0-32.013
						s2.842-11.26,10.69-11.717L151.111,257.367z"/>
					<g id="XMLID_14478_">
						<g id="XMLID_14494_">
							<path id="XMLID_14505_" style="fill:#263238;" d="M153.322,231.188c0,0,1.627-0.279,2.896,1.018
								c1.243,1.272,0.985,3.626-0.002,9.036l-3.843,0.441L153.322,231.188z"/>
							<path id="XMLID_14503_" style="fill:#263238;" d="M130.911,229.623c0,0-1.553,0.001-2.405-0.488
								c-1.18-0.677-1.488,0.663-0.841,1.828c0.647,1.165,1.854,2.682,4.46,2.97c0.035-0.167,1.103-3.002,1.103-3.002
								L130.911,229.623z"/>
							<path id="XMLID_14501_" style="fill:#FFA8A7;" d="M151.519,241.685c0.571,0.341,1.385-0.755,2.088-1.492
								c0.704-0.736,3.001-1.742,4.147,0.672c1.168,2.461-1.012,5.712-2.82,6.28c-3.117,0.978-3.585-1.021-3.585-1.021
								l-0.238,11.243c0,0-2.041,4.994-7.567,5.743c-5.526,0.749-4.388-3.807-2.573-6.04l0.009-3.422c0,0-2.824,0.429-4.202,0.216
								c-2.292-0.354-3.734-2.163-4.43-4.644c-1.117-3.985-1.541-7.203-0.593-15.041c1.038-8.59,11.03-8.68,16.426-5.284
								C153.576,232.292,151.519,241.685,151.519,241.685z"/>
							<path id="XMLID_14499_" style="fill:#263238;" d="M151.519,242.645c0.287,0.006,1.378-1.805,2.089-2.452
								c0.984-0.896-0.285-9.006-0.285-9.006s0.995-3.076-0.95-5.116c-1.945-2.04-5.715-1.696-8.471-1.795
								c-2.868-0.103-5.939-0.277-9.854-1.977c-3.915-1.701-4.207-1.902-4.693-0.183c-0.486,1.719-0.668,5.656,1.667,8.295
								l1.944,0.714c0,0,1.05,0.931,4.701,1.376c3.651,0.445,9.338-0.085,10.116-0.192c1.059-0.145,1.285,0.881,1.856,3.684
								C150.138,238.456,150.554,242.626,151.519,242.645z"/>
							<path id="XMLID_14497_" style="fill:#263238;" d="M153.316,231.818l3.45-1.852c-0.49-0.989-1.659-1.375-2.612-0.864
								S152.827,230.83,153.316,231.818z"/>
							<path id="XMLID_14495_" style="fill:#F28F8F;" d="M140.979,253.649c0,0,5.117-1.031,6.906-1.982
								c1.197-0.636,2.183-1.739,2.473-2.447c0,0-0.335,1.518-1.405,2.886c-1.308,1.672-7.973,2.904-7.973,2.904L140.979,253.649z"
								/>
						</g>
						<g id="XMLID_14481_">
							<path id="XMLID_14492_" style="fill:#263238;" d="M142.209,240.406c0,0.588,0.459,1.064,1.025,1.063
								c0.566-0.001,1.025-0.48,1.025-1.068c0-0.588-0.459-1.064-1.025-1.063C142.668,239.339,142.209,239.818,142.209,240.406z"/>
							<path id="XMLID_14490_" style="fill:#263238;" d="M143.296,236.535l2.194,1.211c0.323-0.63,0.094-1.412-0.511-1.746
								C144.373,235.665,143.62,235.904,143.296,236.535z"/>
							<path id="XMLID_14488_" style="fill:#F28F8F;" d="M141.443,247.489l-2.341,0.878c0.232,0.671,0.943,1.018,1.59,0.776
								C141.338,248.9,141.674,248.16,141.443,247.489z"/>
							<path id="XMLID_14487_" style="fill:#263238;" d="M133.065,237.388l2-1.541c-0.408-0.573-1.187-0.692-1.739-0.267
								C132.774,236.006,132.657,236.815,133.065,237.388z"/>
							<path id="XMLID_14485_" style="fill:#263238;" d="M133.681,240.114c0,0.588,0.459,1.064,1.025,1.062
								c0.566-0.002,1.025-0.48,1.025-1.068c0-0.588-0.459-1.064-1.025-1.063C134.14,239.047,133.681,239.525,133.681,240.114z"/>
							<polygon id="XMLID_14483_" style="fill:#F28F8F;" points="138.905,239.141 138.568,245.308 135.349,244.21 							"/>
						</g>
					</g>
					<path id="XMLID_14476_" style="fill:#263238;" d="M154.861,400.482v-0.939c-0.628,0.274-2.088,5.844-4.694,8.221
						c-2.071,1.889-4.897,4.072-5.616,6.178c-0.748,2.191,3.935,3.4,5.87,3.057c2.249-0.398,6.146-1.982,7.125-3.449
						c0.978-1.468,1.436-3.633,2.231-4.709c0.795-1.076,2.628-2.277,3.057-3.522c0.236-0.684-0.044-2.182-0.376-3.447
						c-0.304-1.161-0.634-2.438-1.031-2.329c-0.001,0.142,0,0.716,0,0.716c-0.477,0.528-1.796,1.053-3.283,1.11
						C157.184,401.406,154.853,401.215,154.861,400.482z"/>
					<path id="XMLID_14474_" style="fill:#263238;" d="M132.026,390.082c-0.341,0.012-0.619,0.493-1.371,1.307
						c-0.909,0.984-2.396,2.045-3.863,2.78c-2.459,1.231-7.24,3.125-9.404,4.099c-1.352,0.609-1.288,2.242,0.109,3.171
						c1.397,0.929,4.771,1.599,8.821,0.693c2.207-0.494,5.079-2.531,6.897-2.422c1.818,0.11,5.22,0.084,6.562-0.841
						c1.342-0.925,0.805-2.901,0.426-4.598c-0.414-1.853-1.006-4.688-1.62-4.561l0.02,0.583c-0.79,1.196-4.809,1.684-6.544,0.804
						L132.026,390.082z"/>
				</g>
			</g>
		</g>
		<path id="XMLID_14459_" style="fill:#FFA8A7;" d="M173.068,296.206c0.408-1.977-4.008-21.56-5.743-27.751l-7.664,8.956
			l4.717,19.328c-0.072,1.312-2.171,11.379-3.851,15.953c-0.298,0.81-0.903,1.469-1.664,1.876c-2.042,1.093-2.916,2.297-4.495,3.742
			c-1.236,1.131-2.24,1.366-2.114,1.76c0.162,0.507,0.932,1.364,2.376,1.027c0.727-0.169,1.684-0.664,2.881-1.32
			c0,0-0.982,2.352-3.176,4.699c-2.974,3.182-3.234,5.241,2.308,5.665c3.472,0.265,6.39-1.691,9.521-9.171
			c0.902-2.155,2.038-5.288,2.89-8.124C171.07,306.143,172.125,300.772,173.068,296.206z"/>
		<path id="XMLID_14417_" style="fill:#455A64;" d="M153.193,258.066c3.902,1.286,11.639,1.947,14.132,10.389
			c2.493,8.442,3.753,13.923,3.753,13.923c-1.467,1.962-7.327,4.235-10.082,3.397L153.193,258.066z"/>
		<polygon id="XMLID_14327_" style="fill:#37474F;" points="160.997,285.775 158.325,276.288 160.997,289.631 		"/>
		<path id="XMLID_14419_" style="fill:#263238;" d="M144.656,320.14c0,0-5.249-1.479-9.145-5.243c0,0,1.764,3.304,7.012,6.379
			l-1.972,16.791L144.656,320.14z"/>
	</g>
</g>
</svg>
